  0
SECTION
  2
HEADER
  9
$ANGBASE
  50
0.0
  9
$ANGDIR
  70
1
  9
$MEASUREMENT
  70
0
  0
ENDSEC
  0
SECTION
  2
TABLES
  0
TABLE
  2
LTYPE
  70
4
  0
LTYPE
  5
40F
  2
CONTINUOUS
  70
0
  3
Solid line
  72
65
  73
0
  40
0.0
  0
LTYPE
  5
410
  2
DASHDOT
 70
0
  3
Dash Dot ____ _ ____ _
 72
65
 73
4
 40
2.0
 49
1.25
 49
-0.25
 49
0.25
 49
-0.25
  0
LTYPE
  5
411
  2
DASHED
 70
0
  3
Dashed __ __ __ __ __
 72
65
 73
2
 40
0.75
 49
0.5
 49
-0.25
  0
LTYPE
  5
43B
  2
DOTTED
 70
0
  3
Dotted .  .  .  .
 72
65
 73
2
 40
0.2
 49
0.0
 49
-0.2
  0
ENDTAB
  0
TABLE
  2
STYLE
  70
4
  0
STYLE
  2
KICAD
  70
0
  40
0
  41
1
  42
1
  50
0
  71
0
  3
isocp.shx
  0
STYLE
  2
KICADB
  70
0
  40
0
  41
1
  42
1
  50
0
  71
0
  3
isocp.shx
  0
STYLE
  2
KICADI
  70
0
  40
0
  41
1
  42
1
  50
15
  71
0
  3
isocp.shx
  0
STYLE
  2
KICADBI
  70
0
  40
0
  41
1
  42
1
  50
15
  71
0
  3
isocp.shx
  0
ENDTAB
  0
TABLE
  2
LAYER
  70
1
  0
LAYER
  2
BLACK
  70
0
  62
7
  6
CONTINUOUS
  0
ENDTAB
  0
ENDSEC
  0
SECTION
  2
ENTITIES
0
LINE
8
BLACK
6
CONTINUOUS
10
10.6023
20
-0.598102
11
10.603
21
-0.6
0
LINE
8
BLACK
6
CONTINUOUS
10
10.603
20
-0.6
11
10.603
21
-9.125
0
LINE
8
BLACK
6
CONTINUOUS
10
10.603
20
-9.125
11
10.6028
21
-9.12601
0
LINE
8
BLACK
6
CONTINUOUS
10
10.6028
20
-9.12601
11
10.6015
21
-9.12756
0
LINE
8
BLACK
6
CONTINUOUS
10
10.6015
20
-9.12756
11
10.5995
21
-9.12791
0
LINE
8
BLACK
6
CONTINUOUS
10
10.5995
20
-9.12791
11
10.5977
21
-9.1269
0
LINE
8
BLACK
6
CONTINUOUS
10
10.5977
20
-9.1269
11
10.597
21
-9.125
0
LINE
8
BLACK
6
CONTINUOUS
10
10.597
20
-9.125
11
10.597
21
-0.6
0
LINE
8
BLACK
6
CONTINUOUS
10
10.597
20
-0.6
11
10.5972
21
-0.59899
0
LINE
8
BLACK
6
CONTINUOUS
10
10.5972
20
-0.59899
11
10.5985
21
-0.597443
0
LINE
8
BLACK
6
CONTINUOUS
10
10.5985
20
-0.597443
11
10.6005
21
-0.597092
0
LINE
8
BLACK
6
CONTINUOUS
10
10.6005
20
-0.597092
11
10.6023
21
-0.598102
0
LINE
8
BLACK
6
CONTINUOUS
10
10.425
20
-1.02303
11
10.4264
21
-1.02361
0
LINE
8
BLACK
6
CONTINUOUS
10
10.4264
20
-1.02361
11
10.427
21
-1.025
0
LINE
8
BLACK
6
CONTINUOUS
10
10.427
20
-1.025
11
10.427
21
-8.45
0
LINE
8
BLACK
6
CONTINUOUS
10
10.427
20
-8.45
11
10.4264
21
-8.45139
0
LINE
8
BLACK
6
CONTINUOUS
10
10.4264
20
-8.45139
11
10.425
21
-8.45197
0
LINE
8
BLACK
6
CONTINUOUS
10
10.425
20
-8.45197
11
10.277
21
-8.45197
0
LINE
8
BLACK
6
CONTINUOUS
10
10.277
20
-8.45197
11
10.277
21
-8.6
0
LINE
8
BLACK
6
CONTINUOUS
10
10.277
20
-8.6
11
10.2764
21
-8.60139
0
LINE
8
BLACK
6
CONTINUOUS
10
10.2764
20
-8.60139
11
10.275
21
-8.60197
0
LINE
8
BLACK
6
CONTINUOUS
10
10.275
20
-8.60197
11
7.27205
21
-8.60197
0
LINE
8
BLACK
6
CONTINUOUS
10
7.27205
20
-8.60197
11
7.27205
21
-8.63848
0
LINE
8
BLACK
6
CONTINUOUS
10
7.27205
20
-8.63848
11
7.27136
21
-8.64015
0
LINE
8
BLACK
6
CONTINUOUS
10
7.27136
20
-8.64015
11
7.26969
21
-8.64085
0
LINE
8
BLACK
6
CONTINUOUS
10
7.26969
20
-8.64085
11
7.26801
21
-8.64015
0
LINE
8
BLACK
6
CONTINUOUS
10
7.26801
20
-8.64015
11
7.26732
21
-8.63848
0
LINE
8
BLACK
6
CONTINUOUS
10
7.26732
20
-8.63848
11
7.26732
21
-8.60197
0
LINE
8
BLACK
6
CONTINUOUS
10
7.26732
20
-8.60197
11
1
21
-8.60197
0
LINE
8
BLACK
6
CONTINUOUS
10
1
20
-8.60197
11
0.998608
21
-8.60139
0
LINE
8
BLACK
6
CONTINUOUS
10
0.998608
20
-8.60139
11
0.998031
21
-8.6
0
LINE
8
BLACK
6
CONTINUOUS
10
0.998031
20
-8.6
11
0.998031
21
-8.45197
0
LINE
8
BLACK
6
CONTINUOUS
10
0.998031
20
-8.45197
11
0.85
21
-8.45197
0
LINE
8
BLACK
6
CONTINUOUS
10
0.85
20
-8.45197
11
0.848608
21
-8.45139
0
LINE
8
BLACK
6
CONTINUOUS
10
0.848608
20
-8.45139
11
0.848031
21
-8.45
0
LINE
8
BLACK
6
CONTINUOUS
10
0.848031
20
-8.45
11
0.848031
21
-1.025
0
LINE
8
BLACK
6
CONTINUOUS
10
0.848031
20
-1.025
11
0.848608
21
-1.02361
0
LINE
8
BLACK
6
CONTINUOUS
10
0.848608
20
-1.02361
11
0.85
21
-1.02303
0
LINE
8
BLACK
6
CONTINUOUS
10
0.85
20
-1.02303
11
0.998031
21
-1.02303
0
LINE
8
BLACK
6
CONTINUOUS
10
0.998031
20
-1.02303
11
0.998031
21
-0.875
0
LINE
8
BLACK
6
CONTINUOUS
10
0.998031
20
-0.875
11
0.998608
21
-0.873608
0
LINE
8
BLACK
6
CONTINUOUS
10
0.998608
20
-0.873608
11
1
21
-0.873031
0
LINE
8
BLACK
6
CONTINUOUS
10
1
20
-0.873031
11
10.275
21
-0.873031
0
LINE
8
BLACK
6
CONTINUOUS
10
10.275
20
-0.873031
11
10.2764
21
-0.873608
0
LINE
8
BLACK
6
CONTINUOUS
10
10.2764
20
-0.873608
11
10.277
21
-0.875
0
LINE
8
BLACK
6
CONTINUOUS
10
10.277
20
-0.875
11
10.277
21
-1.02303
0
LINE
8
BLACK
6
CONTINUOUS
10
10.277
20
-1.02303
11
10.425
21
-1.02303
0
LINE
8
BLACK
6
CONTINUOUS
10
0.851969
20
-8.44803
11
1
21
-8.44803
0
LINE
8
BLACK
6
CONTINUOUS
10
1
20
-8.44803
11
1.00139
21
-8.44861
0
LINE
8
BLACK
6
CONTINUOUS
10
1.00139
20
-8.44861
11
1.00197
21
-8.45
0
LINE
8
BLACK
6
CONTINUOUS
10
1.00197
20
-8.45
11
1.00197
21
-8.59803
0
LINE
8
BLACK
6
CONTINUOUS
10
1.00197
20
-8.59803
11
7.26732
21
-8.59803
0
LINE
8
BLACK
6
CONTINUOUS
10
7.26732
20
-8.59803
11
7.26732
21
-7.41522
0
LINE
8
BLACK
6
CONTINUOUS
10
7.26732
20
-7.41522
11
5.9405
21
-8.53399
0
LINE
8
BLACK
6
CONTINUOUS
10
5.9405
20
-8.53399
11
5.93878
21
-8.53454
0
LINE
8
BLACK
6
CONTINUOUS
10
5.93878
20
-8.53454
11
5.93717
21
-8.53371
0
LINE
8
BLACK
6
CONTINUOUS
10
5.93717
20
-8.53371
11
5.93662
21
-8.53198
0
LINE
8
BLACK
6
CONTINUOUS
10
5.93662
20
-8.53198
11
5.93745
21
-8.53038
0
LINE
8
BLACK
6
CONTINUOUS
10
5.93745
20
-8.53038
11
7.26602
21
-7.41014
0
LINE
8
BLACK
6
CONTINUOUS
10
7.26602
20
-7.41014
11
5.93745
21
-6.2899
0
LINE
8
BLACK
6
CONTINUOUS
10
5.93745
20
-6.2899
11
5.93662
21
-6.28829
0
LINE
8
BLACK
6
CONTINUOUS
10
5.93662
20
-6.28829
11
5.93717
21
-6.28657
0
LINE
8
BLACK
6
CONTINUOUS
10
5.93717
20
-6.28657
11
5.93878
21
-6.28574
0
LINE
8
BLACK
6
CONTINUOUS
10
5.93878
20
-6.28574
11
5.9405
21
-6.28628
0
LINE
8
BLACK
6
CONTINUOUS
10
5.9405
20
-6.28628
11
7.26732
21
-7.40506
0
LINE
8
BLACK
6
CONTINUOUS
10
7.26732
20
-7.40506
11
7.26732
21
-6.18179
0
LINE
8
BLACK
6
CONTINUOUS
10
7.26732
20
-6.18179
11
7.26801
21
-6.18012
0
LINE
8
BLACK
6
CONTINUOUS
10
7.26801
20
-6.18012
11
7.26969
21
-6.17943
0
LINE
8
BLACK
6
CONTINUOUS
10
7.26969
20
-6.17943
11
7.27136
21
-6.18012
0
LINE
8
BLACK
6
CONTINUOUS
10
7.27136
20
-6.18012
11
7.27205
21
-6.18179
0
LINE
8
BLACK
6
CONTINUOUS
10
7.27205
20
-6.18179
11
7.27205
21
-7.40506
0
LINE
8
BLACK
6
CONTINUOUS
10
7.27205
20
-7.40506
11
8.59887
21
-6.28628
0
LINE
8
BLACK
6
CONTINUOUS
10
8.59887
20
-6.28628
11
8.60059
21
-6.28574
0
LINE
8
BLACK
6
CONTINUOUS
10
8.60059
20
-6.28574
11
8.6022
21
-6.28657
0
LINE
8
BLACK
6
CONTINUOUS
10
8.6022
20
-6.28657
11
8.60275
21
-6.28829
0
LINE
8
BLACK
6
CONTINUOUS
10
8.60275
20
-6.28829
11
8.60192
21
-6.2899
0
LINE
8
BLACK
6
CONTINUOUS
10
8.60192
20
-6.2899
11
7.27335
21
-7.41014
0
LINE
8
BLACK
6
CONTINUOUS
10
7.27335
20
-7.41014
11
8.60192
21
-8.53038
0
LINE
8
BLACK
6
CONTINUOUS
10
8.60192
20
-8.53038
11
8.60275
21
-8.53198
0
LINE
8
BLACK
6
CONTINUOUS
10
8.60275
20
-8.53198
11
8.6022
21
-8.53371
0
LINE
8
BLACK
6
CONTINUOUS
10
8.6022
20
-8.53371
11
8.60059
21
-8.53454
0
LINE
8
BLACK
6
CONTINUOUS
10
8.60059
20
-8.53454
11
8.59887
21
-8.53399
0
LINE
8
BLACK
6
CONTINUOUS
10
8.59887
20
-8.53399
11
7.27205
21
-7.41522
0
LINE
8
BLACK
6
CONTINUOUS
10
7.27205
20
-7.41522
11
7.27205
21
-8.59803
0
LINE
8
BLACK
6
CONTINUOUS
10
7.27205
20
-8.59803
11
10.273
21
-8.59803
0
LINE
8
BLACK
6
CONTINUOUS
10
10.273
20
-8.59803
11
10.273
21
-8.45
0
LINE
8
BLACK
6
CONTINUOUS
10
10.273
20
-8.45
11
10.2736
21
-8.44861
0
LINE
8
BLACK
6
CONTINUOUS
10
10.2736
20
-8.44861
11
10.275
21
-8.44803
0
LINE
8
BLACK
6
CONTINUOUS
10
10.275
20
-8.44803
11
10.423
21
-8.44803
0
LINE
8
BLACK
6
CONTINUOUS
10
10.423
20
-8.44803
11
10.423
21
-1.02697
0
LINE
8
BLACK
6
CONTINUOUS
10
10.423
20
-1.02697
11
10.275
21
-1.02697
0
LINE
8
BLACK
6
CONTINUOUS
10
10.275
20
-1.02697
11
10.2736
21
-1.02639
0
LINE
8
BLACK
6
CONTINUOUS
10
10.2736
20
-1.02639
11
10.273
21
-1.025
0
LINE
8
BLACK
6
CONTINUOUS
10
10.273
20
-1.025
11
10.273
21
-0.876969
0
LINE
8
BLACK
6
CONTINUOUS
10
10.273
20
-0.876969
11
1.00197
21
-0.876969
0
LINE
8
BLACK
6
CONTINUOUS
10
1.00197
20
-0.876969
11
1.00197
21
-1.025
0
LINE
8
BLACK
6
CONTINUOUS
10
1.00197
20
-1.025
11
1.00139
21
-1.02639
0
LINE
8
BLACK
6
CONTINUOUS
10
1.00139
20
-1.02639
11
1
21
-1.02697
0
LINE
8
BLACK
6
CONTINUOUS
10
1
20
-1.02697
11
0.851969
21
-1.02697
0
LINE
8
BLACK
6
CONTINUOUS
10
0.851969
20
-1.02697
11
0.851969
21
-8.44803
0
LINE
8
BLACK
6
CONTINUOUS
10
9.16663
20
-6.71644
11
9.16732
21
-6.71811
0
LINE
8
BLACK
6
CONTINUOUS
10
9.16732
20
-6.71811
11
9.16732
21
-6.73543
0
LINE
8
BLACK
6
CONTINUOUS
10
9.16732
20
-6.73543
11
9.18465
21
-6.73543
0
LINE
8
BLACK
6
CONTINUOUS
10
9.18465
20
-6.73543
11
9.18632
21
-6.73612
0
LINE
8
BLACK
6
CONTINUOUS
10
9.18632
20
-6.73612
11
9.18701
21
-6.7378
0
LINE
8
BLACK
6
CONTINUOUS
10
9.18701
20
-6.7378
11
9.18632
21
-6.73947
0
LINE
8
BLACK
6
CONTINUOUS
10
9.18632
20
-6.73947
11
9.18465
21
-6.74016
0
LINE
8
BLACK
6
CONTINUOUS
10
9.18465
20
-6.74016
11
9.16732
21
-6.74016
0
LINE
8
BLACK
6
CONTINUOUS
10
9.16732
20
-6.74016
11
9.16732
21
-6.75748
0
LINE
8
BLACK
6
CONTINUOUS
10
9.16732
20
-6.75748
11
9.16663
21
-6.75915
0
LINE
8
BLACK
6
CONTINUOUS
10
9.16663
20
-6.75915
11
9.16496
21
-6.75984
0
LINE
8
BLACK
6
CONTINUOUS
10
9.16496
20
-6.75984
11
9.16329
21
-6.75915
0
LINE
8
BLACK
6
CONTINUOUS
10
9.16329
20
-6.75915
11
9.1626
21
-6.75748
0
LINE
8
BLACK
6
CONTINUOUS
10
9.1626
20
-6.75748
11
9.1626
21
-6.74016
0
LINE
8
BLACK
6
CONTINUOUS
10
9.1626
20
-6.74016
11
9.14528
21
-6.74016
0
LINE
8
BLACK
6
CONTINUOUS
10
9.14528
20
-6.74016
11
9.14361
21
-6.73947
0
LINE
8
BLACK
6
CONTINUOUS
10
9.14361
20
-6.73947
11
9.14291
21
-6.7378
0
LINE
8
BLACK
6
CONTINUOUS
10
9.14291
20
-6.7378
11
9.14361
21
-6.73612
0
LINE
8
BLACK
6
CONTINUOUS
10
9.14361
20
-6.73612
11
9.14528
21
-6.73543
0
LINE
8
BLACK
6
CONTINUOUS
10
9.14528
20
-6.73543
11
9.1626
21
-6.73543
0
LINE
8
BLACK
6
CONTINUOUS
10
9.1626
20
-6.73543
11
9.1626
21
-6.71811
0
LINE
8
BLACK
6
CONTINUOUS
10
9.1626
20
-6.71811
11
9.16329
21
-6.71644
0
LINE
8
BLACK
6
CONTINUOUS
10
9.16329
20
-6.71644
11
9.16496
21
-6.71575
0
LINE
8
BLACK
6
CONTINUOUS
10
9.16496
20
-6.71575
11
9.16663
21
-6.71644
0
LINE
8
BLACK
6
CONTINUOUS
10
5.15139
20
-6.27361
11
5.15197
21
-6.275
0
LINE
8
BLACK
6
CONTINUOUS
10
5.15197
20
-6.275
11
5.15197
21
-6.42303
0
LINE
8
BLACK
6
CONTINUOUS
10
5.15197
20
-6.42303
11
5.34803
21
-6.42303
0
LINE
8
BLACK
6
CONTINUOUS
10
5.34803
20
-6.42303
11
5.34803
21
-6.35
0
LINE
8
BLACK
6
CONTINUOUS
10
5.34803
20
-6.35
11
5.34861
21
-6.34861
0
LINE
8
BLACK
6
CONTINUOUS
10
5.34861
20
-6.34861
11
5.35
21
-6.34803
0
LINE
8
BLACK
6
CONTINUOUS
10
5.35
20
-6.34803
11
5.35139
21
-6.34861
0
LINE
8
BLACK
6
CONTINUOUS
10
5.35139
20
-6.34861
11
5.35197
21
-6.35
0
LINE
8
BLACK
6
CONTINUOUS
10
5.35197
20
-6.35
11
5.35197
21
-6.42303
0
LINE
8
BLACK
6
CONTINUOUS
10
5.35197
20
-6.42303
11
5.55
21
-6.42303
0
LINE
8
BLACK
6
CONTINUOUS
10
5.55
20
-6.42303
11
5.55139
21
-6.42361
0
LINE
8
BLACK
6
CONTINUOUS
10
5.55139
20
-6.42361
11
5.55197
21
-6.425
0
LINE
8
BLACK
6
CONTINUOUS
10
5.55197
20
-6.425
11
5.55139
21
-6.42639
0
LINE
8
BLACK
6
CONTINUOUS
10
5.55139
20
-6.42639
11
5.55
21
-6.42697
0
LINE
8
BLACK
6
CONTINUOUS
10
5.55
20
-6.42697
11
5.35197
21
-6.42697
0
LINE
8
BLACK
6
CONTINUOUS
10
5.35197
20
-6.42697
11
5.35197
21
-6.5
0
LINE
8
BLACK
6
CONTINUOUS
10
5.35197
20
-6.5
11
5.35139
21
-6.50139
0
LINE
8
BLACK
6
CONTINUOUS
10
5.35139
20
-6.50139
11
5.35
21
-6.50197
0
LINE
8
BLACK
6
CONTINUOUS
10
5.35
20
-6.50197
11
5.34861
21
-6.50139
0
LINE
8
BLACK
6
CONTINUOUS
10
5.34861
20
-6.50139
11
5.34803
21
-6.5
0
LINE
8
BLACK
6
CONTINUOUS
10
5.34803
20
-6.5
11
5.34803
21
-6.42697
0
LINE
8
BLACK
6
CONTINUOUS
10
5.34803
20
-6.42697
11
5.15197
21
-6.42697
0
LINE
8
BLACK
6
CONTINUOUS
10
5.15197
20
-6.42697
11
5.15197
21
-6.575
0
LINE
8
BLACK
6
CONTINUOUS
10
5.15197
20
-6.575
11
5.15139
21
-6.57639
0
LINE
8
BLACK
6
CONTINUOUS
10
5.15139
20
-6.57639
11
5.15
21
-6.57697
0
LINE
8
BLACK
6
CONTINUOUS
10
5.15
20
-6.57697
11
5.14861
21
-6.57639
0
LINE
8
BLACK
6
CONTINUOUS
10
5.14861
20
-6.57639
11
5.14803
21
-6.575
0
LINE
8
BLACK
6
CONTINUOUS
10
5.14803
20
-6.575
11
5.14803
21
-6.42697
0
LINE
8
BLACK
6
CONTINUOUS
10
5.14803
20
-6.42697
11
4.925
21
-6.42697
0
LINE
8
BLACK
6
CONTINUOUS
10
4.925
20
-6.42697
11
4.92361
21
-6.42639
0
LINE
8
BLACK
6
CONTINUOUS
10
4.92361
20
-6.42639
11
4.92303
21
-6.425
0
LINE
8
BLACK
6
CONTINUOUS
10
4.92303
20
-6.425
11
4.92361
21
-6.42361
0
LINE
8
BLACK
6
CONTINUOUS
10
4.92361
20
-6.42361
11
4.925
21
-6.42303
0
LINE
8
BLACK
6
CONTINUOUS
10
4.925
20
-6.42303
11
5.14803
21
-6.42303
0
LINE
8
BLACK
6
CONTINUOUS
10
5.14803
20
-6.42303
11
5.14803
21
-6.275
0
LINE
8
BLACK
6
CONTINUOUS
10
5.14803
20
-6.275
11
5.14861
21
-6.27361
0
LINE
8
BLACK
6
CONTINUOUS
10
5.14861
20
-6.27361
11
5.15
21
-6.27303
0
LINE
8
BLACK
6
CONTINUOUS
10
5.15
20
-6.27303
11
5.15139
21
-6.27361
0
LINE
8
BLACK
6
CONTINUOUS
10
7.40362
20
-6.27361
11
7.40419
21
-6.275
0
LINE
8
BLACK
6
CONTINUOUS
10
7.40419
20
-6.275
11
7.40419
21
-6.325
0
LINE
8
BLACK
6
CONTINUOUS
10
7.40419
20
-6.325
11
7.40362
21
-6.32639
0
LINE
8
BLACK
6
CONTINUOUS
10
7.40362
20
-6.32639
11
7.40222
21
-6.32697
0
LINE
8
BLACK
6
CONTINUOUS
10
7.40222
20
-6.32697
11
7.40083
21
-6.32639
0
LINE
8
BLACK
6
CONTINUOUS
10
7.40083
20
-6.32639
11
7.40026
21
-6.325
0
LINE
8
BLACK
6
CONTINUOUS
10
7.40026
20
-6.325
11
7.40026
21
-6.275
0
LINE
8
BLACK
6
CONTINUOUS
10
7.40026
20
-6.275
11
7.40083
21
-6.27361
0
LINE
8
BLACK
6
CONTINUOUS
10
7.40083
20
-6.27361
11
7.40222
21
-6.27303
0
LINE
8
BLACK
6
CONTINUOUS
10
7.40222
20
-6.27303
11
7.40362
21
-6.27361
0
LINE
8
BLACK
6
CONTINUOUS
10
5.37639
20
-3.34861
11
5.37697
21
-3.35
0
LINE
8
BLACK
6
CONTINUOUS
10
5.37697
20
-3.35
11
5.37639
21
-3.35139
0
LINE
8
BLACK
6
CONTINUOUS
10
5.37639
20
-3.35139
11
5.375
21
-3.35197
0
LINE
8
BLACK
6
CONTINUOUS
10
5.375
20
-3.35197
11
2.55
21
-3.35197
0
LINE
8
BLACK
6
CONTINUOUS
10
2.55
20
-3.35197
11
2.54861
21
-3.35139
0
LINE
8
BLACK
6
CONTINUOUS
10
2.54861
20
-3.35139
11
2.54803
21
-3.35
0
LINE
8
BLACK
6
CONTINUOUS
10
2.54803
20
-3.35
11
2.54861
21
-3.34861
0
LINE
8
BLACK
6
CONTINUOUS
10
2.54861
20
-3.34861
11
2.55
21
-3.34803
0
LINE
8
BLACK
6
CONTINUOUS
10
2.55
20
-3.34803
11
5.375
21
-3.34803
0
LINE
8
BLACK
6
CONTINUOUS
10
5.375
20
-3.34803
11
5.37639
21
-3.34861
0
LINE
8
BLACK
6
CONTINUOUS
10
5.675
20
-2.89803
11
5.67639
21
-2.89861
0
LINE
8
BLACK
6
CONTINUOUS
10
5.67639
20
-2.89861
11
5.67697
21
-2.9
0
LINE
8
BLACK
6
CONTINUOUS
10
5.67697
20
-2.9
11
5.67639
21
-2.90139
0
LINE
8
BLACK
6
CONTINUOUS
10
5.67639
20
-2.90139
11
5.675
21
-2.90197
0
LINE
8
BLACK
6
CONTINUOUS
10
5.675
20
-2.90197
11
4.95236
21
-2.90197
0
LINE
8
BLACK
6
CONTINUOUS
10
4.95236
20
-2.90197
11
4.95236
21
-2.94764
0
LINE
8
BLACK
6
CONTINUOUS
10
4.95236
20
-2.94764
11
5.025
21
-2.94764
0
LINE
8
BLACK
6
CONTINUOUS
10
5.025
20
-2.94764
11
5.02667
21
-2.94833
0
LINE
8
BLACK
6
CONTINUOUS
10
5.02667
20
-2.94833
11
5.02736
21
-2.95
0
LINE
8
BLACK
6
CONTINUOUS
10
5.02736
20
-2.95
11
5.02736
21
-2.95
0
LINE
8
BLACK
6
CONTINUOUS
10
5.02736
20
-2.95
11
5.02736
21
-2.95
0
LINE
8
BLACK
6
CONTINUOUS
10
5.02736
20
-2.95
11
5.02667
21
-2.95167
0
LINE
8
BLACK
6
CONTINUOUS
10
5.02667
20
-2.95167
11
5.025
21
-2.95236
0
LINE
8
BLACK
6
CONTINUOUS
10
5.025
20
-2.95236
11
4.95236
21
-2.95236
0
LINE
8
BLACK
6
CONTINUOUS
10
4.95236
20
-2.95236
11
4.95236
21
-3.025
0
LINE
8
BLACK
6
CONTINUOUS
10
4.95236
20
-3.025
11
4.95167
21
-3.02667
0
LINE
8
BLACK
6
CONTINUOUS
10
4.95167
20
-3.02667
11
4.95
21
-3.02736
0
LINE
8
BLACK
6
CONTINUOUS
10
4.95
20
-3.02736
11
4.94833
21
-3.02667
0
LINE
8
BLACK
6
CONTINUOUS
10
4.94833
20
-3.02667
11
4.94764
21
-3.025
0
LINE
8
BLACK
6
CONTINUOUS
10
4.94764
20
-3.025
11
4.94764
21
-2.95236
0
LINE
8
BLACK
6
CONTINUOUS
10
4.94764
20
-2.95236
11
4.875
21
-2.95236
0
LINE
8
BLACK
6
CONTINUOUS
10
4.875
20
-2.95236
11
4.87333
21
-2.95167
0
LINE
8
BLACK
6
CONTINUOUS
10
4.87333
20
-2.95167
11
4.87264
21
-2.95
0
LINE
8
BLACK
6
CONTINUOUS
10
4.87264
20
-2.95
11
4.87264
21
-2.95
0
LINE
8
BLACK
6
CONTINUOUS
10
4.87264
20
-2.95
11
4.87264
21
-2.95
0
LINE
8
BLACK
6
CONTINUOUS
10
4.87264
20
-2.95
11
4.87333
21
-2.94833
0
LINE
8
BLACK
6
CONTINUOUS
10
4.87333
20
-2.94833
11
4.875
21
-2.94764
0
LINE
8
BLACK
6
CONTINUOUS
10
4.875
20
-2.94764
11
4.94764
21
-2.94764
0
LINE
8
BLACK
6
CONTINUOUS
10
4.94764
20
-2.94764
11
4.94764
21
-2.90197
0
LINE
8
BLACK
6
CONTINUOUS
10
4.94764
20
-2.90197
11
2.5
21
-2.90197
0
LINE
8
BLACK
6
CONTINUOUS
10
2.5
20
-2.90197
11
2.49861
21
-2.90139
0
LINE
8
BLACK
6
CONTINUOUS
10
2.49861
20
-2.90139
11
2.49803
21
-2.9
0
LINE
8
BLACK
6
CONTINUOUS
10
2.49803
20
-2.9
11
2.49861
21
-2.89861
0
LINE
8
BLACK
6
CONTINUOUS
10
2.49861
20
-2.89861
11
2.5
21
-2.89803
0
LINE
8
BLACK
6
CONTINUOUS
10
2.5
20
-2.89803
11
4.94764
21
-2.89803
0
LINE
8
BLACK
6
CONTINUOUS
10
4.94764
20
-2.89803
11
4.94764
21
-2.875
0
LINE
8
BLACK
6
CONTINUOUS
10
4.94764
20
-2.875
11
4.94833
21
-2.87333
0
LINE
8
BLACK
6
CONTINUOUS
10
4.94833
20
-2.87333
11
4.95
21
-2.87264
0
LINE
8
BLACK
6
CONTINUOUS
10
4.95
20
-2.87264
11
4.95167
21
-2.87333
0
LINE
8
BLACK
6
CONTINUOUS
10
4.95167
20
-2.87333
11
4.95236
21
-2.875
0
LINE
8
BLACK
6
CONTINUOUS
10
4.95236
20
-2.875
11
4.95236
21
-2.89803
0
LINE
8
BLACK
6
CONTINUOUS
10
4.95236
20
-2.89803
11
5.675
21
-2.89803
0
LINE
8
BLACK
6
CONTINUOUS
10
10.3764
20
-2.94132
11
10.377
21
-2.94272
0
LINE
8
BLACK
6
CONTINUOUS
10
10.377
20
-2.94272
11
10.377
21
-2.96575
0
LINE
8
BLACK
6
CONTINUOUS
10
10.377
20
-2.96575
11
10.4
21
-2.96575
0
LINE
8
BLACK
6
CONTINUOUS
10
10.4
20
-2.96575
11
10.4014
21
-2.96632
0
LINE
8
BLACK
6
CONTINUOUS
10
10.4014
20
-2.96632
11
10.402
21
-2.96772
0
LINE
8
BLACK
6
CONTINUOUS
10
10.402
20
-2.96772
11
10.4014
21
-2.96911
0
LINE
8
BLACK
6
CONTINUOUS
10
10.4014
20
-2.96911
11
10.4
21
-2.96969
0
LINE
8
BLACK
6
CONTINUOUS
10
10.4
20
-2.96969
11
10.377
21
-2.96969
0
LINE
8
BLACK
6
CONTINUOUS
10
10.377
20
-2.96969
11
10.377
21
-2.99272
0
LINE
8
BLACK
6
CONTINUOUS
10
10.377
20
-2.99272
11
10.3764
21
-2.99411
0
LINE
8
BLACK
6
CONTINUOUS
10
10.3764
20
-2.99411
11
10.375
21
-2.99469
0
LINE
8
BLACK
6
CONTINUOUS
10
10.375
20
-2.99469
11
10.3736
21
-2.99411
0
LINE
8
BLACK
6
CONTINUOUS
10
10.3736
20
-2.99411
11
10.373
21
-2.99272
0
LINE
8
BLACK
6
CONTINUOUS
10
10.373
20
-2.99272
11
10.373
21
-2.96969
0
LINE
8
BLACK
6
CONTINUOUS
10
10.373
20
-2.96969
11
10.35
21
-2.96969
0
LINE
8
BLACK
6
CONTINUOUS
10
10.35
20
-2.96969
11
10.3486
21
-2.96911
0
LINE
8
BLACK
6
CONTINUOUS
10
10.3486
20
-2.96911
11
10.348
21
-2.96772
0
LINE
8
BLACK
6
CONTINUOUS
10
10.348
20
-2.96772
11
10.3486
21
-2.96632
0
LINE
8
BLACK
6
CONTINUOUS
10
10.3486
20
-2.96632
11
10.35
21
-2.96575
0
LINE
8
BLACK
6
CONTINUOUS
10
10.35
20
-2.96575
11
10.373
21
-2.96575
0
LINE
8
BLACK
6
CONTINUOUS
10
10.373
20
-2.96575
11
10.373
21
-2.94272
0
LINE
8
BLACK
6
CONTINUOUS
10
10.373
20
-2.94272
11
10.3736
21
-2.94132
0
LINE
8
BLACK
6
CONTINUOUS
10
10.3736
20
-2.94132
11
10.375
21
-2.94075
0
LINE
8
BLACK
6
CONTINUOUS
10
10.375
20
-2.94075
11
10.3764
21
-2.94132
0
LINE
8
BLACK
6
CONTINUOUS
10
5.32639
20
-2.39861
11
5.32697
21
-2.4
0
LINE
8
BLACK
6
CONTINUOUS
10
5.32697
20
-2.4
11
5.32639
21
-2.40139
0
LINE
8
BLACK
6
CONTINUOUS
10
5.32639
20
-2.40139
11
5.325
21
-2.40197
0
LINE
8
BLACK
6
CONTINUOUS
10
5.325
20
-2.40197
11
2.95
21
-2.40197
0
LINE
8
BLACK
6
CONTINUOUS
10
2.95
20
-2.40197
11
2.94861
21
-2.40139
0
LINE
8
BLACK
6
CONTINUOUS
10
2.94861
20
-2.40139
11
2.94803
21
-2.4
0
LINE
8
BLACK
6
CONTINUOUS
10
2.94803
20
-2.4
11
2.94861
21
-2.39861
0
LINE
8
BLACK
6
CONTINUOUS
10
2.94861
20
-2.39861
11
2.95
21
-2.39803
0
LINE
8
BLACK
6
CONTINUOUS
10
2.95
20
-2.39803
11
5.325
21
-2.39803
0
LINE
8
BLACK
6
CONTINUOUS
10
5.325
20
-2.39803
11
5.32639
21
-2.39861
0
LINE
8
BLACK
6
CONTINUOUS
10
5.02667
20
-1.84833
11
5.02736
21
-1.85
0
LINE
8
BLACK
6
CONTINUOUS
10
5.02736
20
-1.85
11
5.02736
21
-1.85
0
LINE
8
BLACK
6
CONTINUOUS
10
5.02736
20
-1.85
11
5.02736
21
-1.85
0
LINE
8
BLACK
6
CONTINUOUS
10
5.02736
20
-1.85
11
5.02667
21
-1.85167
0
LINE
8
BLACK
6
CONTINUOUS
10
5.02667
20
-1.85167
11
5.025
21
-1.85236
0
LINE
8
BLACK
6
CONTINUOUS
10
5.025
20
-1.85236
11
4.95236
21
-1.85236
0
LINE
8
BLACK
6
CONTINUOUS
10
4.95236
20
-1.85236
11
4.95236
21
-1.89803
0
LINE
8
BLACK
6
CONTINUOUS
10
4.95236
20
-1.89803
11
5.675
21
-1.89803
0
LINE
8
BLACK
6
CONTINUOUS
10
5.675
20
-1.89803
11
5.67639
21
-1.89861
0
LINE
8
BLACK
6
CONTINUOUS
10
5.67639
20
-1.89861
11
5.67697
21
-1.9
0
LINE
8
BLACK
6
CONTINUOUS
10
5.67697
20
-1.9
11
5.67639
21
-1.90139
0
LINE
8
BLACK
6
CONTINUOUS
10
5.67639
20
-1.90139
11
5.675
21
-1.90197
0
LINE
8
BLACK
6
CONTINUOUS
10
5.675
20
-1.90197
11
4.95236
21
-1.90197
0
LINE
8
BLACK
6
CONTINUOUS
10
4.95236
20
-1.90197
11
4.95236
21
-1.925
0
LINE
8
BLACK
6
CONTINUOUS
10
4.95236
20
-1.925
11
4.95167
21
-1.92667
0
LINE
8
BLACK
6
CONTINUOUS
10
4.95167
20
-1.92667
11
4.95
21
-1.92736
0
LINE
8
BLACK
6
CONTINUOUS
10
4.95
20
-1.92736
11
4.94833
21
-1.92667
0
LINE
8
BLACK
6
CONTINUOUS
10
4.94833
20
-1.92667
11
4.94764
21
-1.925
0
LINE
8
BLACK
6
CONTINUOUS
10
4.94764
20
-1.925
11
4.94764
21
-1.90197
0
LINE
8
BLACK
6
CONTINUOUS
10
4.94764
20
-1.90197
11
2.55
21
-1.90197
0
LINE
8
BLACK
6
CONTINUOUS
10
2.55
20
-1.90197
11
2.54861
21
-1.90139
0
LINE
8
BLACK
6
CONTINUOUS
10
2.54861
20
-1.90139
11
2.54803
21
-1.9
0
LINE
8
BLACK
6
CONTINUOUS
10
2.54803
20
-1.9
11
2.54861
21
-1.89861
0
LINE
8
BLACK
6
CONTINUOUS
10
2.54861
20
-1.89861
11
2.55
21
-1.89803
0
LINE
8
BLACK
6
CONTINUOUS
10
2.55
20
-1.89803
11
4.94764
21
-1.89803
0
LINE
8
BLACK
6
CONTINUOUS
10
4.94764
20
-1.89803
11
4.94764
21
-1.85236
0
LINE
8
BLACK
6
CONTINUOUS
10
4.94764
20
-1.85236
11
4.875
21
-1.85236
0
LINE
8
BLACK
6
CONTINUOUS
10
4.875
20
-1.85236
11
4.87333
21
-1.85167
0
LINE
8
BLACK
6
CONTINUOUS
10
4.87333
20
-1.85167
11
4.87264
21
-1.85
0
LINE
8
BLACK
6
CONTINUOUS
10
4.87264
20
-1.85
11
4.87264
21
-1.85
0
LINE
8
BLACK
6
CONTINUOUS
10
4.87264
20
-1.85
11
4.87264
21
-1.85
0
LINE
8
BLACK
6
CONTINUOUS
10
4.87264
20
-1.85
11
4.87333
21
-1.84833
0
LINE
8
BLACK
6
CONTINUOUS
10
4.87333
20
-1.84833
11
4.875
21
-1.84764
0
LINE
8
BLACK
6
CONTINUOUS
10
4.875
20
-1.84764
11
4.94764
21
-1.84764
0
LINE
8
BLACK
6
CONTINUOUS
10
4.94764
20
-1.84764
11
4.94764
21
-1.77662
0
LINE
8
BLACK
6
CONTINUOUS
10
4.94764
20
-1.77662
11
4.94705
21
-1.775
0
LINE
8
BLACK
6
CONTINUOUS
10
4.94705
20
-1.775
11
4.94705
21
-1.75295
0
LINE
8
BLACK
6
CONTINUOUS
10
4.94705
20
-1.75295
11
4.925
21
-1.75295
0
LINE
8
BLACK
6
CONTINUOUS
10
4.925
20
-1.75295
11
4.92399
21
-1.75277
0
LINE
8
BLACK
6
CONTINUOUS
10
4.92399
20
-1.75277
11
4.92244
21
-1.75148
0
LINE
8
BLACK
6
CONTINUOUS
10
4.92244
20
-1.75148
11
4.92209
21
-1.74949
0
LINE
8
BLACK
6
CONTINUOUS
10
4.92209
20
-1.74949
11
4.9231
21
-1.74774
0
LINE
8
BLACK
6
CONTINUOUS
10
4.9231
20
-1.74774
11
4.925
21
-1.74705
0
LINE
8
BLACK
6
CONTINUOUS
10
4.925
20
-1.74705
11
4.94705
21
-1.74705
0
LINE
8
BLACK
6
CONTINUOUS
10
4.94705
20
-1.74705
11
4.94705
21
-1.725
0
LINE
8
BLACK
6
CONTINUOUS
10
4.94705
20
-1.725
11
4.94723
21
-1.72399
0
LINE
8
BLACK
6
CONTINUOUS
10
4.94723
20
-1.72399
11
4.94852
21
-1.72244
0
LINE
8
BLACK
6
CONTINUOUS
10
4.94852
20
-1.72244
11
4.95051
21
-1.72209
0
LINE
8
BLACK
6
CONTINUOUS
10
4.95051
20
-1.72209
11
4.95226
21
-1.7231
0
LINE
8
BLACK
6
CONTINUOUS
10
4.95226
20
-1.7231
11
4.95295
21
-1.725
0
LINE
8
BLACK
6
CONTINUOUS
10
4.95295
20
-1.725
11
4.95295
21
-1.74705
0
LINE
8
BLACK
6
CONTINUOUS
10
4.95295
20
-1.74705
11
4.975
21
-1.74705
0
LINE
8
BLACK
6
CONTINUOUS
10
4.975
20
-1.74705
11
4.97601
21
-1.74723
0
LINE
8
BLACK
6
CONTINUOUS
10
4.97601
20
-1.74723
11
4.97756
21
-1.74852
0
LINE
8
BLACK
6
CONTINUOUS
10
4.97756
20
-1.74852
11
4.97791
21
-1.75051
0
LINE
8
BLACK
6
CONTINUOUS
10
4.97791
20
-1.75051
11
4.9769
21
-1.75226
0
LINE
8
BLACK
6
CONTINUOUS
10
4.9769
20
-1.75226
11
4.975
21
-1.75295
0
LINE
8
BLACK
6
CONTINUOUS
10
4.975
20
-1.75295
11
4.95295
21
-1.75295
0
LINE
8
BLACK
6
CONTINUOUS
10
4.95295
20
-1.75295
11
4.95295
21
-1.775
0
LINE
8
BLACK
6
CONTINUOUS
10
4.95295
20
-1.775
11
4.95277
21
-1.77601
0
LINE
8
BLACK
6
CONTINUOUS
10
4.95277
20
-1.77601
11
4.95236
21
-1.7765
0
LINE
8
BLACK
6
CONTINUOUS
10
4.95236
20
-1.7765
11
4.95236
21
-1.84764
0
LINE
8
BLACK
6
CONTINUOUS
10
4.95236
20
-1.84764
11
5.025
21
-1.84764
0
LINE
8
BLACK
6
CONTINUOUS
10
5.025
20
-1.84764
11
5.02667
21
-1.84833
0
LINE
8
BLACK
6
CONTINUOUS
10
0.948608
20
-1.92639
11
0.948031
21
-1.925
0
LINE
8
BLACK
6
CONTINUOUS
10
0.948031
20
-1.925
11
0.948031
21
-1.075
0
LINE
8
BLACK
6
CONTINUOUS
10
0.948031
20
-1.075
11
0.948608
21
-1.07361
0
LINE
8
BLACK
6
CONTINUOUS
10
0.948608
20
-1.07361
11
0.95
21
-1.07303
0
LINE
8
BLACK
6
CONTINUOUS
10
0.95
20
-1.07303
11
1.3
21
-1.07303
0
LINE
8
BLACK
6
CONTINUOUS
10
1.3
20
-1.07303
11
1.30139
21
-1.07361
0
LINE
8
BLACK
6
CONTINUOUS
10
1.30139
20
-1.07361
11
1.30197
21
-1.075
0
LINE
8
BLACK
6
CONTINUOUS
10
1.30197
20
-1.075
11
1.30197
21
-1.925
0
LINE
8
BLACK
6
CONTINUOUS
10
1.30197
20
-1.925
11
1.30139
21
-1.92639
0
LINE
8
BLACK
6
CONTINUOUS
10
1.30139
20
-1.92639
11
1.3
21
-1.92697
0
LINE
8
BLACK
6
CONTINUOUS
10
1.3
20
-1.92697
11
0.95
21
-1.92697
0
LINE
8
BLACK
6
CONTINUOUS
10
0.95
20
-1.92697
11
0.948608
21
-1.92639
0
LINE
8
BLACK
6
CONTINUOUS
10
0.951969
20
-1.07697
11
0.951969
21
-1.92303
0
LINE
8
BLACK
6
CONTINUOUS
10
0.951969
20
-1.92303
11
1.29803
21
-1.92303
0
LINE
8
BLACK
6
CONTINUOUS
10
1.29803
20
-1.92303
11
1.29803
21
-1.07697
0
LINE
8
BLACK
6
CONTINUOUS
10
1.29803
20
-1.07697
11
0.951969
21
-1.07697
0
LINE
8
BLACK
6
CONTINUOUS
10
1.07639
20
-1.19861
11
1.07697
21
-1.2
0
LINE
8
BLACK
6
CONTINUOUS
10
1.07697
20
-1.2
11
1.07697
21
-1.29803
0
LINE
8
BLACK
6
CONTINUOUS
10
1.07697
20
-1.29803
11
1.125
21
-1.29803
0
LINE
8
BLACK
6
CONTINUOUS
10
1.125
20
-1.29803
11
1.12639
21
-1.29861
0
LINE
8
BLACK
6
CONTINUOUS
10
1.12639
20
-1.29861
11
1.12697
21
-1.3
0
LINE
8
BLACK
6
CONTINUOUS
10
1.12697
20
-1.3
11
1.12639
21
-1.30139
0
LINE
8
BLACK
6
CONTINUOUS
10
1.12639
20
-1.30139
11
1.125
21
-1.30197
0
LINE
8
BLACK
6
CONTINUOUS
10
1.125
20
-1.30197
11
1.07697
21
-1.30197
0
LINE
8
BLACK
6
CONTINUOUS
10
1.07697
20
-1.30197
11
1.07697
21
-1.8
0
LINE
8
BLACK
6
CONTINUOUS
10
1.07697
20
-1.8
11
1.07639
21
-1.80139
0
LINE
8
BLACK
6
CONTINUOUS
10
1.07639
20
-1.80139
11
1.075
21
-1.80197
0
LINE
8
BLACK
6
CONTINUOUS
10
1.075
20
-1.80197
11
1.07361
21
-1.80139
0
LINE
8
BLACK
6
CONTINUOUS
10
1.07361
20
-1.80139
11
1.07303
21
-1.8
0
LINE
8
BLACK
6
CONTINUOUS
10
1.07303
20
-1.8
11
1.07303
21
-1.30197
0
LINE
8
BLACK
6
CONTINUOUS
10
1.07303
20
-1.30197
11
1.025
21
-1.30197
0
LINE
8
BLACK
6
CONTINUOUS
10
1.025
20
-1.30197
11
1.02361
21
-1.30139
0
LINE
8
BLACK
6
CONTINUOUS
10
1.02361
20
-1.30139
11
1.02303
21
-1.3
0
LINE
8
BLACK
6
CONTINUOUS
10
1.02303
20
-1.3
11
1.02361
21
-1.29861
0
LINE
8
BLACK
6
CONTINUOUS
10
1.02361
20
-1.29861
11
1.025
21
-1.29803
0
LINE
8
BLACK
6
CONTINUOUS
10
1.025
20
-1.29803
11
1.07303
21
-1.29803
0
LINE
8
BLACK
6
CONTINUOUS
10
1.07303
20
-1.29803
11
1.07303
21
-1.2
0
LINE
8
BLACK
6
CONTINUOUS
10
1.07303
20
-1.2
11
1.07361
21
-1.19861
0
LINE
8
BLACK
6
CONTINUOUS
10
1.07361
20
-1.19861
11
1.075
21
-1.19803
0
LINE
8
BLACK
6
CONTINUOUS
10
1.075
20
-1.19803
11
1.07639
21
-1.19861
0
LINE
8
BLACK
6
CONTINUOUS
10
5.37639
20
-1.44861
11
5.37697
21
-1.45
0
LINE
8
BLACK
6
CONTINUOUS
10
5.37697
20
-1.45
11
5.37639
21
-1.45139
0
LINE
8
BLACK
6
CONTINUOUS
10
5.37639
20
-1.45139
11
5.375
21
-1.45197
0
LINE
8
BLACK
6
CONTINUOUS
10
5.375
20
-1.45197
11
2.55
21
-1.45197
0
LINE
8
BLACK
6
CONTINUOUS
10
2.55
20
-1.45197
11
2.54861
21
-1.45139
0
LINE
8
BLACK
6
CONTINUOUS
10
2.54861
20
-1.45139
11
2.54803
21
-1.45
0
LINE
8
BLACK
6
CONTINUOUS
10
2.54803
20
-1.45
11
2.54861
21
-1.44861
0
LINE
8
BLACK
6
CONTINUOUS
10
2.54861
20
-1.44861
11
2.55
21
-1.44803
0
LINE
8
BLACK
6
CONTINUOUS
10
2.55
20
-1.44803
11
5.375
21
-1.44803
0
LINE
8
BLACK
6
CONTINUOUS
10
5.375
20
-1.44803
11
5.37639
21
-1.44861
0
LINE
8
BLACK
6
CONTINUOUS
10
6.97361
20
-1.22639
11
6.97303
21
-1.225
0
LINE
8
BLACK
6
CONTINUOUS
10
6.97303
20
-1.225
11
6.97303
21
-0.975
0
LINE
8
BLACK
6
CONTINUOUS
10
6.97303
20
-0.975
11
6.97361
21
-0.973608
0
LINE
8
BLACK
6
CONTINUOUS
10
6.97361
20
-0.973608
11
6.975
21
-0.973031
0
LINE
8
BLACK
6
CONTINUOUS
10
6.975
20
-0.973031
11
7.725
21
-0.973031
0
LINE
8
BLACK
6
CONTINUOUS
10
7.725
20
-0.973031
11
7.72639
21
-0.973608
0
LINE
8
BLACK
6
CONTINUOUS
10
7.72639
20
-0.973608
11
7.72697
21
-0.975
0
LINE
8
BLACK
6
CONTINUOUS
10
7.72697
20
-0.975
11
7.72697
21
-1.09803
0
LINE
8
BLACK
6
CONTINUOUS
10
7.72697
20
-1.09803
11
7.9
21
-1.09803
0
LINE
8
BLACK
6
CONTINUOUS
10
7.9
20
-1.09803
11
7.90139
21
-1.09861
0
LINE
8
BLACK
6
CONTINUOUS
10
7.90139
20
-1.09861
11
7.90197
21
-1.1
0
LINE
8
BLACK
6
CONTINUOUS
10
7.90197
20
-1.1
11
7.90139
21
-1.10139
0
LINE
8
BLACK
6
CONTINUOUS
10
7.90139
20
-1.10139
11
7.9
21
-1.10197
0
LINE
8
BLACK
6
CONTINUOUS
10
7.9
20
-1.10197
11
7.72697
21
-1.10197
0
LINE
8
BLACK
6
CONTINUOUS
10
7.72697
20
-1.10197
11
7.72697
21
-1.225
0
LINE
8
BLACK
6
CONTINUOUS
10
7.72697
20
-1.225
11
7.72639
21
-1.22639
0
LINE
8
BLACK
6
CONTINUOUS
10
7.72639
20
-1.22639
11
7.725
21
-1.22697
0
LINE
8
BLACK
6
CONTINUOUS
10
7.725
20
-1.22697
11
6.975
21
-1.22697
0
LINE
8
BLACK
6
CONTINUOUS
10
6.975
20
-1.22697
11
6.97361
21
-1.22639
0
LINE
8
BLACK
6
CONTINUOUS
10
6.97697
20
-0.976969
11
6.97697
21
-1.22303
0
LINE
8
BLACK
6
CONTINUOUS
10
6.97697
20
-1.22303
11
7.72303
21
-1.22303
0
LINE
8
BLACK
6
CONTINUOUS
10
7.72303
20
-1.22303
11
7.72303
21
-1.10197
0
LINE
8
BLACK
6
CONTINUOUS
10
7.72303
20
-1.10197
11
7.65197
21
-1.10197
0
LINE
8
BLACK
6
CONTINUOUS
10
7.65197
20
-1.10197
11
7.65197
21
-1.175
0
LINE
8
BLACK
6
CONTINUOUS
10
7.65197
20
-1.175
11
7.65139
21
-1.17639
0
LINE
8
BLACK
6
CONTINUOUS
10
7.65139
20
-1.17639
11
7.65
21
-1.17697
0
LINE
8
BLACK
6
CONTINUOUS
10
7.65
20
-1.17697
11
7.64861
21
-1.17639
0
LINE
8
BLACK
6
CONTINUOUS
10
7.64861
20
-1.17639
11
7.64803
21
-1.175
0
LINE
8
BLACK
6
CONTINUOUS
10
7.64803
20
-1.175
11
7.64803
21
-1.10197
0
LINE
8
BLACK
6
CONTINUOUS
10
7.64803
20
-1.10197
11
7.075
21
-1.10197
0
LINE
8
BLACK
6
CONTINUOUS
10
7.075
20
-1.10197
11
7.07361
21
-1.10139
0
LINE
8
BLACK
6
CONTINUOUS
10
7.07361
20
-1.10139
11
7.07303
21
-1.1
0
LINE
8
BLACK
6
CONTINUOUS
10
7.07303
20
-1.1
11
7.07361
21
-1.09861
0
LINE
8
BLACK
6
CONTINUOUS
10
7.07361
20
-1.09861
11
7.075
21
-1.09803
0
LINE
8
BLACK
6
CONTINUOUS
10
7.075
20
-1.09803
11
7.64803
21
-1.09803
0
LINE
8
BLACK
6
CONTINUOUS
10
7.64803
20
-1.09803
11
7.64803
21
-1.025
0
LINE
8
BLACK
6
CONTINUOUS
10
7.64803
20
-1.025
11
7.64861
21
-1.02361
0
LINE
8
BLACK
6
CONTINUOUS
10
7.64861
20
-1.02361
11
7.65
21
-1.02303
0
LINE
8
BLACK
6
CONTINUOUS
10
7.65
20
-1.02303
11
7.65139
21
-1.02361
0
LINE
8
BLACK
6
CONTINUOUS
10
7.65139
20
-1.02361
11
7.65197
21
-1.025
0
LINE
8
BLACK
6
CONTINUOUS
10
7.65197
20
-1.025
11
7.65197
21
-1.09803
0
LINE
8
BLACK
6
CONTINUOUS
10
7.65197
20
-1.09803
11
7.72303
21
-1.09803
0
LINE
8
BLACK
6
CONTINUOUS
10
7.72303
20
-1.09803
11
7.72303
21
-0.976969
0
LINE
8
BLACK
6
CONTINUOUS
10
7.72303
20
-0.976969
11
6.97697
21
-0.976969
0
LINE
8
BLACK
6
CONTINUOUS
10
7.05139
20
-1.03861
11
7.05197
21
-1.04
0
LINE
8
BLACK
6
CONTINUOUS
10
7.05197
20
-1.04
11
7.05197
21
-1.165
0
LINE
8
BLACK
6
CONTINUOUS
10
7.05197
20
-1.165
11
7.05139
21
-1.16639
0
LINE
8
BLACK
6
CONTINUOUS
10
7.05139
20
-1.16639
11
7.05
21
-1.16697
0
LINE
8
BLACK
6
CONTINUOUS
10
7.05
20
-1.16697
11
7.04861
21
-1.16639
0
LINE
8
BLACK
6
CONTINUOUS
10
7.04861
20
-1.16639
11
7.04803
21
-1.165
0
LINE
8
BLACK
6
CONTINUOUS
10
7.04803
20
-1.165
11
7.04803
21
-1.04
0
LINE
8
BLACK
6
CONTINUOUS
10
7.04803
20
-1.04
11
7.04861
21
-1.03861
0
LINE
8
BLACK
6
CONTINUOUS
10
7.04861
20
-1.03861
11
7.05
21
-1.03803
0
LINE
8
BLACK
6
CONTINUOUS
10
7.05
20
-1.03803
11
7.05139
21
-1.03861
0
LINE
8
BLACK
6
CONTINUOUS
10
8.39861
20
-1.22639
11
8.39803
21
-1.225
0
LINE
8
BLACK
6
CONTINUOUS
10
8.39803
20
-1.225
11
8.39803
21
-0.975
0
LINE
8
BLACK
6
CONTINUOUS
10
8.39803
20
-0.975
11
8.39861
21
-0.973608
0
LINE
8
BLACK
6
CONTINUOUS
10
8.39861
20
-0.973608
11
8.4
21
-0.973031
0
LINE
8
BLACK
6
CONTINUOUS
10
8.4
20
-0.973031
11
9.15
21
-0.973031
0
LINE
8
BLACK
6
CONTINUOUS
10
9.15
20
-0.973031
11
9.15139
21
-0.973608
0
LINE
8
BLACK
6
CONTINUOUS
10
9.15139
20
-0.973608
11
9.15197
21
-0.975
0
LINE
8
BLACK
6
CONTINUOUS
10
9.15197
20
-0.975
11
9.15197
21
-1.225
0
LINE
8
BLACK
6
CONTINUOUS
10
9.15197
20
-1.225
11
9.15139
21
-1.22639
0
LINE
8
BLACK
6
CONTINUOUS
10
9.15139
20
-1.22639
11
9.15
21
-1.22697
0
LINE
8
BLACK
6
CONTINUOUS
10
9.15
20
-1.22697
11
8.4
21
-1.22697
0
LINE
8
BLACK
6
CONTINUOUS
10
8.4
20
-1.22697
11
8.39861
21
-1.22639
0
LINE
8
BLACK
6
CONTINUOUS
10
8.40197
20
-0.976969
11
8.40197
21
-1.22303
0
LINE
8
BLACK
6
CONTINUOUS
10
8.40197
20
-1.22303
11
9.14803
21
-1.22303
0
LINE
8
BLACK
6
CONTINUOUS
10
9.14803
20
-1.22303
11
9.14803
21
-0.976969
0
LINE
8
BLACK
6
CONTINUOUS
10
9.14803
20
-0.976969
11
8.40197
21
-0.976969
0
LINE
8
BLACK
6
CONTINUOUS
10
8.47697
20
-1.17
11
8.47639
21
-1.17139
0
LINE
8
BLACK
6
CONTINUOUS
10
8.47639
20
-1.17139
11
8.475
21
-1.17197
0
LINE
8
BLACK
6
CONTINUOUS
10
8.475
20
-1.17197
11
8.47361
21
-1.17139
0
LINE
8
BLACK
6
CONTINUOUS
10
8.47361
20
-1.17139
11
8.47303
21
-1.17
0
LINE
8
BLACK
6
CONTINUOUS
10
8.47303
20
-1.17
11
8.47303
21
-1.10197
0
LINE
8
BLACK
6
CONTINUOUS
10
8.47303
20
-1.10197
11
8.425
21
-1.10197
0
LINE
8
BLACK
6
CONTINUOUS
10
8.425
20
-1.10197
11
8.42361
21
-1.10139
0
LINE
8
BLACK
6
CONTINUOUS
10
8.42361
20
-1.10139
11
8.42303
21
-1.1
0
LINE
8
BLACK
6
CONTINUOUS
10
8.42303
20
-1.1
11
8.42361
21
-1.09861
0
LINE
8
BLACK
6
CONTINUOUS
10
8.42361
20
-1.09861
11
8.425
21
-1.09803
0
LINE
8
BLACK
6
CONTINUOUS
10
8.425
20
-1.09803
11
8.47303
21
-1.09803
0
LINE
8
BLACK
6
CONTINUOUS
10
8.47303
20
-1.09803
11
8.47303
21
-1.045
0
LINE
8
BLACK
6
CONTINUOUS
10
8.47303
20
-1.045
11
8.47361
21
-1.04361
0
LINE
8
BLACK
6
CONTINUOUS
10
8.47361
20
-1.04361
11
8.475
21
-1.04303
0
LINE
8
BLACK
6
CONTINUOUS
10
8.475
20
-1.04303
11
8.47639
21
-1.04361
0
LINE
8
BLACK
6
CONTINUOUS
10
8.47639
20
-1.04361
11
8.47697
21
-1.045
0
LINE
8
BLACK
6
CONTINUOUS
10
8.47697
20
-1.045
11
8.47697
21
-1.09803
0
LINE
8
BLACK
6
CONTINUOUS
10
8.47697
20
-1.09803
11
9.07303
21
-1.09803
0
LINE
8
BLACK
6
CONTINUOUS
10
9.07303
20
-1.09803
11
9.07303
21
-1.025
0
LINE
8
BLACK
6
CONTINUOUS
10
9.07303
20
-1.025
11
9.07361
21
-1.02361
0
LINE
8
BLACK
6
CONTINUOUS
10
9.07361
20
-1.02361
11
9.075
21
-1.02303
0
LINE
8
BLACK
6
CONTINUOUS
10
9.075
20
-1.02303
11
9.07639
21
-1.02361
0
LINE
8
BLACK
6
CONTINUOUS
10
9.07639
20
-1.02361
11
9.07697
21
-1.025
0
LINE
8
BLACK
6
CONTINUOUS
10
9.07697
20
-1.025
11
9.07697
21
-1.09803
0
LINE
8
BLACK
6
CONTINUOUS
10
9.07697
20
-1.09803
11
9.125
21
-1.09803
0
LINE
8
BLACK
6
CONTINUOUS
10
9.125
20
-1.09803
11
9.12639
21
-1.09861
0
LINE
8
BLACK
6
CONTINUOUS
10
9.12639
20
-1.09861
11
9.12697
21
-1.1
0
LINE
8
BLACK
6
CONTINUOUS
10
9.12697
20
-1.1
11
9.12639
21
-1.10139
0
LINE
8
BLACK
6
CONTINUOUS
10
9.12639
20
-1.10139
11
9.125
21
-1.10197
0
LINE
8
BLACK
6
CONTINUOUS
10
9.125
20
-1.10197
11
9.07697
21
-1.10197
0
LINE
8
BLACK
6
CONTINUOUS
10
9.07697
20
-1.10197
11
9.07697
21
-1.15
0
LINE
8
BLACK
6
CONTINUOUS
10
9.07697
20
-1.15
11
9.07639
21
-1.15139
0
LINE
8
BLACK
6
CONTINUOUS
10
9.07639
20
-1.15139
11
9.075
21
-1.15197
0
LINE
8
BLACK
6
CONTINUOUS
10
9.075
20
-1.15197
11
9.07361
21
-1.15139
0
LINE
8
BLACK
6
CONTINUOUS
10
9.07361
20
-1.15139
11
9.07303
21
-1.15
0
LINE
8
BLACK
6
CONTINUOUS
10
9.07303
20
-1.15
11
9.07303
21
-1.10197
0
LINE
8
BLACK
6
CONTINUOUS
10
9.07303
20
-1.10197
11
8.47697
21
-1.10197
0
LINE
8
BLACK
6
CONTINUOUS
10
8.47697
20
-1.10197
11
8.47697
21
-1.17
0
LINE
8
BLACK
6
CONTINUOUS
10
10.3514
20
-8.49861
11
10.352
21
-8.5
0
LINE
8
BLACK
6
CONTINUOUS
10
10.352
20
-8.5
11
10.352
21
-8.52303
0
LINE
8
BLACK
6
CONTINUOUS
10
10.352
20
-8.52303
11
10.375
21
-8.52303
0
LINE
8
BLACK
6
CONTINUOUS
10
10.375
20
-8.52303
11
10.3764
21
-8.52361
0
LINE
8
BLACK
6
CONTINUOUS
10
10.3764
20
-8.52361
11
10.377
21
-8.525
0
LINE
8
BLACK
6
CONTINUOUS
10
10.377
20
-8.525
11
10.3764
21
-8.52639
0
LINE
8
BLACK
6
CONTINUOUS
10
10.3764
20
-8.52639
11
10.375
21
-8.52697
0
LINE
8
BLACK
6
CONTINUOUS
10
10.375
20
-8.52697
11
10.352
21
-8.52697
0
LINE
8
BLACK
6
CONTINUOUS
10
10.352
20
-8.52697
11
10.352
21
-8.55
0
LINE
8
BLACK
6
CONTINUOUS
10
10.352
20
-8.55
11
10.3514
21
-8.55139
0
LINE
8
BLACK
6
CONTINUOUS
10
10.3514
20
-8.55139
11
10.35
21
-8.55197
0
LINE
8
BLACK
6
CONTINUOUS
10
10.35
20
-8.55197
11
10.3486
21
-8.55139
0
LINE
8
BLACK
6
CONTINUOUS
10
10.3486
20
-8.55139
11
10.348
21
-8.55
0
LINE
8
BLACK
6
CONTINUOUS
10
10.348
20
-8.55
11
10.348
21
-8.52697
0
LINE
8
BLACK
6
CONTINUOUS
10
10.348
20
-8.52697
11
10.325
21
-8.52697
0
LINE
8
BLACK
6
CONTINUOUS
10
10.325
20
-8.52697
11
10.3236
21
-8.52639
0
LINE
8
BLACK
6
CONTINUOUS
10
10.3236
20
-8.52639
11
10.323
21
-8.525
0
LINE
8
BLACK
6
CONTINUOUS
10
10.323
20
-8.525
11
10.3236
21
-8.52361
0
LINE
8
BLACK
6
CONTINUOUS
10
10.3236
20
-8.52361
11
10.325
21
-8.52303
0
LINE
8
BLACK
6
CONTINUOUS
10
10.325
20
-8.52303
11
10.348
21
-8.52303
0
LINE
8
BLACK
6
CONTINUOUS
10
10.348
20
-8.52303
11
10.348
21
-8.5
0
LINE
8
BLACK
6
CONTINUOUS
10
10.348
20
-8.5
11
10.3486
21
-8.49861
0
LINE
8
BLACK
6
CONTINUOUS
10
10.3486
20
-8.49861
11
10.35
21
-8.49803
0
LINE
8
BLACK
6
CONTINUOUS
10
10.35
20
-8.49803
11
10.3514
21
-8.49861
0
LINE
8
BLACK
6
CONTINUOUS
10
0.926392
20
-8.49861
11
0.926969
21
-8.5
0
LINE
8
BLACK
6
CONTINUOUS
10
0.926969
20
-8.5
11
0.926969
21
-8.52303
0
LINE
8
BLACK
6
CONTINUOUS
10
0.926969
20
-8.52303
11
0.95
21
-8.52303
0
LINE
8
BLACK
6
CONTINUOUS
10
0.95
20
-8.52303
11
0.951392
21
-8.52361
0
LINE
8
BLACK
6
CONTINUOUS
10
0.951392
20
-8.52361
11
0.951969
21
-8.525
0
LINE
8
BLACK
6
CONTINUOUS
10
0.951969
20
-8.525
11
0.951392
21
-8.52639
0
LINE
8
BLACK
6
CONTINUOUS
10
0.951392
20
-8.52639
11
0.95
21
-8.52697
0
LINE
8
BLACK
6
CONTINUOUS
10
0.95
20
-8.52697
11
0.926969
21
-8.52697
0
LINE
8
BLACK
6
CONTINUOUS
10
0.926969
20
-8.52697
11
0.926969
21
-8.55
0
LINE
8
BLACK
6
CONTINUOUS
10
0.926969
20
-8.55
11
0.926392
21
-8.55139
0
LINE
8
BLACK
6
CONTINUOUS
10
0.926392
20
-8.55139
11
0.925
21
-8.55197
0
LINE
8
BLACK
6
CONTINUOUS
10
0.925
20
-8.55197
11
0.923608
21
-8.55139
0
LINE
8
BLACK
6
CONTINUOUS
10
0.923608
20
-8.55139
11
0.923031
21
-8.55
0
LINE
8
BLACK
6
CONTINUOUS
10
0.923031
20
-8.55
11
0.923031
21
-8.52697
0
LINE
8
BLACK
6
CONTINUOUS
10
0.923031
20
-8.52697
11
0.9
21
-8.52697
0
LINE
8
BLACK
6
CONTINUOUS
10
0.9
20
-8.52697
11
0.898608
21
-8.52639
0
LINE
8
BLACK
6
CONTINUOUS
10
0.898608
20
-8.52639
11
0.898031
21
-8.525
0
LINE
8
BLACK
6
CONTINUOUS
10
0.898031
20
-8.525
11
0.898608
21
-8.52361
0
LINE
8
BLACK
6
CONTINUOUS
10
0.898608
20
-8.52361
11
0.9
21
-8.52303
0
LINE
8
BLACK
6
CONTINUOUS
10
0.9
20
-8.52303
11
0.923031
21
-8.52303
0
LINE
8
BLACK
6
CONTINUOUS
10
0.923031
20
-8.52303
11
0.923031
21
-8.5
0
LINE
8
BLACK
6
CONTINUOUS
10
0.923031
20
-8.5
11
0.923608
21
-8.49861
0
LINE
8
BLACK
6
CONTINUOUS
10
0.923608
20
-8.49861
11
0.925
21
-8.49803
0
LINE
8
BLACK
6
CONTINUOUS
10
0.925
20
-8.49803
11
0.926392
21
-8.49861
0
LINE
8
BLACK
6
CONTINUOUS
10
10.4937
20
-7.8897
11
10.4952
21
-7.891
0
LINE
8
BLACK
6
CONTINUOUS
10
10.4952
20
-7.891
11
10.4956
21
-7.89299
0
LINE
8
BLACK
6
CONTINUOUS
10
10.4956
20
-7.89299
11
10.4946
21
-7.89473
0
LINE
8
BLACK
6
CONTINUOUS
10
10.4946
20
-7.89473
11
10.4944
21
-7.89482
0
LINE
8
BLACK
6
CONTINUOUS
10
10.4944
20
-7.89482
11
10.4953
21
-7.89678
0
LINE
8
BLACK
6
CONTINUOUS
10
10.4953
20
-7.89678
11
10.4956
21
-7.89776
0
LINE
8
BLACK
6
CONTINUOUS
10
10.4956
20
-7.89776
11
10.4956
21
-7.89793
0
LINE
8
BLACK
6
CONTINUOUS
10
10.4956
20
-7.89793
11
10.4956
21
-7.8981
0
LINE
8
BLACK
6
CONTINUOUS
10
10.4956
20
-7.8981
11
10.4956
21
-7.90372
0
LINE
8
BLACK
6
CONTINUOUS
10
10.4956
20
-7.90372
11
10.4955
21
-7.90473
0
LINE
8
BLACK
6
CONTINUOUS
10
10.4955
20
-7.90473
11
10.4953
21
-7.90487
0
LINE
8
BLACK
6
CONTINUOUS
10
10.4953
20
-7.90487
11
10.4953
21
-7.90504
0
LINE
8
BLACK
6
CONTINUOUS
10
10.4953
20
-7.90504
11
10.4935
21
-7.90879
0
LINE
8
BLACK
6
CONTINUOUS
10
10.4935
20
-7.90879
11
10.493
21
-7.90936
0
LINE
8
BLACK
6
CONTINUOUS
10
10.493
20
-7.90936
11
10.4931
21
-7.9096
0
LINE
8
BLACK
6
CONTINUOUS
10
10.4931
20
-7.9096
11
10.4935
21
-7.9099
0
LINE
8
BLACK
6
CONTINUOUS
10
10.4935
20
-7.9099
11
10.4953
21
-7.91365
0
LINE
8
BLACK
6
CONTINUOUS
10
10.4953
20
-7.91365
11
10.4956
21
-7.91463
0
LINE
8
BLACK
6
CONTINUOUS
10
10.4956
20
-7.91463
11
10.4956
21
-7.9148
0
LINE
8
BLACK
6
CONTINUOUS
10
10.4956
20
-7.9148
11
10.4956
21
-7.91497
0
LINE
8
BLACK
6
CONTINUOUS
10
10.4956
20
-7.91497
11
10.4956
21
-7.92059
0
LINE
8
BLACK
6
CONTINUOUS
10
10.4956
20
-7.92059
11
10.4955
21
-7.9216
0
LINE
8
BLACK
6
CONTINUOUS
10
10.4955
20
-7.9216
11
10.4953
21
-7.92174
0
LINE
8
BLACK
6
CONTINUOUS
10
10.4953
20
-7.92174
11
10.4953
21
-7.92191
0
LINE
8
BLACK
6
CONTINUOUS
10
10.4953
20
-7.92191
11
10.4935
21
-7.92566
0
LINE
8
BLACK
6
CONTINUOUS
10
10.4935
20
-7.92566
11
10.4928
21
-7.92649
0
LINE
8
BLACK
6
CONTINUOUS
10
10.4928
20
-7.92649
11
10.4924
21
-7.92666
0
LINE
8
BLACK
6
CONTINUOUS
10
10.4924
20
-7.92666
11
10.4921
21
-7.92698
0
LINE
8
BLACK
6
CONTINUOUS
10
10.4921
20
-7.92698
11
10.4884
21
-7.92886
0
LINE
8
BLACK
6
CONTINUOUS
10
10.4884
20
-7.92886
11
10.4874
21
-7.92915
0
LINE
8
BLACK
6
CONTINUOUS
10
10.4874
20
-7.92915
11
10.4872
21
-7.92911
0
LINE
8
BLACK
6
CONTINUOUS
10
10.4872
20
-7.92911
11
10.4871
21
-7.92917
0
LINE
8
BLACK
6
CONTINUOUS
10
10.4871
20
-7.92917
11
10.4664
21
-7.92917
0
LINE
8
BLACK
6
CONTINUOUS
10
10.4664
20
-7.92917
11
10.4654
21
-7.92899
0
LINE
8
BLACK
6
CONTINUOUS
10
10.4654
20
-7.92899
11
10.4639
21
-7.92769
0
LINE
8
BLACK
6
CONTINUOUS
10
10.4639
20
-7.92769
11
10.4635
21
-7.92571
0
LINE
8
BLACK
6
CONTINUOUS
10
10.4635
20
-7.92571
11
10.4645
21
-7.92396
0
LINE
8
BLACK
6
CONTINUOUS
10
10.4645
20
-7.92396
11
10.4664
21
-7.92327
0
LINE
8
BLACK
6
CONTINUOUS
10
10.4664
20
-7.92327
11
10.4864
21
-7.92327
0
LINE
8
BLACK
6
CONTINUOUS
10
10.4864
20
-7.92327
11
10.4886
21
-7.92214
0
LINE
8
BLACK
6
CONTINUOUS
10
10.4886
20
-7.92214
11
10.4897
21
-7.9199
0
LINE
8
BLACK
6
CONTINUOUS
10
10.4897
20
-7.9199
11
10.4897
21
-7.91567
0
LINE
8
BLACK
6
CONTINUOUS
10
10.4897
20
-7.91567
11
10.4886
21
-7.91342
0
LINE
8
BLACK
6
CONTINUOUS
10
10.4886
20
-7.91342
11
10.4864
21
-7.9123
0
LINE
8
BLACK
6
CONTINUOUS
10
10.4864
20
-7.9123
11
10.4664
21
-7.9123
0
LINE
8
BLACK
6
CONTINUOUS
10
10.4664
20
-7.9123
11
10.4654
21
-7.91212
0
LINE
8
BLACK
6
CONTINUOUS
10
10.4654
20
-7.91212
11
10.4639
21
-7.91082
0
LINE
8
BLACK
6
CONTINUOUS
10
10.4639
20
-7.91082
11
10.4635
21
-7.90883
0
LINE
8
BLACK
6
CONTINUOUS
10
10.4635
20
-7.90883
11
10.4645
21
-7.90708
0
LINE
8
BLACK
6
CONTINUOUS
10
10.4645
20
-7.90708
11
10.4664
21
-7.90639
0
LINE
8
BLACK
6
CONTINUOUS
10
10.4664
20
-7.90639
11
10.4864
21
-7.90639
0
LINE
8
BLACK
6
CONTINUOUS
10
10.4864
20
-7.90639
11
10.4886
21
-7.90527
0
LINE
8
BLACK
6
CONTINUOUS
10
10.4886
20
-7.90527
11
10.4897
21
-7.90302
0
LINE
8
BLACK
6
CONTINUOUS
10
10.4897
20
-7.90302
11
10.4897
21
-7.89879
0
LINE
8
BLACK
6
CONTINUOUS
10
10.4897
20
-7.89879
11
10.4884
21
-7.8961
0
LINE
8
BLACK
6
CONTINUOUS
10
10.4884
20
-7.8961
11
10.4877
21
-7.89543
0
LINE
8
BLACK
6
CONTINUOUS
10
10.4877
20
-7.89543
11
10.4664
21
-7.89543
0
LINE
8
BLACK
6
CONTINUOUS
10
10.4664
20
-7.89543
11
10.4654
21
-7.89525
0
LINE
8
BLACK
6
CONTINUOUS
10
10.4654
20
-7.89525
11
10.4639
21
-7.89395
0
LINE
8
BLACK
6
CONTINUOUS
10
10.4639
20
-7.89395
11
10.4635
21
-7.89196
0
LINE
8
BLACK
6
CONTINUOUS
10
10.4635
20
-7.89196
11
10.4645
21
-7.89021
0
LINE
8
BLACK
6
CONTINUOUS
10
10.4645
20
-7.89021
11
10.4664
21
-7.88952
0
LINE
8
BLACK
6
CONTINUOUS
10
10.4664
20
-7.88952
11
10.4927
21
-7.88952
0
LINE
8
BLACK
6
CONTINUOUS
10
10.4927
20
-7.88952
11
10.4937
21
-7.8897
0
LINE
8
BLACK
6
CONTINUOUS
10
10.4937
20
-7.8372
11
10.4952
21
-7.8385
0
LINE
8
BLACK
6
CONTINUOUS
10
10.4952
20
-7.8385
11
10.4956
21
-7.84049
0
LINE
8
BLACK
6
CONTINUOUS
10
10.4956
20
-7.84049
11
10.4946
21
-7.84224
0
LINE
8
BLACK
6
CONTINUOUS
10
10.4946
20
-7.84224
11
10.4944
21
-7.84233
0
LINE
8
BLACK
6
CONTINUOUS
10
10.4944
20
-7.84233
11
10.4953
21
-7.84428
0
LINE
8
BLACK
6
CONTINUOUS
10
10.4953
20
-7.84428
11
10.4956
21
-7.84527
0
LINE
8
BLACK
6
CONTINUOUS
10
10.4956
20
-7.84527
11
10.4956
21
-7.84544
0
LINE
8
BLACK
6
CONTINUOUS
10
10.4956
20
-7.84544
11
10.4956
21
-7.8456
0
LINE
8
BLACK
6
CONTINUOUS
10
10.4956
20
-7.8456
11
10.4956
21
-7.85123
0
LINE
8
BLACK
6
CONTINUOUS
10
10.4956
20
-7.85123
11
10.4955
21
-7.85224
0
LINE
8
BLACK
6
CONTINUOUS
10
10.4955
20
-7.85224
11
10.4953
21
-7.85237
0
LINE
8
BLACK
6
CONTINUOUS
10
10.4953
20
-7.85237
11
10.4953
21
-7.85255
0
LINE
8
BLACK
6
CONTINUOUS
10
10.4953
20
-7.85255
11
10.4935
21
-7.8563
0
LINE
8
BLACK
6
CONTINUOUS
10
10.4935
20
-7.8563
11
10.493
21
-7.85687
0
LINE
8
BLACK
6
CONTINUOUS
10
10.493
20
-7.85687
11
10.4931
21
-7.8571
0
LINE
8
BLACK
6
CONTINUOUS
10
10.4931
20
-7.8571
11
10.4935
21
-7.85741
0
LINE
8
BLACK
6
CONTINUOUS
10
10.4935
20
-7.85741
11
10.4953
21
-7.86116
0
LINE
8
BLACK
6
CONTINUOUS
10
10.4953
20
-7.86116
11
10.4956
21
-7.86214
0
LINE
8
BLACK
6
CONTINUOUS
10
10.4956
20
-7.86214
11
10.4956
21
-7.86231
0
LINE
8
BLACK
6
CONTINUOUS
10
10.4956
20
-7.86231
11
10.4956
21
-7.86248
0
LINE
8
BLACK
6
CONTINUOUS
10
10.4956
20
-7.86248
11
10.4956
21
-7.8681
0
LINE
8
BLACK
6
CONTINUOUS
10
10.4956
20
-7.8681
11
10.4955
21
-7.86911
0
LINE
8
BLACK
6
CONTINUOUS
10
10.4955
20
-7.86911
11
10.4953
21
-7.86925
0
LINE
8
BLACK
6
CONTINUOUS
10
10.4953
20
-7.86925
11
10.4953
21
-7.86942
0
LINE
8
BLACK
6
CONTINUOUS
10
10.4953
20
-7.86942
11
10.4935
21
-7.87317
0
LINE
8
BLACK
6
CONTINUOUS
10
10.4935
20
-7.87317
11
10.4928
21
-7.87399
0
LINE
8
BLACK
6
CONTINUOUS
10
10.4928
20
-7.87399
11
10.4924
21
-7.87417
0
LINE
8
BLACK
6
CONTINUOUS
10
10.4924
20
-7.87417
11
10.4921
21
-7.87449
0
LINE
8
BLACK
6
CONTINUOUS
10
10.4921
20
-7.87449
11
10.4884
21
-7.87637
0
LINE
8
BLACK
6
CONTINUOUS
10
10.4884
20
-7.87637
11
10.4874
21
-7.87666
0
LINE
8
BLACK
6
CONTINUOUS
10
10.4874
20
-7.87666
11
10.4872
21
-7.87662
0
LINE
8
BLACK
6
CONTINUOUS
10
10.4872
20
-7.87662
11
10.4871
21
-7.87668
0
LINE
8
BLACK
6
CONTINUOUS
10
10.4871
20
-7.87668
11
10.4664
21
-7.87668
0
LINE
8
BLACK
6
CONTINUOUS
10
10.4664
20
-7.87668
11
10.4654
21
-7.8765
0
LINE
8
BLACK
6
CONTINUOUS
10
10.4654
20
-7.8765
11
10.4639
21
-7.8752
0
LINE
8
BLACK
6
CONTINUOUS
10
10.4639
20
-7.8752
11
10.4635
21
-7.87321
0
LINE
8
BLACK
6
CONTINUOUS
10
10.4635
20
-7.87321
11
10.4645
21
-7.87146
0
LINE
8
BLACK
6
CONTINUOUS
10
10.4645
20
-7.87146
11
10.4664
21
-7.87077
0
LINE
8
BLACK
6
CONTINUOUS
10
10.4664
20
-7.87077
11
10.4864
21
-7.87077
0
LINE
8
BLACK
6
CONTINUOUS
10
10.4864
20
-7.87077
11
10.4886
21
-7.86965
0
LINE
8
BLACK
6
CONTINUOUS
10
10.4886
20
-7.86965
11
10.4897
21
-7.8674
0
LINE
8
BLACK
6
CONTINUOUS
10
10.4897
20
-7.8674
11
10.4897
21
-7.86317
0
LINE
8
BLACK
6
CONTINUOUS
10
10.4897
20
-7.86317
11
10.4886
21
-7.86093
0
LINE
8
BLACK
6
CONTINUOUS
10
10.4886
20
-7.86093
11
10.4864
21
-7.8598
0
LINE
8
BLACK
6
CONTINUOUS
10
10.4864
20
-7.8598
11
10.4664
21
-7.8598
0
LINE
8
BLACK
6
CONTINUOUS
10
10.4664
20
-7.8598
11
10.4654
21
-7.85963
0
LINE
8
BLACK
6
CONTINUOUS
10
10.4654
20
-7.85963
11
10.4639
21
-7.85833
0
LINE
8
BLACK
6
CONTINUOUS
10
10.4639
20
-7.85833
11
10.4635
21
-7.85634
0
LINE
8
BLACK
6
CONTINUOUS
10
10.4635
20
-7.85634
11
10.4645
21
-7.85459
0
LINE
8
BLACK
6
CONTINUOUS
10
10.4645
20
-7.85459
11
10.4664
21
-7.8539
0
LINE
8
BLACK
6
CONTINUOUS
10
10.4664
20
-7.8539
11
10.4864
21
-7.8539
0
LINE
8
BLACK
6
CONTINUOUS
10
10.4864
20
-7.8539
11
10.4886
21
-7.85278
0
LINE
8
BLACK
6
CONTINUOUS
10
10.4886
20
-7.85278
11
10.4897
21
-7.85053
0
LINE
8
BLACK
6
CONTINUOUS
10
10.4897
20
-7.85053
11
10.4897
21
-7.8463
0
LINE
8
BLACK
6
CONTINUOUS
10
10.4897
20
-7.8463
11
10.4884
21
-7.8436
0
LINE
8
BLACK
6
CONTINUOUS
10
10.4884
20
-7.8436
11
10.4877
21
-7.84293
0
LINE
8
BLACK
6
CONTINUOUS
10
10.4877
20
-7.84293
11
10.4664
21
-7.84293
0
LINE
8
BLACK
6
CONTINUOUS
10
10.4664
20
-7.84293
11
10.4654
21
-7.84275
0
LINE
8
BLACK
6
CONTINUOUS
10
10.4654
20
-7.84275
11
10.4639
21
-7.84146
0
LINE
8
BLACK
6
CONTINUOUS
10
10.4639
20
-7.84146
11
10.4635
21
-7.83947
0
LINE
8
BLACK
6
CONTINUOUS
10
10.4635
20
-7.83947
11
10.4645
21
-7.83772
0
LINE
8
BLACK
6
CONTINUOUS
10
10.4645
20
-7.83772
11
10.4664
21
-7.83703
0
LINE
8
BLACK
6
CONTINUOUS
10
10.4664
20
-7.83703
11
10.4927
21
-7.83703
0
LINE
8
BLACK
6
CONTINUOUS
10
10.4927
20
-7.83703
11
10.4937
21
-7.8372
0
LINE
8
BLACK
6
CONTINUOUS
10
10.4824
20
-7.79783
11
10.4826
21
-7.79795
0
LINE
8
BLACK
6
CONTINUOUS
10
10.4826
20
-7.79795
11
10.4828
21
-7.79797
0
LINE
8
BLACK
6
CONTINUOUS
10
10.4828
20
-7.79797
11
10.4865
21
-7.79984
0
LINE
8
BLACK
6
CONTINUOUS
10
10.4865
20
-7.79984
11
10.4872
21
-7.80037
0
LINE
8
BLACK
6
CONTINUOUS
10
10.4872
20
-7.80037
11
10.4873
21
-7.8004
0
LINE
8
BLACK
6
CONTINUOUS
10
10.4873
20
-7.8004
11
10.4889
21
-7.80206
0
LINE
8
BLACK
6
CONTINUOUS
10
10.4889
20
-7.80206
11
10.4906
21
-7.8004
0
LINE
8
BLACK
6
CONTINUOUS
10
10.4906
20
-7.8004
11
10.4913
21
-7.79989
0
LINE
8
BLACK
6
CONTINUOUS
10
10.4913
20
-7.79989
11
10.4914
21
-7.79984
0
LINE
8
BLACK
6
CONTINUOUS
10
10.4914
20
-7.79984
11
10.4951
21
-7.79797
0
LINE
8
BLACK
6
CONTINUOUS
10
10.4951
20
-7.79797
11
10.4961
21
-7.79768
0
LINE
8
BLACK
6
CONTINUOUS
10
10.4961
20
-7.79768
11
10.4963
21
-7.79772
0
LINE
8
BLACK
6
CONTINUOUS
10
10.4963
20
-7.79772
11
10.4964
21
-7.79766
0
LINE
8
BLACK
6
CONTINUOUS
10
10.4964
20
-7.79766
11
10.4983
21
-7.79766
0
LINE
8
BLACK
6
CONTINUOUS
10
10.4983
20
-7.79766
11
10.4993
21
-7.79783
0
LINE
8
BLACK
6
CONTINUOUS
10
10.4993
20
-7.79783
11
10.4995
21
-7.79795
0
LINE
8
BLACK
6
CONTINUOUS
10
10.4995
20
-7.79795
11
10.4996
21
-7.79797
0
LINE
8
BLACK
6
CONTINUOUS
10
10.4996
20
-7.79797
11
10.5034
21
-7.79984
0
LINE
8
BLACK
6
CONTINUOUS
10
10.5034
20
-7.79984
11
10.5041
21
-7.80037
0
LINE
8
BLACK
6
CONTINUOUS
10
10.5041
20
-7.80037
11
10.5042
21
-7.8004
0
LINE
8
BLACK
6
CONTINUOUS
10
10.5042
20
-7.8004
11
10.506
21
-7.80227
0
LINE
8
BLACK
6
CONTINUOUS
10
10.506
20
-7.80227
11
10.5065
21
-7.80299
0
LINE
8
BLACK
6
CONTINUOUS
10
10.5065
20
-7.80299
11
10.5066
21
-7.80304
0
LINE
8
BLACK
6
CONTINUOUS
10
10.5066
20
-7.80304
11
10.5085
21
-7.80679
0
LINE
8
BLACK
6
CONTINUOUS
10
10.5085
20
-7.80679
11
10.5087
21
-7.80777
0
LINE
8
BLACK
6
CONTINUOUS
10
10.5087
20
-7.80777
11
10.5087
21
-7.80794
0
LINE
8
BLACK
6
CONTINUOUS
10
10.5087
20
-7.80794
11
10.5088
21
-7.80811
0
LINE
8
BLACK
6
CONTINUOUS
10
10.5088
20
-7.80811
11
10.5088
21
-7.81561
0
LINE
8
BLACK
6
CONTINUOUS
10
10.5088
20
-7.81561
11
10.5086
21
-7.81662
0
LINE
8
BLACK
6
CONTINUOUS
10
10.5086
20
-7.81662
11
10.5085
21
-7.81675
0
LINE
8
BLACK
6
CONTINUOUS
10
10.5085
20
-7.81675
11
10.5085
21
-7.81693
0
LINE
8
BLACK
6
CONTINUOUS
10
10.5085
20
-7.81693
11
10.5066
21
-7.82068
0
LINE
8
BLACK
6
CONTINUOUS
10
10.5066
20
-7.82068
11
10.5061
21
-7.82139
0
LINE
8
BLACK
6
CONTINUOUS
10
10.5061
20
-7.82139
11
10.506
21
-7.82144
0
LINE
8
BLACK
6
CONTINUOUS
10
10.506
20
-7.82144
11
10.5042
21
-7.82332
0
LINE
8
BLACK
6
CONTINUOUS
10
10.5042
20
-7.82332
11
10.5034
21
-7.82383
0
LINE
8
BLACK
6
CONTINUOUS
10
10.5034
20
-7.82383
11
10.5034
21
-7.82387
0
LINE
8
BLACK
6
CONTINUOUS
10
10.5034
20
-7.82387
11
10.4996
21
-7.82575
0
LINE
8
BLACK
6
CONTINUOUS
10
10.4996
20
-7.82575
11
10.4987
21
-7.82604
0
LINE
8
BLACK
6
CONTINUOUS
10
10.4987
20
-7.82604
11
10.4985
21
-7.826
0
LINE
8
BLACK
6
CONTINUOUS
10
10.4985
20
-7.826
11
10.4983
21
-7.82606
0
LINE
8
BLACK
6
CONTINUOUS
10
10.4983
20
-7.82606
11
10.4964
21
-7.82606
0
LINE
8
BLACK
6
CONTINUOUS
10
10.4964
20
-7.82606
11
10.4954
21
-7.82588
0
LINE
8
BLACK
6
CONTINUOUS
10
10.4954
20
-7.82588
11
10.4953
21
-7.82577
0
LINE
8
BLACK
6
CONTINUOUS
10
10.4953
20
-7.82577
11
10.4951
21
-7.82575
0
LINE
8
BLACK
6
CONTINUOUS
10
10.4951
20
-7.82575
11
10.4914
21
-7.82387
0
LINE
8
BLACK
6
CONTINUOUS
10
10.4914
20
-7.82387
11
10.4907
21
-7.82335
0
LINE
8
BLACK
6
CONTINUOUS
10
10.4907
20
-7.82335
11
10.4906
21
-7.82332
0
LINE
8
BLACK
6
CONTINUOUS
10
10.4906
20
-7.82332
11
10.4889
21
-7.82166
0
LINE
8
BLACK
6
CONTINUOUS
10
10.4889
20
-7.82166
11
10.4873
21
-7.82332
0
LINE
8
BLACK
6
CONTINUOUS
10
10.4873
20
-7.82332
11
10.4866
21
-7.82383
0
LINE
8
BLACK
6
CONTINUOUS
10
10.4866
20
-7.82383
11
10.4865
21
-7.82387
0
LINE
8
BLACK
6
CONTINUOUS
10
10.4865
20
-7.82387
11
10.4828
21
-7.82575
0
LINE
8
BLACK
6
CONTINUOUS
10
10.4828
20
-7.82575
11
10.4818
21
-7.82604
0
LINE
8
BLACK
6
CONTINUOUS
10
10.4818
20
-7.82604
11
10.4816
21
-7.826
0
LINE
8
BLACK
6
CONTINUOUS
10
10.4816
20
-7.826
11
10.4814
21
-7.82606
0
LINE
8
BLACK
6
CONTINUOUS
10
10.4814
20
-7.82606
11
10.4739
21
-7.82606
0
LINE
8
BLACK
6
CONTINUOUS
10
10.4739
20
-7.82606
11
10.4729
21
-7.82588
0
LINE
8
BLACK
6
CONTINUOUS
10
10.4729
20
-7.82588
11
10.4728
21
-7.82577
0
LINE
8
BLACK
6
CONTINUOUS
10
10.4728
20
-7.82577
11
10.4726
21
-7.82575
0
LINE
8
BLACK
6
CONTINUOUS
10
10.4726
20
-7.82575
11
10.4689
21
-7.82387
0
LINE
8
BLACK
6
CONTINUOUS
10
10.4689
20
-7.82387
11
10.4682
21
-7.82335
0
LINE
8
BLACK
6
CONTINUOUS
10
10.4682
20
-7.82335
11
10.4681
21
-7.82332
0
LINE
8
BLACK
6
CONTINUOUS
10
10.4681
20
-7.82332
11
10.4662
21
-7.82144
0
LINE
8
BLACK
6
CONTINUOUS
10
10.4662
20
-7.82144
11
10.4657
21
-7.82072
0
LINE
8
BLACK
6
CONTINUOUS
10
10.4657
20
-7.82072
11
10.4657
21
-7.82068
0
LINE
8
BLACK
6
CONTINUOUS
10
10.4657
20
-7.82068
11
10.4638
21
-7.81693
0
LINE
8
BLACK
6
CONTINUOUS
10
10.4638
20
-7.81693
11
10.4635
21
-7.81594
0
LINE
8
BLACK
6
CONTINUOUS
10
10.4635
20
-7.81594
11
10.4635
21
-7.81577
0
LINE
8
BLACK
6
CONTINUOUS
10
10.4635
20
-7.81577
11
10.4635
21
-7.81561
0
LINE
8
BLACK
6
CONTINUOUS
10
10.4635
20
-7.81561
11
10.4635
21
-7.80811
0
LINE
8
BLACK
6
CONTINUOUS
10
10.4635
20
-7.80811
11
10.4637
21
-7.8071
0
LINE
8
BLACK
6
CONTINUOUS
10
10.4637
20
-7.8071
11
10.4638
21
-7.80696
0
LINE
8
BLACK
6
CONTINUOUS
10
10.4638
20
-7.80696
11
10.4638
21
-7.80679
0
LINE
8
BLACK
6
CONTINUOUS
10
10.4638
20
-7.80679
11
10.4657
21
-7.80304
0
LINE
8
BLACK
6
CONTINUOUS
10
10.4657
20
-7.80304
11
10.4662
21
-7.80233
0
LINE
8
BLACK
6
CONTINUOUS
10
10.4662
20
-7.80233
11
10.4662
21
-7.80227
0
LINE
8
BLACK
6
CONTINUOUS
10
10.4662
20
-7.80227
11
10.4681
21
-7.8004
0
LINE
8
BLACK
6
CONTINUOUS
10
10.4681
20
-7.8004
11
10.4688
21
-7.79989
0
LINE
8
BLACK
6
CONTINUOUS
10
10.4688
20
-7.79989
11
10.4689
21
-7.79984
0
LINE
8
BLACK
6
CONTINUOUS
10
10.4689
20
-7.79984
11
10.4726
21
-7.79797
0
LINE
8
BLACK
6
CONTINUOUS
10
10.4726
20
-7.79797
11
10.4736
21
-7.79768
0
LINE
8
BLACK
6
CONTINUOUS
10
10.4736
20
-7.79768
11
10.4738
21
-7.79772
0
LINE
8
BLACK
6
CONTINUOUS
10
10.4738
20
-7.79772
11
10.4739
21
-7.79766
0
LINE
8
BLACK
6
CONTINUOUS
10
10.4739
20
-7.79766
11
10.4814
21
-7.79766
0
LINE
8
BLACK
6
CONTINUOUS
10
10.4814
20
-7.79766
11
10.4824
21
-7.79783
0
LINE
8
BLACK
6
CONTINUOUS
10
10.4971
20
-7.80356
11
10.4944
21
-7.80491
0
LINE
8
BLACK
6
CONTINUOUS
10
10.4944
20
-7.80491
11
10.4932
21
-7.80611
0
LINE
8
BLACK
6
CONTINUOUS
10
10.4932
20
-7.80611
11
10.4919
21
-7.80881
0
LINE
8
BLACK
6
CONTINUOUS
10
10.4919
20
-7.80881
11
10.4919
21
-7.81491
0
LINE
8
BLACK
6
CONTINUOUS
10
10.4919
20
-7.81491
11
10.4932
21
-7.81761
0
LINE
8
BLACK
6
CONTINUOUS
10
10.4932
20
-7.81761
11
10.4944
21
-7.8188
0
LINE
8
BLACK
6
CONTINUOUS
10
10.4944
20
-7.8188
11
10.4971
21
-7.82015
0
LINE
8
BLACK
6
CONTINUOUS
10
10.4971
20
-7.82015
11
10.4976
21
-7.82015
0
LINE
8
BLACK
6
CONTINUOUS
10
10.4976
20
-7.82015
11
10.5003
21
-7.8188
0
LINE
8
BLACK
6
CONTINUOUS
10
10.5003
20
-7.8188
11
10.5015
21
-7.81761
0
LINE
8
BLACK
6
CONTINUOUS
10
10.5015
20
-7.81761
11
10.5029
21
-7.81491
0
LINE
8
BLACK
6
CONTINUOUS
10
10.5029
20
-7.81491
11
10.5029
21
-7.80881
0
LINE
8
BLACK
6
CONTINUOUS
10
10.5029
20
-7.80881
11
10.5015
21
-7.80611
0
LINE
8
BLACK
6
CONTINUOUS
10
10.5015
20
-7.80611
11
10.5003
21
-7.80491
0
LINE
8
BLACK
6
CONTINUOUS
10
10.5003
20
-7.80491
11
10.4976
21
-7.80356
0
LINE
8
BLACK
6
CONTINUOUS
10
10.4976
20
-7.80356
11
10.4971
21
-7.80356
0
LINE
8
BLACK
6
CONTINUOUS
10
10.4746
20
-7.80356
11
10.4719
21
-7.80491
0
LINE
8
BLACK
6
CONTINUOUS
10
10.4719
20
-7.80491
11
10.4707
21
-7.80611
0
LINE
8
BLACK
6
CONTINUOUS
10
10.4707
20
-7.80611
11
10.4694
21
-7.80881
0
LINE
8
BLACK
6
CONTINUOUS
10
10.4694
20
-7.80881
11
10.4694
21
-7.81491
0
LINE
8
BLACK
6
CONTINUOUS
10
10.4694
20
-7.81491
11
10.4707
21
-7.81761
0
LINE
8
BLACK
6
CONTINUOUS
10
10.4707
20
-7.81761
11
10.4719
21
-7.8188
0
LINE
8
BLACK
6
CONTINUOUS
10
10.4719
20
-7.8188
11
10.4746
21
-7.82015
0
LINE
8
BLACK
6
CONTINUOUS
10
10.4746
20
-7.82015
11
10.4807
21
-7.82015
0
LINE
8
BLACK
6
CONTINUOUS
10
10.4807
20
-7.82015
11
10.4834
21
-7.8188
0
LINE
8
BLACK
6
CONTINUOUS
10
10.4834
20
-7.8188
11
10.4846
21
-7.81761
0
LINE
8
BLACK
6
CONTINUOUS
10
10.4846
20
-7.81761
11
10.486
21
-7.81491
0
LINE
8
BLACK
6
CONTINUOUS
10
10.486
20
-7.81491
11
10.486
21
-7.80881
0
LINE
8
BLACK
6
CONTINUOUS
10
10.486
20
-7.80881
11
10.4846
21
-7.80611
0
LINE
8
BLACK
6
CONTINUOUS
10
10.4846
20
-7.80611
11
10.4834
21
-7.80491
0
LINE
8
BLACK
6
CONTINUOUS
10
10.4834
20
-7.80491
11
10.4807
21
-7.80356
0
LINE
8
BLACK
6
CONTINUOUS
10
10.4807
20
-7.80356
11
10.4746
21
-7.80356
0
LINE
8
BLACK
6
CONTINUOUS
10
10.5081
20
-7.75934
11
10.5088
21
-7.76124
0
LINE
8
BLACK
6
CONTINUOUS
10
10.5088
20
-7.76124
11
10.5088
21
-7.78561
0
LINE
8
BLACK
6
CONTINUOUS
10
10.5088
20
-7.78561
11
10.5087
21
-7.78605
0
LINE
8
BLACK
6
CONTINUOUS
10
10.5087
20
-7.78605
11
10.5087
21
-7.78618
0
LINE
8
BLACK
6
CONTINUOUS
10
10.5087
20
-7.78618
11
10.5086
21
-7.78629
0
LINE
8
BLACK
6
CONTINUOUS
10
10.5086
20
-7.78629
11
10.5086
21
-7.78662
0
LINE
8
BLACK
6
CONTINUOUS
10
10.5086
20
-7.78662
11
10.5081
21
-7.78723
0
LINE
8
BLACK
6
CONTINUOUS
10
10.5081
20
-7.78723
11
10.5077
21
-7.78791
0
LINE
8
BLACK
6
CONTINUOUS
10
10.5077
20
-7.78791
11
10.5074
21
-7.78799
0
LINE
8
BLACK
6
CONTINUOUS
10
10.5074
20
-7.78799
11
10.5073
21
-7.78817
0
LINE
8
BLACK
6
CONTINUOUS
10
10.5073
20
-7.78817
11
10.5065
21
-7.78831
0
LINE
8
BLACK
6
CONTINUOUS
10
10.5065
20
-7.78831
11
10.5058
21
-7.78856
0
LINE
8
BLACK
6
CONTINUOUS
10
10.5058
20
-7.78856
11
10.5055
21
-7.78848
0
LINE
8
BLACK
6
CONTINUOUS
10
10.5055
20
-7.78848
11
10.5053
21
-7.78852
0
LINE
8
BLACK
6
CONTINUOUS
10
10.5053
20
-7.78852
11
10.5046
21
-7.78812
0
LINE
8
BLACK
6
CONTINUOUS
10
10.5046
20
-7.78812
11
10.5039
21
-7.78783
0
LINE
8
BLACK
6
CONTINUOUS
10
10.5039
20
-7.78783
11
10.4936
21
-7.77888
0
LINE
8
BLACK
6
CONTINUOUS
10
10.4936
20
-7.77888
11
10.4936
21
-7.77912
0
LINE
8
BLACK
6
CONTINUOUS
10
10.4936
20
-7.77912
11
10.4935
21
-7.77926
0
LINE
8
BLACK
6
CONTINUOUS
10
10.4935
20
-7.77926
11
10.4935
21
-7.77943
0
LINE
8
BLACK
6
CONTINUOUS
10
10.4935
20
-7.77943
11
10.4916
21
-7.78318
0
LINE
8
BLACK
6
CONTINUOUS
10
10.4916
20
-7.78318
11
10.4911
21
-7.78389
0
LINE
8
BLACK
6
CONTINUOUS
10
10.4911
20
-7.78389
11
10.491
21
-7.78395
0
LINE
8
BLACK
6
CONTINUOUS
10
10.491
20
-7.78395
11
10.4892
21
-7.78582
0
LINE
8
BLACK
6
CONTINUOUS
10
10.4892
20
-7.78582
11
10.4884
21
-7.78633
0
LINE
8
BLACK
6
CONTINUOUS
10
10.4884
20
-7.78633
11
10.4884
21
-7.78638
0
LINE
8
BLACK
6
CONTINUOUS
10
10.4884
20
-7.78638
11
10.4846
21
-7.78825
0
LINE
8
BLACK
6
CONTINUOUS
10
10.4846
20
-7.78825
11
10.4837
21
-7.78854
0
LINE
8
BLACK
6
CONTINUOUS
10
10.4837
20
-7.78854
11
10.4835
21
-7.7885
0
LINE
8
BLACK
6
CONTINUOUS
10
10.4835
20
-7.7885
11
10.4833
21
-7.78856
0
LINE
8
BLACK
6
CONTINUOUS
10
10.4833
20
-7.78856
11
10.4739
21
-7.78856
0
LINE
8
BLACK
6
CONTINUOUS
10
10.4739
20
-7.78856
11
10.4729
21
-7.78839
0
LINE
8
BLACK
6
CONTINUOUS
10
10.4729
20
-7.78839
11
10.4728
21
-7.78827
0
LINE
8
BLACK
6
CONTINUOUS
10
10.4728
20
-7.78827
11
10.4726
21
-7.78825
0
LINE
8
BLACK
6
CONTINUOUS
10
10.4726
20
-7.78825
11
10.4689
21
-7.78638
0
LINE
8
BLACK
6
CONTINUOUS
10
10.4689
20
-7.78638
11
10.4682
21
-7.78585
0
LINE
8
BLACK
6
CONTINUOUS
10
10.4682
20
-7.78585
11
10.4681
21
-7.78582
0
LINE
8
BLACK
6
CONTINUOUS
10
10.4681
20
-7.78582
11
10.4662
21
-7.78395
0
LINE
8
BLACK
6
CONTINUOUS
10
10.4662
20
-7.78395
11
10.4657
21
-7.78323
0
LINE
8
BLACK
6
CONTINUOUS
10
10.4657
20
-7.78323
11
10.4657
21
-7.78318
0
LINE
8
BLACK
6
CONTINUOUS
10
10.4657
20
-7.78318
11
10.4638
21
-7.77943
0
LINE
8
BLACK
6
CONTINUOUS
10
10.4638
20
-7.77943
11
10.4635
21
-7.77845
0
LINE
8
BLACK
6
CONTINUOUS
10
10.4635
20
-7.77845
11
10.4635
21
-7.77828
0
LINE
8
BLACK
6
CONTINUOUS
10
10.4635
20
-7.77828
11
10.4635
21
-7.77811
0
LINE
8
BLACK
6
CONTINUOUS
10
10.4635
20
-7.77811
11
10.4635
21
-7.76686
0
LINE
8
BLACK
6
CONTINUOUS
10
10.4635
20
-7.76686
11
10.4637
21
-7.76585
0
LINE
8
BLACK
6
CONTINUOUS
10
10.4637
20
-7.76585
11
10.4638
21
-7.76572
0
LINE
8
BLACK
6
CONTINUOUS
10
10.4638
20
-7.76572
11
10.4638
21
-7.76554
0
LINE
8
BLACK
6
CONTINUOUS
10
10.4638
20
-7.76554
11
10.4657
21
-7.76179
0
LINE
8
BLACK
6
CONTINUOUS
10
10.4657
20
-7.76179
11
10.4662
21
-7.76108
0
LINE
8
BLACK
6
CONTINUOUS
10
10.4662
20
-7.76108
11
10.4662
21
-7.76103
0
LINE
8
BLACK
6
CONTINUOUS
10
10.4662
20
-7.76103
11
10.4681
21
-7.75915
0
LINE
8
BLACK
6
CONTINUOUS
10
10.4681
20
-7.75915
11
10.4689
21
-7.75856
0
LINE
8
BLACK
6
CONTINUOUS
10
10.4689
20
-7.75856
11
10.471
21
-7.75839
0
LINE
8
BLACK
6
CONTINUOUS
10
10.471
20
-7.75839
11
10.4726
21
-7.75955
0
LINE
8
BLACK
6
CONTINUOUS
10
10.4726
20
-7.75955
11
10.4731
21
-7.7615
0
LINE
8
BLACK
6
CONTINUOUS
10
10.4731
20
-7.7615
11
10.4723
21
-7.76333
0
LINE
8
BLACK
6
CONTINUOUS
10
10.4723
20
-7.76333
11
10.4707
21
-7.76486
0
LINE
8
BLACK
6
CONTINUOUS
10
10.4707
20
-7.76486
11
10.4694
21
-7.76756
0
LINE
8
BLACK
6
CONTINUOUS
10
10.4694
20
-7.76756
11
10.4694
21
-7.77742
0
LINE
8
BLACK
6
CONTINUOUS
10
10.4694
20
-7.77742
11
10.4707
21
-7.78011
0
LINE
8
BLACK
6
CONTINUOUS
10
10.4707
20
-7.78011
11
10.4719
21
-7.78131
0
LINE
8
BLACK
6
CONTINUOUS
10
10.4719
20
-7.78131
11
10.4746
21
-7.78266
0
LINE
8
BLACK
6
CONTINUOUS
10
10.4746
20
-7.78266
11
10.4826
21
-7.78266
0
LINE
8
BLACK
6
CONTINUOUS
10
10.4826
20
-7.78266
11
10.4853
21
-7.78131
0
LINE
8
BLACK
6
CONTINUOUS
10
10.4853
20
-7.78131
11
10.4865
21
-7.78011
0
LINE
8
BLACK
6
CONTINUOUS
10
10.4865
20
-7.78011
11
10.4879
21
-7.77742
0
LINE
8
BLACK
6
CONTINUOUS
10
10.4879
20
-7.77742
11
10.4879
21
-7.77249
0
LINE
8
BLACK
6
CONTINUOUS
10
10.4879
20
-7.77249
11
10.4879
21
-7.77205
0
LINE
8
BLACK
6
CONTINUOUS
10
10.4879
20
-7.77205
11
10.4879
21
-7.77191
0
LINE
8
BLACK
6
CONTINUOUS
10
10.4879
20
-7.77191
11
10.488
21
-7.77181
0
LINE
8
BLACK
6
CONTINUOUS
10
10.488
20
-7.77181
11
10.488
21
-7.77148
0
LINE
8
BLACK
6
CONTINUOUS
10
10.488
20
-7.77148
11
10.4886
21
-7.77087
0
LINE
8
BLACK
6
CONTINUOUS
10
10.4886
20
-7.77087
11
10.489
21
-7.77019
0
LINE
8
BLACK
6
CONTINUOUS
10
10.489
20
-7.77019
11
10.4892
21
-7.77011
0
LINE
8
BLACK
6
CONTINUOUS
10
10.4892
20
-7.77011
11
10.4893
21
-7.76993
0
LINE
8
BLACK
6
CONTINUOUS
10
10.4893
20
-7.76993
11
10.4901
21
-7.76979
0
LINE
8
BLACK
6
CONTINUOUS
10
10.4901
20
-7.76979
11
10.4909
21
-7.76954
0
LINE
8
BLACK
6
CONTINUOUS
10
10.4909
20
-7.76954
11
10.4911
21
-7.76962
0
LINE
8
BLACK
6
CONTINUOUS
10
10.4911
20
-7.76962
11
10.4913
21
-7.76958
0
LINE
8
BLACK
6
CONTINUOUS
10
10.4913
20
-7.76958
11
10.492
21
-7.76998
0
LINE
8
BLACK
6
CONTINUOUS
10
10.492
20
-7.76998
11
10.4928
21
-7.77027
0
LINE
8
BLACK
6
CONTINUOUS
10
10.4928
20
-7.77027
11
10.5029
21
-7.7791
0
LINE
8
BLACK
6
CONTINUOUS
10
10.5029
20
-7.7791
11
10.5029
21
-7.76124
0
LINE
8
BLACK
6
CONTINUOUS
10
10.5029
20
-7.76124
11
10.503
21
-7.76023
0
LINE
8
BLACK
6
CONTINUOUS
10
10.503
20
-7.76023
11
10.5043
21
-7.75868
0
LINE
8
BLACK
6
CONTINUOUS
10
10.5043
20
-7.75868
11
10.5063
21
-7.75833
0
LINE
8
BLACK
6
CONTINUOUS
10
10.5063
20
-7.75833
11
10.5081
21
-7.75934
0
LINE
8
BLACK
6
CONTINUOUS
10
10.4688
20
-7.74154
11
10.4691
21
-7.74151
0
LINE
8
BLACK
6
CONTINUOUS
10
10.4691
20
-7.74151
11
10.4697
21
-7.74195
0
LINE
8
BLACK
6
CONTINUOUS
10
10.4697
20
-7.74195
11
10.4704
21
-7.74228
0
LINE
8
BLACK
6
CONTINUOUS
10
10.4704
20
-7.74228
11
10.4723
21
-7.74415
0
LINE
8
BLACK
6
CONTINUOUS
10
10.4723
20
-7.74415
11
10.4725
21
-7.74447
0
LINE
8
BLACK
6
CONTINUOUS
10
10.4725
20
-7.74447
11
10.4726
21
-7.74455
0
LINE
8
BLACK
6
CONTINUOUS
10
10.4726
20
-7.74455
11
10.4726
21
-7.74467
0
LINE
8
BLACK
6
CONTINUOUS
10
10.4726
20
-7.74467
11
10.4726
21
-7.74468
0
LINE
8
BLACK
6
CONTINUOUS
10
10.4726
20
-7.74468
11
10.4727
21
-7.74476
0
LINE
8
BLACK
6
CONTINUOUS
10
10.4727
20
-7.74476
11
10.4728
21
-7.74484
0
LINE
8
BLACK
6
CONTINUOUS
10
10.4728
20
-7.74484
11
10.4729
21
-7.74499
0
LINE
8
BLACK
6
CONTINUOUS
10
10.4729
20
-7.74499
11
10.4729
21
-7.74576
0
LINE
8
BLACK
6
CONTINUOUS
10
10.4729
20
-7.74576
11
10.4731
21
-7.7465
0
LINE
8
BLACK
6
CONTINUOUS
10
10.4731
20
-7.7465
11
10.4731
21
-7.74662
0
LINE
8
BLACK
6
CONTINUOUS
10
10.4731
20
-7.74662
11
10.4731
21
-7.74675
0
LINE
8
BLACK
6
CONTINUOUS
10
10.4731
20
-7.74675
11
10.473
21
-7.74687
0
LINE
8
BLACK
6
CONTINUOUS
10
10.473
20
-7.74687
11
10.473
21
-7.74701
0
LINE
8
BLACK
6
CONTINUOUS
10
10.473
20
-7.74701
11
10.4726
21
-7.74763
0
LINE
8
BLACK
6
CONTINUOUS
10
10.4726
20
-7.74763
11
10.4723
21
-7.74833
0
LINE
8
BLACK
6
CONTINUOUS
10
10.4723
20
-7.74833
11
10.4704
21
-7.7502
0
LINE
8
BLACK
6
CONTINUOUS
10
10.4704
20
-7.7502
11
10.4701
21
-7.75043
0
LINE
8
BLACK
6
CONTINUOUS
10
10.4701
20
-7.75043
11
10.47
21
-7.75053
0
LINE
8
BLACK
6
CONTINUOUS
10
10.47
20
-7.75053
11
10.4699
21
-7.75057
0
LINE
8
BLACK
6
CONTINUOUS
10
10.4699
20
-7.75057
11
10.4696
21
-7.75079
0
LINE
8
BLACK
6
CONTINUOUS
10
10.4696
20
-7.75079
11
10.4688
21
-7.75086
0
LINE
8
BLACK
6
CONTINUOUS
10
10.4688
20
-7.75086
11
10.4681
21
-7.75106
0
LINE
8
BLACK
6
CONTINUOUS
10
10.4681
20
-7.75106
11
10.4678
21
-7.75094
0
LINE
8
BLACK
6
CONTINUOUS
10
10.4678
20
-7.75094
11
10.4676
21
-7.75097
0
LINE
8
BLACK
6
CONTINUOUS
10
10.4676
20
-7.75097
11
10.4669
21
-7.75053
0
LINE
8
BLACK
6
CONTINUOUS
10
10.4669
20
-7.75053
11
10.4662
21
-7.7502
0
LINE
8
BLACK
6
CONTINUOUS
10
10.4662
20
-7.7502
11
10.4644
21
-7.74833
0
LINE
8
BLACK
6
CONTINUOUS
10
10.4644
20
-7.74833
11
10.4641
21
-7.74801
0
LINE
8
BLACK
6
CONTINUOUS
10
10.4641
20
-7.74801
11
10.464
21
-7.74793
0
LINE
8
BLACK
6
CONTINUOUS
10
10.464
20
-7.74793
11
10.464
21
-7.74781
0
LINE
8
BLACK
6
CONTINUOUS
10
10.464
20
-7.74781
11
10.464
21
-7.7478
0
LINE
8
BLACK
6
CONTINUOUS
10
10.464
20
-7.7478
11
10.4639
21
-7.74772
0
LINE
8
BLACK
6
CONTINUOUS
10
10.4639
20
-7.74772
11
10.4639
21
-7.74764
0
LINE
8
BLACK
6
CONTINUOUS
10
10.4639
20
-7.74764
11
10.4638
21
-7.74749
0
LINE
8
BLACK
6
CONTINUOUS
10
10.4638
20
-7.74749
11
10.4637
21
-7.74672
0
LINE
8
BLACK
6
CONTINUOUS
10
10.4637
20
-7.74672
11
10.4635
21
-7.74598
0
LINE
8
BLACK
6
CONTINUOUS
10
10.4635
20
-7.74598
11
10.4636
21
-7.74586
0
LINE
8
BLACK
6
CONTINUOUS
10
10.4636
20
-7.74586
11
10.4635
21
-7.74573
0
LINE
8
BLACK
6
CONTINUOUS
10
10.4635
20
-7.74573
11
10.4636
21
-7.74561
0
LINE
8
BLACK
6
CONTINUOUS
10
10.4636
20
-7.74561
11
10.4636
21
-7.74548
0
LINE
8
BLACK
6
CONTINUOUS
10
10.4636
20
-7.74548
11
10.464
21
-7.74485
0
LINE
8
BLACK
6
CONTINUOUS
10
10.464
20
-7.74485
11
10.4644
21
-7.74415
0
LINE
8
BLACK
6
CONTINUOUS
10
10.4644
20
-7.74415
11
10.4662
21
-7.74228
0
LINE
8
BLACK
6
CONTINUOUS
10
10.4662
20
-7.74228
11
10.4665
21
-7.74205
0
LINE
8
BLACK
6
CONTINUOUS
10
10.4665
20
-7.74205
11
10.4666
21
-7.74195
0
LINE
8
BLACK
6
CONTINUOUS
10
10.4666
20
-7.74195
11
10.4667
21
-7.74191
0
LINE
8
BLACK
6
CONTINUOUS
10
10.4667
20
-7.74191
11
10.4671
21
-7.74169
0
LINE
8
BLACK
6
CONTINUOUS
10
10.4671
20
-7.74169
11
10.4678
21
-7.74162
0
LINE
8
BLACK
6
CONTINUOUS
10
10.4678
20
-7.74162
11
10.4686
21
-7.74142
0
LINE
8
BLACK
6
CONTINUOUS
10
10.4686
20
-7.74142
11
10.4688
21
-7.74154
0
LINE
8
BLACK
6
CONTINUOUS
10
10.4914
20
-7.70402
11
10.4915
21
-7.70401
0
LINE
8
BLACK
6
CONTINUOUS
10
10.4915
20
-7.70401
11
10.499
21
-7.70588
0
LINE
8
BLACK
6
CONTINUOUS
10
10.499
20
-7.70588
11
10.4995
21
-7.70609
0
LINE
8
BLACK
6
CONTINUOUS
10
10.4995
20
-7.70609
11
10.4996
21
-7.7061
0
LINE
8
BLACK
6
CONTINUOUS
10
10.4996
20
-7.7061
11
10.5034
21
-7.70798
0
LINE
8
BLACK
6
CONTINUOUS
10
10.5034
20
-7.70798
11
10.5041
21
-7.70851
0
LINE
8
BLACK
6
CONTINUOUS
10
10.5041
20
-7.70851
11
10.5042
21
-7.70853
0
LINE
8
BLACK
6
CONTINUOUS
10
10.5042
20
-7.70853
11
10.506
21
-7.71041
0
LINE
8
BLACK
6
CONTINUOUS
10
10.506
20
-7.71041
11
10.5065
21
-7.71113
0
LINE
8
BLACK
6
CONTINUOUS
10
10.5065
20
-7.71113
11
10.5066
21
-7.71117
0
LINE
8
BLACK
6
CONTINUOUS
10
10.5066
20
-7.71117
11
10.5085
21
-7.71492
0
LINE
8
BLACK
6
CONTINUOUS
10
10.5085
20
-7.71492
11
10.5087
21
-7.71591
0
LINE
8
BLACK
6
CONTINUOUS
10
10.5087
20
-7.71591
11
10.5087
21
-7.71608
0
LINE
8
BLACK
6
CONTINUOUS
10
10.5087
20
-7.71608
11
10.5088
21
-7.71624
0
LINE
8
BLACK
6
CONTINUOUS
10
10.5088
20
-7.71624
11
10.5088
21
-7.71999
0
LINE
8
BLACK
6
CONTINUOUS
10
10.5088
20
-7.71999
11
10.5086
21
-7.721
0
LINE
8
BLACK
6
CONTINUOUS
10
10.5086
20
-7.721
11
10.5085
21
-7.72114
0
LINE
8
BLACK
6
CONTINUOUS
10
10.5085
20
-7.72114
11
10.5085
21
-7.72131
0
LINE
8
BLACK
6
CONTINUOUS
10
10.5085
20
-7.72131
11
10.5066
21
-7.72506
0
LINE
8
BLACK
6
CONTINUOUS
10
10.5066
20
-7.72506
11
10.5061
21
-7.72577
0
LINE
8
BLACK
6
CONTINUOUS
10
10.5061
20
-7.72577
11
10.506
21
-7.72583
0
LINE
8
BLACK
6
CONTINUOUS
10
10.506
20
-7.72583
11
10.5042
21
-7.72771
0
LINE
8
BLACK
6
CONTINUOUS
10
10.5042
20
-7.72771
11
10.5034
21
-7.72821
0
LINE
8
BLACK
6
CONTINUOUS
10
10.5034
20
-7.72821
11
10.5034
21
-7.72826
0
LINE
8
BLACK
6
CONTINUOUS
10
10.5034
20
-7.72826
11
10.4996
21
-7.73013
0
LINE
8
BLACK
6
CONTINUOUS
10
10.4996
20
-7.73013
11
10.4991
21
-7.73028
0
LINE
8
BLACK
6
CONTINUOUS
10
10.4991
20
-7.73028
11
10.499
21
-7.73036
0
LINE
8
BLACK
6
CONTINUOUS
10
10.499
20
-7.73036
11
10.4915
21
-7.73223
0
LINE
8
BLACK
6
CONTINUOUS
10
10.4915
20
-7.73223
11
10.4909
21
-7.73227
0
LINE
8
BLACK
6
CONTINUOUS
10
10.4909
20
-7.73227
11
10.4908
21
-7.73232
0
LINE
8
BLACK
6
CONTINUOUS
10
10.4908
20
-7.73232
11
10.4814
21
-7.73232
0
LINE
8
BLACK
6
CONTINUOUS
10
10.4814
20
-7.73232
11
10.4809
21
-7.73222
0
LINE
8
BLACK
6
CONTINUOUS
10
10.4809
20
-7.73222
11
10.4807
21
-7.73223
0
LINE
8
BLACK
6
CONTINUOUS
10
10.4807
20
-7.73223
11
10.4732
21
-7.73036
0
LINE
8
BLACK
6
CONTINUOUS
10
10.4732
20
-7.73036
11
10.4728
21
-7.73015
0
LINE
8
BLACK
6
CONTINUOUS
10
10.4728
20
-7.73015
11
10.4726
21
-7.73013
0
LINE
8
BLACK
6
CONTINUOUS
10
10.4726
20
-7.73013
11
10.4689
21
-7.72826
0
LINE
8
BLACK
6
CONTINUOUS
10
10.4689
20
-7.72826
11
10.4682
21
-7.72773
0
LINE
8
BLACK
6
CONTINUOUS
10
10.4682
20
-7.72773
11
10.4681
21
-7.72771
0
LINE
8
BLACK
6
CONTINUOUS
10
10.4681
20
-7.72771
11
10.4662
21
-7.72583
0
LINE
8
BLACK
6
CONTINUOUS
10
10.4662
20
-7.72583
11
10.4657
21
-7.72511
0
LINE
8
BLACK
6
CONTINUOUS
10
10.4657
20
-7.72511
11
10.4657
21
-7.72506
0
LINE
8
BLACK
6
CONTINUOUS
10
10.4657
20
-7.72506
11
10.4638
21
-7.72131
0
LINE
8
BLACK
6
CONTINUOUS
10
10.4638
20
-7.72131
11
10.4635
21
-7.72033
0
LINE
8
BLACK
6
CONTINUOUS
10
10.4635
20
-7.72033
11
10.4635
21
-7.72016
0
LINE
8
BLACK
6
CONTINUOUS
10
10.4635
20
-7.72016
11
10.4635
21
-7.71999
0
LINE
8
BLACK
6
CONTINUOUS
10
10.4635
20
-7.71999
11
10.4635
21
-7.71624
0
LINE
8
BLACK
6
CONTINUOUS
10
10.4635
20
-7.71624
11
10.4637
21
-7.71523
0
LINE
8
BLACK
6
CONTINUOUS
10
10.4637
20
-7.71523
11
10.4638
21
-7.7151
0
LINE
8
BLACK
6
CONTINUOUS
10
10.4638
20
-7.7151
11
10.4638
21
-7.71492
0
LINE
8
BLACK
6
CONTINUOUS
10
10.4638
20
-7.71492
11
10.4657
21
-7.71117
0
LINE
8
BLACK
6
CONTINUOUS
10
10.4657
20
-7.71117
11
10.4662
21
-7.71047
0
LINE
8
BLACK
6
CONTINUOUS
10
10.4662
20
-7.71047
11
10.4662
21
-7.71041
0
LINE
8
BLACK
6
CONTINUOUS
10
10.4662
20
-7.71041
11
10.4681
21
-7.70853
0
LINE
8
BLACK
6
CONTINUOUS
10
10.4681
20
-7.70853
11
10.4688
21
-7.70803
0
LINE
8
BLACK
6
CONTINUOUS
10
10.4688
20
-7.70803
11
10.4689
21
-7.70798
0
LINE
8
BLACK
6
CONTINUOUS
10
10.4689
20
-7.70798
11
10.4726
21
-7.7061
0
LINE
8
BLACK
6
CONTINUOUS
10
10.4726
20
-7.7061
11
10.4731
21
-7.70596
0
LINE
8
BLACK
6
CONTINUOUS
10
10.4731
20
-7.70596
11
10.4732
21
-7.70588
0
LINE
8
BLACK
6
CONTINUOUS
10
10.4732
20
-7.70588
11
10.4807
21
-7.70401
0
LINE
8
BLACK
6
CONTINUOUS
10
10.4807
20
-7.70401
11
10.4813
21
-7.70396
0
LINE
8
BLACK
6
CONTINUOUS
10
10.4813
20
-7.70396
11
10.4814
21
-7.70392
0
LINE
8
BLACK
6
CONTINUOUS
10
10.4814
20
-7.70392
11
10.4908
21
-7.70392
0
LINE
8
BLACK
6
CONTINUOUS
10
10.4908
20
-7.70392
11
10.4914
21
-7.70402
0
LINE
8
BLACK
6
CONTINUOUS
10
10.4818
20
-7.70982
11
10.475
21
-7.71153
0
LINE
8
BLACK
6
CONTINUOUS
10
10.475
20
-7.71153
11
10.4719
21
-7.71305
0
LINE
8
BLACK
6
CONTINUOUS
10
10.4719
20
-7.71305
11
10.4707
21
-7.71424
0
LINE
8
BLACK
6
CONTINUOUS
10
10.4707
20
-7.71424
11
10.4694
21
-7.71694
0
LINE
8
BLACK
6
CONTINUOUS
10
10.4694
20
-7.71694
11
10.4694
21
-7.7193
0
LINE
8
BLACK
6
CONTINUOUS
10
10.4694
20
-7.7193
11
10.4707
21
-7.72199
0
LINE
8
BLACK
6
CONTINUOUS
10
10.4707
20
-7.72199
11
10.4719
21
-7.72319
0
LINE
8
BLACK
6
CONTINUOUS
10
10.4719
20
-7.72319
11
10.475
21
-7.72471
0
LINE
8
BLACK
6
CONTINUOUS
10
10.475
20
-7.72471
11
10.4818
21
-7.72642
0
LINE
8
BLACK
6
CONTINUOUS
10
10.4818
20
-7.72642
11
10.4905
21
-7.72642
0
LINE
8
BLACK
6
CONTINUOUS
10
10.4905
20
-7.72642
11
10.4973
21
-7.72471
0
LINE
8
BLACK
6
CONTINUOUS
10
10.4973
20
-7.72471
11
10.5003
21
-7.72319
0
LINE
8
BLACK
6
CONTINUOUS
10
10.5003
20
-7.72319
11
10.5015
21
-7.72199
0
LINE
8
BLACK
6
CONTINUOUS
10
10.5015
20
-7.72199
11
10.5029
21
-7.7193
0
LINE
8
BLACK
6
CONTINUOUS
10
10.5029
20
-7.7193
11
10.5029
21
-7.71694
0
LINE
8
BLACK
6
CONTINUOUS
10
10.5029
20
-7.71694
11
10.5015
21
-7.71424
0
LINE
8
BLACK
6
CONTINUOUS
10
10.5015
20
-7.71424
11
10.5003
21
-7.71305
0
LINE
8
BLACK
6
CONTINUOUS
10
10.5003
20
-7.71305
11
10.4973
21
-7.71153
0
LINE
8
BLACK
6
CONTINUOUS
10
10.4973
20
-7.71153
11
10.4905
21
-7.70982
0
LINE
8
BLACK
6
CONTINUOUS
10
10.4905
20
-7.70982
11
10.4818
21
-7.70982
0
LINE
8
BLACK
6
CONTINUOUS
10
10.4881
20
-7.64223
11
10.4882
21
-7.64234
0
LINE
8
BLACK
6
CONTINUOUS
10
10.4882
20
-7.64234
11
10.4884
21
-7.64236
0
LINE
8
BLACK
6
CONTINUOUS
10
10.4884
20
-7.64236
11
10.4921
21
-7.64424
0
LINE
8
BLACK
6
CONTINUOUS
10
10.4921
20
-7.64424
11
10.493
21
-7.64485
0
LINE
8
BLACK
6
CONTINUOUS
10
10.493
20
-7.64485
11
10.4931
21
-7.64525
0
LINE
8
BLACK
6
CONTINUOUS
10
10.4931
20
-7.64525
11
10.4935
21
-7.64556
0
LINE
8
BLACK
6
CONTINUOUS
10
10.4935
20
-7.64556
11
10.4953
21
-7.64931
0
LINE
8
BLACK
6
CONTINUOUS
10
10.4953
20
-7.64931
11
10.4956
21
-7.65029
0
LINE
8
BLACK
6
CONTINUOUS
10
10.4956
20
-7.65029
11
10.4956
21
-7.65046
0
LINE
8
BLACK
6
CONTINUOUS
10
10.4956
20
-7.65046
11
10.4956
21
-7.65063
0
LINE
8
BLACK
6
CONTINUOUS
10
10.4956
20
-7.65063
11
10.4956
21
-7.65625
0
LINE
8
BLACK
6
CONTINUOUS
10
10.4956
20
-7.65625
11
10.4955
21
-7.65726
0
LINE
8
BLACK
6
CONTINUOUS
10
10.4955
20
-7.65726
11
10.4953
21
-7.6574
0
LINE
8
BLACK
6
CONTINUOUS
10
10.4953
20
-7.6574
11
10.4953
21
-7.65757
0
LINE
8
BLACK
6
CONTINUOUS
10
10.4953
20
-7.65757
11
10.4935
21
-7.66132
0
LINE
8
BLACK
6
CONTINUOUS
10
10.4935
20
-7.66132
11
10.4928
21
-7.66215
0
LINE
8
BLACK
6
CONTINUOUS
10
10.4928
20
-7.66215
11
10.491
21
-7.66295
0
LINE
8
BLACK
6
CONTINUOUS
10
10.491
20
-7.66295
11
10.4891
21
-7.66237
0
LINE
8
BLACK
6
CONTINUOUS
10
10.4891
20
-7.66237
11
10.4879
21
-7.66069
0
LINE
8
BLACK
6
CONTINUOUS
10
10.4879
20
-7.66069
11
10.4882
21
-7.65868
0
LINE
8
BLACK
6
CONTINUOUS
10
10.4882
20
-7.65868
11
10.4897
21
-7.65556
0
LINE
8
BLACK
6
CONTINUOUS
10
10.4897
20
-7.65556
11
10.4897
21
-7.65133
0
LINE
8
BLACK
6
CONTINUOUS
10
10.4897
20
-7.65133
11
10.4886
21
-7.64908
0
LINE
8
BLACK
6
CONTINUOUS
10
10.4886
20
-7.64908
11
10.4864
21
-7.64796
0
LINE
8
BLACK
6
CONTINUOUS
10
10.4864
20
-7.64796
11
10.4859
21
-7.64796
0
LINE
8
BLACK
6
CONTINUOUS
10
10.4859
20
-7.64796
11
10.4836
21
-7.64908
0
LINE
8
BLACK
6
CONTINUOUS
10
10.4836
20
-7.64908
11
10.4825
21
-7.65133
0
LINE
8
BLACK
6
CONTINUOUS
10
10.4825
20
-7.65133
11
10.4825
21
-7.65625
0
LINE
8
BLACK
6
CONTINUOUS
10
10.4825
20
-7.65625
11
10.4823
21
-7.65726
0
LINE
8
BLACK
6
CONTINUOUS
10
10.4823
20
-7.65726
11
10.4822
21
-7.6574
0
LINE
8
BLACK
6
CONTINUOUS
10
10.4822
20
-7.6574
11
10.4822
21
-7.65757
0
LINE
8
BLACK
6
CONTINUOUS
10
10.4822
20
-7.65757
11
10.4803
21
-7.66132
0
LINE
8
BLACK
6
CONTINUOUS
10
10.4803
20
-7.66132
11
10.4797
21
-7.66215
0
LINE
8
BLACK
6
CONTINUOUS
10
10.4797
20
-7.66215
11
10.4793
21
-7.66232
0
LINE
8
BLACK
6
CONTINUOUS
10
10.4793
20
-7.66232
11
10.479
21
-7.66264
0
LINE
8
BLACK
6
CONTINUOUS
10
10.479
20
-7.66264
11
10.4753
21
-7.66452
0
LINE
8
BLACK
6
CONTINUOUS
10
10.4753
20
-7.66452
11
10.4743
21
-7.66481
0
LINE
8
BLACK
6
CONTINUOUS
10
10.4743
20
-7.66481
11
10.4741
21
-7.66477
0
LINE
8
BLACK
6
CONTINUOUS
10
10.4741
20
-7.66477
11
10.4739
21
-7.66483
0
LINE
8
BLACK
6
CONTINUOUS
10
10.4739
20
-7.66483
11
10.4721
21
-7.66483
0
LINE
8
BLACK
6
CONTINUOUS
10
10.4721
20
-7.66483
11
10.4711
21
-7.66465
0
LINE
8
BLACK
6
CONTINUOUS
10
10.4711
20
-7.66465
11
10.4709
21
-7.66454
0
LINE
8
BLACK
6
CONTINUOUS
10
10.4709
20
-7.66454
11
10.4707
21
-7.66452
0
LINE
8
BLACK
6
CONTINUOUS
10
10.4707
20
-7.66452
11
10.467
21
-7.66264
0
LINE
8
BLACK
6
CONTINUOUS
10
10.467
20
-7.66264
11
10.4662
21
-7.66203
0
LINE
8
BLACK
6
CONTINUOUS
10
10.4662
20
-7.66203
11
10.466
21
-7.66163
0
LINE
8
BLACK
6
CONTINUOUS
10
10.466
20
-7.66163
11
10.4657
21
-7.66132
0
LINE
8
BLACK
6
CONTINUOUS
10
10.4657
20
-7.66132
11
10.4638
21
-7.65757
0
LINE
8
BLACK
6
CONTINUOUS
10
10.4638
20
-7.65757
11
10.4635
21
-7.65659
0
LINE
8
BLACK
6
CONTINUOUS
10
10.4635
20
-7.65659
11
10.4635
21
-7.65642
0
LINE
8
BLACK
6
CONTINUOUS
10
10.4635
20
-7.65642
11
10.4635
21
-7.65625
0
LINE
8
BLACK
6
CONTINUOUS
10
10.4635
20
-7.65625
11
10.4635
21
-7.64875
0
LINE
8
BLACK
6
CONTINUOUS
10
10.4635
20
-7.64875
11
10.4637
21
-7.64774
0
LINE
8
BLACK
6
CONTINUOUS
10
10.4637
20
-7.64774
11
10.4638
21
-7.64761
0
LINE
8
BLACK
6
CONTINUOUS
10
10.4638
20
-7.64761
11
10.4638
21
-7.64743
0
LINE
8
BLACK
6
CONTINUOUS
10
10.4638
20
-7.64743
11
10.4657
21
-7.64368
0
LINE
8
BLACK
6
CONTINUOUS
10
10.4657
20
-7.64368
11
10.4663
21
-7.64286
0
LINE
8
BLACK
6
CONTINUOUS
10
10.4663
20
-7.64286
11
10.4681
21
-7.64206
0
LINE
8
BLACK
6
CONTINUOUS
10
10.4681
20
-7.64206
11
10.4701
21
-7.64263
0
LINE
8
BLACK
6
CONTINUOUS
10
10.4701
20
-7.64263
11
10.4712
21
-7.64432
0
LINE
8
BLACK
6
CONTINUOUS
10
10.4712
20
-7.64432
11
10.471
21
-7.64632
0
LINE
8
BLACK
6
CONTINUOUS
10
10.471
20
-7.64632
11
10.4694
21
-7.64945
0
LINE
8
BLACK
6
CONTINUOUS
10
10.4694
20
-7.64945
11
10.4694
21
-7.65556
0
LINE
8
BLACK
6
CONTINUOUS
10
10.4694
20
-7.65556
11
10.4705
21
-7.6578
0
LINE
8
BLACK
6
CONTINUOUS
10
10.4705
20
-7.6578
11
10.4728
21
-7.65892
0
LINE
8
BLACK
6
CONTINUOUS
10
10.4728
20
-7.65892
11
10.4732
21
-7.65892
0
LINE
8
BLACK
6
CONTINUOUS
10
10.4732
20
-7.65892
11
10.4755
21
-7.6578
0
LINE
8
BLACK
6
CONTINUOUS
10
10.4755
20
-7.6578
11
10.4766
21
-7.65556
0
LINE
8
BLACK
6
CONTINUOUS
10
10.4766
20
-7.65556
11
10.4766
21
-7.65063
0
LINE
8
BLACK
6
CONTINUOUS
10
10.4766
20
-7.65063
11
10.4768
21
-7.64962
0
LINE
8
BLACK
6
CONTINUOUS
10
10.4768
20
-7.64962
11
10.4769
21
-7.64948
0
LINE
8
BLACK
6
CONTINUOUS
10
10.4769
20
-7.64948
11
10.4769
21
-7.64931
0
LINE
8
BLACK
6
CONTINUOUS
10
10.4769
20
-7.64931
11
10.4788
21
-7.64556
0
LINE
8
BLACK
6
CONTINUOUS
10
10.4788
20
-7.64556
11
10.4794
21
-7.64473
0
LINE
8
BLACK
6
CONTINUOUS
10
10.4794
20
-7.64473
11
10.4798
21
-7.64456
0
LINE
8
BLACK
6
CONTINUOUS
10
10.4798
20
-7.64456
11
10.4801
21
-7.64424
0
LINE
8
BLACK
6
CONTINUOUS
10
10.4801
20
-7.64424
11
10.4839
21
-7.64236
0
LINE
8
BLACK
6
CONTINUOUS
10
10.4839
20
-7.64236
11
10.4849
21
-7.64207
0
LINE
8
BLACK
6
CONTINUOUS
10
10.4849
20
-7.64207
11
10.485
21
-7.64211
0
LINE
8
BLACK
6
CONTINUOUS
10
10.485
20
-7.64211
11
10.4852
21
-7.64205
0
LINE
8
BLACK
6
CONTINUOUS
10
10.4852
20
-7.64205
11
10.4871
21
-7.64205
0
LINE
8
BLACK
6
CONTINUOUS
10
10.4871
20
-7.64205
11
10.4881
21
-7.64223
0
LINE
8
BLACK
6
CONTINUOUS
10
10.5044
20
-7.62343
11
10.5047
21
-7.6234
0
LINE
8
BLACK
6
CONTINUOUS
10
10.5047
20
-7.6234
11
10.5053
21
-7.62384
0
LINE
8
BLACK
6
CONTINUOUS
10
10.5053
20
-7.62384
11
10.506
21
-7.62417
0
LINE
8
BLACK
6
CONTINUOUS
10
10.506
20
-7.62417
11
10.5079
21
-7.62604
0
LINE
8
BLACK
6
CONTINUOUS
10
10.5079
20
-7.62604
11
10.5081
21
-7.62636
0
LINE
8
BLACK
6
CONTINUOUS
10
10.5081
20
-7.62636
11
10.5082
21
-7.62644
0
LINE
8
BLACK
6
CONTINUOUS
10
10.5082
20
-7.62644
11
10.5083
21
-7.62656
0
LINE
8
BLACK
6
CONTINUOUS
10
10.5083
20
-7.62656
11
10.5083
21
-7.62657
0
LINE
8
BLACK
6
CONTINUOUS
10
10.5083
20
-7.62657
11
10.5084
21
-7.62665
0
LINE
8
BLACK
6
CONTINUOUS
10
10.5084
20
-7.62665
11
10.5084
21
-7.62673
0
LINE
8
BLACK
6
CONTINUOUS
10
10.5084
20
-7.62673
11
10.5085
21
-7.62688
0
LINE
8
BLACK
6
CONTINUOUS
10
10.5085
20
-7.62688
11
10.5086
21
-7.62765
0
LINE
8
BLACK
6
CONTINUOUS
10
10.5086
20
-7.62765
11
10.5088
21
-7.62839
0
LINE
8
BLACK
6
CONTINUOUS
10
10.5088
20
-7.62839
11
10.5087
21
-7.62851
0
LINE
8
BLACK
6
CONTINUOUS
10
10.5087
20
-7.62851
11
10.5087
21
-7.62864
0
LINE
8
BLACK
6
CONTINUOUS
10
10.5087
20
-7.62864
11
10.5087
21
-7.62876
0
LINE
8
BLACK
6
CONTINUOUS
10
10.5087
20
-7.62876
11
10.5087
21
-7.6289
0
LINE
8
BLACK
6
CONTINUOUS
10
10.5087
20
-7.6289
11
10.5082
21
-7.62952
0
LINE
8
BLACK
6
CONTINUOUS
10
10.5082
20
-7.62952
11
10.5079
21
-7.63022
0
LINE
8
BLACK
6
CONTINUOUS
10
10.5079
20
-7.63022
11
10.506
21
-7.63209
0
LINE
8
BLACK
6
CONTINUOUS
10
10.506
20
-7.63209
11
10.5057
21
-7.63232
0
LINE
8
BLACK
6
CONTINUOUS
10
10.5057
20
-7.63232
11
10.5056
21
-7.63242
0
LINE
8
BLACK
6
CONTINUOUS
10
10.5056
20
-7.63242
11
10.5055
21
-7.63246
0
LINE
8
BLACK
6
CONTINUOUS
10
10.5055
20
-7.63246
11
10.5052
21
-7.63268
0
LINE
8
BLACK
6
CONTINUOUS
10
10.5052
20
-7.63268
11
10.5044
21
-7.63275
0
LINE
8
BLACK
6
CONTINUOUS
10
10.5044
20
-7.63275
11
10.5037
21
-7.63295
0
LINE
8
BLACK
6
CONTINUOUS
10
10.5037
20
-7.63295
11
10.5034
21
-7.63283
0
LINE
8
BLACK
6
CONTINUOUS
10
10.5034
20
-7.63283
11
10.5032
21
-7.63286
0
LINE
8
BLACK
6
CONTINUOUS
10
10.5032
20
-7.63286
11
10.5025
21
-7.63242
0
LINE
8
BLACK
6
CONTINUOUS
10
10.5025
20
-7.63242
11
10.5018
21
-7.63209
0
LINE
8
BLACK
6
CONTINUOUS
10
10.5018
20
-7.63209
11
10.5
21
-7.63022
0
LINE
8
BLACK
6
CONTINUOUS
10
10.5
20
-7.63022
11
10.4998
21
-7.6299
0
LINE
8
BLACK
6
CONTINUOUS
10
10.4998
20
-7.6299
11
10.4996
21
-7.62982
0
LINE
8
BLACK
6
CONTINUOUS
10
10.4996
20
-7.62982
11
10.4996
21
-7.6297
0
LINE
8
BLACK
6
CONTINUOUS
10
10.4996
20
-7.6297
11
10.4996
21
-7.62969
0
LINE
8
BLACK
6
CONTINUOUS
10
10.4996
20
-7.62969
11
10.4995
21
-7.62961
0
LINE
8
BLACK
6
CONTINUOUS
10
10.4995
20
-7.62961
11
10.4995
21
-7.62953
0
LINE
8
BLACK
6
CONTINUOUS
10
10.4995
20
-7.62953
11
10.4994
21
-7.62938
0
LINE
8
BLACK
6
CONTINUOUS
10
10.4994
20
-7.62938
11
10.4993
21
-7.62861
0
LINE
8
BLACK
6
CONTINUOUS
10
10.4993
20
-7.62861
11
10.4991
21
-7.62787
0
LINE
8
BLACK
6
CONTINUOUS
10
10.4991
20
-7.62787
11
10.4992
21
-7.62775
0
LINE
8
BLACK
6
CONTINUOUS
10
10.4992
20
-7.62775
11
10.4992
21
-7.62762
0
LINE
8
BLACK
6
CONTINUOUS
10
10.4992
20
-7.62762
11
10.4992
21
-7.6275
0
LINE
8
BLACK
6
CONTINUOUS
10
10.4992
20
-7.6275
11
10.4992
21
-7.62737
0
LINE
8
BLACK
6
CONTINUOUS
10
10.4992
20
-7.62737
11
10.4997
21
-7.62674
0
LINE
8
BLACK
6
CONTINUOUS
10
10.4997
20
-7.62674
11
10.5
21
-7.62604
0
LINE
8
BLACK
6
CONTINUOUS
10
10.5
20
-7.62604
11
10.5018
21
-7.62417
0
LINE
8
BLACK
6
CONTINUOUS
10
10.5018
20
-7.62417
11
10.5022
21
-7.62394
0
LINE
8
BLACK
6
CONTINUOUS
10
10.5022
20
-7.62394
11
10.5022
21
-7.62384
0
LINE
8
BLACK
6
CONTINUOUS
10
10.5022
20
-7.62384
11
10.5024
21
-7.6238
0
LINE
8
BLACK
6
CONTINUOUS
10
10.5024
20
-7.6238
11
10.5027
21
-7.62358
0
LINE
8
BLACK
6
CONTINUOUS
10
10.5027
20
-7.62358
11
10.5035
21
-7.62351
0
LINE
8
BLACK
6
CONTINUOUS
10
10.5035
20
-7.62351
11
10.5042
21
-7.62331
0
LINE
8
BLACK
6
CONTINUOUS
10
10.5042
20
-7.62331
11
10.5044
21
-7.62343
0
LINE
8
BLACK
6
CONTINUOUS
10
10.4937
20
-7.62536
11
10.4952
21
-7.62665
0
LINE
8
BLACK
6
CONTINUOUS
10
10.4952
20
-7.62665
11
10.4956
21
-7.62864
0
LINE
8
BLACK
6
CONTINUOUS
10
10.4956
20
-7.62864
11
10.4946
21
-7.63039
0
LINE
8
BLACK
6
CONTINUOUS
10
10.4946
20
-7.63039
11
10.4927
21
-7.63108
0
LINE
8
BLACK
6
CONTINUOUS
10
10.4927
20
-7.63108
11
10.4664
21
-7.63108
0
LINE
8
BLACK
6
CONTINUOUS
10
10.4664
20
-7.63108
11
10.4654
21
-7.63091
0
LINE
8
BLACK
6
CONTINUOUS
10
10.4654
20
-7.63091
11
10.4639
21
-7.62961
0
LINE
8
BLACK
6
CONTINUOUS
10
10.4639
20
-7.62961
11
10.4635
21
-7.62762
0
LINE
8
BLACK
6
CONTINUOUS
10
10.4635
20
-7.62762
11
10.4645
21
-7.62587
0
LINE
8
BLACK
6
CONTINUOUS
10
10.4645
20
-7.62587
11
10.4664
21
-7.62518
0
LINE
8
BLACK
6
CONTINUOUS
10
10.4664
20
-7.62518
11
10.4927
21
-7.62518
0
LINE
8
BLACK
6
CONTINUOUS
10
10.4927
20
-7.62518
11
10.4937
21
-7.62536
0
LINE
8
BLACK
6
CONTINUOUS
10
10.4881
20
-7.56161
11
10.4882
21
-7.56173
0
LINE
8
BLACK
6
CONTINUOUS
10
10.4882
20
-7.56173
11
10.4884
21
-7.56175
0
LINE
8
BLACK
6
CONTINUOUS
10
10.4884
20
-7.56175
11
10.4921
21
-7.56362
0
LINE
8
BLACK
6
CONTINUOUS
10
10.4921
20
-7.56362
11
10.493
21
-7.56423
0
LINE
8
BLACK
6
CONTINUOUS
10
10.493
20
-7.56423
11
10.4931
21
-7.56464
0
LINE
8
BLACK
6
CONTINUOUS
10
10.4931
20
-7.56464
11
10.4935
21
-7.56494
0
LINE
8
BLACK
6
CONTINUOUS
10
10.4935
20
-7.56494
11
10.4953
21
-7.56869
0
LINE
8
BLACK
6
CONTINUOUS
10
10.4953
20
-7.56869
11
10.4956
21
-7.56968
0
LINE
8
BLACK
6
CONTINUOUS
10
10.4956
20
-7.56968
11
10.4956
21
-7.56985
0
LINE
8
BLACK
6
CONTINUOUS
10
10.4956
20
-7.56985
11
10.4956
21
-7.57001
0
LINE
8
BLACK
6
CONTINUOUS
10
10.4956
20
-7.57001
11
10.4956
21
-7.57564
0
LINE
8
BLACK
6
CONTINUOUS
10
10.4956
20
-7.57564
11
10.4955
21
-7.57665
0
LINE
8
BLACK
6
CONTINUOUS
10
10.4955
20
-7.57665
11
10.4953
21
-7.57678
0
LINE
8
BLACK
6
CONTINUOUS
10
10.4953
20
-7.57678
11
10.4953
21
-7.57696
0
LINE
8
BLACK
6
CONTINUOUS
10
10.4953
20
-7.57696
11
10.4935
21
-7.58071
0
LINE
8
BLACK
6
CONTINUOUS
10
10.4935
20
-7.58071
11
10.4928
21
-7.58153
0
LINE
8
BLACK
6
CONTINUOUS
10
10.4928
20
-7.58153
11
10.491
21
-7.58233
0
LINE
8
BLACK
6
CONTINUOUS
10
10.491
20
-7.58233
11
10.4891
21
-7.58176
0
LINE
8
BLACK
6
CONTINUOUS
10
10.4891
20
-7.58176
11
10.4879
21
-7.58007
0
LINE
8
BLACK
6
CONTINUOUS
10
10.4879
20
-7.58007
11
10.4882
21
-7.57807
0
LINE
8
BLACK
6
CONTINUOUS
10
10.4882
20
-7.57807
11
10.4897
21
-7.57494
0
LINE
8
BLACK
6
CONTINUOUS
10
10.4897
20
-7.57494
11
10.4897
21
-7.57071
0
LINE
8
BLACK
6
CONTINUOUS
10
10.4897
20
-7.57071
11
10.4886
21
-7.56846
0
LINE
8
BLACK
6
CONTINUOUS
10
10.4886
20
-7.56846
11
10.4864
21
-7.56734
0
LINE
8
BLACK
6
CONTINUOUS
10
10.4864
20
-7.56734
11
10.4859
21
-7.56734
0
LINE
8
BLACK
6
CONTINUOUS
10
10.4859
20
-7.56734
11
10.4836
21
-7.56846
0
LINE
8
BLACK
6
CONTINUOUS
10
10.4836
20
-7.56846
11
10.4825
21
-7.57071
0
LINE
8
BLACK
6
CONTINUOUS
10
10.4825
20
-7.57071
11
10.4825
21
-7.57564
0
LINE
8
BLACK
6
CONTINUOUS
10
10.4825
20
-7.57564
11
10.4823
21
-7.57665
0
LINE
8
BLACK
6
CONTINUOUS
10
10.4823
20
-7.57665
11
10.4822
21
-7.57678
0
LINE
8
BLACK
6
CONTINUOUS
10
10.4822
20
-7.57678
11
10.4822
21
-7.57696
0
LINE
8
BLACK
6
CONTINUOUS
10
10.4822
20
-7.57696
11
10.4803
21
-7.58071
0
LINE
8
BLACK
6
CONTINUOUS
10
10.4803
20
-7.58071
11
10.4797
21
-7.58153
0
LINE
8
BLACK
6
CONTINUOUS
10
10.4797
20
-7.58153
11
10.4793
21
-7.58171
0
LINE
8
BLACK
6
CONTINUOUS
10
10.4793
20
-7.58171
11
10.479
21
-7.58203
0
LINE
8
BLACK
6
CONTINUOUS
10
10.479
20
-7.58203
11
10.4753
21
-7.5839
0
LINE
8
BLACK
6
CONTINUOUS
10
10.4753
20
-7.5839
11
10.4743
21
-7.5842
0
LINE
8
BLACK
6
CONTINUOUS
10
10.4743
20
-7.5842
11
10.4741
21
-7.58415
0
LINE
8
BLACK
6
CONTINUOUS
10
10.4741
20
-7.58415
11
10.4739
21
-7.58421
0
LINE
8
BLACK
6
CONTINUOUS
10
10.4739
20
-7.58421
11
10.4721
21
-7.58421
0
LINE
8
BLACK
6
CONTINUOUS
10
10.4721
20
-7.58421
11
10.4711
21
-7.58404
0
LINE
8
BLACK
6
CONTINUOUS
10
10.4711
20
-7.58404
11
10.4709
21
-7.58392
0
LINE
8
BLACK
6
CONTINUOUS
10
10.4709
20
-7.58392
11
10.4707
21
-7.5839
0
LINE
8
BLACK
6
CONTINUOUS
10
10.4707
20
-7.5839
11
10.467
21
-7.58203
0
LINE
8
BLACK
6
CONTINUOUS
10
10.467
20
-7.58203
11
10.4662
21
-7.58142
0
LINE
8
BLACK
6
CONTINUOUS
10
10.4662
20
-7.58142
11
10.466
21
-7.58101
0
LINE
8
BLACK
6
CONTINUOUS
10
10.466
20
-7.58101
11
10.4657
21
-7.58071
0
LINE
8
BLACK
6
CONTINUOUS
10
10.4657
20
-7.58071
11
10.4638
21
-7.57696
0
LINE
8
BLACK
6
CONTINUOUS
10
10.4638
20
-7.57696
11
10.4635
21
-7.57597
0
LINE
8
BLACK
6
CONTINUOUS
10
10.4635
20
-7.57597
11
10.4635
21
-7.5758
0
LINE
8
BLACK
6
CONTINUOUS
10
10.4635
20
-7.5758
11
10.4635
21
-7.57564
0
LINE
8
BLACK
6
CONTINUOUS
10
10.4635
20
-7.57564
11
10.4635
21
-7.56814
0
LINE
8
BLACK
6
CONTINUOUS
10
10.4635
20
-7.56814
11
10.4637
21
-7.56713
0
LINE
8
BLACK
6
CONTINUOUS
10
10.4637
20
-7.56713
11
10.4638
21
-7.56699
0
LINE
8
BLACK
6
CONTINUOUS
10
10.4638
20
-7.56699
11
10.4638
21
-7.56682
0
LINE
8
BLACK
6
CONTINUOUS
10
10.4638
20
-7.56682
11
10.4657
21
-7.56307
0
LINE
8
BLACK
6
CONTINUOUS
10
10.4657
20
-7.56307
11
10.4663
21
-7.56224
0
LINE
8
BLACK
6
CONTINUOUS
10
10.4663
20
-7.56224
11
10.4681
21
-7.56144
0
LINE
8
BLACK
6
CONTINUOUS
10
10.4681
20
-7.56144
11
10.4701
21
-7.56202
0
LINE
8
BLACK
6
CONTINUOUS
10
10.4701
20
-7.56202
11
10.4712
21
-7.5637
0
LINE
8
BLACK
6
CONTINUOUS
10
10.4712
20
-7.5637
11
10.471
21
-7.56571
0
LINE
8
BLACK
6
CONTINUOUS
10
10.471
20
-7.56571
11
10.4694
21
-7.56884
0
LINE
8
BLACK
6
CONTINUOUS
10
10.4694
20
-7.56884
11
10.4694
21
-7.57494
0
LINE
8
BLACK
6
CONTINUOUS
10
10.4694
20
-7.57494
11
10.4705
21
-7.57719
0
LINE
8
BLACK
6
CONTINUOUS
10
10.4705
20
-7.57719
11
10.4728
21
-7.57831
0
LINE
8
BLACK
6
CONTINUOUS
10
10.4728
20
-7.57831
11
10.4732
21
-7.57831
0
LINE
8
BLACK
6
CONTINUOUS
10
10.4732
20
-7.57831
11
10.4755
21
-7.57719
0
LINE
8
BLACK
6
CONTINUOUS
10
10.4755
20
-7.57719
11
10.4766
21
-7.57494
0
LINE
8
BLACK
6
CONTINUOUS
10
10.4766
20
-7.57494
11
10.4766
21
-7.57001
0
LINE
8
BLACK
6
CONTINUOUS
10
10.4766
20
-7.57001
11
10.4768
21
-7.569
0
LINE
8
BLACK
6
CONTINUOUS
10
10.4768
20
-7.569
11
10.4769
21
-7.56887
0
LINE
8
BLACK
6
CONTINUOUS
10
10.4769
20
-7.56887
11
10.4769
21
-7.56869
0
LINE
8
BLACK
6
CONTINUOUS
10
10.4769
20
-7.56869
11
10.4788
21
-7.56494
0
LINE
8
BLACK
6
CONTINUOUS
10
10.4788
20
-7.56494
11
10.4794
21
-7.56412
0
LINE
8
BLACK
6
CONTINUOUS
10
10.4794
20
-7.56412
11
10.4798
21
-7.56394
0
LINE
8
BLACK
6
CONTINUOUS
10
10.4798
20
-7.56394
11
10.4801
21
-7.56362
0
LINE
8
BLACK
6
CONTINUOUS
10
10.4801
20
-7.56362
11
10.4839
21
-7.56175
0
LINE
8
BLACK
6
CONTINUOUS
10
10.4839
20
-7.56175
11
10.4849
21
-7.56146
0
LINE
8
BLACK
6
CONTINUOUS
10
10.4849
20
-7.56146
11
10.485
21
-7.5615
0
LINE
8
BLACK
6
CONTINUOUS
10
10.485
20
-7.5615
11
10.4852
21
-7.56144
0
LINE
8
BLACK
6
CONTINUOUS
10
10.4852
20
-7.56144
11
10.4871
21
-7.56144
0
LINE
8
BLACK
6
CONTINUOUS
10
10.4871
20
-7.56144
11
10.4881
21
-7.56161
0
LINE
8
BLACK
6
CONTINUOUS
10
10.4881
20
-7.52974
11
10.4882
21
-7.52986
0
LINE
8
BLACK
6
CONTINUOUS
10
10.4882
20
-7.52986
11
10.4884
21
-7.52988
0
LINE
8
BLACK
6
CONTINUOUS
10
10.4884
20
-7.52988
11
10.4921
21
-7.53175
0
LINE
8
BLACK
6
CONTINUOUS
10
10.4921
20
-7.53175
11
10.493
21
-7.53236
0
LINE
8
BLACK
6
CONTINUOUS
10
10.493
20
-7.53236
11
10.4931
21
-7.53277
0
LINE
8
BLACK
6
CONTINUOUS
10
10.4931
20
-7.53277
11
10.4935
21
-7.53307
0
LINE
8
BLACK
6
CONTINUOUS
10
10.4935
20
-7.53307
11
10.4953
21
-7.53682
0
LINE
8
BLACK
6
CONTINUOUS
10
10.4953
20
-7.53682
11
10.4956
21
-7.5378
0
LINE
8
BLACK
6
CONTINUOUS
10
10.4956
20
-7.5378
11
10.4956
21
-7.53798
0
LINE
8
BLACK
6
CONTINUOUS
10
10.4956
20
-7.53798
11
10.4956
21
-7.53814
0
LINE
8
BLACK
6
CONTINUOUS
10
10.4956
20
-7.53814
11
10.4956
21
-7.54377
0
LINE
8
BLACK
6
CONTINUOUS
10
10.4956
20
-7.54377
11
10.4955
21
-7.54478
0
LINE
8
BLACK
6
CONTINUOUS
10
10.4955
20
-7.54478
11
10.4953
21
-7.54491
0
LINE
8
BLACK
6
CONTINUOUS
10
10.4953
20
-7.54491
11
10.4953
21
-7.54509
0
LINE
8
BLACK
6
CONTINUOUS
10
10.4953
20
-7.54509
11
10.4935
21
-7.54884
0
LINE
8
BLACK
6
CONTINUOUS
10
10.4935
20
-7.54884
11
10.4928
21
-7.54966
0
LINE
8
BLACK
6
CONTINUOUS
10
10.4928
20
-7.54966
11
10.491
21
-7.55046
0
LINE
8
BLACK
6
CONTINUOUS
10
10.491
20
-7.55046
11
10.4891
21
-7.54989
0
LINE
8
BLACK
6
CONTINUOUS
10
10.4891
20
-7.54989
11
10.4879
21
-7.5482
0
LINE
8
BLACK
6
CONTINUOUS
10
10.4879
20
-7.5482
11
10.4882
21
-7.5462
0
LINE
8
BLACK
6
CONTINUOUS
10
10.4882
20
-7.5462
11
10.4897
21
-7.54307
0
LINE
8
BLACK
6
CONTINUOUS
10
10.4897
20
-7.54307
11
10.4897
21
-7.53884
0
LINE
8
BLACK
6
CONTINUOUS
10
10.4897
20
-7.53884
11
10.4886
21
-7.53659
0
LINE
8
BLACK
6
CONTINUOUS
10
10.4886
20
-7.53659
11
10.4864
21
-7.53547
0
LINE
8
BLACK
6
CONTINUOUS
10
10.4864
20
-7.53547
11
10.4859
21
-7.53547
0
LINE
8
BLACK
6
CONTINUOUS
10
10.4859
20
-7.53547
11
10.4836
21
-7.53659
0
LINE
8
BLACK
6
CONTINUOUS
10
10.4836
20
-7.53659
11
10.4825
21
-7.53884
0
LINE
8
BLACK
6
CONTINUOUS
10
10.4825
20
-7.53884
11
10.4825
21
-7.54377
0
LINE
8
BLACK
6
CONTINUOUS
10
10.4825
20
-7.54377
11
10.4823
21
-7.54478
0
LINE
8
BLACK
6
CONTINUOUS
10
10.4823
20
-7.54478
11
10.4822
21
-7.54491
0
LINE
8
BLACK
6
CONTINUOUS
10
10.4822
20
-7.54491
11
10.4822
21
-7.54509
0
LINE
8
BLACK
6
CONTINUOUS
10
10.4822
20
-7.54509
11
10.4803
21
-7.54884
0
LINE
8
BLACK
6
CONTINUOUS
10
10.4803
20
-7.54884
11
10.4797
21
-7.54966
0
LINE
8
BLACK
6
CONTINUOUS
10
10.4797
20
-7.54966
11
10.4793
21
-7.54984
0
LINE
8
BLACK
6
CONTINUOUS
10
10.4793
20
-7.54984
11
10.479
21
-7.55016
0
LINE
8
BLACK
6
CONTINUOUS
10
10.479
20
-7.55016
11
10.4753
21
-7.55203
0
LINE
8
BLACK
6
CONTINUOUS
10
10.4753
20
-7.55203
11
10.4743
21
-7.55232
0
LINE
8
BLACK
6
CONTINUOUS
10
10.4743
20
-7.55232
11
10.4741
21
-7.55228
0
LINE
8
BLACK
6
CONTINUOUS
10
10.4741
20
-7.55228
11
10.4739
21
-7.55234
0
LINE
8
BLACK
6
CONTINUOUS
10
10.4739
20
-7.55234
11
10.4721
21
-7.55234
0
LINE
8
BLACK
6
CONTINUOUS
10
10.4721
20
-7.55234
11
10.4711
21
-7.55217
0
LINE
8
BLACK
6
CONTINUOUS
10
10.4711
20
-7.55217
11
10.4709
21
-7.55205
0
LINE
8
BLACK
6
CONTINUOUS
10
10.4709
20
-7.55205
11
10.4707
21
-7.55203
0
LINE
8
BLACK
6
CONTINUOUS
10
10.4707
20
-7.55203
11
10.467
21
-7.55016
0
LINE
8
BLACK
6
CONTINUOUS
10
10.467
20
-7.55016
11
10.4662
21
-7.54955
0
LINE
8
BLACK
6
CONTINUOUS
10
10.4662
20
-7.54955
11
10.466
21
-7.54914
0
LINE
8
BLACK
6
CONTINUOUS
10
10.466
20
-7.54914
11
10.4657
21
-7.54884
0
LINE
8
BLACK
6
CONTINUOUS
10
10.4657
20
-7.54884
11
10.4638
21
-7.54509
0
LINE
8
BLACK
6
CONTINUOUS
10
10.4638
20
-7.54509
11
10.4635
21
-7.5441
0
LINE
8
BLACK
6
CONTINUOUS
10
10.4635
20
-7.5441
11
10.4635
21
-7.54393
0
LINE
8
BLACK
6
CONTINUOUS
10
10.4635
20
-7.54393
11
10.4635
21
-7.54377
0
LINE
8
BLACK
6
CONTINUOUS
10
10.4635
20
-7.54377
11
10.4635
21
-7.53627
0
LINE
8
BLACK
6
CONTINUOUS
10
10.4635
20
-7.53627
11
10.4637
21
-7.53526
0
LINE
8
BLACK
6
CONTINUOUS
10
10.4637
20
-7.53526
11
10.4638
21
-7.53512
0
LINE
8
BLACK
6
CONTINUOUS
10
10.4638
20
-7.53512
11
10.4638
21
-7.53495
0
LINE
8
BLACK
6
CONTINUOUS
10
10.4638
20
-7.53495
11
10.4657
21
-7.5312
0
LINE
8
BLACK
6
CONTINUOUS
10
10.4657
20
-7.5312
11
10.4663
21
-7.53037
0
LINE
8
BLACK
6
CONTINUOUS
10
10.4663
20
-7.53037
11
10.4681
21
-7.52957
0
LINE
8
BLACK
6
CONTINUOUS
10
10.4681
20
-7.52957
11
10.4701
21
-7.53015
0
LINE
8
BLACK
6
CONTINUOUS
10
10.4701
20
-7.53015
11
10.4712
21
-7.53183
0
LINE
8
BLACK
6
CONTINUOUS
10
10.4712
20
-7.53183
11
10.471
21
-7.53384
0
LINE
8
BLACK
6
CONTINUOUS
10
10.471
20
-7.53384
11
10.4694
21
-7.53696
0
LINE
8
BLACK
6
CONTINUOUS
10
10.4694
20
-7.53696
11
10.4694
21
-7.54307
0
LINE
8
BLACK
6
CONTINUOUS
10
10.4694
20
-7.54307
11
10.4705
21
-7.54532
0
LINE
8
BLACK
6
CONTINUOUS
10
10.4705
20
-7.54532
11
10.4728
21
-7.54644
0
LINE
8
BLACK
6
CONTINUOUS
10
10.4728
20
-7.54644
11
10.4732
21
-7.54644
0
LINE
8
BLACK
6
CONTINUOUS
10
10.4732
20
-7.54644
11
10.4755
21
-7.54532
0
LINE
8
BLACK
6
CONTINUOUS
10
10.4755
20
-7.54532
11
10.4766
21
-7.54307
0
LINE
8
BLACK
6
CONTINUOUS
10
10.4766
20
-7.54307
11
10.4766
21
-7.53814
0
LINE
8
BLACK
6
CONTINUOUS
10
10.4766
20
-7.53814
11
10.4768
21
-7.53713
0
LINE
8
BLACK
6
CONTINUOUS
10
10.4768
20
-7.53713
11
10.4769
21
-7.537
0
LINE
8
BLACK
6
CONTINUOUS
10
10.4769
20
-7.537
11
10.4769
21
-7.53682
0
LINE
8
BLACK
6
CONTINUOUS
10
10.4769
20
-7.53682
11
10.4788
21
-7.53307
0
LINE
8
BLACK
6
CONTINUOUS
10
10.4788
20
-7.53307
11
10.4794
21
-7.53225
0
LINE
8
BLACK
6
CONTINUOUS
10
10.4794
20
-7.53225
11
10.4798
21
-7.53207
0
LINE
8
BLACK
6
CONTINUOUS
10
10.4798
20
-7.53207
11
10.4801
21
-7.53175
0
LINE
8
BLACK
6
CONTINUOUS
10
10.4801
20
-7.53175
11
10.4839
21
-7.52988
0
LINE
8
BLACK
6
CONTINUOUS
10
10.4839
20
-7.52988
11
10.4849
21
-7.52958
0
LINE
8
BLACK
6
CONTINUOUS
10
10.4849
20
-7.52958
11
10.485
21
-7.52963
0
LINE
8
BLACK
6
CONTINUOUS
10
10.485
20
-7.52963
11
10.4852
21
-7.52957
0
LINE
8
BLACK
6
CONTINUOUS
10
10.4852
20
-7.52957
11
10.4871
21
-7.52957
0
LINE
8
BLACK
6
CONTINUOUS
10
10.4871
20
-7.52957
11
10.4881
21
-7.52974
0
LINE
8
BLACK
6
CONTINUOUS
10
10.4881
20
-7.496
11
10.4882
21
-7.49611
0
LINE
8
BLACK
6
CONTINUOUS
10
10.4882
20
-7.49611
11
10.4884
21
-7.49613
0
LINE
8
BLACK
6
CONTINUOUS
10
10.4884
20
-7.49613
11
10.4921
21
-7.49801
0
LINE
8
BLACK
6
CONTINUOUS
10
10.4921
20
-7.49801
11
10.493
21
-7.49862
0
LINE
8
BLACK
6
CONTINUOUS
10
10.493
20
-7.49862
11
10.4931
21
-7.49902
0
LINE
8
BLACK
6
CONTINUOUS
10
10.4931
20
-7.49902
11
10.4935
21
-7.49933
0
LINE
8
BLACK
6
CONTINUOUS
10
10.4935
20
-7.49933
11
10.4953
21
-7.50308
0
LINE
8
BLACK
6
CONTINUOUS
10
10.4953
20
-7.50308
11
10.4956
21
-7.50406
0
LINE
8
BLACK
6
CONTINUOUS
10
10.4956
20
-7.50406
11
10.4956
21
-7.50423
0
LINE
8
BLACK
6
CONTINUOUS
10
10.4956
20
-7.50423
11
10.4956
21
-7.5044
0
LINE
8
BLACK
6
CONTINUOUS
10
10.4956
20
-7.5044
11
10.4956
21
-7.5119
0
LINE
8
BLACK
6
CONTINUOUS
10
10.4956
20
-7.5119
11
10.4955
21
-7.51291
0
LINE
8
BLACK
6
CONTINUOUS
10
10.4955
20
-7.51291
11
10.4953
21
-7.51304
0
LINE
8
BLACK
6
CONTINUOUS
10
10.4953
20
-7.51304
11
10.4953
21
-7.51322
0
LINE
8
BLACK
6
CONTINUOUS
10
10.4953
20
-7.51322
11
10.4935
21
-7.51697
0
LINE
8
BLACK
6
CONTINUOUS
10
10.4935
20
-7.51697
11
10.4928
21
-7.51779
0
LINE
8
BLACK
6
CONTINUOUS
10
10.4928
20
-7.51779
11
10.4924
21
-7.51796
0
LINE
8
BLACK
6
CONTINUOUS
10
10.4924
20
-7.51796
11
10.4921
21
-7.51829
0
LINE
8
BLACK
6
CONTINUOUS
10
10.4921
20
-7.51829
11
10.4884
21
-7.52016
0
LINE
8
BLACK
6
CONTINUOUS
10
10.4884
20
-7.52016
11
10.4874
21
-7.52045
0
LINE
8
BLACK
6
CONTINUOUS
10
10.4874
20
-7.52045
11
10.4872
21
-7.52041
0
LINE
8
BLACK
6
CONTINUOUS
10
10.4872
20
-7.52041
11
10.4871
21
-7.52047
0
LINE
8
BLACK
6
CONTINUOUS
10
10.4871
20
-7.52047
11
10.4833
21
-7.52047
0
LINE
8
BLACK
6
CONTINUOUS
10
10.4833
20
-7.52047
11
10.4823
21
-7.52029
0
LINE
8
BLACK
6
CONTINUOUS
10
10.4823
20
-7.52029
11
10.4819
21
-7.51998
0
LINE
8
BLACK
6
CONTINUOUS
10
10.4819
20
-7.51998
11
10.4815
21
-7.51982
0
LINE
8
BLACK
6
CONTINUOUS
10
10.4815
20
-7.51982
11
10.4812
21
-7.51935
0
LINE
8
BLACK
6
CONTINUOUS
10
10.4812
20
-7.51935
11
10.4808
21
-7.519
0
LINE
8
BLACK
6
CONTINUOUS
10
10.4808
20
-7.519
11
10.4807
21
-7.51852
0
LINE
8
BLACK
6
CONTINUOUS
10
10.4807
20
-7.51852
11
10.4804
21
-7.5181
0
LINE
8
BLACK
6
CONTINUOUS
10
10.4804
20
-7.5181
11
10.4771
21
-7.50172
0
LINE
8
BLACK
6
CONTINUOUS
10
10.4771
20
-7.50172
11
10.4728
21
-7.50172
0
LINE
8
BLACK
6
CONTINUOUS
10
10.4728
20
-7.50172
11
10.4705
21
-7.50285
0
LINE
8
BLACK
6
CONTINUOUS
10
10.4705
20
-7.50285
11
10.4694
21
-7.50509
0
LINE
8
BLACK
6
CONTINUOUS
10
10.4694
20
-7.50509
11
10.4694
21
-7.5112
0
LINE
8
BLACK
6
CONTINUOUS
10
10.4694
20
-7.5112
11
10.471
21
-7.51432
0
LINE
8
BLACK
6
CONTINUOUS
10
10.471
20
-7.51432
11
10.4712
21
-7.51531
0
LINE
8
BLACK
6
CONTINUOUS
10
10.4712
20
-7.51531
11
10.4708
21
-7.51727
0
LINE
8
BLACK
6
CONTINUOUS
10
10.4708
20
-7.51727
11
10.4692
21
-7.51848
0
LINE
8
BLACK
6
CONTINUOUS
10
10.4692
20
-7.51848
11
10.4671
21
-7.51835
0
LINE
8
BLACK
6
CONTINUOUS
10
10.4671
20
-7.51835
11
10.4657
21
-7.51697
0
LINE
8
BLACK
6
CONTINUOUS
10
10.4657
20
-7.51697
11
10.4638
21
-7.51322
0
LINE
8
BLACK
6
CONTINUOUS
10
10.4638
20
-7.51322
11
10.4635
21
-7.51223
0
LINE
8
BLACK
6
CONTINUOUS
10
10.4635
20
-7.51223
11
10.4635
21
-7.51206
0
LINE
8
BLACK
6
CONTINUOUS
10
10.4635
20
-7.51206
11
10.4635
21
-7.5119
0
LINE
8
BLACK
6
CONTINUOUS
10
10.4635
20
-7.5119
11
10.4635
21
-7.5044
0
LINE
8
BLACK
6
CONTINUOUS
10
10.4635
20
-7.5044
11
10.4637
21
-7.50339
0
LINE
8
BLACK
6
CONTINUOUS
10
10.4637
20
-7.50339
11
10.4638
21
-7.50325
0
LINE
8
BLACK
6
CONTINUOUS
10
10.4638
20
-7.50325
11
10.4638
21
-7.50308
0
LINE
8
BLACK
6
CONTINUOUS
10
10.4638
20
-7.50308
11
10.4657
21
-7.49933
0
LINE
8
BLACK
6
CONTINUOUS
10
10.4657
20
-7.49933
11
10.4663
21
-7.4985
0
LINE
8
BLACK
6
CONTINUOUS
10
10.4663
20
-7.4985
11
10.4667
21
-7.49833
0
LINE
8
BLACK
6
CONTINUOUS
10
10.4667
20
-7.49833
11
10.467
21
-7.49801
0
LINE
8
BLACK
6
CONTINUOUS
10
10.467
20
-7.49801
11
10.4707
21
-7.49613
0
LINE
8
BLACK
6
CONTINUOUS
10
10.4707
20
-7.49613
11
10.4717
21
-7.49584
0
LINE
8
BLACK
6
CONTINUOUS
10
10.4717
20
-7.49584
11
10.4719
21
-7.49588
0
LINE
8
BLACK
6
CONTINUOUS
10
10.4719
20
-7.49588
11
10.4721
21
-7.49582
0
LINE
8
BLACK
6
CONTINUOUS
10
10.4721
20
-7.49582
11
10.4871
21
-7.49582
0
LINE
8
BLACK
6
CONTINUOUS
10
10.4871
20
-7.49582
11
10.4881
21
-7.496
0
LINE
8
BLACK
6
CONTINUOUS
10
10.4832
20
-7.50172
11
10.4857
21
-7.51457
0
LINE
8
BLACK
6
CONTINUOUS
10
10.4857
20
-7.51457
11
10.4864
21
-7.51457
0
LINE
8
BLACK
6
CONTINUOUS
10
10.4864
20
-7.51457
11
10.4886
21
-7.51344
0
LINE
8
BLACK
6
CONTINUOUS
10
10.4886
20
-7.51344
11
10.4897
21
-7.5112
0
LINE
8
BLACK
6
CONTINUOUS
10
10.4897
20
-7.5112
11
10.4897
21
-7.50509
0
LINE
8
BLACK
6
CONTINUOUS
10
10.4897
20
-7.50509
11
10.4886
21
-7.50285
0
LINE
8
BLACK
6
CONTINUOUS
10
10.4886
20
-7.50285
11
10.4864
21
-7.50172
0
LINE
8
BLACK
6
CONTINUOUS
10
10.4864
20
-7.50172
11
10.4832
21
-7.50172
0
LINE
8
BLACK
6
CONTINUOUS
10
10.4937
20
-7.46225
11
10.4952
21
-7.46355
0
LINE
8
BLACK
6
CONTINUOUS
10
10.4952
20
-7.46355
11
10.4956
21
-7.46554
0
LINE
8
BLACK
6
CONTINUOUS
10
10.4956
20
-7.46554
11
10.4946
21
-7.46729
0
LINE
8
BLACK
6
CONTINUOUS
10
10.4946
20
-7.46729
11
10.4944
21
-7.46737
0
LINE
8
BLACK
6
CONTINUOUS
10
10.4944
20
-7.46737
11
10.4953
21
-7.46933
0
LINE
8
BLACK
6
CONTINUOUS
10
10.4953
20
-7.46933
11
10.4956
21
-7.47031
0
LINE
8
BLACK
6
CONTINUOUS
10
10.4956
20
-7.47031
11
10.4956
21
-7.47048
0
LINE
8
BLACK
6
CONTINUOUS
10
10.4956
20
-7.47048
11
10.4956
21
-7.47065
0
LINE
8
BLACK
6
CONTINUOUS
10
10.4956
20
-7.47065
11
10.4956
21
-7.47627
0
LINE
8
BLACK
6
CONTINUOUS
10
10.4956
20
-7.47627
11
10.4955
21
-7.47728
0
LINE
8
BLACK
6
CONTINUOUS
10
10.4955
20
-7.47728
11
10.4953
21
-7.47742
0
LINE
8
BLACK
6
CONTINUOUS
10
10.4953
20
-7.47742
11
10.4953
21
-7.4776
0
LINE
8
BLACK
6
CONTINUOUS
10
10.4953
20
-7.4776
11
10.4935
21
-7.48134
0
LINE
8
BLACK
6
CONTINUOUS
10
10.4935
20
-7.48134
11
10.4928
21
-7.48217
0
LINE
8
BLACK
6
CONTINUOUS
10
10.4928
20
-7.48217
11
10.4924
21
-7.48234
0
LINE
8
BLACK
6
CONTINUOUS
10
10.4924
20
-7.48234
11
10.4921
21
-7.48267
0
LINE
8
BLACK
6
CONTINUOUS
10
10.4921
20
-7.48267
11
10.4884
21
-7.48454
0
LINE
8
BLACK
6
CONTINUOUS
10
10.4884
20
-7.48454
11
10.4874
21
-7.48483
0
LINE
8
BLACK
6
CONTINUOUS
10
10.4874
20
-7.48483
11
10.4872
21
-7.48479
0
LINE
8
BLACK
6
CONTINUOUS
10
10.4872
20
-7.48479
11
10.4871
21
-7.48485
0
LINE
8
BLACK
6
CONTINUOUS
10
10.4871
20
-7.48485
11
10.4664
21
-7.48485
0
LINE
8
BLACK
6
CONTINUOUS
10
10.4664
20
-7.48485
11
10.4654
21
-7.48467
0
LINE
8
BLACK
6
CONTINUOUS
10
10.4654
20
-7.48467
11
10.4639
21
-7.48338
0
LINE
8
BLACK
6
CONTINUOUS
10
10.4639
20
-7.48338
11
10.4635
21
-7.48139
0
LINE
8
BLACK
6
CONTINUOUS
10
10.4635
20
-7.48139
11
10.4645
21
-7.47964
0
LINE
8
BLACK
6
CONTINUOUS
10
10.4645
20
-7.47964
11
10.4664
21
-7.47895
0
LINE
8
BLACK
6
CONTINUOUS
10
10.4664
20
-7.47895
11
10.4864
21
-7.47895
0
LINE
8
BLACK
6
CONTINUOUS
10
10.4864
20
-7.47895
11
10.4886
21
-7.47782
0
LINE
8
BLACK
6
CONTINUOUS
10
10.4886
20
-7.47782
11
10.4897
21
-7.47558
0
LINE
8
BLACK
6
CONTINUOUS
10
10.4897
20
-7.47558
11
10.4897
21
-7.47135
0
LINE
8
BLACK
6
CONTINUOUS
10
10.4897
20
-7.47135
11
10.4884
21
-7.46865
0
LINE
8
BLACK
6
CONTINUOUS
10
10.4884
20
-7.46865
11
10.4877
21
-7.46798
0
LINE
8
BLACK
6
CONTINUOUS
10
10.4877
20
-7.46798
11
10.4664
21
-7.46798
0
LINE
8
BLACK
6
CONTINUOUS
10
10.4664
20
-7.46798
11
10.4654
21
-7.4678
0
LINE
8
BLACK
6
CONTINUOUS
10
10.4654
20
-7.4678
11
10.4639
21
-7.4665
0
LINE
8
BLACK
6
CONTINUOUS
10
10.4639
20
-7.4665
11
10.4635
21
-7.46451
0
LINE
8
BLACK
6
CONTINUOUS
10
10.4635
20
-7.46451
11
10.4645
21
-7.46276
0
LINE
8
BLACK
6
CONTINUOUS
10
10.4645
20
-7.46276
11
10.4664
21
-7.46207
0
LINE
8
BLACK
6
CONTINUOUS
10
10.4664
20
-7.46207
11
10.4927
21
-7.46207
0
LINE
8
BLACK
6
CONTINUOUS
10
10.4927
20
-7.46207
11
10.4937
21
-7.46225
0
LINE
8
BLACK
6
CONTINUOUS
10
10.5068
20
-7.43038
11
10.5084
21
-7.43168
0
LINE
8
BLACK
6
CONTINUOUS
10
10.5084
20
-7.43168
11
10.5087
21
-7.43367
0
LINE
8
BLACK
6
CONTINUOUS
10
10.5087
20
-7.43367
11
10.5077
21
-7.43542
0
LINE
8
BLACK
6
CONTINUOUS
10
10.5077
20
-7.43542
11
10.5058
21
-7.43611
0
LINE
8
BLACK
6
CONTINUOUS
10
10.5058
20
-7.43611
11
10.4848
21
-7.43611
0
LINE
8
BLACK
6
CONTINUOUS
10
10.4848
20
-7.43611
11
10.4948
21
-7.44607
0
LINE
8
BLACK
6
CONTINUOUS
10
10.4948
20
-7.44607
11
10.4954
21
-7.44691
0
LINE
8
BLACK
6
CONTINUOUS
10
10.4954
20
-7.44691
11
10.4955
21
-7.44892
0
LINE
8
BLACK
6
CONTINUOUS
10
10.4955
20
-7.44892
11
10.4944
21
-7.45057
0
LINE
8
BLACK
6
CONTINUOUS
10
10.4944
20
-7.45057
11
10.4924
21
-7.45109
0
LINE
8
BLACK
6
CONTINUOUS
10
10.4924
20
-7.45109
11
10.4906
21
-7.45024
0
LINE
8
BLACK
6
CONTINUOUS
10
10.4906
20
-7.45024
11
10.4812
21
-7.4408
0
LINE
8
BLACK
6
CONTINUOUS
10
10.4812
20
-7.4408
11
10.4682
21
-7.45052
0
LINE
8
BLACK
6
CONTINUOUS
10
10.4682
20
-7.45052
11
10.4673
21
-7.45098
0
LINE
8
BLACK
6
CONTINUOUS
10
10.4673
20
-7.45098
11
10.4653
21
-7.45087
0
LINE
8
BLACK
6
CONTINUOUS
10
10.4653
20
-7.45087
11
10.4638
21
-7.44949
0
LINE
8
BLACK
6
CONTINUOUS
10
10.4638
20
-7.44949
11
10.4636
21
-7.44748
0
LINE
8
BLACK
6
CONTINUOUS
10
10.4636
20
-7.44748
11
10.4647
21
-7.44579
0
LINE
8
BLACK
6
CONTINUOUS
10
10.4647
20
-7.44579
11
10.4769
21
-7.43659
0
LINE
8
BLACK
6
CONTINUOUS
10
10.4769
20
-7.43659
11
10.4765
21
-7.43611
0
LINE
8
BLACK
6
CONTINUOUS
10
10.4765
20
-7.43611
11
10.4664
21
-7.43611
0
LINE
8
BLACK
6
CONTINUOUS
10
10.4664
20
-7.43611
11
10.4654
21
-7.43593
0
LINE
8
BLACK
6
CONTINUOUS
10
10.4654
20
-7.43593
11
10.4639
21
-7.43463
0
LINE
8
BLACK
6
CONTINUOUS
10
10.4639
20
-7.43463
11
10.4635
21
-7.43264
0
LINE
8
BLACK
6
CONTINUOUS
10
10.4635
20
-7.43264
11
10.4645
21
-7.43089
0
LINE
8
BLACK
6
CONTINUOUS
10
10.4645
20
-7.43089
11
10.4664
21
-7.4302
0
LINE
8
BLACK
6
CONTINUOUS
10
10.4664
20
-7.4302
11
10.5058
21
-7.4302
0
LINE
8
BLACK
6
CONTINUOUS
10
10.5058
20
-7.4302
11
10.5068
21
-7.43038
0
LINE
8
BLACK
6
CONTINUOUS
10
10.4862
20
-7.39476
11
10.4863
21
-7.39487
0
LINE
8
BLACK
6
CONTINUOUS
10
10.4863
20
-7.39487
11
10.4865
21
-7.39489
0
LINE
8
BLACK
6
CONTINUOUS
10
10.4865
20
-7.39489
11
10.4903
21
-7.39677
0
LINE
8
BLACK
6
CONTINUOUS
10
10.4903
20
-7.39677
11
10.491
21
-7.39729
0
LINE
8
BLACK
6
CONTINUOUS
10
10.491
20
-7.39729
11
10.491
21
-7.39732
0
LINE
8
BLACK
6
CONTINUOUS
10
10.491
20
-7.39732
11
10.4929
21
-7.3992
0
LINE
8
BLACK
6
CONTINUOUS
10
10.4929
20
-7.3992
11
10.4934
21
-7.39992
0
LINE
8
BLACK
6
CONTINUOUS
10
10.4934
20
-7.39992
11
10.4935
21
-7.39996
0
LINE
8
BLACK
6
CONTINUOUS
10
10.4935
20
-7.39996
11
10.4953
21
-7.40371
0
LINE
8
BLACK
6
CONTINUOUS
10
10.4953
20
-7.40371
11
10.4956
21
-7.4047
0
LINE
8
BLACK
6
CONTINUOUS
10
10.4956
20
-7.4047
11
10.4956
21
-7.40487
0
LINE
8
BLACK
6
CONTINUOUS
10
10.4956
20
-7.40487
11
10.4956
21
-7.40503
0
LINE
8
BLACK
6
CONTINUOUS
10
10.4956
20
-7.40503
11
10.4956
21
-7.41253
0
LINE
8
BLACK
6
CONTINUOUS
10
10.4956
20
-7.41253
11
10.4955
21
-7.41354
0
LINE
8
BLACK
6
CONTINUOUS
10
10.4955
20
-7.41354
11
10.4953
21
-7.41368
0
LINE
8
BLACK
6
CONTINUOUS
10
10.4953
20
-7.41368
11
10.4953
21
-7.41385
0
LINE
8
BLACK
6
CONTINUOUS
10
10.4953
20
-7.41385
11
10.4935
21
-7.4176
0
LINE
8
BLACK
6
CONTINUOUS
10
10.4935
20
-7.4176
11
10.4928
21
-7.41843
0
LINE
8
BLACK
6
CONTINUOUS
10
10.4928
20
-7.41843
11
10.491
21
-7.41923
0
LINE
8
BLACK
6
CONTINUOUS
10
10.491
20
-7.41923
11
10.4891
21
-7.41865
0
LINE
8
BLACK
6
CONTINUOUS
10
10.4891
20
-7.41865
11
10.4879
21
-7.41697
0
LINE
8
BLACK
6
CONTINUOUS
10
10.4879
20
-7.41697
11
10.4882
21
-7.41496
0
LINE
8
BLACK
6
CONTINUOUS
10
10.4882
20
-7.41496
11
10.4897
21
-7.41184
0
LINE
8
BLACK
6
CONTINUOUS
10
10.4897
20
-7.41184
11
10.4897
21
-7.40573
0
LINE
8
BLACK
6
CONTINUOUS
10
10.4897
20
-7.40573
11
10.4884
21
-7.40303
0
LINE
8
BLACK
6
CONTINUOUS
10
10.4884
20
-7.40303
11
10.4872
21
-7.40184
0
LINE
8
BLACK
6
CONTINUOUS
10
10.4872
20
-7.40184
11
10.4845
21
-7.40049
0
LINE
8
BLACK
6
CONTINUOUS
10
10.4845
20
-7.40049
11
10.4746
21
-7.40049
0
LINE
8
BLACK
6
CONTINUOUS
10
10.4746
20
-7.40049
11
10.4719
21
-7.40184
0
LINE
8
BLACK
6
CONTINUOUS
10
10.4719
20
-7.40184
11
10.4707
21
-7.40303
0
LINE
8
BLACK
6
CONTINUOUS
10
10.4707
20
-7.40303
11
10.4694
21
-7.40573
0
LINE
8
BLACK
6
CONTINUOUS
10
10.4694
20
-7.40573
11
10.4694
21
-7.41184
0
LINE
8
BLACK
6
CONTINUOUS
10
10.4694
20
-7.41184
11
10.471
21
-7.41496
0
LINE
8
BLACK
6
CONTINUOUS
10
10.471
20
-7.41496
11
10.4712
21
-7.41594
0
LINE
8
BLACK
6
CONTINUOUS
10
10.4712
20
-7.41594
11
10.4708
21
-7.41791
0
LINE
8
BLACK
6
CONTINUOUS
10
10.4708
20
-7.41791
11
10.4692
21
-7.41911
0
LINE
8
BLACK
6
CONTINUOUS
10
10.4692
20
-7.41911
11
10.4671
21
-7.41899
0
LINE
8
BLACK
6
CONTINUOUS
10
10.4671
20
-7.41899
11
10.4657
21
-7.4176
0
LINE
8
BLACK
6
CONTINUOUS
10
10.4657
20
-7.4176
11
10.4638
21
-7.41385
0
LINE
8
BLACK
6
CONTINUOUS
10
10.4638
20
-7.41385
11
10.4635
21
-7.41287
0
LINE
8
BLACK
6
CONTINUOUS
10
10.4635
20
-7.41287
11
10.4635
21
-7.4127
0
LINE
8
BLACK
6
CONTINUOUS
10
10.4635
20
-7.4127
11
10.4635
21
-7.41253
0
LINE
8
BLACK
6
CONTINUOUS
10
10.4635
20
-7.41253
11
10.4635
21
-7.40503
0
LINE
8
BLACK
6
CONTINUOUS
10
10.4635
20
-7.40503
11
10.4637
21
-7.40402
0
LINE
8
BLACK
6
CONTINUOUS
10
10.4637
20
-7.40402
11
10.4638
21
-7.40389
0
LINE
8
BLACK
6
CONTINUOUS
10
10.4638
20
-7.40389
11
10.4638
21
-7.40371
0
LINE
8
BLACK
6
CONTINUOUS
10
10.4638
20
-7.40371
11
10.4657
21
-7.39996
0
LINE
8
BLACK
6
CONTINUOUS
10
10.4657
20
-7.39996
11
10.4662
21
-7.39925
0
LINE
8
BLACK
6
CONTINUOUS
10
10.4662
20
-7.39925
11
10.4662
21
-7.3992
0
LINE
8
BLACK
6
CONTINUOUS
10
10.4662
20
-7.3992
11
10.4681
21
-7.39732
0
LINE
8
BLACK
6
CONTINUOUS
10
10.4681
20
-7.39732
11
10.4688
21
-7.39682
0
LINE
8
BLACK
6
CONTINUOUS
10
10.4688
20
-7.39682
11
10.4689
21
-7.39677
0
LINE
8
BLACK
6
CONTINUOUS
10
10.4689
20
-7.39677
11
10.4726
21
-7.39489
0
LINE
8
BLACK
6
CONTINUOUS
10
10.4726
20
-7.39489
11
10.4736
21
-7.3946
0
LINE
8
BLACK
6
CONTINUOUS
10
10.4736
20
-7.3946
11
10.4738
21
-7.39464
0
LINE
8
BLACK
6
CONTINUOUS
10
10.4738
20
-7.39464
11
10.4739
21
-7.39458
0
LINE
8
BLACK
6
CONTINUOUS
10
10.4739
20
-7.39458
11
10.4852
21
-7.39458
0
LINE
8
BLACK
6
CONTINUOUS
10
10.4852
20
-7.39458
11
10.4862
21
-7.39476
0
LINE
8
BLACK
6
CONTINUOUS
10
10.5044
20
-7.37596
11
10.5047
21
-7.37593
0
LINE
8
BLACK
6
CONTINUOUS
10
10.5047
20
-7.37593
11
10.5053
21
-7.37637
0
LINE
8
BLACK
6
CONTINUOUS
10
10.5053
20
-7.37637
11
10.506
21
-7.3767
0
LINE
8
BLACK
6
CONTINUOUS
10
10.506
20
-7.3767
11
10.5079
21
-7.37857
0
LINE
8
BLACK
6
CONTINUOUS
10
10.5079
20
-7.37857
11
10.5081
21
-7.37889
0
LINE
8
BLACK
6
CONTINUOUS
10
10.5081
20
-7.37889
11
10.5082
21
-7.37897
0
LINE
8
BLACK
6
CONTINUOUS
10
10.5082
20
-7.37897
11
10.5083
21
-7.37909
0
LINE
8
BLACK
6
CONTINUOUS
10
10.5083
20
-7.37909
11
10.5083
21
-7.3791
0
LINE
8
BLACK
6
CONTINUOUS
10
10.5083
20
-7.3791
11
10.5084
21
-7.37919
0
LINE
8
BLACK
6
CONTINUOUS
10
10.5084
20
-7.37919
11
10.5084
21
-7.37926
0
LINE
8
BLACK
6
CONTINUOUS
10
10.5084
20
-7.37926
11
10.5085
21
-7.37941
0
LINE
8
BLACK
6
CONTINUOUS
10
10.5085
20
-7.37941
11
10.5086
21
-7.38018
0
LINE
8
BLACK
6
CONTINUOUS
10
10.5086
20
-7.38018
11
10.5088
21
-7.38092
0
LINE
8
BLACK
6
CONTINUOUS
10
10.5088
20
-7.38092
11
10.5087
21
-7.38104
0
LINE
8
BLACK
6
CONTINUOUS
10
10.5087
20
-7.38104
11
10.5087
21
-7.38117
0
LINE
8
BLACK
6
CONTINUOUS
10
10.5087
20
-7.38117
11
10.5087
21
-7.38129
0
LINE
8
BLACK
6
CONTINUOUS
10
10.5087
20
-7.38129
11
10.5087
21
-7.38143
0
LINE
8
BLACK
6
CONTINUOUS
10
10.5087
20
-7.38143
11
10.5082
21
-7.38205
0
LINE
8
BLACK
6
CONTINUOUS
10
10.5082
20
-7.38205
11
10.5079
21
-7.38275
0
LINE
8
BLACK
6
CONTINUOUS
10
10.5079
20
-7.38275
11
10.506
21
-7.38462
0
LINE
8
BLACK
6
CONTINUOUS
10
10.506
20
-7.38462
11
10.5057
21
-7.38485
0
LINE
8
BLACK
6
CONTINUOUS
10
10.5057
20
-7.38485
11
10.5056
21
-7.38496
0
LINE
8
BLACK
6
CONTINUOUS
10
10.5056
20
-7.38496
11
10.5055
21
-7.38499
0
LINE
8
BLACK
6
CONTINUOUS
10
10.5055
20
-7.38499
11
10.5052
21
-7.38521
0
LINE
8
BLACK
6
CONTINUOUS
10
10.5052
20
-7.38521
11
10.5044
21
-7.38528
0
LINE
8
BLACK
6
CONTINUOUS
10
10.5044
20
-7.38528
11
10.5037
21
-7.38548
0
LINE
8
BLACK
6
CONTINUOUS
10
10.5037
20
-7.38548
11
10.5034
21
-7.38537
0
LINE
8
BLACK
6
CONTINUOUS
10
10.5034
20
-7.38537
11
10.5032
21
-7.38539
0
LINE
8
BLACK
6
CONTINUOUS
10
10.5032
20
-7.38539
11
10.5025
21
-7.38495
0
LINE
8
BLACK
6
CONTINUOUS
10
10.5025
20
-7.38495
11
10.5018
21
-7.38462
0
LINE
8
BLACK
6
CONTINUOUS
10
10.5018
20
-7.38462
11
10.5
21
-7.38275
0
LINE
8
BLACK
6
CONTINUOUS
10
10.5
20
-7.38275
11
10.4998
21
-7.38243
0
LINE
8
BLACK
6
CONTINUOUS
10
10.4998
20
-7.38243
11
10.4996
21
-7.38236
0
LINE
8
BLACK
6
CONTINUOUS
10
10.4996
20
-7.38236
11
10.4996
21
-7.38223
0
LINE
8
BLACK
6
CONTINUOUS
10
10.4996
20
-7.38223
11
10.4996
21
-7.38222
0
LINE
8
BLACK
6
CONTINUOUS
10
10.4996
20
-7.38222
11
10.4995
21
-7.38214
0
LINE
8
BLACK
6
CONTINUOUS
10
10.4995
20
-7.38214
11
10.4995
21
-7.38206
0
LINE
8
BLACK
6
CONTINUOUS
10
10.4995
20
-7.38206
11
10.4994
21
-7.38191
0
LINE
8
BLACK
6
CONTINUOUS
10
10.4994
20
-7.38191
11
10.4993
21
-7.38115
0
LINE
8
BLACK
6
CONTINUOUS
10
10.4993
20
-7.38115
11
10.4991
21
-7.3804
0
LINE
8
BLACK
6
CONTINUOUS
10
10.4991
20
-7.3804
11
10.4992
21
-7.38028
0
LINE
8
BLACK
6
CONTINUOUS
10
10.4992
20
-7.38028
11
10.4992
21
-7.38015
0
LINE
8
BLACK
6
CONTINUOUS
10
10.4992
20
-7.38015
11
10.4992
21
-7.38003
0
LINE
8
BLACK
6
CONTINUOUS
10
10.4992
20
-7.38003
11
10.4992
21
-7.3799
0
LINE
8
BLACK
6
CONTINUOUS
10
10.4992
20
-7.3799
11
10.4997
21
-7.37927
0
LINE
8
BLACK
6
CONTINUOUS
10
10.4997
20
-7.37927
11
10.5
21
-7.37857
0
LINE
8
BLACK
6
CONTINUOUS
10
10.5
20
-7.37857
11
10.5018
21
-7.3767
0
LINE
8
BLACK
6
CONTINUOUS
10
10.5018
20
-7.3767
11
10.5022
21
-7.37648
0
LINE
8
BLACK
6
CONTINUOUS
10
10.5022
20
-7.37648
11
10.5022
21
-7.37637
0
LINE
8
BLACK
6
CONTINUOUS
10
10.5022
20
-7.37637
11
10.5024
21
-7.37633
0
LINE
8
BLACK
6
CONTINUOUS
10
10.5024
20
-7.37633
11
10.5027
21
-7.37611
0
LINE
8
BLACK
6
CONTINUOUS
10
10.5027
20
-7.37611
11
10.5035
21
-7.37604
0
LINE
8
BLACK
6
CONTINUOUS
10
10.5035
20
-7.37604
11
10.5042
21
-7.37585
0
LINE
8
BLACK
6
CONTINUOUS
10
10.5042
20
-7.37585
11
10.5044
21
-7.37596
0
LINE
8
BLACK
6
CONTINUOUS
10
10.4937
20
-7.37789
11
10.4952
21
-7.37919
0
LINE
8
BLACK
6
CONTINUOUS
10
10.4952
20
-7.37919
11
10.4956
21
-7.38117
0
LINE
8
BLACK
6
CONTINUOUS
10
10.4956
20
-7.38117
11
10.4946
21
-7.38292
0
LINE
8
BLACK
6
CONTINUOUS
10
10.4946
20
-7.38292
11
10.4927
21
-7.38361
0
LINE
8
BLACK
6
CONTINUOUS
10
10.4927
20
-7.38361
11
10.4664
21
-7.38361
0
LINE
8
BLACK
6
CONTINUOUS
10
10.4664
20
-7.38361
11
10.4654
21
-7.38344
0
LINE
8
BLACK
6
CONTINUOUS
10
10.4654
20
-7.38344
11
10.4639
21
-7.38214
0
LINE
8
BLACK
6
CONTINUOUS
10
10.4639
20
-7.38214
11
10.4635
21
-7.38015
0
LINE
8
BLACK
6
CONTINUOUS
10
10.4635
20
-7.38015
11
10.4645
21
-7.3784
0
LINE
8
BLACK
6
CONTINUOUS
10
10.4645
20
-7.3784
11
10.4664
21
-7.37771
0
LINE
8
BLACK
6
CONTINUOUS
10
10.4664
20
-7.37771
11
10.4927
21
-7.37771
0
LINE
8
BLACK
6
CONTINUOUS
10
10.4927
20
-7.37771
11
10.4937
21
-7.37789
0
LINE
8
BLACK
6
CONTINUOUS
10
10.5068
20
-7.34227
11
10.5084
21
-7.34356
0
LINE
8
BLACK
6
CONTINUOUS
10
10.5084
20
-7.34356
11
10.5087
21
-7.34555
0
LINE
8
BLACK
6
CONTINUOUS
10
10.5087
20
-7.34555
11
10.5077
21
-7.3473
0
LINE
8
BLACK
6
CONTINUOUS
10
10.5077
20
-7.3473
11
10.5058
21
-7.34799
0
LINE
8
BLACK
6
CONTINUOUS
10
10.5058
20
-7.34799
11
10.4947
21
-7.34799
0
LINE
8
BLACK
6
CONTINUOUS
10
10.4947
20
-7.34799
11
10.4953
21
-7.34934
0
LINE
8
BLACK
6
CONTINUOUS
10
10.4953
20
-7.34934
11
10.4956
21
-7.35033
0
LINE
8
BLACK
6
CONTINUOUS
10
10.4956
20
-7.35033
11
10.4956
21
-7.3505
0
LINE
8
BLACK
6
CONTINUOUS
10
10.4956
20
-7.3505
11
10.4956
21
-7.35067
0
LINE
8
BLACK
6
CONTINUOUS
10
10.4956
20
-7.35067
11
10.4956
21
-7.35629
0
LINE
8
BLACK
6
CONTINUOUS
10
10.4956
20
-7.35629
11
10.4955
21
-7.3573
0
LINE
8
BLACK
6
CONTINUOUS
10
10.4955
20
-7.3573
11
10.4953
21
-7.35743
0
LINE
8
BLACK
6
CONTINUOUS
10
10.4953
20
-7.35743
11
10.4953
21
-7.35761
0
LINE
8
BLACK
6
CONTINUOUS
10
10.4953
20
-7.35761
11
10.4935
21
-7.36136
0
LINE
8
BLACK
6
CONTINUOUS
10
10.4935
20
-7.36136
11
10.4928
21
-7.36218
0
LINE
8
BLACK
6
CONTINUOUS
10
10.4928
20
-7.36218
11
10.4924
21
-7.36236
0
LINE
8
BLACK
6
CONTINUOUS
10
10.4924
20
-7.36236
11
10.4921
21
-7.36268
0
LINE
8
BLACK
6
CONTINUOUS
10
10.4921
20
-7.36268
11
10.4884
21
-7.36456
0
LINE
8
BLACK
6
CONTINUOUS
10
10.4884
20
-7.36456
11
10.4874
21
-7.36485
0
LINE
8
BLACK
6
CONTINUOUS
10
10.4874
20
-7.36485
11
10.4872
21
-7.36481
0
LINE
8
BLACK
6
CONTINUOUS
10
10.4872
20
-7.36481
11
10.4871
21
-7.36487
0
LINE
8
BLACK
6
CONTINUOUS
10
10.4871
20
-7.36487
11
10.4664
21
-7.36487
0
LINE
8
BLACK
6
CONTINUOUS
10
10.4664
20
-7.36487
11
10.4654
21
-7.36469
0
LINE
8
BLACK
6
CONTINUOUS
10
10.4654
20
-7.36469
11
10.4639
21
-7.36339
0
LINE
8
BLACK
6
CONTINUOUS
10
10.4639
20
-7.36339
11
10.4635
21
-7.3614
0
LINE
8
BLACK
6
CONTINUOUS
10
10.4635
20
-7.3614
11
10.4645
21
-7.35965
0
LINE
8
BLACK
6
CONTINUOUS
10
10.4645
20
-7.35965
11
10.4664
21
-7.35896
0
LINE
8
BLACK
6
CONTINUOUS
10
10.4664
20
-7.35896
11
10.4864
21
-7.35896
0
LINE
8
BLACK
6
CONTINUOUS
10
10.4864
20
-7.35896
11
10.4886
21
-7.35784
0
LINE
8
BLACK
6
CONTINUOUS
10
10.4886
20
-7.35784
11
10.4897
21
-7.35559
0
LINE
8
BLACK
6
CONTINUOUS
10
10.4897
20
-7.35559
11
10.4897
21
-7.35136
0
LINE
8
BLACK
6
CONTINUOUS
10
10.4897
20
-7.35136
11
10.4884
21
-7.34867
0
LINE
8
BLACK
6
CONTINUOUS
10
10.4884
20
-7.34867
11
10.4877
21
-7.34799
0
LINE
8
BLACK
6
CONTINUOUS
10
10.4877
20
-7.34799
11
10.4664
21
-7.34799
0
LINE
8
BLACK
6
CONTINUOUS
10
10.4664
20
-7.34799
11
10.4654
21
-7.34782
0
LINE
8
BLACK
6
CONTINUOUS
10
10.4654
20
-7.34782
11
10.4639
21
-7.34652
0
LINE
8
BLACK
6
CONTINUOUS
10
10.4639
20
-7.34652
11
10.4635
21
-7.34453
0
LINE
8
BLACK
6
CONTINUOUS
10
10.4635
20
-7.34453
11
10.4645
21
-7.34278
0
LINE
8
BLACK
6
CONTINUOUS
10
10.4645
20
-7.34278
11
10.4664
21
-7.34209
0
LINE
8
BLACK
6
CONTINUOUS
10
10.4664
20
-7.34209
11
10.5058
21
-7.34209
0
LINE
8
BLACK
6
CONTINUOUS
10
10.5058
20
-7.34209
11
10.5068
21
-7.34227
0
LINE
8
BLACK
6
CONTINUOUS
10
10.495
20
-7.31502
11
10.4956
21
-7.31692
0
LINE
8
BLACK
6
CONTINUOUS
10
10.4956
20
-7.31692
11
10.4956
21
-7.31959
0
LINE
8
BLACK
6
CONTINUOUS
10
10.4956
20
-7.31959
11
10.5058
21
-7.31959
0
LINE
8
BLACK
6
CONTINUOUS
10
10.5058
20
-7.31959
11
10.5068
21
-7.31977
0
LINE
8
BLACK
6
CONTINUOUS
10
10.5068
20
-7.31977
11
10.5084
21
-7.32107
0
LINE
8
BLACK
6
CONTINUOUS
10
10.5084
20
-7.32107
11
10.5087
21
-7.32306
0
LINE
8
BLACK
6
CONTINUOUS
10
10.5087
20
-7.32306
11
10.5077
21
-7.32481
0
LINE
8
BLACK
6
CONTINUOUS
10
10.5077
20
-7.32481
11
10.5058
21
-7.3255
0
LINE
8
BLACK
6
CONTINUOUS
10
10.5058
20
-7.3255
11
10.4956
21
-7.3255
0
LINE
8
BLACK
6
CONTINUOUS
10
10.4956
20
-7.3255
11
10.4956
21
-7.33192
0
LINE
8
BLACK
6
CONTINUOUS
10
10.4956
20
-7.33192
11
10.4955
21
-7.33293
0
LINE
8
BLACK
6
CONTINUOUS
10
10.4955
20
-7.33293
11
10.4942
21
-7.33448
0
LINE
8
BLACK
6
CONTINUOUS
10
10.4942
20
-7.33448
11
10.4922
21
-7.33483
0
LINE
8
BLACK
6
CONTINUOUS
10
10.4922
20
-7.33483
11
10.4904
21
-7.33382
0
LINE
8
BLACK
6
CONTINUOUS
10
10.4904
20
-7.33382
11
10.4897
21
-7.33192
0
LINE
8
BLACK
6
CONTINUOUS
10
10.4897
20
-7.33192
11
10.4897
21
-7.3255
0
LINE
8
BLACK
6
CONTINUOUS
10
10.4897
20
-7.3255
11
10.4728
21
-7.3255
0
LINE
8
BLACK
6
CONTINUOUS
10
10.4728
20
-7.3255
11
10.4705
21
-7.32662
0
LINE
8
BLACK
6
CONTINUOUS
10
10.4705
20
-7.32662
11
10.4694
21
-7.32887
0
LINE
8
BLACK
6
CONTINUOUS
10
10.4694
20
-7.32887
11
10.4694
21
-7.33192
0
LINE
8
BLACK
6
CONTINUOUS
10
10.4694
20
-7.33192
11
10.4692
21
-7.33293
0
LINE
8
BLACK
6
CONTINUOUS
10
10.4692
20
-7.33293
11
10.4679
21
-7.33448
0
LINE
8
BLACK
6
CONTINUOUS
10
10.4679
20
-7.33448
11
10.4659
21
-7.33483
0
LINE
8
BLACK
6
CONTINUOUS
10
10.4659
20
-7.33483
11
10.4642
21
-7.33382
0
LINE
8
BLACK
6
CONTINUOUS
10
10.4642
20
-7.33382
11
10.4635
21
-7.33192
0
LINE
8
BLACK
6
CONTINUOUS
10
10.4635
20
-7.33192
11
10.4635
21
-7.32817
0
LINE
8
BLACK
6
CONTINUOUS
10
10.4635
20
-7.32817
11
10.4637
21
-7.32716
0
LINE
8
BLACK
6
CONTINUOUS
10
10.4637
20
-7.32716
11
10.4638
21
-7.32702
0
LINE
8
BLACK
6
CONTINUOUS
10
10.4638
20
-7.32702
11
10.4638
21
-7.32685
0
LINE
8
BLACK
6
CONTINUOUS
10
10.4638
20
-7.32685
11
10.4657
21
-7.3231
0
LINE
8
BLACK
6
CONTINUOUS
10
10.4657
20
-7.3231
11
10.4663
21
-7.32227
0
LINE
8
BLACK
6
CONTINUOUS
10
10.4663
20
-7.32227
11
10.4667
21
-7.3221
0
LINE
8
BLACK
6
CONTINUOUS
10
10.4667
20
-7.3221
11
10.467
21
-7.32178
0
LINE
8
BLACK
6
CONTINUOUS
10
10.467
20
-7.32178
11
10.4707
21
-7.3199
0
LINE
8
BLACK
6
CONTINUOUS
10
10.4707
20
-7.3199
11
10.4717
21
-7.31961
0
LINE
8
BLACK
6
CONTINUOUS
10
10.4717
20
-7.31961
11
10.4719
21
-7.31965
0
LINE
8
BLACK
6
CONTINUOUS
10
10.4719
20
-7.31965
11
10.4721
21
-7.31959
0
LINE
8
BLACK
6
CONTINUOUS
10
10.4721
20
-7.31959
11
10.4897
21
-7.31959
0
LINE
8
BLACK
6
CONTINUOUS
10
10.4897
20
-7.31959
11
10.4897
21
-7.31692
0
LINE
8
BLACK
6
CONTINUOUS
10
10.4897
20
-7.31692
11
10.4899
21
-7.31591
0
LINE
8
BLACK
6
CONTINUOUS
10
10.4899
20
-7.31591
11
10.4912
21
-7.31436
0
LINE
8
BLACK
6
CONTINUOUS
10
10.4912
20
-7.31436
11
10.4932
21
-7.31401
0
LINE
8
BLACK
6
CONTINUOUS
10
10.4932
20
-7.31401
11
10.495
21
-7.31502
0
LINE
8
BLACK
6
CONTINUOUS
10
10.4881
20
-7.25415
11
10.4882
21
-7.25427
0
LINE
8
BLACK
6
CONTINUOUS
10
10.4882
20
-7.25427
11
10.4884
21
-7.25429
0
LINE
8
BLACK
6
CONTINUOUS
10
10.4884
20
-7.25429
11
10.4921
21
-7.25616
0
LINE
8
BLACK
6
CONTINUOUS
10
10.4921
20
-7.25616
11
10.493
21
-7.25677
0
LINE
8
BLACK
6
CONTINUOUS
10
10.493
20
-7.25677
11
10.4931
21
-7.25718
0
LINE
8
BLACK
6
CONTINUOUS
10
10.4931
20
-7.25718
11
10.4935
21
-7.25748
0
LINE
8
BLACK
6
CONTINUOUS
10
10.4935
20
-7.25748
11
10.4953
21
-7.26123
0
LINE
8
BLACK
6
CONTINUOUS
10
10.4953
20
-7.26123
11
10.4956
21
-7.26221
0
LINE
8
BLACK
6
CONTINUOUS
10
10.4956
20
-7.26221
11
10.4956
21
-7.26239
0
LINE
8
BLACK
6
CONTINUOUS
10
10.4956
20
-7.26239
11
10.4956
21
-7.26255
0
LINE
8
BLACK
6
CONTINUOUS
10
10.4956
20
-7.26255
11
10.4956
21
-7.27005
0
LINE
8
BLACK
6
CONTINUOUS
10
10.4956
20
-7.27005
11
10.4955
21
-7.27106
0
LINE
8
BLACK
6
CONTINUOUS
10
10.4955
20
-7.27106
11
10.4953
21
-7.2712
0
LINE
8
BLACK
6
CONTINUOUS
10
10.4953
20
-7.2712
11
10.4953
21
-7.27137
0
LINE
8
BLACK
6
CONTINUOUS
10
10.4953
20
-7.27137
11
10.4935
21
-7.27512
0
LINE
8
BLACK
6
CONTINUOUS
10
10.4935
20
-7.27512
11
10.4928
21
-7.27594
0
LINE
8
BLACK
6
CONTINUOUS
10
10.4928
20
-7.27594
11
10.4924
21
-7.27612
0
LINE
8
BLACK
6
CONTINUOUS
10
10.4924
20
-7.27612
11
10.4921
21
-7.27644
0
LINE
8
BLACK
6
CONTINUOUS
10
10.4921
20
-7.27644
11
10.4884
21
-7.27832
0
LINE
8
BLACK
6
CONTINUOUS
10
10.4884
20
-7.27832
11
10.4874
21
-7.27861
0
LINE
8
BLACK
6
CONTINUOUS
10
10.4874
20
-7.27861
11
10.4872
21
-7.27857
0
LINE
8
BLACK
6
CONTINUOUS
10
10.4872
20
-7.27857
11
10.4871
21
-7.27863
0
LINE
8
BLACK
6
CONTINUOUS
10
10.4871
20
-7.27863
11
10.4833
21
-7.27863
0
LINE
8
BLACK
6
CONTINUOUS
10
10.4833
20
-7.27863
11
10.4823
21
-7.27845
0
LINE
8
BLACK
6
CONTINUOUS
10
10.4823
20
-7.27845
11
10.4819
21
-7.27814
0
LINE
8
BLACK
6
CONTINUOUS
10
10.4819
20
-7.27814
11
10.4815
21
-7.27798
0
LINE
8
BLACK
6
CONTINUOUS
10
10.4815
20
-7.27798
11
10.4812
21
-7.27751
0
LINE
8
BLACK
6
CONTINUOUS
10
10.4812
20
-7.27751
11
10.4808
21
-7.27715
0
LINE
8
BLACK
6
CONTINUOUS
10
10.4808
20
-7.27715
11
10.4807
21
-7.27667
0
LINE
8
BLACK
6
CONTINUOUS
10
10.4807
20
-7.27667
11
10.4804
21
-7.27625
0
LINE
8
BLACK
6
CONTINUOUS
10
10.4804
20
-7.27625
11
10.4771
21
-7.25988
0
LINE
8
BLACK
6
CONTINUOUS
10
10.4771
20
-7.25988
11
10.4728
21
-7.25988
0
LINE
8
BLACK
6
CONTINUOUS
10
10.4728
20
-7.25988
11
10.4705
21
-7.261
0
LINE
8
BLACK
6
CONTINUOUS
10
10.4705
20
-7.261
11
10.4694
21
-7.26325
0
LINE
8
BLACK
6
CONTINUOUS
10
10.4694
20
-7.26325
11
10.4694
21
-7.26935
0
LINE
8
BLACK
6
CONTINUOUS
10
10.4694
20
-7.26935
11
10.471
21
-7.27248
0
LINE
8
BLACK
6
CONTINUOUS
10
10.471
20
-7.27248
11
10.4712
21
-7.27346
0
LINE
8
BLACK
6
CONTINUOUS
10
10.4712
20
-7.27346
11
10.4708
21
-7.27543
0
LINE
8
BLACK
6
CONTINUOUS
10
10.4708
20
-7.27543
11
10.4692
21
-7.27663
0
LINE
8
BLACK
6
CONTINUOUS
10
10.4692
20
-7.27663
11
10.4671
21
-7.27651
0
LINE
8
BLACK
6
CONTINUOUS
10
10.4671
20
-7.27651
11
10.4657
21
-7.27512
0
LINE
8
BLACK
6
CONTINUOUS
10
10.4657
20
-7.27512
11
10.4638
21
-7.27137
0
LINE
8
BLACK
6
CONTINUOUS
10
10.4638
20
-7.27137
11
10.4635
21
-7.27039
0
LINE
8
BLACK
6
CONTINUOUS
10
10.4635
20
-7.27039
11
10.4635
21
-7.27022
0
LINE
8
BLACK
6
CONTINUOUS
10
10.4635
20
-7.27022
11
10.4635
21
-7.27005
0
LINE
8
BLACK
6
CONTINUOUS
10
10.4635
20
-7.27005
11
10.4635
21
-7.26255
0
LINE
8
BLACK
6
CONTINUOUS
10
10.4635
20
-7.26255
11
10.4637
21
-7.26154
0
LINE
8
BLACK
6
CONTINUOUS
10
10.4637
20
-7.26154
11
10.4638
21
-7.26141
0
LINE
8
BLACK
6
CONTINUOUS
10
10.4638
20
-7.26141
11
10.4638
21
-7.26123
0
LINE
8
BLACK
6
CONTINUOUS
10
10.4638
20
-7.26123
11
10.4657
21
-7.25748
0
LINE
8
BLACK
6
CONTINUOUS
10
10.4657
20
-7.25748
11
10.4663
21
-7.25666
0
LINE
8
BLACK
6
CONTINUOUS
10
10.4663
20
-7.25666
11
10.4667
21
-7.25648
0
LINE
8
BLACK
6
CONTINUOUS
10
10.4667
20
-7.25648
11
10.467
21
-7.25616
0
LINE
8
BLACK
6
CONTINUOUS
10
10.467
20
-7.25616
11
10.4707
21
-7.25429
0
LINE
8
BLACK
6
CONTINUOUS
10
10.4707
20
-7.25429
11
10.4717
21
-7.25399
0
LINE
8
BLACK
6
CONTINUOUS
10
10.4717
20
-7.25399
11
10.4719
21
-7.25403
0
LINE
8
BLACK
6
CONTINUOUS
10
10.4719
20
-7.25403
11
10.4721
21
-7.25397
0
LINE
8
BLACK
6
CONTINUOUS
10
10.4721
20
-7.25397
11
10.4871
21
-7.25397
0
LINE
8
BLACK
6
CONTINUOUS
10
10.4871
20
-7.25397
11
10.4881
21
-7.25415
0
LINE
8
BLACK
6
CONTINUOUS
10
10.4832
20
-7.25988
11
10.4857
21
-7.27272
0
LINE
8
BLACK
6
CONTINUOUS
10
10.4857
20
-7.27272
11
10.4864
21
-7.27272
0
LINE
8
BLACK
6
CONTINUOUS
10
10.4864
20
-7.27272
11
10.4886
21
-7.2716
0
LINE
8
BLACK
6
CONTINUOUS
10
10.4886
20
-7.2716
11
10.4897
21
-7.26935
0
LINE
8
BLACK
6
CONTINUOUS
10
10.4897
20
-7.26935
11
10.4897
21
-7.26325
0
LINE
8
BLACK
6
CONTINUOUS
10
10.4897
20
-7.26325
11
10.4886
21
-7.261
0
LINE
8
BLACK
6
CONTINUOUS
10
10.4886
20
-7.261
11
10.4864
21
-7.25988
0
LINE
8
BLACK
6
CONTINUOUS
10
10.4864
20
-7.25988
11
10.4832
21
-7.25988
0
LINE
8
BLACK
6
CONTINUOUS
10
10.4862
20
-7.21853
11
10.4863
21
-7.21865
0
LINE
8
BLACK
6
CONTINUOUS
10
10.4863
20
-7.21865
11
10.4865
21
-7.21867
0
LINE
8
BLACK
6
CONTINUOUS
10
10.4865
20
-7.21867
11
10.4903
21
-7.22054
0
LINE
8
BLACK
6
CONTINUOUS
10
10.4903
20
-7.22054
11
10.491
21
-7.22107
0
LINE
8
BLACK
6
CONTINUOUS
10
10.491
20
-7.22107
11
10.491
21
-7.22109
0
LINE
8
BLACK
6
CONTINUOUS
10
10.491
20
-7.22109
11
10.4929
21
-7.22297
0
LINE
8
BLACK
6
CONTINUOUS
10
10.4929
20
-7.22297
11
10.4934
21
-7.22369
0
LINE
8
BLACK
6
CONTINUOUS
10
10.4934
20
-7.22369
11
10.4935
21
-7.22374
0
LINE
8
BLACK
6
CONTINUOUS
10
10.4935
20
-7.22374
11
10.4953
21
-7.22749
0
LINE
8
BLACK
6
CONTINUOUS
10
10.4953
20
-7.22749
11
10.4956
21
-7.22847
0
LINE
8
BLACK
6
CONTINUOUS
10
10.4956
20
-7.22847
11
10.4956
21
-7.22864
0
LINE
8
BLACK
6
CONTINUOUS
10
10.4956
20
-7.22864
11
10.4956
21
-7.22881
0
LINE
8
BLACK
6
CONTINUOUS
10
10.4956
20
-7.22881
11
10.4956
21
-7.2363
0
LINE
8
BLACK
6
CONTINUOUS
10
10.4956
20
-7.2363
11
10.4955
21
-7.23731
0
LINE
8
BLACK
6
CONTINUOUS
10
10.4955
20
-7.23731
11
10.4953
21
-7.23745
0
LINE
8
BLACK
6
CONTINUOUS
10
10.4953
20
-7.23745
11
10.4953
21
-7.23763
0
LINE
8
BLACK
6
CONTINUOUS
10
10.4953
20
-7.23763
11
10.495
21
-7.23835
0
LINE
8
BLACK
6
CONTINUOUS
10
10.495
20
-7.23835
11
10.4952
21
-7.23858
0
LINE
8
BLACK
6
CONTINUOUS
10
10.4952
20
-7.23858
11
10.4956
21
-7.24057
0
LINE
8
BLACK
6
CONTINUOUS
10
10.4956
20
-7.24057
11
10.4946
21
-7.24232
0
LINE
8
BLACK
6
CONTINUOUS
10
10.4946
20
-7.24232
11
10.4927
21
-7.24301
0
LINE
8
BLACK
6
CONTINUOUS
10
10.4927
20
-7.24301
11
10.4608
21
-7.24301
0
LINE
8
BLACK
6
CONTINUOUS
10
10.4608
20
-7.24301
11
10.4598
21
-7.24283
0
LINE
8
BLACK
6
CONTINUOUS
10
10.4598
20
-7.24283
11
10.4597
21
-7.24272
0
LINE
8
BLACK
6
CONTINUOUS
10
10.4597
20
-7.24272
11
10.4595
21
-7.2427
0
LINE
8
BLACK
6
CONTINUOUS
10
10.4595
20
-7.2427
11
10.4557
21
-7.24082
0
LINE
8
BLACK
6
CONTINUOUS
10
10.4557
20
-7.24082
11
10.455
21
-7.24029
0
LINE
8
BLACK
6
CONTINUOUS
10
10.455
20
-7.24029
11
10.455
21
-7.24027
0
LINE
8
BLACK
6
CONTINUOUS
10
10.455
20
-7.24027
11
10.4531
21
-7.23839
0
LINE
8
BLACK
6
CONTINUOUS
10
10.4531
20
-7.23839
11
10.4526
21
-7.23767
0
LINE
8
BLACK
6
CONTINUOUS
10
10.4526
20
-7.23767
11
10.4526
21
-7.23763
0
LINE
8
BLACK
6
CONTINUOUS
10
10.4526
20
-7.23763
11
10.4507
21
-7.23388
0
LINE
8
BLACK
6
CONTINUOUS
10
10.4507
20
-7.23388
11
10.4504
21
-7.23289
0
LINE
8
BLACK
6
CONTINUOUS
10
10.4504
20
-7.23289
11
10.4504
21
-7.23272
0
LINE
8
BLACK
6
CONTINUOUS
10
10.4504
20
-7.23272
11
10.4504
21
-7.23256
0
LINE
8
BLACK
6
CONTINUOUS
10
10.4504
20
-7.23256
11
10.4504
21
-7.22693
0
LINE
8
BLACK
6
CONTINUOUS
10
10.4504
20
-7.22693
11
10.4505
21
-7.22592
0
LINE
8
BLACK
6
CONTINUOUS
10
10.4505
20
-7.22592
11
10.4507
21
-7.22579
0
LINE
8
BLACK
6
CONTINUOUS
10
10.4507
20
-7.22579
11
10.4507
21
-7.22561
0
LINE
8
BLACK
6
CONTINUOUS
10
10.4507
20
-7.22561
11
10.4526
21
-7.22186
0
LINE
8
BLACK
6
CONTINUOUS
10
10.4526
20
-7.22186
11
10.4532
21
-7.22104
0
LINE
8
BLACK
6
CONTINUOUS
10
10.4532
20
-7.22104
11
10.455
21
-7.22023
0
LINE
8
BLACK
6
CONTINUOUS
10
10.455
20
-7.22023
11
10.457
21
-7.22081
0
LINE
8
BLACK
6
CONTINUOUS
10
10.457
20
-7.22081
11
10.4581
21
-7.2225
0
LINE
8
BLACK
6
CONTINUOUS
10
10.4581
20
-7.2225
11
10.4578
21
-7.2245
0
LINE
8
BLACK
6
CONTINUOUS
10
10.4578
20
-7.2245
11
10.4563
21
-7.22763
0
LINE
8
BLACK
6
CONTINUOUS
10
10.4563
20
-7.22763
11
10.4563
21
-7.23186
0
LINE
8
BLACK
6
CONTINUOUS
10
10.4563
20
-7.23186
11
10.4576
21
-7.23456
0
LINE
8
BLACK
6
CONTINUOUS
10
10.4576
20
-7.23456
11
10.4588
21
-7.23575
0
LINE
8
BLACK
6
CONTINUOUS
10
10.4588
20
-7.23575
11
10.4615
21
-7.2371
0
LINE
8
BLACK
6
CONTINUOUS
10
10.4615
20
-7.2371
11
10.4636
21
-7.2371
0
LINE
8
BLACK
6
CONTINUOUS
10
10.4636
20
-7.2371
11
10.4635
21
-7.23664
0
LINE
8
BLACK
6
CONTINUOUS
10
10.4635
20
-7.23664
11
10.4635
21
-7.23647
0
LINE
8
BLACK
6
CONTINUOUS
10
10.4635
20
-7.23647
11
10.4635
21
-7.2363
0
LINE
8
BLACK
6
CONTINUOUS
10
10.4635
20
-7.2363
11
10.4635
21
-7.22881
0
LINE
8
BLACK
6
CONTINUOUS
10
10.4635
20
-7.22881
11
10.4637
21
-7.2278
0
LINE
8
BLACK
6
CONTINUOUS
10
10.4637
20
-7.2278
11
10.4638
21
-7.22766
0
LINE
8
BLACK
6
CONTINUOUS
10
10.4638
20
-7.22766
11
10.4638
21
-7.22749
0
LINE
8
BLACK
6
CONTINUOUS
10
10.4638
20
-7.22749
11
10.4657
21
-7.22374
0
LINE
8
BLACK
6
CONTINUOUS
10
10.4657
20
-7.22374
11
10.4662
21
-7.22303
0
LINE
8
BLACK
6
CONTINUOUS
10
10.4662
20
-7.22303
11
10.4662
21
-7.22297
0
LINE
8
BLACK
6
CONTINUOUS
10
10.4662
20
-7.22297
11
10.4681
21
-7.22109
0
LINE
8
BLACK
6
CONTINUOUS
10
10.4681
20
-7.22109
11
10.4688
21
-7.22059
0
LINE
8
BLACK
6
CONTINUOUS
10
10.4688
20
-7.22059
11
10.4689
21
-7.22054
0
LINE
8
BLACK
6
CONTINUOUS
10
10.4689
20
-7.22054
11
10.4726
21
-7.21867
0
LINE
8
BLACK
6
CONTINUOUS
10
10.4726
20
-7.21867
11
10.4736
21
-7.21837
0
LINE
8
BLACK
6
CONTINUOUS
10
10.4736
20
-7.21837
11
10.4738
21
-7.21841
0
LINE
8
BLACK
6
CONTINUOUS
10
10.4738
20
-7.21841
11
10.4739
21
-7.21835
0
LINE
8
BLACK
6
CONTINUOUS
10
10.4739
20
-7.21835
11
10.4852
21
-7.21835
0
LINE
8
BLACK
6
CONTINUOUS
10
10.4852
20
-7.21835
11
10.4862
21
-7.21853
0
LINE
8
BLACK
6
CONTINUOUS
10
10.4746
20
-7.22426
11
10.4719
21
-7.22561
0
LINE
8
BLACK
6
CONTINUOUS
10
10.4719
20
-7.22561
11
10.4707
21
-7.22681
0
LINE
8
BLACK
6
CONTINUOUS
10
10.4707
20
-7.22681
11
10.4694
21
-7.2295
0
LINE
8
BLACK
6
CONTINUOUS
10
10.4694
20
-7.2295
11
10.4694
21
-7.23561
0
LINE
8
BLACK
6
CONTINUOUS
10
10.4694
20
-7.23561
11
10.4701
21
-7.2371
0
LINE
8
BLACK
6
CONTINUOUS
10
10.4701
20
-7.2371
11
10.489
21
-7.2371
0
LINE
8
BLACK
6
CONTINUOUS
10
10.489
20
-7.2371
11
10.4897
21
-7.23561
0
LINE
8
BLACK
6
CONTINUOUS
10
10.4897
20
-7.23561
11
10.4897
21
-7.2295
0
LINE
8
BLACK
6
CONTINUOUS
10
10.4897
20
-7.2295
11
10.4884
21
-7.22681
0
LINE
8
BLACK
6
CONTINUOUS
10
10.4884
20
-7.22681
11
10.4872
21
-7.22561
0
LINE
8
BLACK
6
CONTINUOUS
10
10.4872
20
-7.22561
11
10.4845
21
-7.22426
0
LINE
8
BLACK
6
CONTINUOUS
10
10.4845
20
-7.22426
11
10.4746
21
-7.22426
0
LINE
8
BLACK
6
CONTINUOUS
10
10.4937
20
-7.18479
11
10.4952
21
-7.18608
0
LINE
8
BLACK
6
CONTINUOUS
10
10.4952
20
-7.18608
11
10.4956
21
-7.18807
0
LINE
8
BLACK
6
CONTINUOUS
10
10.4956
20
-7.18807
11
10.4946
21
-7.18982
0
LINE
8
BLACK
6
CONTINUOUS
10
10.4946
20
-7.18982
11
10.4944
21
-7.18991
0
LINE
8
BLACK
6
CONTINUOUS
10
10.4944
20
-7.18991
11
10.4953
21
-7.19186
0
LINE
8
BLACK
6
CONTINUOUS
10
10.4953
20
-7.19186
11
10.4956
21
-7.19285
0
LINE
8
BLACK
6
CONTINUOUS
10
10.4956
20
-7.19285
11
10.4956
21
-7.19302
0
LINE
8
BLACK
6
CONTINUOUS
10
10.4956
20
-7.19302
11
10.4956
21
-7.19319
0
LINE
8
BLACK
6
CONTINUOUS
10
10.4956
20
-7.19319
11
10.4956
21
-7.19881
0
LINE
8
BLACK
6
CONTINUOUS
10
10.4956
20
-7.19881
11
10.4955
21
-7.19982
0
LINE
8
BLACK
6
CONTINUOUS
10
10.4955
20
-7.19982
11
10.4953
21
-7.19995
0
LINE
8
BLACK
6
CONTINUOUS
10
10.4953
20
-7.19995
11
10.4953
21
-7.20013
0
LINE
8
BLACK
6
CONTINUOUS
10
10.4953
20
-7.20013
11
10.4935
21
-7.20388
0
LINE
8
BLACK
6
CONTINUOUS
10
10.4935
20
-7.20388
11
10.4928
21
-7.2047
0
LINE
8
BLACK
6
CONTINUOUS
10
10.4928
20
-7.2047
11
10.4924
21
-7.20488
0
LINE
8
BLACK
6
CONTINUOUS
10
10.4924
20
-7.20488
11
10.4921
21
-7.2052
0
LINE
8
BLACK
6
CONTINUOUS
10
10.4921
20
-7.2052
11
10.4884
21
-7.20707
0
LINE
8
BLACK
6
CONTINUOUS
10
10.4884
20
-7.20707
11
10.4874
21
-7.20737
0
LINE
8
BLACK
6
CONTINUOUS
10
10.4874
20
-7.20737
11
10.4872
21
-7.20733
0
LINE
8
BLACK
6
CONTINUOUS
10
10.4872
20
-7.20733
11
10.4871
21
-7.20739
0
LINE
8
BLACK
6
CONTINUOUS
10
10.4871
20
-7.20739
11
10.4664
21
-7.20739
0
LINE
8
BLACK
6
CONTINUOUS
10
10.4664
20
-7.20739
11
10.4654
21
-7.20721
0
LINE
8
BLACK
6
CONTINUOUS
10
10.4654
20
-7.20721
11
10.4639
21
-7.20591
0
LINE
8
BLACK
6
CONTINUOUS
10
10.4639
20
-7.20591
11
10.4635
21
-7.20392
0
LINE
8
BLACK
6
CONTINUOUS
10
10.4635
20
-7.20392
11
10.4645
21
-7.20217
0
LINE
8
BLACK
6
CONTINUOUS
10
10.4645
20
-7.20217
11
10.4664
21
-7.20148
0
LINE
8
BLACK
6
CONTINUOUS
10
10.4664
20
-7.20148
11
10.4864
21
-7.20148
0
LINE
8
BLACK
6
CONTINUOUS
10
10.4864
20
-7.20148
11
10.4886
21
-7.20036
0
LINE
8
BLACK
6
CONTINUOUS
10
10.4886
20
-7.20036
11
10.4897
21
-7.19811
0
LINE
8
BLACK
6
CONTINUOUS
10
10.4897
20
-7.19811
11
10.4897
21
-7.19388
0
LINE
8
BLACK
6
CONTINUOUS
10
10.4897
20
-7.19388
11
10.4884
21
-7.19118
0
LINE
8
BLACK
6
CONTINUOUS
10
10.4884
20
-7.19118
11
10.4877
21
-7.19051
0
LINE
8
BLACK
6
CONTINUOUS
10
10.4877
20
-7.19051
11
10.4664
21
-7.19051
0
LINE
8
BLACK
6
CONTINUOUS
10
10.4664
20
-7.19051
11
10.4654
21
-7.19034
0
LINE
8
BLACK
6
CONTINUOUS
10
10.4654
20
-7.19034
11
10.4639
21
-7.18904
0
LINE
8
BLACK
6
CONTINUOUS
10
10.4639
20
-7.18904
11
10.4635
21
-7.18705
0
LINE
8
BLACK
6
CONTINUOUS
10
10.4635
20
-7.18705
11
10.4645
21
-7.1853
0
LINE
8
BLACK
6
CONTINUOUS
10
10.4645
20
-7.1853
11
10.4664
21
-7.18461
0
LINE
8
BLACK
6
CONTINUOUS
10
10.4664
20
-7.18461
11
10.4927
21
-7.18461
0
LINE
8
BLACK
6
CONTINUOUS
10
10.4927
20
-7.18461
11
10.4937
21
-7.18479
0
LINE
8
BLACK
6
CONTINUOUS
10
10.4768
20
-7.14729
11
10.477
21
-7.1474
0
LINE
8
BLACK
6
CONTINUOUS
10
10.477
20
-7.1474
11
10.4771
21
-7.14742
0
LINE
8
BLACK
6
CONTINUOUS
10
10.4771
20
-7.14742
11
10.4809
21
-7.1493
0
LINE
8
BLACK
6
CONTINUOUS
10
10.4809
20
-7.1493
11
10.4817
21
-7.14991
0
LINE
8
BLACK
6
CONTINUOUS
10
10.4817
20
-7.14991
11
10.4819
21
-7.15032
0
LINE
8
BLACK
6
CONTINUOUS
10
10.4819
20
-7.15032
11
10.4822
21
-7.15062
0
LINE
8
BLACK
6
CONTINUOUS
10
10.4822
20
-7.15062
11
10.4841
21
-7.15437
0
LINE
8
BLACK
6
CONTINUOUS
10
10.4841
20
-7.15437
11
10.4844
21
-7.15535
0
LINE
8
BLACK
6
CONTINUOUS
10
10.4844
20
-7.15535
11
10.4843
21
-7.15552
0
LINE
8
BLACK
6
CONTINUOUS
10
10.4843
20
-7.15552
11
10.4844
21
-7.15569
0
LINE
8
BLACK
6
CONTINUOUS
10
10.4844
20
-7.15569
11
10.4844
21
-7.16437
0
LINE
8
BLACK
6
CONTINUOUS
10
10.4844
20
-7.16437
11
10.4851
21
-7.16586
0
LINE
8
BLACK
6
CONTINUOUS
10
10.4851
20
-7.16586
11
10.4864
21
-7.16586
0
LINE
8
BLACK
6
CONTINUOUS
10
10.4864
20
-7.16586
11
10.4886
21
-7.16474
0
LINE
8
BLACK
6
CONTINUOUS
10
10.4886
20
-7.16474
11
10.4897
21
-7.16249
0
LINE
8
BLACK
6
CONTINUOUS
10
10.4897
20
-7.16249
11
10.4897
21
-7.15639
0
LINE
8
BLACK
6
CONTINUOUS
10
10.4897
20
-7.15639
11
10.4882
21
-7.15326
0
LINE
8
BLACK
6
CONTINUOUS
10
10.4882
20
-7.15326
11
10.4879
21
-7.15228
0
LINE
8
BLACK
6
CONTINUOUS
10
10.4879
20
-7.15228
11
10.4883
21
-7.15031
0
LINE
8
BLACK
6
CONTINUOUS
10
10.4883
20
-7.15031
11
10.49
21
-7.14911
0
LINE
8
BLACK
6
CONTINUOUS
10
10.49
20
-7.14911
11
10.492
21
-7.14923
0
LINE
8
BLACK
6
CONTINUOUS
10
10.492
20
-7.14923
11
10.4935
21
-7.15062
0
LINE
8
BLACK
6
CONTINUOUS
10
10.4935
20
-7.15062
11
10.4953
21
-7.15437
0
LINE
8
BLACK
6
CONTINUOUS
10
10.4953
20
-7.15437
11
10.4956
21
-7.15535
0
LINE
8
BLACK
6
CONTINUOUS
10
10.4956
20
-7.15535
11
10.4956
21
-7.15552
0
LINE
8
BLACK
6
CONTINUOUS
10
10.4956
20
-7.15552
11
10.4956
21
-7.15569
0
LINE
8
BLACK
6
CONTINUOUS
10
10.4956
20
-7.15569
11
10.4956
21
-7.16319
0
LINE
8
BLACK
6
CONTINUOUS
10
10.4956
20
-7.16319
11
10.4955
21
-7.1642
0
LINE
8
BLACK
6
CONTINUOUS
10
10.4955
20
-7.1642
11
10.4953
21
-7.16433
0
LINE
8
BLACK
6
CONTINUOUS
10
10.4953
20
-7.16433
11
10.4953
21
-7.16451
0
LINE
8
BLACK
6
CONTINUOUS
10
10.4953
20
-7.16451
11
10.4935
21
-7.16826
0
LINE
8
BLACK
6
CONTINUOUS
10
10.4935
20
-7.16826
11
10.4928
21
-7.16908
0
LINE
8
BLACK
6
CONTINUOUS
10
10.4928
20
-7.16908
11
10.4924
21
-7.16926
0
LINE
8
BLACK
6
CONTINUOUS
10
10.4924
20
-7.16926
11
10.4921
21
-7.16958
0
LINE
8
BLACK
6
CONTINUOUS
10
10.4921
20
-7.16958
11
10.4884
21
-7.17145
0
LINE
8
BLACK
6
CONTINUOUS
10
10.4884
20
-7.17145
11
10.4874
21
-7.17175
0
LINE
8
BLACK
6
CONTINUOUS
10
10.4874
20
-7.17175
11
10.4872
21
-7.17171
0
LINE
8
BLACK
6
CONTINUOUS
10
10.4872
20
-7.17171
11
10.4871
21
-7.17177
0
LINE
8
BLACK
6
CONTINUOUS
10
10.4871
20
-7.17177
11
10.4664
21
-7.17177
0
LINE
8
BLACK
6
CONTINUOUS
10
10.4664
20
-7.17177
11
10.4654
21
-7.17159
0
LINE
8
BLACK
6
CONTINUOUS
10
10.4654
20
-7.17159
11
10.4639
21
-7.17029
0
LINE
8
BLACK
6
CONTINUOUS
10
10.4639
20
-7.17029
11
10.4635
21
-7.1683
0
LINE
8
BLACK
6
CONTINUOUS
10
10.4635
20
-7.1683
11
10.4642
21
-7.16716
0
LINE
8
BLACK
6
CONTINUOUS
10
10.4642
20
-7.16716
11
10.4638
21
-7.16638
0
LINE
8
BLACK
6
CONTINUOUS
10
10.4638
20
-7.16638
11
10.4635
21
-7.1654
0
LINE
8
BLACK
6
CONTINUOUS
10
10.4635
20
-7.1654
11
10.4635
21
-7.16523
0
LINE
8
BLACK
6
CONTINUOUS
10
10.4635
20
-7.16523
11
10.4635
21
-7.16506
0
LINE
8
BLACK
6
CONTINUOUS
10
10.4635
20
-7.16506
11
10.4635
21
-7.15569
0
LINE
8
BLACK
6
CONTINUOUS
10
10.4635
20
-7.15569
11
10.4637
21
-7.15468
0
LINE
8
BLACK
6
CONTINUOUS
10
10.4637
20
-7.15468
11
10.4638
21
-7.15454
0
LINE
8
BLACK
6
CONTINUOUS
10
10.4638
20
-7.15454
11
10.4638
21
-7.15437
0
LINE
8
BLACK
6
CONTINUOUS
10
10.4638
20
-7.15437
11
10.4657
21
-7.15062
0
LINE
8
BLACK
6
CONTINUOUS
10
10.4657
20
-7.15062
11
10.4663
21
-7.1498
0
LINE
8
BLACK
6
CONTINUOUS
10
10.4663
20
-7.1498
11
10.4667
21
-7.14962
0
LINE
8
BLACK
6
CONTINUOUS
10
10.4667
20
-7.14962
11
10.467
21
-7.1493
0
LINE
8
BLACK
6
CONTINUOUS
10
10.467
20
-7.1493
11
10.4707
21
-7.14742
0
LINE
8
BLACK
6
CONTINUOUS
10
10.4707
20
-7.14742
11
10.4717
21
-7.14713
0
LINE
8
BLACK
6
CONTINUOUS
10
10.4717
20
-7.14713
11
10.4719
21
-7.14717
0
LINE
8
BLACK
6
CONTINUOUS
10
10.4719
20
-7.14717
11
10.4721
21
-7.14711
0
LINE
8
BLACK
6
CONTINUOUS
10
10.4721
20
-7.14711
11
10.4758
21
-7.14711
0
LINE
8
BLACK
6
CONTINUOUS
10
10.4758
20
-7.14711
11
10.4768
21
-7.14729
0
LINE
8
BLACK
6
CONTINUOUS
10
10.4728
20
-7.15302
11
10.4705
21
-7.15414
0
LINE
8
BLACK
6
CONTINUOUS
10
10.4705
20
-7.15414
11
10.4694
21
-7.15639
0
LINE
8
BLACK
6
CONTINUOUS
10
10.4694
20
-7.15639
11
10.4694
21
-7.16437
0
LINE
8
BLACK
6
CONTINUOUS
10
10.4694
20
-7.16437
11
10.4701
21
-7.16586
0
LINE
8
BLACK
6
CONTINUOUS
10
10.4701
20
-7.16586
11
10.4786
21
-7.16586
0
LINE
8
BLACK
6
CONTINUOUS
10
10.4786
20
-7.16586
11
10.4785
21
-7.1654
0
LINE
8
BLACK
6
CONTINUOUS
10
10.4785
20
-7.1654
11
10.4785
21
-7.16523
0
LINE
8
BLACK
6
CONTINUOUS
10
10.4785
20
-7.16523
11
10.4785
21
-7.16506
0
LINE
8
BLACK
6
CONTINUOUS
10
10.4785
20
-7.16506
11
10.4785
21
-7.15639
0
LINE
8
BLACK
6
CONTINUOUS
10
10.4785
20
-7.15639
11
10.4774
21
-7.15414
0
LINE
8
BLACK
6
CONTINUOUS
10
10.4774
20
-7.15414
11
10.4751
21
-7.15302
0
LINE
8
BLACK
6
CONTINUOUS
10
10.4751
20
-7.15302
11
10.4728
21
-7.15302
0
LINE
8
BLACK
6
CONTINUOUS
10
10.5068
20
-7.12854
11
10.5084
21
-7.12984
0
LINE
8
BLACK
6
CONTINUOUS
10
10.5084
20
-7.12984
11
10.5087
21
-7.13183
0
LINE
8
BLACK
6
CONTINUOUS
10
10.5087
20
-7.13183
11
10.5077
21
-7.13358
0
LINE
8
BLACK
6
CONTINUOUS
10
10.5077
20
-7.13358
11
10.5058
21
-7.13427
0
LINE
8
BLACK
6
CONTINUOUS
10
10.5058
20
-7.13427
11
10.4728
21
-7.13427
0
LINE
8
BLACK
6
CONTINUOUS
10
10.4728
20
-7.13427
11
10.4705
21
-7.13539
0
LINE
8
BLACK
6
CONTINUOUS
10
10.4705
20
-7.13539
11
10.4691
21
-7.13826
0
LINE
8
BLACK
6
CONTINUOUS
10
10.4691
20
-7.13826
11
10.4685
21
-7.13909
0
LINE
8
BLACK
6
CONTINUOUS
10
10.4685
20
-7.13909
11
10.4666
21
-7.13989
0
LINE
8
BLACK
6
CONTINUOUS
10
10.4666
20
-7.13989
11
10.4647
21
-7.13931
0
LINE
8
BLACK
6
CONTINUOUS
10
10.4647
20
-7.13931
11
10.4636
21
-7.13763
0
LINE
8
BLACK
6
CONTINUOUS
10
10.4636
20
-7.13763
11
10.4638
21
-7.13562
0
LINE
8
BLACK
6
CONTINUOUS
10
10.4638
20
-7.13562
11
10.4657
21
-7.13187
0
LINE
8
BLACK
6
CONTINUOUS
10
10.4657
20
-7.13187
11
10.4663
21
-7.13105
0
LINE
8
BLACK
6
CONTINUOUS
10
10.4663
20
-7.13105
11
10.4667
21
-7.13087
0
LINE
8
BLACK
6
CONTINUOUS
10
10.4667
20
-7.13087
11
10.467
21
-7.13055
0
LINE
8
BLACK
6
CONTINUOUS
10
10.467
20
-7.13055
11
10.4707
21
-7.12868
0
LINE
8
BLACK
6
CONTINUOUS
10
10.4707
20
-7.12868
11
10.4717
21
-7.12838
0
LINE
8
BLACK
6
CONTINUOUS
10
10.4717
20
-7.12838
11
10.4719
21
-7.12843
0
LINE
8
BLACK
6
CONTINUOUS
10
10.4719
20
-7.12843
11
10.4721
21
-7.12837
0
LINE
8
BLACK
6
CONTINUOUS
10
10.4721
20
-7.12837
11
10.5058
21
-7.12837
0
LINE
8
BLACK
6
CONTINUOUS
10
10.5058
20
-7.12837
11
10.5068
21
-7.12854
0
LINE
8
BLACK
6
CONTINUOUS
10
10.495
20
-7.1013
11
10.4956
21
-7.1032
0
LINE
8
BLACK
6
CONTINUOUS
10
10.4956
20
-7.1032
11
10.4956
21
-7.10587
0
LINE
8
BLACK
6
CONTINUOUS
10
10.4956
20
-7.10587
11
10.5002
21
-7.10587
0
LINE
8
BLACK
6
CONTINUOUS
10
10.5002
20
-7.10587
11
10.5012
21
-7.10605
0
LINE
8
BLACK
6
CONTINUOUS
10
10.5012
20
-7.10605
11
10.5013
21
-7.10616
0
LINE
8
BLACK
6
CONTINUOUS
10
10.5013
20
-7.10616
11
10.5015
21
-7.10618
0
LINE
8
BLACK
6
CONTINUOUS
10
10.5015
20
-7.10618
11
10.5053
21
-7.10805
0
LINE
8
BLACK
6
CONTINUOUS
10
10.5053
20
-7.10805
11
10.5061
21
-7.10867
0
LINE
8
BLACK
6
CONTINUOUS
10
10.5061
20
-7.10867
11
10.5063
21
-7.10907
0
LINE
8
BLACK
6
CONTINUOUS
10
10.5063
20
-7.10907
11
10.5066
21
-7.10938
0
LINE
8
BLACK
6
CONTINUOUS
10
10.5066
20
-7.10938
11
10.5085
21
-7.11312
0
LINE
8
BLACK
6
CONTINUOUS
10
10.5085
20
-7.11312
11
10.5087
21
-7.11411
0
LINE
8
BLACK
6
CONTINUOUS
10
10.5087
20
-7.11411
11
10.5087
21
-7.11428
0
LINE
8
BLACK
6
CONTINUOUS
10
10.5087
20
-7.11428
11
10.5088
21
-7.11445
0
LINE
8
BLACK
6
CONTINUOUS
10
10.5088
20
-7.11445
11
10.5088
21
-7.11819
0
LINE
8
BLACK
6
CONTINUOUS
10
10.5088
20
-7.11819
11
10.5086
21
-7.1192
0
LINE
8
BLACK
6
CONTINUOUS
10
10.5086
20
-7.1192
11
10.5073
21
-7.12075
0
LINE
8
BLACK
6
CONTINUOUS
10
10.5073
20
-7.12075
11
10.5053
21
-7.1211
0
LINE
8
BLACK
6
CONTINUOUS
10
10.5053
20
-7.1211
11
10.5035
21
-7.12009
0
LINE
8
BLACK
6
CONTINUOUS
10
10.5035
20
-7.12009
11
10.5029
21
-7.11819
0
LINE
8
BLACK
6
CONTINUOUS
10
10.5029
20
-7.11819
11
10.5029
21
-7.11514
0
LINE
8
BLACK
6
CONTINUOUS
10
10.5029
20
-7.11514
11
10.5017
21
-7.1129
0
LINE
8
BLACK
6
CONTINUOUS
10
10.5017
20
-7.1129
11
10.4995
21
-7.11177
0
LINE
8
BLACK
6
CONTINUOUS
10
10.4995
20
-7.11177
11
10.4956
21
-7.11177
0
LINE
8
BLACK
6
CONTINUOUS
10
10.4956
20
-7.11177
11
10.4956
21
-7.11819
0
LINE
8
BLACK
6
CONTINUOUS
10
10.4956
20
-7.11819
11
10.4955
21
-7.1192
0
LINE
8
BLACK
6
CONTINUOUS
10
10.4955
20
-7.1192
11
10.4942
21
-7.12075
0
LINE
8
BLACK
6
CONTINUOUS
10
10.4942
20
-7.12075
11
10.4922
21
-7.1211
0
LINE
8
BLACK
6
CONTINUOUS
10
10.4922
20
-7.1211
11
10.4904
21
-7.12009
0
LINE
8
BLACK
6
CONTINUOUS
10
10.4904
20
-7.12009
11
10.4897
21
-7.11819
0
LINE
8
BLACK
6
CONTINUOUS
10
10.4897
20
-7.11819
11
10.4897
21
-7.11177
0
LINE
8
BLACK
6
CONTINUOUS
10
10.4897
20
-7.11177
11
10.4664
21
-7.11177
0
LINE
8
BLACK
6
CONTINUOUS
10
10.4664
20
-7.11177
11
10.4654
21
-7.1116
0
LINE
8
BLACK
6
CONTINUOUS
10
10.4654
20
-7.1116
11
10.4639
21
-7.1103
0
LINE
8
BLACK
6
CONTINUOUS
10
10.4639
20
-7.1103
11
10.4635
21
-7.10831
0
LINE
8
BLACK
6
CONTINUOUS
10
10.4635
20
-7.10831
11
10.4645
21
-7.10656
0
LINE
8
BLACK
6
CONTINUOUS
10
10.4645
20
-7.10656
11
10.4664
21
-7.10587
0
LINE
8
BLACK
6
CONTINUOUS
10
10.4664
20
-7.10587
11
10.4897
21
-7.10587
0
LINE
8
BLACK
6
CONTINUOUS
10
10.4897
20
-7.10587
11
10.4897
21
-7.1032
0
LINE
8
BLACK
6
CONTINUOUS
10
10.4897
20
-7.1032
11
10.4899
21
-7.10219
0
LINE
8
BLACK
6
CONTINUOUS
10
10.4899
20
-7.10219
11
10.4912
21
-7.10064
0
LINE
8
BLACK
6
CONTINUOUS
10
10.4912
20
-7.10064
11
10.4932
21
-7.10029
0
LINE
8
BLACK
6
CONTINUOUS
10
10.4932
20
-7.10029
11
10.495
21
-7.1013
0
LINE
8
BLACK
6
CONTINUOUS
10
0.926392
20
-0.923608
11
0.926969
21
-0.925
0
LINE
8
BLACK
6
CONTINUOUS
10
0.926969
20
-0.925
11
0.926969
21
-0.948031
0
LINE
8
BLACK
6
CONTINUOUS
10
0.926969
20
-0.948031
11
0.95
21
-0.948031
0
LINE
8
BLACK
6
CONTINUOUS
10
0.95
20
-0.948031
11
0.951392
21
-0.948608
0
LINE
8
BLACK
6
CONTINUOUS
10
0.951392
20
-0.948608
11
0.951969
21
-0.95
0
LINE
8
BLACK
6
CONTINUOUS
10
0.951969
20
-0.95
11
0.951392
21
-0.951392
0
LINE
8
BLACK
6
CONTINUOUS
10
0.951392
20
-0.951392
11
0.95
21
-0.951969
0
LINE
8
BLACK
6
CONTINUOUS
10
0.95
20
-0.951969
11
0.926969
21
-0.951969
0
LINE
8
BLACK
6
CONTINUOUS
10
0.926969
20
-0.951969
11
0.926969
21
-0.975
0
LINE
8
BLACK
6
CONTINUOUS
10
0.926969
20
-0.975
11
0.926392
21
-0.976392
0
LINE
8
BLACK
6
CONTINUOUS
10
0.926392
20
-0.976392
11
0.925
21
-0.976969
0
LINE
8
BLACK
6
CONTINUOUS
10
0.925
20
-0.976969
11
0.923608
21
-0.976392
0
LINE
8
BLACK
6
CONTINUOUS
10
0.923608
20
-0.976392
11
0.923031
21
-0.975
0
LINE
8
BLACK
6
CONTINUOUS
10
0.923031
20
-0.975
11
0.923031
21
-0.951969
0
LINE
8
BLACK
6
CONTINUOUS
10
0.923031
20
-0.951969
11
0.9
21
-0.951969
0
LINE
8
BLACK
6
CONTINUOUS
10
0.9
20
-0.951969
11
0.898608
21
-0.951392
0
LINE
8
BLACK
6
CONTINUOUS
10
0.898608
20
-0.951392
11
0.898031
21
-0.95
0
LINE
8
BLACK
6
CONTINUOUS
10
0.898031
20
-0.95
11
0.898608
21
-0.948608
0
LINE
8
BLACK
6
CONTINUOUS
10
0.898608
20
-0.948608
11
0.9
21
-0.948031
0
LINE
8
BLACK
6
CONTINUOUS
10
0.9
20
-0.948031
11
0.923031
21
-0.948031
0
LINE
8
BLACK
6
CONTINUOUS
10
0.923031
20
-0.948031
11
0.923031
21
-0.925
0
LINE
8
BLACK
6
CONTINUOUS
10
0.923031
20
-0.925
11
0.923608
21
-0.923608
0
LINE
8
BLACK
6
CONTINUOUS
10
0.923608
20
-0.923608
11
0.925
21
-0.923031
0
LINE
8
BLACK
6
CONTINUOUS
10
0.925
20
-0.923031
11
0.926392
21
-0.923608
0
LINE
8
BLACK
6
CONTINUOUS
10
10.3514
20
-0.923608
11
10.352
21
-0.925
0
LINE
8
BLACK
6
CONTINUOUS
10
10.352
20
-0.925
11
10.352
21
-0.948031
0
LINE
8
BLACK
6
CONTINUOUS
10
10.352
20
-0.948031
11
10.375
21
-0.948031
0
LINE
8
BLACK
6
CONTINUOUS
10
10.375
20
-0.948031
11
10.3764
21
-0.948608
0
LINE
8
BLACK
6
CONTINUOUS
10
10.3764
20
-0.948608
11
10.377
21
-0.95
0
LINE
8
BLACK
6
CONTINUOUS
10
10.377
20
-0.95
11
10.3764
21
-0.951392
0
LINE
8
BLACK
6
CONTINUOUS
10
10.3764
20
-0.951392
11
10.375
21
-0.951969
0
LINE
8
BLACK
6
CONTINUOUS
10
10.375
20
-0.951969
11
10.352
21
-0.951969
0
LINE
8
BLACK
6
CONTINUOUS
10
10.352
20
-0.951969
11
10.352
21
-0.975
0
LINE
8
BLACK
6
CONTINUOUS
10
10.352
20
-0.975
11
10.3514
21
-0.976392
0
LINE
8
BLACK
6
CONTINUOUS
10
10.3514
20
-0.976392
11
10.35
21
-0.976969
0
LINE
8
BLACK
6
CONTINUOUS
10
10.35
20
-0.976969
11
10.3486
21
-0.976392
0
LINE
8
BLACK
6
CONTINUOUS
10
10.3486
20
-0.976392
11
10.348
21
-0.975
0
LINE
8
BLACK
6
CONTINUOUS
10
10.348
20
-0.975
11
10.348
21
-0.951969
0
LINE
8
BLACK
6
CONTINUOUS
10
10.348
20
-0.951969
11
10.325
21
-0.951969
0
LINE
8
BLACK
6
CONTINUOUS
10
10.325
20
-0.951969
11
10.3236
21
-0.951392
0
LINE
8
BLACK
6
CONTINUOUS
10
10.3236
20
-0.951392
11
10.323
21
-0.95
0
LINE
8
BLACK
6
CONTINUOUS
10
10.323
20
-0.95
11
10.3236
21
-0.948608
0
LINE
8
BLACK
6
CONTINUOUS
10
10.3236
20
-0.948608
11
10.325
21
-0.948031
0
LINE
8
BLACK
6
CONTINUOUS
10
10.325
20
-0.948031
11
10.348
21
-0.948031
0
LINE
8
BLACK
6
CONTINUOUS
10
10.348
20
-0.948031
11
10.348
21
-0.925
0
LINE
8
BLACK
6
CONTINUOUS
10
10.348
20
-0.925
11
10.3486
21
-0.923608
0
LINE
8
BLACK
6
CONTINUOUS
10
10.3486
20
-0.923608
11
10.35
21
-0.923031
0
LINE
8
BLACK
6
CONTINUOUS
10
10.35
20
-0.923031
11
10.3514
21
-0.923608
  0
ENDSEC
  0
EOF
