  0
SECTION
  2
HEADER
  9
$ANGBASE
  50
0.0
  9
$ANGDIR
  70
1
  9
$MEASUREMENT
  70
0
  0
ENDSEC
  0
SECTION
  2
TABLES
  0
TABLE
  2
LTYPE
  70
4
  0
LTYPE
  5
40F
  2
CONTINUOUS
  70
0
  3
Solid line
  72
65
  73
0
  40
0.0
  0
LTYPE
  5
410
  2
DASHDOT
 70
0
  3
Dash Dot ____ _ ____ _
 72
65
 73
4
 40
2.0
 49
1.25
 49
-0.25
 49
0.25
 49
-0.25
  0
LTYPE
  5
411
  2
DASHED
 70
0
  3
Dashed __ __ __ __ __
 72
65
 73
2
 40
0.75
 49
0.5
 49
-0.25
  0
LTYPE
  5
43B
  2
DOTTED
 70
0
  3
Dotted .  .  .  .
 72
65
 73
2
 40
0.2
 49
0.0
 49
-0.2
  0
ENDTAB
  0
TABLE
  2
STYLE
  70
4
  0
STYLE
  2
KICAD
  70
0
  40
0
  41
1
  42
1
  50
0
  71
0
  3
isocp.shx
  0
STYLE
  2
KICADB
  70
0
  40
0
  41
1
  42
1
  50
0
  71
0
  3
isocp.shx
  0
STYLE
  2
KICADI
  70
0
  40
0
  41
1
  42
1
  50
15
  71
0
  3
isocp.shx
  0
STYLE
  2
KICADBI
  70
0
  40
0
  41
1
  42
1
  50
15
  71
0
  3
isocp.shx
  0
ENDTAB
  0
TABLE
  2
LAYER
  70
1
  0
LAYER
  2
BLACK
  70
0
  62
7
  6
CONTINUOUS
  0
ENDTAB
  0
ENDSEC
  0
SECTION
  2
ENTITIES
0
LINE
8
BLACK
6
CONTINUOUS
10
3.33277
20
6.81164
11
3.33346
21
6.80974
0
LINE
8
BLACK
6
CONTINUOUS
10
3.33346
20
6.80974
11
3.33346
21
-1.71526
0
LINE
8
BLACK
6
CONTINUOUS
10
3.33346
20
-1.71526
11
3.33329
21
-1.71627
0
LINE
8
BLACK
6
CONTINUOUS
10
3.33329
20
-1.71627
11
3.33199
21
-1.71781
0
LINE
8
BLACK
6
CONTINUOUS
10
3.33199
20
-1.71781
11
3.33
21
-1.71816
0
LINE
8
BLACK
6
CONTINUOUS
10
3.33
20
-1.71816
11
3.32825
21
-1.71715
0
LINE
8
BLACK
6
CONTINUOUS
10
3.32825
20
-1.71715
11
3.32756
21
-1.71526
0
LINE
8
BLACK
6
CONTINUOUS
10
3.32756
20
-1.71526
11
3.32756
21
6.80974
0
LINE
8
BLACK
6
CONTINUOUS
10
3.32756
20
6.80974
11
3.32774
21
6.81075
0
LINE
8
BLACK
6
CONTINUOUS
10
3.32774
20
6.81075
11
3.32904
21
6.8123
0
LINE
8
BLACK
6
CONTINUOUS
10
3.32904
20
6.8123
11
3.33102
21
6.81265
0
LINE
8
BLACK
6
CONTINUOUS
10
3.33102
20
6.81265
11
3.33277
21
6.81164
0
LINE
8
BLACK
6
CONTINUOUS
10
3.00748
20
-1.19026
11
3.0069
21
-1.19165
0
LINE
8
BLACK
6
CONTINUOUS
10
3.0069
20
-1.19165
11
3.00551
21
-1.19222
0
LINE
8
BLACK
6
CONTINUOUS
10
3.00551
20
-1.19222
11
0.00255906
21
-1.19222
0
LINE
8
BLACK
6
CONTINUOUS
10
0.00255906
20
-1.19222
11
0.00255906
21
-1.22874
0
LINE
8
BLACK
6
CONTINUOUS
10
0.00255906
20
-1.22874
11
0.00186717
21
-1.23041
0
LINE
8
BLACK
6
CONTINUOUS
10
0.00186717
20
-1.23041
11
0.00019685
21
-1.2311
0
LINE
8
BLACK
6
CONTINUOUS
10
0.00019685
20
-1.2311
11
-0.00147346
21
-1.23041
0
LINE
8
BLACK
6
CONTINUOUS
10
-0.00147346
20
-1.23041
11
-0.00216535
21
-1.22874
0
LINE
8
BLACK
6
CONTINUOUS
10
-0.00216535
20
-1.22874
11
-0.00216535
21
-1.19222
0
LINE
8
BLACK
6
CONTINUOUS
10
-0.00216535
20
-1.19222
11
-6.26949
21
-1.19222
0
LINE
8
BLACK
6
CONTINUOUS
10
-6.26949
20
-1.19222
11
-6.27088
21
-1.19165
0
LINE
8
BLACK
6
CONTINUOUS
10
-6.27088
20
-1.19165
11
-6.27146
21
-1.19026
0
LINE
8
BLACK
6
CONTINUOUS
10
-6.27146
20
-1.19026
11
-6.27088
21
-1.18886
0
LINE
8
BLACK
6
CONTINUOUS
10
-6.27088
20
-1.18886
11
-6.26949
21
-1.18829
0
LINE
8
BLACK
6
CONTINUOUS
10
-6.26949
20
-1.18829
11
-0.00216535
21
-1.18829
0
LINE
8
BLACK
6
CONTINUOUS
10
-0.00216535
20
-1.18829
11
-0.00216535
21
-1.1248
0
LINE
8
BLACK
6
CONTINUOUS
10
-0.00216535
20
-1.1248
11
-1.33051
21
-1.1248
0
LINE
8
BLACK
6
CONTINUOUS
10
-1.33051
20
-1.1248
11
-1.33061
21
-1.12476
0
LINE
8
BLACK
6
CONTINUOUS
10
-1.33061
20
-1.12476
11
-1.33071
21
-1.12479
0
LINE
8
BLACK
6
CONTINUOUS
10
-1.33071
20
-1.12479
11
-1.33143
21
-1.12442
0
LINE
8
BLACK
6
CONTINUOUS
10
-1.33143
20
-1.12442
11
-1.33218
21
-1.12411
0
LINE
8
BLACK
6
CONTINUOUS
10
-1.33218
20
-1.12411
11
-1.33222
21
-1.12401
0
LINE
8
BLACK
6
CONTINUOUS
10
-1.33222
20
-1.12401
11
-1.33232
21
-1.12396
0
LINE
8
BLACK
6
CONTINUOUS
10
-1.33232
20
-1.12396
11
-1.33256
21
-1.12319
0
LINE
8
BLACK
6
CONTINUOUS
10
-1.33256
20
-1.12319
11
-1.33287
21
-1.12244
0
LINE
8
BLACK
6
CONTINUOUS
10
-1.33287
20
-1.12244
11
-1.33287
21
1.12165
0
LINE
8
BLACK
6
CONTINUOUS
10
-1.33287
20
1.12165
11
-1.33256
21
1.1224
0
LINE
8
BLACK
6
CONTINUOUS
10
-1.33256
20
1.1224
11
-1.33232
21
1.12318
0
LINE
8
BLACK
6
CONTINUOUS
10
-1.33232
20
1.12318
11
-1.33222
21
1.12323
0
LINE
8
BLACK
6
CONTINUOUS
10
-1.33222
20
1.12323
11
-1.33218
21
1.12332
0
LINE
8
BLACK
6
CONTINUOUS
10
-1.33218
20
1.12332
11
-1.33143
21
1.12363
0
LINE
8
BLACK
6
CONTINUOUS
10
-1.33143
20
1.12363
11
-1.33071
21
1.12401
0
LINE
8
BLACK
6
CONTINUOUS
10
-1.33071
20
1.12401
11
-1.33061
21
1.12397
0
LINE
8
BLACK
6
CONTINUOUS
10
-1.33061
20
1.12397
11
-1.33051
21
1.12402
0
LINE
8
BLACK
6
CONTINUOUS
10
-1.33051
20
1.12402
11
-0.00216535
21
1.12402
0
LINE
8
BLACK
6
CONTINUOUS
10
-0.00216535
20
1.12402
11
-0.00216535
21
1.22795
0
LINE
8
BLACK
6
CONTINUOUS
10
-0.00216535
20
1.22795
11
-0.00147346
21
1.22962
0
LINE
8
BLACK
6
CONTINUOUS
10
-0.00147346
20
1.22962
11
0.00019685
21
1.23031
0
LINE
8
BLACK
6
CONTINUOUS
10
0.00019685
20
1.23031
11
0.00186717
21
1.22962
0
LINE
8
BLACK
6
CONTINUOUS
10
0.00186717
20
1.22962
11
0.00255906
21
1.22795
0
LINE
8
BLACK
6
CONTINUOUS
10
0.00255906
20
1.22795
11
0.00255906
21
1.12402
0
LINE
8
BLACK
6
CONTINUOUS
10
0.00255906
20
1.12402
11
1.33091
21
1.12402
0
LINE
8
BLACK
6
CONTINUOUS
10
1.33091
20
1.12402
11
1.331
21
1.12397
0
LINE
8
BLACK
6
CONTINUOUS
10
1.331
20
1.12397
11
1.33111
21
1.12401
0
LINE
8
BLACK
6
CONTINUOUS
10
1.33111
20
1.12401
11
1.33183
21
1.12363
0
LINE
8
BLACK
6
CONTINUOUS
10
1.33183
20
1.12363
11
1.33258
21
1.12332
0
LINE
8
BLACK
6
CONTINUOUS
10
1.33258
20
1.12332
11
1.33262
21
1.12323
0
LINE
8
BLACK
6
CONTINUOUS
10
1.33262
20
1.12323
11
1.33271
21
1.12318
0
LINE
8
BLACK
6
CONTINUOUS
10
1.33271
20
1.12318
11
1.33296
21
1.1224
0
LINE
8
BLACK
6
CONTINUOUS
10
1.33296
20
1.1224
11
1.33327
21
1.12165
0
LINE
8
BLACK
6
CONTINUOUS
10
1.33327
20
1.12165
11
1.33327
21
-1.12244
0
LINE
8
BLACK
6
CONTINUOUS
10
1.33327
20
-1.12244
11
1.33296
21
-1.12319
0
LINE
8
BLACK
6
CONTINUOUS
10
1.33296
20
-1.12319
11
1.33271
21
-1.12396
0
LINE
8
BLACK
6
CONTINUOUS
10
1.33271
20
-1.12396
11
1.33262
21
-1.12401
0
LINE
8
BLACK
6
CONTINUOUS
10
1.33262
20
-1.12401
11
1.33258
21
-1.12411
0
LINE
8
BLACK
6
CONTINUOUS
10
1.33258
20
-1.12411
11
1.33183
21
-1.12442
0
LINE
8
BLACK
6
CONTINUOUS
10
1.33183
20
-1.12442
11
1.33111
21
-1.12479
0
LINE
8
BLACK
6
CONTINUOUS
10
1.33111
20
-1.12479
11
1.331
21
-1.12476
0
LINE
8
BLACK
6
CONTINUOUS
10
1.331
20
-1.12476
11
1.33091
21
-1.1248
0
LINE
8
BLACK
6
CONTINUOUS
10
1.33091
20
-1.1248
11
0.00255906
21
-1.1248
0
LINE
8
BLACK
6
CONTINUOUS
10
0.00255906
20
-1.1248
11
0.00255906
21
-1.18829
0
LINE
8
BLACK
6
CONTINUOUS
10
0.00255906
20
-1.18829
11
3.00354
21
-1.18829
0
LINE
8
BLACK
6
CONTINUOUS
10
3.00354
20
-1.18829
11
3.00354
21
-1.04026
0
LINE
8
BLACK
6
CONTINUOUS
10
3.00354
20
-1.04026
11
3.00412
21
-1.03886
0
LINE
8
BLACK
6
CONTINUOUS
10
3.00412
20
-1.03886
11
3.00551
21
-1.03829
0
LINE
8
BLACK
6
CONTINUOUS
10
3.00551
20
-1.03829
11
3.15354
21
-1.03829
0
LINE
8
BLACK
6
CONTINUOUS
10
3.15354
20
-1.03829
11
3.15354
21
6.38474
0
LINE
8
BLACK
6
CONTINUOUS
10
3.15354
20
6.38474
11
3.15412
21
6.38614
0
LINE
8
BLACK
6
CONTINUOUS
10
3.15412
20
6.38614
11
3.15551
21
6.38671
0
LINE
8
BLACK
6
CONTINUOUS
10
3.15551
20
6.38671
11
3.1569
21
6.38614
0
LINE
8
BLACK
6
CONTINUOUS
10
3.1569
20
6.38614
11
3.15748
21
6.38474
0
LINE
8
BLACK
6
CONTINUOUS
10
3.15748
20
6.38474
11
3.15748
21
-1.04026
0
LINE
8
BLACK
6
CONTINUOUS
10
3.15748
20
-1.04026
11
3.1569
21
-1.04165
0
LINE
8
BLACK
6
CONTINUOUS
10
3.1569
20
-1.04165
11
3.15551
21
-1.04222
0
LINE
8
BLACK
6
CONTINUOUS
10
3.15551
20
-1.04222
11
3.00748
21
-1.04222
0
LINE
8
BLACK
6
CONTINUOUS
10
3.00748
20
-1.04222
11
3.00748
21
-1.19026
0
LINE
8
BLACK
6
CONTINUOUS
10
-0.824446
20
-0.698819
11
-0.816732
21
-0.698819
0
LINE
8
BLACK
6
CONTINUOUS
10
-0.816732
20
-0.698819
11
-0.815062
21
-0.699511
0
LINE
8
BLACK
6
CONTINUOUS
10
-0.815062
20
-0.699511
11
-0.81437
21
-0.701181
0
LINE
8
BLACK
6
CONTINUOUS
10
-0.81437
20
-0.701181
11
-0.815062
21
-0.702851
0
LINE
8
BLACK
6
CONTINUOUS
10
-0.815062
20
-0.702851
11
-0.816732
21
-0.703543
0
LINE
8
BLACK
6
CONTINUOUS
10
-0.816732
20
-0.703543
11
-0.830049
21
-0.703543
0
LINE
8
BLACK
6
CONTINUOUS
10
-0.830049
20
-0.703543
11
-0.885236
21
-0.750077
0
LINE
8
BLACK
6
CONTINUOUS
10
-0.885236
20
-0.750077
11
-0.885236
21
-0.775984
0
LINE
8
BLACK
6
CONTINUOUS
10
-0.885236
20
-0.775984
11
-0.885928
21
-0.777655
0
LINE
8
BLACK
6
CONTINUOUS
10
-0.885928
20
-0.777655
11
-0.887598
21
-0.778346
0
LINE
8
BLACK
6
CONTINUOUS
10
-0.887598
20
-0.778346
11
-0.889269
21
-0.777655
0
LINE
8
BLACK
6
CONTINUOUS
10
-0.889269
20
-0.777655
11
-0.889961
21
-0.775984
0
LINE
8
BLACK
6
CONTINUOUS
10
-0.889961
20
-0.775984
11
-0.889961
21
-0.75406
0
LINE
8
BLACK
6
CONTINUOUS
10
-0.889961
20
-0.75406
11
-1.32405
21
-1.12008
0
LINE
8
BLACK
6
CONTINUOUS
10
-1.32405
20
-1.12008
11
-0.00216535
21
-1.12008
0
LINE
8
BLACK
6
CONTINUOUS
10
-0.00216535
20
-1.12008
11
-0.00216535
21
-0.00547535
0
LINE
8
BLACK
6
CONTINUOUS
10
-0.00216535
20
-0.00547535
11
-0.824446
21
-0.698819
0
LINE
8
BLACK
6
CONTINUOUS
10
0.00255906
20
-1.12008
11
1.32444
21
-1.12008
0
LINE
8
BLACK
6
CONTINUOUS
10
1.32444
20
-1.12008
11
0.886417
21
-0.75074
0
LINE
8
BLACK
6
CONTINUOUS
10
0.886417
20
-0.75074
11
0.886417
21
-0.803543
0
LINE
8
BLACK
6
CONTINUOUS
10
0.886417
20
-0.803543
11
0.885725
21
-0.805214
0
LINE
8
BLACK
6
CONTINUOUS
10
0.885725
20
-0.805214
11
0.884055
21
-0.805906
0
LINE
8
BLACK
6
CONTINUOUS
10
0.884055
20
-0.805906
11
0.882385
21
-0.805214
0
LINE
8
BLACK
6
CONTINUOUS
10
0.882385
20
-0.805214
11
0.881693
21
-0.803543
0
LINE
8
BLACK
6
CONTINUOUS
10
0.881693
20
-0.803543
11
0.881693
21
-0.746757
0
LINE
8
BLACK
6
CONTINUOUS
10
0.881693
20
-0.746757
11
0.835112
21
-0.70748
0
LINE
8
BLACK
6
CONTINUOUS
10
0.835112
20
-0.70748
11
0.828937
21
-0.70748
0
LINE
8
BLACK
6
CONTINUOUS
10
0.828937
20
-0.70748
11
0.827267
21
-0.706788
0
LINE
8
BLACK
6
CONTINUOUS
10
0.827267
20
-0.706788
11
0.826575
21
-0.705118
0
LINE
8
BLACK
6
CONTINUOUS
10
0.826575
20
-0.705118
11
0.827267
21
-0.703448
0
LINE
8
BLACK
6
CONTINUOUS
10
0.827267
20
-0.703448
11
0.828937
21
-0.702756
0
LINE
8
BLACK
6
CONTINUOUS
10
0.828937
20
-0.702756
11
0.829509
21
-0.702756
0
LINE
8
BLACK
6
CONTINUOUS
10
0.829509
20
-0.702756
11
0.00255906
21
-0.00547535
0
LINE
8
BLACK
6
CONTINUOUS
10
0.00255906
20
-0.00547535
11
0.00255906
21
-1.12008
0
LINE
8
BLACK
6
CONTINUOUS
10
-1.32815
20
-1.11736
11
-0.889961
21
-0.74788
0
LINE
8
BLACK
6
CONTINUOUS
10
-0.889961
20
-0.74788
11
-0.889961
21
-0.703543
0
LINE
8
BLACK
6
CONTINUOUS
10
-0.889961
20
-0.703543
11
-0.954528
21
-0.703543
0
LINE
8
BLACK
6
CONTINUOUS
10
-0.954528
20
-0.703543
11
-0.956198
21
-0.702851
0
LINE
8
BLACK
6
CONTINUOUS
10
-0.956198
20
-0.702851
11
-0.95689
21
-0.701181
0
LINE
8
BLACK
6
CONTINUOUS
10
-0.95689
20
-0.701181
11
-0.956198
21
-0.699511
0
LINE
8
BLACK
6
CONTINUOUS
10
-0.956198
20
-0.699511
11
-0.954528
21
-0.698819
0
LINE
8
BLACK
6
CONTINUOUS
10
-0.954528
20
-0.698819
11
-0.889961
21
-0.698819
0
LINE
8
BLACK
6
CONTINUOUS
10
-0.889961
20
-0.698819
11
-0.889961
21
-0.309843
0
LINE
8
BLACK
6
CONTINUOUS
10
-0.889961
20
-0.309843
11
-0.958465
21
-0.309843
0
LINE
8
BLACK
6
CONTINUOUS
10
-0.958465
20
-0.309843
11
-0.960135
21
-0.309151
0
LINE
8
BLACK
6
CONTINUOUS
10
-0.960135
20
-0.309151
11
-0.960827
21
-0.30748
0
LINE
8
BLACK
6
CONTINUOUS
10
-0.960827
20
-0.30748
11
-0.960135
21
-0.30581
0
LINE
8
BLACK
6
CONTINUOUS
10
-0.960135
20
-0.30581
11
-0.958465
21
-0.305118
0
LINE
8
BLACK
6
CONTINUOUS
10
-0.958465
20
-0.305118
11
-0.889961
21
-0.305118
0
LINE
8
BLACK
6
CONTINUOUS
10
-0.889961
20
-0.305118
11
-0.889961
21
0.316142
0
LINE
8
BLACK
6
CONTINUOUS
10
-0.889961
20
0.316142
11
-0.954528
21
0.316142
0
LINE
8
BLACK
6
CONTINUOUS
10
-0.954528
20
0.316142
11
-0.956198
21
0.316834
0
LINE
8
BLACK
6
CONTINUOUS
10
-0.956198
20
0.316834
11
-0.95689
21
0.318504
0
LINE
8
BLACK
6
CONTINUOUS
10
-0.95689
20
0.318504
11
-0.956198
21
0.320174
0
LINE
8
BLACK
6
CONTINUOUS
10
-0.956198
20
0.320174
11
-0.954528
21
0.320866
0
LINE
8
BLACK
6
CONTINUOUS
10
-0.954528
20
0.320866
11
-0.889961
21
0.320866
0
LINE
8
BLACK
6
CONTINUOUS
10
-0.889961
20
0.320866
11
-0.889961
21
0.709843
0
LINE
8
BLACK
6
CONTINUOUS
10
-0.889961
20
0.709843
11
-0.954528
21
0.709843
0
LINE
8
BLACK
6
CONTINUOUS
10
-0.954528
20
0.709843
11
-0.956198
21
0.710534
0
LINE
8
BLACK
6
CONTINUOUS
10
-0.956198
20
0.710534
11
-0.95689
21
0.712205
0
LINE
8
BLACK
6
CONTINUOUS
10
-0.95689
20
0.712205
11
-0.956198
21
0.713875
0
LINE
8
BLACK
6
CONTINUOUS
10
-0.956198
20
0.713875
11
-0.954528
21
0.714567
0
LINE
8
BLACK
6
CONTINUOUS
10
-0.954528
20
0.714567
11
-0.889961
21
0.714567
0
LINE
8
BLACK
6
CONTINUOUS
10
-0.889961
20
0.714567
11
-0.889961
21
0.747093
0
LINE
8
BLACK
6
CONTINUOUS
10
-0.889961
20
0.747093
11
-1.32815
21
1.11657
0
LINE
8
BLACK
6
CONTINUOUS
10
-1.32815
20
1.11657
11
-1.32815
21
-1.11736
0
LINE
8
BLACK
6
CONTINUOUS
10
0.886417
20
0.743773
11
0.886417
21
0.316929
0
LINE
8
BLACK
6
CONTINUOUS
10
0.886417
20
0.316929
11
0.950984
21
0.316929
0
LINE
8
BLACK
6
CONTINUOUS
10
0.950984
20
0.316929
11
0.952655
21
0.316237
0
LINE
8
BLACK
6
CONTINUOUS
10
0.952655
20
0.316237
11
0.953346
21
0.314567
0
LINE
8
BLACK
6
CONTINUOUS
10
0.953346
20
0.314567
11
0.952655
21
0.312897
0
LINE
8
BLACK
6
CONTINUOUS
10
0.952655
20
0.312897
11
0.950984
21
0.312205
0
LINE
8
BLACK
6
CONTINUOUS
10
0.950984
20
0.312205
11
0.886417
21
0.312205
0
LINE
8
BLACK
6
CONTINUOUS
10
0.886417
20
0.312205
11
0.886417
21
-0.112205
0
LINE
8
BLACK
6
CONTINUOUS
10
0.886417
20
-0.112205
11
0.950984
21
-0.112205
0
LINE
8
BLACK
6
CONTINUOUS
10
0.950984
20
-0.112205
11
0.952655
21
-0.112897
0
LINE
8
BLACK
6
CONTINUOUS
10
0.952655
20
-0.112897
11
0.953346
21
-0.114567
0
LINE
8
BLACK
6
CONTINUOUS
10
0.953346
20
-0.114567
11
0.952655
21
-0.116237
0
LINE
8
BLACK
6
CONTINUOUS
10
0.952655
20
-0.116237
11
0.950984
21
-0.116929
0
LINE
8
BLACK
6
CONTINUOUS
10
0.950984
20
-0.116929
11
0.886417
21
-0.116929
0
LINE
8
BLACK
6
CONTINUOUS
10
0.886417
20
-0.116929
11
0.886417
21
-0.702756
0
LINE
8
BLACK
6
CONTINUOUS
10
0.886417
20
-0.702756
11
0.94311
21
-0.702756
0
LINE
8
BLACK
6
CONTINUOUS
10
0.94311
20
-0.702756
11
0.944781
21
-0.703448
0
LINE
8
BLACK
6
CONTINUOUS
10
0.944781
20
-0.703448
11
0.945472
21
-0.705118
0
LINE
8
BLACK
6
CONTINUOUS
10
0.945472
20
-0.705118
11
0.944781
21
-0.706788
0
LINE
8
BLACK
6
CONTINUOUS
10
0.944781
20
-0.706788
11
0.94311
21
-0.70748
0
LINE
8
BLACK
6
CONTINUOUS
10
0.94311
20
-0.70748
11
0.886417
21
-0.70748
0
LINE
8
BLACK
6
CONTINUOUS
10
0.886417
20
-0.70748
11
0.886417
21
-0.744561
0
LINE
8
BLACK
6
CONTINUOUS
10
0.886417
20
-0.744561
11
1.32854
21
-1.11736
0
LINE
8
BLACK
6
CONTINUOUS
10
1.32854
20
-1.11736
11
1.32854
21
1.11657
0
LINE
8
BLACK
6
CONTINUOUS
10
1.32854
20
1.11657
11
0.886417
21
0.743773
0
LINE
8
BLACK
6
CONTINUOUS
10
-0.885236
20
-0.703543
11
-0.885236
21
-0.743897
0
LINE
8
BLACK
6
CONTINUOUS
10
-0.885236
20
-0.743897
11
-0.837378
21
-0.703543
0
LINE
8
BLACK
6
CONTINUOUS
10
-0.837378
20
-0.703543
11
-0.885236
21
-0.703543
0
LINE
8
BLACK
6
CONTINUOUS
10
0.842441
20
-0.70748
11
0.881693
21
-0.740577
0
LINE
8
BLACK
6
CONTINUOUS
10
0.881693
20
-0.740577
11
0.881693
21
-0.70748
0
LINE
8
BLACK
6
CONTINUOUS
10
0.881693
20
-0.70748
11
0.842441
21
-0.70748
0
LINE
8
BLACK
6
CONTINUOUS
10
0.0038613
20
-0.000393701
11
0.836838
21
-0.702756
0
LINE
8
BLACK
6
CONTINUOUS
10
0.836838
20
-0.702756
11
0.881693
21
-0.702756
0
LINE
8
BLACK
6
CONTINUOUS
10
0.881693
20
-0.702756
11
0.881693
21
-0.116929
0
LINE
8
BLACK
6
CONTINUOUS
10
0.881693
20
-0.116929
11
0.813189
21
-0.116929
0
LINE
8
BLACK
6
CONTINUOUS
10
0.813189
20
-0.116929
11
0.811519
21
-0.116237
0
LINE
8
BLACK
6
CONTINUOUS
10
0.811519
20
-0.116237
11
0.810827
21
-0.114567
0
LINE
8
BLACK
6
CONTINUOUS
10
0.810827
20
-0.114567
11
0.811519
21
-0.112897
0
LINE
8
BLACK
6
CONTINUOUS
10
0.811519
20
-0.112897
11
0.813189
21
-0.112205
0
LINE
8
BLACK
6
CONTINUOUS
10
0.813189
20
-0.112205
11
0.881693
21
-0.112205
0
LINE
8
BLACK
6
CONTINUOUS
10
0.881693
20
-0.112205
11
0.881693
21
0.312205
0
LINE
8
BLACK
6
CONTINUOUS
10
0.881693
20
0.312205
11
0.817126
21
0.312205
0
LINE
8
BLACK
6
CONTINUOUS
10
0.817126
20
0.312205
11
0.815456
21
0.312897
0
LINE
8
BLACK
6
CONTINUOUS
10
0.815456
20
0.312897
11
0.814764
21
0.314567
0
LINE
8
BLACK
6
CONTINUOUS
10
0.814764
20
0.314567
11
0.815456
21
0.316237
0
LINE
8
BLACK
6
CONTINUOUS
10
0.815456
20
0.316237
11
0.817126
21
0.316929
0
LINE
8
BLACK
6
CONTINUOUS
10
0.817126
20
0.316929
11
0.881693
21
0.316929
0
LINE
8
BLACK
6
CONTINUOUS
10
0.881693
20
0.316929
11
0.881693
21
0.73979
0
LINE
8
BLACK
6
CONTINUOUS
10
0.881693
20
0.73979
11
0.0038613
21
-0.000393701
0
LINE
8
BLACK
6
CONTINUOUS
10
-0.885236
20
0.709843
11
-0.885236
21
0.320866
0
LINE
8
BLACK
6
CONTINUOUS
10
-0.885236
20
0.320866
11
-0.820669
21
0.320866
0
LINE
8
BLACK
6
CONTINUOUS
10
-0.820669
20
0.320866
11
-0.818999
21
0.320174
0
LINE
8
BLACK
6
CONTINUOUS
10
-0.818999
20
0.320174
11
-0.818307
21
0.318504
0
LINE
8
BLACK
6
CONTINUOUS
10
-0.818307
20
0.318504
11
-0.818999
21
0.316834
0
LINE
8
BLACK
6
CONTINUOUS
10
-0.818999
20
0.316834
11
-0.820669
21
0.316142
0
LINE
8
BLACK
6
CONTINUOUS
10
-0.820669
20
0.316142
11
-0.885236
21
0.316142
0
LINE
8
BLACK
6
CONTINUOUS
10
-0.885236
20
0.316142
11
-0.885236
21
-0.305118
0
LINE
8
BLACK
6
CONTINUOUS
10
-0.885236
20
-0.305118
11
-0.820669
21
-0.305118
0
LINE
8
BLACK
6
CONTINUOUS
10
-0.820669
20
-0.305118
11
-0.818999
21
-0.30581
0
LINE
8
BLACK
6
CONTINUOUS
10
-0.818999
20
-0.30581
11
-0.818307
21
-0.30748
0
LINE
8
BLACK
6
CONTINUOUS
10
-0.818307
20
-0.30748
11
-0.818999
21
-0.309151
0
LINE
8
BLACK
6
CONTINUOUS
10
-0.818999
20
-0.309151
11
-0.820669
21
-0.309843
0
LINE
8
BLACK
6
CONTINUOUS
10
-0.820669
20
-0.309843
11
-0.885236
21
-0.309843
0
LINE
8
BLACK
6
CONTINUOUS
10
-0.885236
20
-0.309843
11
-0.885236
21
-0.698819
0
LINE
8
BLACK
6
CONTINUOUS
10
-0.885236
20
-0.698819
11
-0.831775
21
-0.698819
0
LINE
8
BLACK
6
CONTINUOUS
10
-0.831775
20
-0.698819
11
-0.00346764
21
-0.000393701
0
LINE
8
BLACK
6
CONTINUOUS
10
-0.00346764
20
-0.000393701
11
-0.845783
21
0.709843
0
LINE
8
BLACK
6
CONTINUOUS
10
-0.845783
20
0.709843
11
-0.885236
21
0.709843
0
LINE
8
BLACK
6
CONTINUOUS
10
-1.32405
20
1.11929
11
-0.889961
21
0.753273
0
LINE
8
BLACK
6
CONTINUOUS
10
-0.889961
20
0.753273
11
-0.889961
21
0.794882
0
LINE
8
BLACK
6
CONTINUOUS
10
-0.889961
20
0.794882
11
-0.889269
21
0.796552
0
LINE
8
BLACK
6
CONTINUOUS
10
-0.889269
20
0.796552
11
-0.887598
21
0.797244
0
LINE
8
BLACK
6
CONTINUOUS
10
-0.887598
20
0.797244
11
-0.885928
21
0.796552
0
LINE
8
BLACK
6
CONTINUOUS
10
-0.885928
20
0.796552
11
-0.885236
21
0.794882
0
LINE
8
BLACK
6
CONTINUOUS
10
-0.885236
20
0.794882
11
-0.885236
21
0.749289
0
LINE
8
BLACK
6
CONTINUOUS
10
-0.885236
20
0.749289
11
-0.844057
21
0.714567
0
LINE
8
BLACK
6
CONTINUOUS
10
-0.844057
20
0.714567
11
-0.820669
21
0.714567
0
LINE
8
BLACK
6
CONTINUOUS
10
-0.820669
20
0.714567
11
-0.818999
21
0.713875
0
LINE
8
BLACK
6
CONTINUOUS
10
-0.818999
20
0.713875
11
-0.818307
21
0.712205
0
LINE
8
BLACK
6
CONTINUOUS
10
-0.818307
20
0.712205
11
-0.818999
21
0.710534
0
LINE
8
BLACK
6
CONTINUOUS
10
-0.818999
20
0.710534
11
-0.820669
21
0.709843
0
LINE
8
BLACK
6
CONTINUOUS
10
-0.820669
20
0.709843
11
-0.838454
21
0.709843
0
LINE
8
BLACK
6
CONTINUOUS
10
-0.838454
20
0.709843
11
-0.00216535
21
0.00468795
0
LINE
8
BLACK
6
CONTINUOUS
10
-0.00216535
20
0.00468795
11
-0.00216535
21
1.11929
0
LINE
8
BLACK
6
CONTINUOUS
10
-0.00216535
20
1.11929
11
-1.32405
21
1.11929
0
LINE
8
BLACK
6
CONTINUOUS
10
0.00255906
20
1.11929
11
0.00255906
21
0.00468795
0
LINE
8
BLACK
6
CONTINUOUS
10
0.00255906
20
0.00468795
11
0.881693
21
0.745969
0
LINE
8
BLACK
6
CONTINUOUS
10
0.881693
20
0.745969
11
0.881693
21
0.902756
0
LINE
8
BLACK
6
CONTINUOUS
10
0.881693
20
0.902756
11
0.813189
21
0.902756
0
LINE
8
BLACK
6
CONTINUOUS
10
0.813189
20
0.902756
11
0.811519
21
0.903448
0
LINE
8
BLACK
6
CONTINUOUS
10
0.811519
20
0.903448
11
0.810827
21
0.905118
0
LINE
8
BLACK
6
CONTINUOUS
10
0.810827
20
0.905118
11
0.811519
21
0.906788
0
LINE
8
BLACK
6
CONTINUOUS
10
0.811519
20
0.906788
11
0.813189
21
0.90748
0
LINE
8
BLACK
6
CONTINUOUS
10
0.813189
20
0.90748
11
0.881693
21
0.90748
0
LINE
8
BLACK
6
CONTINUOUS
10
0.881693
20
0.90748
11
0.881693
21
0.975984
0
LINE
8
BLACK
6
CONTINUOUS
10
0.881693
20
0.975984
11
0.882385
21
0.977655
0
LINE
8
BLACK
6
CONTINUOUS
10
0.882385
20
0.977655
11
0.884055
21
0.978346
0
LINE
8
BLACK
6
CONTINUOUS
10
0.884055
20
0.978346
11
0.885725
21
0.977655
0
LINE
8
BLACK
6
CONTINUOUS
10
0.885725
20
0.977655
11
0.886417
21
0.975984
0
LINE
8
BLACK
6
CONTINUOUS
10
0.886417
20
0.975984
11
0.886417
21
0.90748
0
LINE
8
BLACK
6
CONTINUOUS
10
0.886417
20
0.90748
11
0.947047
21
0.90748
0
LINE
8
BLACK
6
CONTINUOUS
10
0.947047
20
0.90748
11
0.948718
21
0.906788
0
LINE
8
BLACK
6
CONTINUOUS
10
0.948718
20
0.906788
11
0.949409
21
0.905118
0
LINE
8
BLACK
6
CONTINUOUS
10
0.949409
20
0.905118
11
0.948718
21
0.903448
0
LINE
8
BLACK
6
CONTINUOUS
10
0.948718
20
0.903448
11
0.947047
21
0.902756
0
LINE
8
BLACK
6
CONTINUOUS
10
0.947047
20
0.902756
11
0.886417
21
0.902756
0
LINE
8
BLACK
6
CONTINUOUS
10
0.886417
20
0.902756
11
0.886417
21
0.749953
0
LINE
8
BLACK
6
CONTINUOUS
10
0.886417
20
0.749953
11
1.32444
21
1.11929
0
LINE
8
BLACK
6
CONTINUOUS
10
1.32444
20
1.11929
11
0.00255906
21
1.11929
0
LINE
8
BLACK
6
CONTINUOUS
10
-0.885236
20
0.714567
11
-0.851386
21
0.714567
0
LINE
8
BLACK
6
CONTINUOUS
10
-0.851386
20
0.714567
11
-0.885236
21
0.743109
0
LINE
8
BLACK
6
CONTINUOUS
10
-0.885236
20
0.743109
11
-0.885236
21
0.714567
0
LINE
8
BLACK
6
CONTINUOUS
10
3.0819
20
-1.08886
11
3.08248
21
-1.09026
0
LINE
8
BLACK
6
CONTINUOUS
10
3.08248
20
-1.09026
11
3.08248
21
-1.11329
0
LINE
8
BLACK
6
CONTINUOUS
10
3.08248
20
-1.11329
11
3.10551
21
-1.11329
0
LINE
8
BLACK
6
CONTINUOUS
10
3.10551
20
-1.11329
11
3.1069
21
-1.11386
0
LINE
8
BLACK
6
CONTINUOUS
10
3.1069
20
-1.11386
11
3.10748
21
-1.11526
0
LINE
8
BLACK
6
CONTINUOUS
10
3.10748
20
-1.11526
11
3.1069
21
-1.11665
0
LINE
8
BLACK
6
CONTINUOUS
10
3.1069
20
-1.11665
11
3.10551
21
-1.11722
0
LINE
8
BLACK
6
CONTINUOUS
10
3.10551
20
-1.11722
11
3.08248
21
-1.11722
0
LINE
8
BLACK
6
CONTINUOUS
10
3.08248
20
-1.11722
11
3.08248
21
-1.14026
0
LINE
8
BLACK
6
CONTINUOUS
10
3.08248
20
-1.14026
11
3.0819
21
-1.14165
0
LINE
8
BLACK
6
CONTINUOUS
10
3.0819
20
-1.14165
11
3.08051
21
-1.14222
0
LINE
8
BLACK
6
CONTINUOUS
10
3.08051
20
-1.14222
11
3.07912
21
-1.14165
0
LINE
8
BLACK
6
CONTINUOUS
10
3.07912
20
-1.14165
11
3.07854
21
-1.14026
0
LINE
8
BLACK
6
CONTINUOUS
10
3.07854
20
-1.14026
11
3.07854
21
-1.11722
0
LINE
8
BLACK
6
CONTINUOUS
10
3.07854
20
-1.11722
11
3.05551
21
-1.11722
0
LINE
8
BLACK
6
CONTINUOUS
10
3.05551
20
-1.11722
11
3.05412
21
-1.11665
0
LINE
8
BLACK
6
CONTINUOUS
10
3.05412
20
-1.11665
11
3.05354
21
-1.11526
0
LINE
8
BLACK
6
CONTINUOUS
10
3.05354
20
-1.11526
11
3.05412
21
-1.11386
0
LINE
8
BLACK
6
CONTINUOUS
10
3.05412
20
-1.11386
11
3.05551
21
-1.11329
0
LINE
8
BLACK
6
CONTINUOUS
10
3.05551
20
-1.11329
11
3.07854
21
-1.11329
0
LINE
8
BLACK
6
CONTINUOUS
10
3.07854
20
-1.11329
11
3.07854
21
-1.09026
0
LINE
8
BLACK
6
CONTINUOUS
10
3.07854
20
-1.09026
11
3.07912
21
-1.08886
0
LINE
8
BLACK
6
CONTINUOUS
10
3.07912
20
-1.08886
11
3.08051
21
-1.08829
0
LINE
8
BLACK
6
CONTINUOUS
10
3.08051
20
-1.08829
11
3.0819
21
-1.08886
0
LINE
8
BLACK
6
CONTINUOUS
10
3.22421
20
-0.479954
11
3.22576
21
-0.481252
0
LINE
8
BLACK
6
CONTINUOUS
10
3.22576
20
-0.481252
11
3.22611
21
-0.483241
0
LINE
8
BLACK
6
CONTINUOUS
10
3.22611
20
-0.483241
11
3.2251
21
-0.484991
0
LINE
8
BLACK
6
CONTINUOUS
10
3.2251
20
-0.484991
11
3.22486
21
-0.485076
0
LINE
8
BLACK
6
CONTINUOUS
10
3.22486
20
-0.485076
11
3.22584
21
-0.487032
0
LINE
8
BLACK
6
CONTINUOUS
10
3.22584
20
-0.487032
11
3.22613
21
-0.488015
0
LINE
8
BLACK
6
CONTINUOUS
10
3.22613
20
-0.488015
11
3.22609
21
-0.488187
0
LINE
8
BLACK
6
CONTINUOUS
10
3.22609
20
-0.488187
11
3.22615
21
-0.488353
0
LINE
8
BLACK
6
CONTINUOUS
10
3.22615
20
-0.488353
11
3.22615
21
-0.493977
0
LINE
8
BLACK
6
CONTINUOUS
10
3.22615
20
-0.493977
11
3.22597
21
-0.494987
0
LINE
8
BLACK
6
CONTINUOUS
10
3.22597
20
-0.494987
11
3.22586
21
-0.495122
0
LINE
8
BLACK
6
CONTINUOUS
10
3.22586
20
-0.495122
11
3.22584
21
-0.495298
0
LINE
8
BLACK
6
CONTINUOUS
10
3.22584
20
-0.495298
11
3.22397
21
-0.499047
0
LINE
8
BLACK
6
CONTINUOUS
10
3.22397
20
-0.499047
11
3.22354
21
-0.499617
0
LINE
8
BLACK
6
CONTINUOUS
10
3.22354
20
-0.499617
11
3.22365
21
-0.499852
0
LINE
8
BLACK
6
CONTINUOUS
10
3.22365
20
-0.499852
11
3.22397
21
-0.500156
0
LINE
8
BLACK
6
CONTINUOUS
10
3.22397
20
-0.500156
11
3.22584
21
-0.503905
0
LINE
8
BLACK
6
CONTINUOUS
10
3.22584
20
-0.503905
11
3.22613
21
-0.504888
0
LINE
8
BLACK
6
CONTINUOUS
10
3.22613
20
-0.504888
11
3.22609
21
-0.50506
0
LINE
8
BLACK
6
CONTINUOUS
10
3.22609
20
-0.50506
11
3.22615
21
-0.505226
0
LINE
8
BLACK
6
CONTINUOUS
10
3.22615
20
-0.505226
11
3.22615
21
-0.51085
0
LINE
8
BLACK
6
CONTINUOUS
10
3.22615
20
-0.51085
11
3.22597
21
-0.51186
0
LINE
8
BLACK
6
CONTINUOUS
10
3.22597
20
-0.51186
11
3.22586
21
-0.511995
0
LINE
8
BLACK
6
CONTINUOUS
10
3.22586
20
-0.511995
11
3.22584
21
-0.512171
0
LINE
8
BLACK
6
CONTINUOUS
10
3.22584
20
-0.512171
11
3.22397
21
-0.51592
0
LINE
8
BLACK
6
CONTINUOUS
10
3.22397
20
-0.51592
11
3.22336
21
-0.516744
0
LINE
8
BLACK
6
CONTINUOUS
10
3.22336
20
-0.516744
11
3.22295
21
-0.51692
0
LINE
8
BLACK
6
CONTINUOUS
10
3.22295
20
-0.51692
11
3.22265
21
-0.517241
0
LINE
8
BLACK
6
CONTINUOUS
10
3.22265
20
-0.517241
11
3.2189
21
-0.519116
0
LINE
8
BLACK
6
CONTINUOUS
10
3.2189
20
-0.519116
11
3.21791
21
-0.519408
0
LINE
8
BLACK
6
CONTINUOUS
10
3.21791
20
-0.519408
11
3.21774
21
-0.519367
0
LINE
8
BLACK
6
CONTINUOUS
10
3.21774
20
-0.519367
11
3.21758
21
-0.519427
0
LINE
8
BLACK
6
CONTINUOUS
10
3.21758
20
-0.519427
11
3.19695
21
-0.519427
0
LINE
8
BLACK
6
CONTINUOUS
10
3.19695
20
-0.519427
11
3.19594
21
-0.519249
0
LINE
8
BLACK
6
CONTINUOUS
10
3.19594
20
-0.519249
11
3.1944
21
-0.517951
0
LINE
8
BLACK
6
CONTINUOUS
10
3.1944
20
-0.517951
11
3.19405
21
-0.515962
0
LINE
8
BLACK
6
CONTINUOUS
10
3.19405
20
-0.515962
11
3.19506
21
-0.514213
0
LINE
8
BLACK
6
CONTINUOUS
10
3.19506
20
-0.514213
11
3.19695
21
-0.513522
0
LINE
8
BLACK
6
CONTINUOUS
10
3.19695
20
-0.513522
11
3.21688
21
-0.513522
0
LINE
8
BLACK
6
CONTINUOUS
10
3.21688
20
-0.513522
11
3.21912
21
-0.512399
0
LINE
8
BLACK
6
CONTINUOUS
10
3.21912
20
-0.512399
11
3.22025
21
-0.510153
0
LINE
8
BLACK
6
CONTINUOUS
10
3.22025
20
-0.510153
11
3.22025
21
-0.505923
0
LINE
8
BLACK
6
CONTINUOUS
10
3.22025
20
-0.505923
11
3.21912
21
-0.503677
0
LINE
8
BLACK
6
CONTINUOUS
10
3.21912
20
-0.503677
11
3.21688
21
-0.502554
0
LINE
8
BLACK
6
CONTINUOUS
10
3.21688
20
-0.502554
11
3.19695
21
-0.502554
0
LINE
8
BLACK
6
CONTINUOUS
10
3.19695
20
-0.502554
11
3.19594
21
-0.502376
0
LINE
8
BLACK
6
CONTINUOUS
10
3.19594
20
-0.502376
11
3.1944
21
-0.501078
0
LINE
8
BLACK
6
CONTINUOUS
10
3.1944
20
-0.501078
11
3.19405
21
-0.499089
0
LINE
8
BLACK
6
CONTINUOUS
10
3.19405
20
-0.499089
11
3.19506
21
-0.49734
0
LINE
8
BLACK
6
CONTINUOUS
10
3.19506
20
-0.49734
11
3.19695
21
-0.496649
0
LINE
8
BLACK
6
CONTINUOUS
10
3.19695
20
-0.496649
11
3.21688
21
-0.496649
0
LINE
8
BLACK
6
CONTINUOUS
10
3.21688
20
-0.496649
11
3.21912
21
-0.495526
0
LINE
8
BLACK
6
CONTINUOUS
10
3.21912
20
-0.495526
11
3.22025
21
-0.49328
0
LINE
8
BLACK
6
CONTINUOUS
10
3.22025
20
-0.49328
11
3.22025
21
-0.48905
0
LINE
8
BLACK
6
CONTINUOUS
10
3.22025
20
-0.48905
11
3.2189
21
-0.486353
0
LINE
8
BLACK
6
CONTINUOUS
10
3.2189
20
-0.486353
11
3.21823
21
-0.485681
0
LINE
8
BLACK
6
CONTINUOUS
10
3.21823
20
-0.485681
11
3.19695
21
-0.485681
0
LINE
8
BLACK
6
CONTINUOUS
10
3.19695
20
-0.485681
11
3.19594
21
-0.485503
0
LINE
8
BLACK
6
CONTINUOUS
10
3.19594
20
-0.485503
11
3.1944
21
-0.484205
0
LINE
8
BLACK
6
CONTINUOUS
10
3.1944
20
-0.484205
11
3.19405
21
-0.482216
0
LINE
8
BLACK
6
CONTINUOUS
10
3.19405
20
-0.482216
11
3.19506
21
-0.480467
0
LINE
8
BLACK
6
CONTINUOUS
10
3.19506
20
-0.480467
11
3.19695
21
-0.479776
0
LINE
8
BLACK
6
CONTINUOUS
10
3.19695
20
-0.479776
11
3.2232
21
-0.479776
0
LINE
8
BLACK
6
CONTINUOUS
10
3.2232
20
-0.479776
11
3.22421
21
-0.479954
0
LINE
8
BLACK
6
CONTINUOUS
10
3.22421
20
-0.427461
11
3.22576
21
-0.428759
0
LINE
8
BLACK
6
CONTINUOUS
10
3.22576
20
-0.428759
11
3.22611
21
-0.430748
0
LINE
8
BLACK
6
CONTINUOUS
10
3.22611
20
-0.430748
11
3.2251
21
-0.432497
0
LINE
8
BLACK
6
CONTINUOUS
10
3.2251
20
-0.432497
11
3.22486
21
-0.432583
0
LINE
8
BLACK
6
CONTINUOUS
10
3.22486
20
-0.432583
11
3.22584
21
-0.434539
0
LINE
8
BLACK
6
CONTINUOUS
10
3.22584
20
-0.434539
11
3.22613
21
-0.435522
0
LINE
8
BLACK
6
CONTINUOUS
10
3.22613
20
-0.435522
11
3.22609
21
-0.435694
0
LINE
8
BLACK
6
CONTINUOUS
10
3.22609
20
-0.435694
11
3.22615
21
-0.43586
0
LINE
8
BLACK
6
CONTINUOUS
10
3.22615
20
-0.43586
11
3.22615
21
-0.441484
0
LINE
8
BLACK
6
CONTINUOUS
10
3.22615
20
-0.441484
11
3.22597
21
-0.442494
0
LINE
8
BLACK
6
CONTINUOUS
10
3.22597
20
-0.442494
11
3.22586
21
-0.442629
0
LINE
8
BLACK
6
CONTINUOUS
10
3.22586
20
-0.442629
11
3.22584
21
-0.442804
0
LINE
8
BLACK
6
CONTINUOUS
10
3.22584
20
-0.442804
11
3.22397
21
-0.446554
0
LINE
8
BLACK
6
CONTINUOUS
10
3.22397
20
-0.446554
11
3.22354
21
-0.447124
0
LINE
8
BLACK
6
CONTINUOUS
10
3.22354
20
-0.447124
11
3.22365
21
-0.447358
0
LINE
8
BLACK
6
CONTINUOUS
10
3.22365
20
-0.447358
11
3.22397
21
-0.447662
0
LINE
8
BLACK
6
CONTINUOUS
10
3.22397
20
-0.447662
11
3.22584
21
-0.451412
0
LINE
8
BLACK
6
CONTINUOUS
10
3.22584
20
-0.451412
11
3.22613
21
-0.452395
0
LINE
8
BLACK
6
CONTINUOUS
10
3.22613
20
-0.452395
11
3.22609
21
-0.452567
0
LINE
8
BLACK
6
CONTINUOUS
10
3.22609
20
-0.452567
11
3.22615
21
-0.452732
0
LINE
8
BLACK
6
CONTINUOUS
10
3.22615
20
-0.452732
11
3.22615
21
-0.458357
0
LINE
8
BLACK
6
CONTINUOUS
10
3.22615
20
-0.458357
11
3.22597
21
-0.459367
0
LINE
8
BLACK
6
CONTINUOUS
10
3.22597
20
-0.459367
11
3.22586
21
-0.459502
0
LINE
8
BLACK
6
CONTINUOUS
10
3.22586
20
-0.459502
11
3.22584
21
-0.459677
0
LINE
8
BLACK
6
CONTINUOUS
10
3.22584
20
-0.459677
11
3.22397
21
-0.463427
0
LINE
8
BLACK
6
CONTINUOUS
10
3.22397
20
-0.463427
11
3.22336
21
-0.46425
0
LINE
8
BLACK
6
CONTINUOUS
10
3.22336
20
-0.46425
11
3.22295
21
-0.464426
0
LINE
8
BLACK
6
CONTINUOUS
10
3.22295
20
-0.464426
11
3.22265
21
-0.464747
0
LINE
8
BLACK
6
CONTINUOUS
10
3.22265
20
-0.464747
11
3.2189
21
-0.466622
0
LINE
8
BLACK
6
CONTINUOUS
10
3.2189
20
-0.466622
11
3.21791
21
-0.466914
0
LINE
8
BLACK
6
CONTINUOUS
10
3.21791
20
-0.466914
11
3.21774
21
-0.466873
0
LINE
8
BLACK
6
CONTINUOUS
10
3.21774
20
-0.466873
11
3.21758
21
-0.466934
0
LINE
8
BLACK
6
CONTINUOUS
10
3.21758
20
-0.466934
11
3.19695
21
-0.466934
0
LINE
8
BLACK
6
CONTINUOUS
10
3.19695
20
-0.466934
11
3.19594
21
-0.466756
0
LINE
8
BLACK
6
CONTINUOUS
10
3.19594
20
-0.466756
11
3.1944
21
-0.465457
0
LINE
8
BLACK
6
CONTINUOUS
10
3.1944
20
-0.465457
11
3.19405
21
-0.463468
0
LINE
8
BLACK
6
CONTINUOUS
10
3.19405
20
-0.463468
11
3.19506
21
-0.461719
0
LINE
8
BLACK
6
CONTINUOUS
10
3.19506
20
-0.461719
11
3.19695
21
-0.461028
0
LINE
8
BLACK
6
CONTINUOUS
10
3.19695
20
-0.461028
11
3.21688
21
-0.461028
0
LINE
8
BLACK
6
CONTINUOUS
10
3.21688
20
-0.461028
11
3.21912
21
-0.459905
0
LINE
8
BLACK
6
CONTINUOUS
10
3.21912
20
-0.459905
11
3.22025
21
-0.45766
0
LINE
8
BLACK
6
CONTINUOUS
10
3.22025
20
-0.45766
11
3.22025
21
-0.453429
0
LINE
8
BLACK
6
CONTINUOUS
10
3.22025
20
-0.453429
11
3.21912
21
-0.451184
0
LINE
8
BLACK
6
CONTINUOUS
10
3.21912
20
-0.451184
11
3.21688
21
-0.450061
0
LINE
8
BLACK
6
CONTINUOUS
10
3.21688
20
-0.450061
11
3.19695
21
-0.450061
0
LINE
8
BLACK
6
CONTINUOUS
10
3.19695
20
-0.450061
11
3.19594
21
-0.449883
0
LINE
8
BLACK
6
CONTINUOUS
10
3.19594
20
-0.449883
11
3.1944
21
-0.448585
0
LINE
8
BLACK
6
CONTINUOUS
10
3.1944
20
-0.448585
11
3.19405
21
-0.446595
0
LINE
8
BLACK
6
CONTINUOUS
10
3.19405
20
-0.446595
11
3.19506
21
-0.444846
0
LINE
8
BLACK
6
CONTINUOUS
10
3.19506
20
-0.444846
11
3.19695
21
-0.444155
0
LINE
8
BLACK
6
CONTINUOUS
10
3.19695
20
-0.444155
11
3.21688
21
-0.444155
0
LINE
8
BLACK
6
CONTINUOUS
10
3.21688
20
-0.444155
11
3.21912
21
-0.443033
0
LINE
8
BLACK
6
CONTINUOUS
10
3.21912
20
-0.443033
11
3.22025
21
-0.440787
0
LINE
8
BLACK
6
CONTINUOUS
10
3.22025
20
-0.440787
11
3.22025
21
-0.436557
0
LINE
8
BLACK
6
CONTINUOUS
10
3.22025
20
-0.436557
11
3.2189
21
-0.433859
0
LINE
8
BLACK
6
CONTINUOUS
10
3.2189
20
-0.433859
11
3.21823
21
-0.433188
0
LINE
8
BLACK
6
CONTINUOUS
10
3.21823
20
-0.433188
11
3.19695
21
-0.433188
0
LINE
8
BLACK
6
CONTINUOUS
10
3.19695
20
-0.433188
11
3.19594
21
-0.43301
0
LINE
8
BLACK
6
CONTINUOUS
10
3.19594
20
-0.43301
11
3.1944
21
-0.431712
0
LINE
8
BLACK
6
CONTINUOUS
10
3.1944
20
-0.431712
11
3.19405
21
-0.429723
0
LINE
8
BLACK
6
CONTINUOUS
10
3.19405
20
-0.429723
11
3.19506
21
-0.427973
0
LINE
8
BLACK
6
CONTINUOUS
10
3.19506
20
-0.427973
11
3.19695
21
-0.427283
0
LINE
8
BLACK
6
CONTINUOUS
10
3.19695
20
-0.427283
11
3.2232
21
-0.427283
0
LINE
8
BLACK
6
CONTINUOUS
10
3.2232
20
-0.427283
11
3.22421
21
-0.427461
0
LINE
8
BLACK
6
CONTINUOUS
10
3.21296
20
-0.388091
11
3.2131
21
-0.388204
0
LINE
8
BLACK
6
CONTINUOUS
10
3.2131
20
-0.388204
11
3.21327
21
-0.388224
0
LINE
8
BLACK
6
CONTINUOUS
10
3.21327
20
-0.388224
11
3.21702
21
-0.390099
0
LINE
8
BLACK
6
CONTINUOUS
10
3.21702
20
-0.390099
11
3.21773
21
-0.390625
0
LINE
8
BLACK
6
CONTINUOUS
10
3.21773
20
-0.390625
11
3.21779
21
-0.390652
0
LINE
8
BLACK
6
CONTINUOUS
10
3.21779
20
-0.390652
11
3.21945
21
-0.392314
0
LINE
8
BLACK
6
CONTINUOUS
10
3.21945
20
-0.392314
11
3.22111
21
-0.390652
0
LINE
8
BLACK
6
CONTINUOUS
10
3.22111
20
-0.390652
11
3.22184
21
-0.390146
0
LINE
8
BLACK
6
CONTINUOUS
10
3.22184
20
-0.390146
11
3.22188
21
-0.390099
0
LINE
8
BLACK
6
CONTINUOUS
10
3.22188
20
-0.390099
11
3.22563
21
-0.388224
0
LINE
8
BLACK
6
CONTINUOUS
10
3.22563
20
-0.388224
11
3.22661
21
-0.387932
0
LINE
8
BLACK
6
CONTINUOUS
10
3.22661
20
-0.387932
11
3.22678
21
-0.387973
0
LINE
8
BLACK
6
CONTINUOUS
10
3.22678
20
-0.387973
11
3.22695
21
-0.387912
0
LINE
8
BLACK
6
CONTINUOUS
10
3.22695
20
-0.387912
11
3.22882
21
-0.387912
0
LINE
8
BLACK
6
CONTINUOUS
10
3.22882
20
-0.387912
11
3.22983
21
-0.388091
0
LINE
8
BLACK
6
CONTINUOUS
10
3.22983
20
-0.388091
11
3.22997
21
-0.388204
0
LINE
8
BLACK
6
CONTINUOUS
10
3.22997
20
-0.388204
11
3.23014
21
-0.388224
0
LINE
8
BLACK
6
CONTINUOUS
10
3.23014
20
-0.388224
11
3.23389
21
-0.390099
0
LINE
8
BLACK
6
CONTINUOUS
10
3.23389
20
-0.390099
11
3.2346
21
-0.390625
0
LINE
8
BLACK
6
CONTINUOUS
10
3.2346
20
-0.390625
11
3.23466
21
-0.390652
0
LINE
8
BLACK
6
CONTINUOUS
10
3.23466
20
-0.390652
11
3.23654
21
-0.392527
0
LINE
8
BLACK
6
CONTINUOUS
10
3.23654
20
-0.392527
11
3.23704
21
-0.39325
0
LINE
8
BLACK
6
CONTINUOUS
10
3.23704
20
-0.39325
11
3.23709
21
-0.393294
0
LINE
8
BLACK
6
CONTINUOUS
10
3.23709
20
-0.393294
11
3.23896
21
-0.397044
0
LINE
8
BLACK
6
CONTINUOUS
10
3.23896
20
-0.397044
11
3.23926
21
-0.398027
0
LINE
8
BLACK
6
CONTINUOUS
10
3.23926
20
-0.398027
11
3.23922
21
-0.398198
0
LINE
8
BLACK
6
CONTINUOUS
10
3.23922
20
-0.398198
11
3.23928
21
-0.398364
0
LINE
8
BLACK
6
CONTINUOUS
10
3.23928
20
-0.398364
11
3.23928
21
-0.405863
0
LINE
8
BLACK
6
CONTINUOUS
10
3.23928
20
-0.405863
11
3.2391
21
-0.406873
0
LINE
8
BLACK
6
CONTINUOUS
10
3.2391
20
-0.406873
11
3.23898
21
-0.407008
0
LINE
8
BLACK
6
CONTINUOUS
10
3.23898
20
-0.407008
11
3.23896
21
-0.407184
0
LINE
8
BLACK
6
CONTINUOUS
10
3.23896
20
-0.407184
11
3.23709
21
-0.410933
0
LINE
8
BLACK
6
CONTINUOUS
10
3.23709
20
-0.410933
11
3.23656
21
-0.411642
0
LINE
8
BLACK
6
CONTINUOUS
10
3.23656
20
-0.411642
11
3.23654
21
-0.411701
0
LINE
8
BLACK
6
CONTINUOUS
10
3.23654
20
-0.411701
11
3.23466
21
-0.413576
0
LINE
8
BLACK
6
CONTINUOUS
10
3.23466
20
-0.413576
11
3.23394
21
-0.414082
0
LINE
8
BLACK
6
CONTINUOUS
10
3.23394
20
-0.414082
11
3.23389
21
-0.414129
0
LINE
8
BLACK
6
CONTINUOUS
10
3.23389
20
-0.414129
11
3.23014
21
-0.416003
0
LINE
8
BLACK
6
CONTINUOUS
10
3.23014
20
-0.416003
11
3.22916
21
-0.416296
0
LINE
8
BLACK
6
CONTINUOUS
10
3.22916
20
-0.416296
11
3.22899
21
-0.416255
0
LINE
8
BLACK
6
CONTINUOUS
10
3.22899
20
-0.416255
11
3.22882
21
-0.416315
0
LINE
8
BLACK
6
CONTINUOUS
10
3.22882
20
-0.416315
11
3.22695
21
-0.416315
0
LINE
8
BLACK
6
CONTINUOUS
10
3.22695
20
-0.416315
11
3.22594
21
-0.416137
0
LINE
8
BLACK
6
CONTINUOUS
10
3.22594
20
-0.416137
11
3.2258
21
-0.416024
0
LINE
8
BLACK
6
CONTINUOUS
10
3.2258
20
-0.416024
11
3.22563
21
-0.416003
0
LINE
8
BLACK
6
CONTINUOUS
10
3.22563
20
-0.416003
11
3.22188
21
-0.414129
0
LINE
8
BLACK
6
CONTINUOUS
10
3.22188
20
-0.414129
11
3.22117
21
-0.413603
0
LINE
8
BLACK
6
CONTINUOUS
10
3.22117
20
-0.413603
11
3.22111
21
-0.413576
0
LINE
8
BLACK
6
CONTINUOUS
10
3.22111
20
-0.413576
11
3.21945
21
-0.411914
0
LINE
8
BLACK
6
CONTINUOUS
10
3.21945
20
-0.411914
11
3.21779
21
-0.413576
0
LINE
8
BLACK
6
CONTINUOUS
10
3.21779
20
-0.413576
11
3.21707
21
-0.414082
0
LINE
8
BLACK
6
CONTINUOUS
10
3.21707
20
-0.414082
11
3.21702
21
-0.414129
0
LINE
8
BLACK
6
CONTINUOUS
10
3.21702
20
-0.414129
11
3.21327
21
-0.416003
0
LINE
8
BLACK
6
CONTINUOUS
10
3.21327
20
-0.416003
11
3.21229
21
-0.416296
0
LINE
8
BLACK
6
CONTINUOUS
10
3.21229
20
-0.416296
11
3.21212
21
-0.416255
0
LINE
8
BLACK
6
CONTINUOUS
10
3.21212
20
-0.416255
11
3.21195
21
-0.416315
0
LINE
8
BLACK
6
CONTINUOUS
10
3.21195
20
-0.416315
11
3.20445
21
-0.416315
0
LINE
8
BLACK
6
CONTINUOUS
10
3.20445
20
-0.416315
11
3.20344
21
-0.416137
0
LINE
8
BLACK
6
CONTINUOUS
10
3.20344
20
-0.416137
11
3.20331
21
-0.416024
0
LINE
8
BLACK
6
CONTINUOUS
10
3.20331
20
-0.416024
11
3.20313
21
-0.416003
0
LINE
8
BLACK
6
CONTINUOUS
10
3.20313
20
-0.416003
11
3.19938
21
-0.414129
0
LINE
8
BLACK
6
CONTINUOUS
10
3.19938
20
-0.414129
11
3.19867
21
-0.413603
0
LINE
8
BLACK
6
CONTINUOUS
10
3.19867
20
-0.413603
11
3.19862
21
-0.413576
0
LINE
8
BLACK
6
CONTINUOUS
10
3.19862
20
-0.413576
11
3.19674
21
-0.411701
0
LINE
8
BLACK
6
CONTINUOUS
10
3.19674
20
-0.411701
11
3.19623
21
-0.410978
0
LINE
8
BLACK
6
CONTINUOUS
10
3.19623
20
-0.410978
11
3.19619
21
-0.410933
0
LINE
8
BLACK
6
CONTINUOUS
10
3.19619
20
-0.410933
11
3.19431
21
-0.407184
0
LINE
8
BLACK
6
CONTINUOUS
10
3.19431
20
-0.407184
11
3.19402
21
-0.406201
0
LINE
8
BLACK
6
CONTINUOUS
10
3.19402
20
-0.406201
11
3.19406
21
-0.406029
0
LINE
8
BLACK
6
CONTINUOUS
10
3.19406
20
-0.406029
11
3.194
21
-0.405863
0
LINE
8
BLACK
6
CONTINUOUS
10
3.194
20
-0.405863
11
3.194
21
-0.398364
0
LINE
8
BLACK
6
CONTINUOUS
10
3.194
20
-0.398364
11
3.19418
21
-0.397354
0
LINE
8
BLACK
6
CONTINUOUS
10
3.19418
20
-0.397354
11
3.19429
21
-0.397219
0
LINE
8
BLACK
6
CONTINUOUS
10
3.19429
20
-0.397219
11
3.19431
21
-0.397044
0
LINE
8
BLACK
6
CONTINUOUS
10
3.19431
20
-0.397044
11
3.19619
21
-0.393294
0
LINE
8
BLACK
6
CONTINUOUS
10
3.19619
20
-0.393294
11
3.19671
21
-0.392585
0
LINE
8
BLACK
6
CONTINUOUS
10
3.19671
20
-0.392585
11
3.19674
21
-0.392527
0
LINE
8
BLACK
6
CONTINUOUS
10
3.19674
20
-0.392527
11
3.19862
21
-0.390652
0
LINE
8
BLACK
6
CONTINUOUS
10
3.19862
20
-0.390652
11
3.19934
21
-0.390146
0
LINE
8
BLACK
6
CONTINUOUS
10
3.19934
20
-0.390146
11
3.19938
21
-0.390099
0
LINE
8
BLACK
6
CONTINUOUS
10
3.19938
20
-0.390099
11
3.20313
21
-0.388224
0
LINE
8
BLACK
6
CONTINUOUS
10
3.20313
20
-0.388224
11
3.20411
21
-0.387932
0
LINE
8
BLACK
6
CONTINUOUS
10
3.20411
20
-0.387932
11
3.20429
21
-0.387973
0
LINE
8
BLACK
6
CONTINUOUS
10
3.20429
20
-0.387973
11
3.20445
21
-0.387912
0
LINE
8
BLACK
6
CONTINUOUS
10
3.20445
20
-0.387912
11
3.21195
21
-0.387912
0
LINE
8
BLACK
6
CONTINUOUS
10
3.21195
20
-0.387912
11
3.21296
21
-0.388091
0
LINE
8
BLACK
6
CONTINUOUS
10
3.22765
20
-0.393818
11
3.22495
21
-0.395167
0
LINE
8
BLACK
6
CONTINUOUS
10
3.22495
20
-0.395167
11
3.22375
21
-0.396364
0
LINE
8
BLACK
6
CONTINUOUS
10
3.22375
20
-0.396364
11
3.2224
21
-0.399061
0
LINE
8
BLACK
6
CONTINUOUS
10
3.2224
20
-0.399061
11
3.2224
21
-0.405166
0
LINE
8
BLACK
6
CONTINUOUS
10
3.2224
20
-0.405166
11
3.22375
21
-0.407864
0
LINE
8
BLACK
6
CONTINUOUS
10
3.22375
20
-0.407864
11
3.22495
21
-0.409061
0
LINE
8
BLACK
6
CONTINUOUS
10
3.22495
20
-0.409061
11
3.22765
21
-0.41041
0
LINE
8
BLACK
6
CONTINUOUS
10
3.22765
20
-0.41041
11
3.22813
21
-0.41041
0
LINE
8
BLACK
6
CONTINUOUS
10
3.22813
20
-0.41041
11
3.23082
21
-0.409061
0
LINE
8
BLACK
6
CONTINUOUS
10
3.23082
20
-0.409061
11
3.23202
21
-0.407864
0
LINE
8
BLACK
6
CONTINUOUS
10
3.23202
20
-0.407864
11
3.23337
21
-0.405166
0
LINE
8
BLACK
6
CONTINUOUS
10
3.23337
20
-0.405166
11
3.23337
21
-0.399061
0
LINE
8
BLACK
6
CONTINUOUS
10
3.23337
20
-0.399061
11
3.23202
21
-0.396364
0
LINE
8
BLACK
6
CONTINUOUS
10
3.23202
20
-0.396364
11
3.23082
21
-0.395167
0
LINE
8
BLACK
6
CONTINUOUS
10
3.23082
20
-0.395167
11
3.22813
21
-0.393818
0
LINE
8
BLACK
6
CONTINUOUS
10
3.22813
20
-0.393818
11
3.22765
21
-0.393818
0
LINE
8
BLACK
6
CONTINUOUS
10
3.20515
20
-0.393818
11
3.20245
21
-0.395167
0
LINE
8
BLACK
6
CONTINUOUS
10
3.20245
20
-0.395167
11
3.20125
21
-0.396364
0
LINE
8
BLACK
6
CONTINUOUS
10
3.20125
20
-0.396364
11
3.19991
21
-0.399061
0
LINE
8
BLACK
6
CONTINUOUS
10
3.19991
20
-0.399061
11
3.19991
21
-0.405166
0
LINE
8
BLACK
6
CONTINUOUS
10
3.19991
20
-0.405166
11
3.20125
21
-0.407864
0
LINE
8
BLACK
6
CONTINUOUS
10
3.20125
20
-0.407864
11
3.20245
21
-0.409061
0
LINE
8
BLACK
6
CONTINUOUS
10
3.20245
20
-0.409061
11
3.20515
21
-0.41041
0
LINE
8
BLACK
6
CONTINUOUS
10
3.20515
20
-0.41041
11
3.21125
21
-0.41041
0
LINE
8
BLACK
6
CONTINUOUS
10
3.21125
20
-0.41041
11
3.21395
21
-0.409061
0
LINE
8
BLACK
6
CONTINUOUS
10
3.21395
20
-0.409061
11
3.21515
21
-0.407864
0
LINE
8
BLACK
6
CONTINUOUS
10
3.21515
20
-0.407864
11
3.2165
21
-0.405166
0
LINE
8
BLACK
6
CONTINUOUS
10
3.2165
20
-0.405166
11
3.2165
21
-0.399061
0
LINE
8
BLACK
6
CONTINUOUS
10
3.2165
20
-0.399061
11
3.21515
21
-0.396364
0
LINE
8
BLACK
6
CONTINUOUS
10
3.21515
20
-0.396364
11
3.21395
21
-0.395167
0
LINE
8
BLACK
6
CONTINUOUS
10
3.21395
20
-0.395167
11
3.21125
21
-0.393818
0
LINE
8
BLACK
6
CONTINUOUS
10
3.21125
20
-0.393818
11
3.20515
21
-0.393818
0
LINE
8
BLACK
6
CONTINUOUS
10
3.23859
20
-0.349597
11
3.23928
21
-0.351495
0
LINE
8
BLACK
6
CONTINUOUS
10
3.23928
20
-0.351495
11
3.23928
21
-0.375867
0
LINE
8
BLACK
6
CONTINUOUS
10
3.23928
20
-0.375867
11
3.2392
21
-0.376304
0
LINE
8
BLACK
6
CONTINUOUS
10
3.2392
20
-0.376304
11
3.23922
21
-0.37644
0
LINE
8
BLACK
6
CONTINUOUS
10
3.23922
20
-0.37644
11
3.23916
21
-0.376545
0
LINE
8
BLACK
6
CONTINUOUS
10
3.23916
20
-0.376545
11
3.2391
21
-0.376877
0
LINE
8
BLACK
6
CONTINUOUS
10
3.2391
20
-0.376877
11
3.23859
21
-0.377487
0
LINE
8
BLACK
6
CONTINUOUS
10
3.23859
20
-0.377487
11
3.23817
21
-0.378168
0
LINE
8
BLACK
6
CONTINUOUS
10
3.23817
20
-0.378168
11
3.23795
21
-0.378244
0
LINE
8
BLACK
6
CONTINUOUS
10
3.23795
20
-0.378244
11
3.2378
21
-0.378424
0
LINE
8
BLACK
6
CONTINUOUS
10
3.2378
20
-0.378424
11
3.23702
21
-0.378562
0
LINE
8
BLACK
6
CONTINUOUS
10
3.23702
20
-0.378562
11
3.23626
21
-0.378819
0
LINE
8
BLACK
6
CONTINUOUS
10
3.23626
20
-0.378819
11
3.23604
21
-0.378734
0
LINE
8
BLACK
6
CONTINUOUS
10
3.23604
20
-0.378734
11
3.23581
21
-0.378775
0
LINE
8
BLACK
6
CONTINUOUS
10
3.23581
20
-0.378775
11
3.23512
21
-0.378377
0
LINE
8
BLACK
6
CONTINUOUS
10
3.23512
20
-0.378377
11
3.23438
21
-0.378089
0
LINE
8
BLACK
6
CONTINUOUS
10
3.23438
20
-0.378089
11
3.22414
21
-0.369133
0
LINE
8
BLACK
6
CONTINUOUS
10
3.22414
20
-0.369133
11
3.2241
21
-0.369378
0
LINE
8
BLACK
6
CONTINUOUS
10
3.2241
20
-0.369378
11
3.22399
21
-0.369513
0
LINE
8
BLACK
6
CONTINUOUS
10
3.22399
20
-0.369513
11
3.22397
21
-0.369689
0
LINE
8
BLACK
6
CONTINUOUS
10
3.22397
20
-0.369689
11
3.22209
21
-0.373438
0
LINE
8
BLACK
6
CONTINUOUS
10
3.22209
20
-0.373438
11
3.22157
21
-0.374147
0
LINE
8
BLACK
6
CONTINUOUS
10
3.22157
20
-0.374147
11
3.22154
21
-0.374205
0
LINE
8
BLACK
6
CONTINUOUS
10
3.22154
20
-0.374205
11
3.21966
21
-0.37608
0
LINE
8
BLACK
6
CONTINUOUS
10
3.21966
20
-0.37608
11
3.21894
21
-0.376586
0
LINE
8
BLACK
6
CONTINUOUS
10
3.21894
20
-0.376586
11
3.2189
21
-0.376633
0
LINE
8
BLACK
6
CONTINUOUS
10
3.2189
20
-0.376633
11
3.21515
21
-0.378508
0
LINE
8
BLACK
6
CONTINUOUS
10
3.21515
20
-0.378508
11
3.21416
21
-0.3788
0
LINE
8
BLACK
6
CONTINUOUS
10
3.21416
20
-0.3788
11
3.21399
21
-0.378759
0
LINE
8
BLACK
6
CONTINUOUS
10
3.21399
20
-0.378759
11
3.21383
21
-0.37882
0
LINE
8
BLACK
6
CONTINUOUS
10
3.21383
20
-0.37882
11
3.20445
21
-0.37882
0
LINE
8
BLACK
6
CONTINUOUS
10
3.20445
20
-0.37882
11
3.20344
21
-0.378642
0
LINE
8
BLACK
6
CONTINUOUS
10
3.20344
20
-0.378642
11
3.20331
21
-0.378528
0
LINE
8
BLACK
6
CONTINUOUS
10
3.20331
20
-0.378528
11
3.20313
21
-0.378508
0
LINE
8
BLACK
6
CONTINUOUS
10
3.20313
20
-0.378508
11
3.19938
21
-0.376633
0
LINE
8
BLACK
6
CONTINUOUS
10
3.19938
20
-0.376633
11
3.19867
21
-0.376107
0
LINE
8
BLACK
6
CONTINUOUS
10
3.19867
20
-0.376107
11
3.19862
21
-0.37608
0
LINE
8
BLACK
6
CONTINUOUS
10
3.19862
20
-0.37608
11
3.19674
21
-0.374205
0
LINE
8
BLACK
6
CONTINUOUS
10
3.19674
20
-0.374205
11
3.19623
21
-0.373482
0
LINE
8
BLACK
6
CONTINUOUS
10
3.19623
20
-0.373482
11
3.19619
21
-0.373438
0
LINE
8
BLACK
6
CONTINUOUS
10
3.19619
20
-0.373438
11
3.19431
21
-0.369689
0
LINE
8
BLACK
6
CONTINUOUS
10
3.19431
20
-0.369689
11
3.19402
21
-0.368706
0
LINE
8
BLACK
6
CONTINUOUS
10
3.19402
20
-0.368706
11
3.19406
21
-0.368534
0
LINE
8
BLACK
6
CONTINUOUS
10
3.19406
20
-0.368534
11
3.194
21
-0.368368
0
LINE
8
BLACK
6
CONTINUOUS
10
3.194
20
-0.368368
11
3.194
21
-0.357119
0
LINE
8
BLACK
6
CONTINUOUS
10
3.194
20
-0.357119
11
3.19418
21
-0.356109
0
LINE
8
BLACK
6
CONTINUOUS
10
3.19418
20
-0.356109
11
3.19429
21
-0.355974
0
LINE
8
BLACK
6
CONTINUOUS
10
3.19429
20
-0.355974
11
3.19431
21
-0.355799
0
LINE
8
BLACK
6
CONTINUOUS
10
3.19431
20
-0.355799
11
3.19619
21
-0.352049
0
LINE
8
BLACK
6
CONTINUOUS
10
3.19619
20
-0.352049
11
3.19671
21
-0.35134
0
LINE
8
BLACK
6
CONTINUOUS
10
3.19671
20
-0.35134
11
3.19674
21
-0.351282
0
LINE
8
BLACK
6
CONTINUOUS
10
3.19674
20
-0.351282
11
3.19862
21
-0.349407
0
LINE
8
BLACK
6
CONTINUOUS
10
3.19862
20
-0.349407
11
3.19946
21
-0.348819
0
LINE
8
BLACK
6
CONTINUOUS
10
3.19946
20
-0.348819
11
3.20147
21
-0.348643
0
LINE
8
BLACK
6
CONTINUOUS
10
3.20147
20
-0.348643
11
3.20312
21
-0.349801
0
LINE
8
BLACK
6
CONTINUOUS
10
3.20312
20
-0.349801
11
3.20364
21
-0.351752
0
LINE
8
BLACK
6
CONTINUOUS
10
3.20364
20
-0.351752
11
3.20279
21
-0.353583
0
LINE
8
BLACK
6
CONTINUOUS
10
3.20279
20
-0.353583
11
3.20125
21
-0.355119
0
LINE
8
BLACK
6
CONTINUOUS
10
3.20125
20
-0.355119
11
3.19991
21
-0.357816
0
LINE
8
BLACK
6
CONTINUOUS
10
3.19991
20
-0.357816
11
3.19991
21
-0.367671
0
LINE
8
BLACK
6
CONTINUOUS
10
3.19991
20
-0.367671
11
3.20125
21
-0.370368
0
LINE
8
BLACK
6
CONTINUOUS
10
3.20125
20
-0.370368
11
3.20245
21
-0.371566
0
LINE
8
BLACK
6
CONTINUOUS
10
3.20245
20
-0.371566
11
3.20515
21
-0.372914
0
LINE
8
BLACK
6
CONTINUOUS
10
3.20515
20
-0.372914
11
3.21313
21
-0.372914
0
LINE
8
BLACK
6
CONTINUOUS
10
3.21313
20
-0.372914
11
3.21583
21
-0.371566
0
LINE
8
BLACK
6
CONTINUOUS
10
3.21583
20
-0.371566
11
3.21702
21
-0.370368
0
LINE
8
BLACK
6
CONTINUOUS
10
3.21702
20
-0.370368
11
3.21837
21
-0.367671
0
LINE
8
BLACK
6
CONTINUOUS
10
3.21837
20
-0.367671
11
3.21837
21
-0.362744
0
LINE
8
BLACK
6
CONTINUOUS
10
3.21837
20
-0.362744
11
3.21845
21
-0.362306
0
LINE
8
BLACK
6
CONTINUOUS
10
3.21845
20
-0.362306
11
3.21843
21
-0.362171
0
LINE
8
BLACK
6
CONTINUOUS
10
3.21843
20
-0.362171
11
3.21849
21
-0.362066
0
LINE
8
BLACK
6
CONTINUOUS
10
3.21849
20
-0.362066
11
3.21855
21
-0.361734
0
LINE
8
BLACK
6
CONTINUOUS
10
3.21855
20
-0.361734
11
3.21906
21
-0.361124
0
LINE
8
BLACK
6
CONTINUOUS
10
3.21906
20
-0.361124
11
3.21947
21
-0.360443
0
LINE
8
BLACK
6
CONTINUOUS
10
3.21947
20
-0.360443
11
3.2197
21
-0.360367
0
LINE
8
BLACK
6
CONTINUOUS
10
3.2197
20
-0.360367
11
3.21985
21
-0.360187
0
LINE
8
BLACK
6
CONTINUOUS
10
3.21985
20
-0.360187
11
3.22063
21
-0.360048
0
LINE
8
BLACK
6
CONTINUOUS
10
3.22063
20
-0.360048
11
3.22139
21
-0.359792
0
LINE
8
BLACK
6
CONTINUOUS
10
3.22139
20
-0.359792
11
3.22161
21
-0.359877
0
LINE
8
BLACK
6
CONTINUOUS
10
3.22161
20
-0.359877
11
3.22184
21
-0.359836
0
LINE
8
BLACK
6
CONTINUOUS
10
3.22184
20
-0.359836
11
3.22253
21
-0.360234
0
LINE
8
BLACK
6
CONTINUOUS
10
3.22253
20
-0.360234
11
3.22327
21
-0.360522
0
LINE
8
BLACK
6
CONTINUOUS
10
3.22327
20
-0.360522
11
3.23337
21
-0.36936
0
LINE
8
BLACK
6
CONTINUOUS
10
3.23337
20
-0.36936
11
3.23337
21
-0.351495
0
LINE
8
BLACK
6
CONTINUOUS
10
3.23337
20
-0.351495
11
3.23355
21
-0.350485
0
LINE
8
BLACK
6
CONTINUOUS
10
3.23355
20
-0.350485
11
3.23485
21
-0.348938
0
LINE
8
BLACK
6
CONTINUOUS
10
3.23485
20
-0.348938
11
3.23684
21
-0.348587
0
LINE
8
BLACK
6
CONTINUOUS
10
3.23684
20
-0.348587
11
3.23859
21
-0.349597
0
LINE
8
BLACK
6
CONTINUOUS
10
3.19933
20
-0.331793
11
3.19959
21
-0.33177
0
LINE
8
BLACK
6
CONTINUOUS
10
3.19959
20
-0.33177
11
3.20022
21
-0.33221
0
LINE
8
BLACK
6
CONTINUOUS
10
3.20022
20
-0.33221
11
3.20092
21
-0.332534
0
LINE
8
BLACK
6
CONTINUOUS
10
3.20092
20
-0.332534
11
3.20279
21
-0.334409
0
LINE
8
BLACK
6
CONTINUOUS
10
3.20279
20
-0.334409
11
3.20301
21
-0.334728
0
LINE
8
BLACK
6
CONTINUOUS
10
3.20301
20
-0.334728
11
3.20312
21
-0.334803
0
LINE
8
BLACK
6
CONTINUOUS
10
3.20312
20
-0.334803
11
3.20316
21
-0.33493
0
LINE
8
BLACK
6
CONTINUOUS
10
3.20316
20
-0.33493
11
3.20316
21
-0.334937
0
LINE
8
BLACK
6
CONTINUOUS
10
3.20316
20
-0.334937
11
3.20326
21
-0.335021
0
LINE
8
BLACK
6
CONTINUOUS
10
3.20326
20
-0.335021
11
3.20327
21
-0.335099
0
LINE
8
BLACK
6
CONTINUOUS
10
3.20327
20
-0.335099
11
3.20338
21
-0.335249
0
LINE
8
BLACK
6
CONTINUOUS
10
3.20338
20
-0.335249
11
3.20345
21
-0.336013
0
LINE
8
BLACK
6
CONTINUOUS
10
3.20345
20
-0.336013
11
3.20364
21
-0.336754
0
LINE
8
BLACK
6
CONTINUOUS
10
3.20364
20
-0.336754
11
3.20359
21
-0.336877
0
LINE
8
BLACK
6
CONTINUOUS
10
3.20359
20
-0.336877
11
3.20361
21
-0.33701
0
LINE
8
BLACK
6
CONTINUOUS
10
3.20361
20
-0.33701
11
3.20354
21
-0.337127
0
LINE
8
BLACK
6
CONTINUOUS
10
3.20354
20
-0.337127
11
3.20356
21
-0.337261
0
LINE
8
BLACK
6
CONTINUOUS
10
3.20356
20
-0.337261
11
3.20312
21
-0.33789
0
LINE
8
BLACK
6
CONTINUOUS
10
3.20312
20
-0.33789
11
3.20279
21
-0.338585
0
LINE
8
BLACK
6
CONTINUOUS
10
3.20279
20
-0.338585
11
3.20092
21
-0.34046
0
LINE
8
BLACK
6
CONTINUOUS
10
3.20092
20
-0.34046
11
3.2006
21
-0.340683
0
LINE
8
BLACK
6
CONTINUOUS
10
3.2006
20
-0.340683
11
3.20052
21
-0.340791
0
LINE
8
BLACK
6
CONTINUOUS
10
3.20052
20
-0.340791
11
3.2004
21
-0.340824
0
LINE
8
BLACK
6
CONTINUOUS
10
3.2004
20
-0.340824
11
3.20008
21
-0.341048
0
LINE
8
BLACK
6
CONTINUOUS
10
3.20008
20
-0.341048
11
3.19931
21
-0.341115
0
LINE
8
BLACK
6
CONTINUOUS
10
3.19931
20
-0.341115
11
3.19857
21
-0.341313
0
LINE
8
BLACK
6
CONTINUOUS
10
3.19857
20
-0.341313
11
3.19833
21
-0.341201
0
LINE
8
BLACK
6
CONTINUOUS
10
3.19833
20
-0.341201
11
3.19806
21
-0.341224
0
LINE
8
BLACK
6
CONTINUOUS
10
3.19806
20
-0.341224
11
3.19744
21
-0.340784
0
LINE
8
BLACK
6
CONTINUOUS
10
3.19744
20
-0.340784
11
3.19674
21
-0.34046
0
LINE
8
BLACK
6
CONTINUOUS
10
3.19674
20
-0.34046
11
3.19487
21
-0.338585
0
LINE
8
BLACK
6
CONTINUOUS
10
3.19487
20
-0.338585
11
3.19464
21
-0.338266
0
LINE
8
BLACK
6
CONTINUOUS
10
3.19464
20
-0.338266
11
3.19453
21
-0.338191
0
LINE
8
BLACK
6
CONTINUOUS
10
3.19453
20
-0.338191
11
3.1945
21
-0.338064
0
LINE
8
BLACK
6
CONTINUOUS
10
3.1945
20
-0.338064
11
3.1945
21
-0.338057
0
LINE
8
BLACK
6
CONTINUOUS
10
3.1945
20
-0.338057
11
3.1944
21
-0.337973
0
LINE
8
BLACK
6
CONTINUOUS
10
3.1944
20
-0.337973
11
3.19438
21
-0.337895
0
LINE
8
BLACK
6
CONTINUOUS
10
3.19438
20
-0.337895
11
3.19428
21
-0.337745
0
LINE
8
BLACK
6
CONTINUOUS
10
3.19428
20
-0.337745
11
3.19421
21
-0.336981
0
LINE
8
BLACK
6
CONTINUOUS
10
3.19421
20
-0.336981
11
3.19401
21
-0.33624
0
LINE
8
BLACK
6
CONTINUOUS
10
3.19401
20
-0.33624
11
3.19407
21
-0.336117
0
LINE
8
BLACK
6
CONTINUOUS
10
3.19407
20
-0.336117
11
3.19405
21
-0.335984
0
LINE
8
BLACK
6
CONTINUOUS
10
3.19405
20
-0.335984
11
3.19411
21
-0.335867
0
LINE
8
BLACK
6
CONTINUOUS
10
3.19411
20
-0.335867
11
3.1941
21
-0.335733
0
LINE
8
BLACK
6
CONTINUOUS
10
3.1941
20
-0.335733
11
3.19454
21
-0.335104
0
LINE
8
BLACK
6
CONTINUOUS
10
3.19454
20
-0.335104
11
3.19487
21
-0.334409
0
LINE
8
BLACK
6
CONTINUOUS
10
3.19487
20
-0.334409
11
3.19674
21
-0.332534
0
LINE
8
BLACK
6
CONTINUOUS
10
3.19674
20
-0.332534
11
3.19706
21
-0.332311
0
LINE
8
BLACK
6
CONTINUOUS
10
3.19706
20
-0.332311
11
3.19713
21
-0.332203
0
LINE
8
BLACK
6
CONTINUOUS
10
3.19713
20
-0.332203
11
3.19726
21
-0.332169
0
LINE
8
BLACK
6
CONTINUOUS
10
3.19726
20
-0.332169
11
3.19758
21
-0.331946
0
LINE
8
BLACK
6
CONTINUOUS
10
3.19758
20
-0.331946
11
3.19834
21
-0.331879
0
LINE
8
BLACK
6
CONTINUOUS
10
3.19834
20
-0.331879
11
3.19909
21
-0.331681
0
LINE
8
BLACK
6
CONTINUOUS
10
3.19909
20
-0.331681
11
3.19933
21
-0.331793
0
LINE
8
BLACK
6
CONTINUOUS
10
3.22191
20
-0.294276
11
3.22204
21
-0.294262
0
LINE
8
BLACK
6
CONTINUOUS
10
3.22204
20
-0.294262
11
3.22954
21
-0.296137
0
LINE
8
BLACK
6
CONTINUOUS
10
3.22954
20
-0.296137
11
3.23001
21
-0.296345
0
LINE
8
BLACK
6
CONTINUOUS
10
3.23001
20
-0.296345
11
3.23014
21
-0.296361
0
LINE
8
BLACK
6
CONTINUOUS
10
3.23014
20
-0.296361
11
3.23389
21
-0.298235
0
LINE
8
BLACK
6
CONTINUOUS
10
3.23389
20
-0.298235
11
3.2346
21
-0.298761
0
LINE
8
BLACK
6
CONTINUOUS
10
3.2346
20
-0.298761
11
3.23466
21
-0.298788
0
LINE
8
BLACK
6
CONTINUOUS
10
3.23466
20
-0.298788
11
3.23654
21
-0.300663
0
LINE
8
BLACK
6
CONTINUOUS
10
3.23654
20
-0.300663
11
3.23704
21
-0.301386
0
LINE
8
BLACK
6
CONTINUOUS
10
3.23704
20
-0.301386
11
3.23709
21
-0.301431
0
LINE
8
BLACK
6
CONTINUOUS
10
3.23709
20
-0.301431
11
3.23896
21
-0.30518
0
LINE
8
BLACK
6
CONTINUOUS
10
3.23896
20
-0.30518
11
3.23926
21
-0.306163
0
LINE
8
BLACK
6
CONTINUOUS
10
3.23926
20
-0.306163
11
3.23922
21
-0.306335
0
LINE
8
BLACK
6
CONTINUOUS
10
3.23922
20
-0.306335
11
3.23928
21
-0.306501
0
LINE
8
BLACK
6
CONTINUOUS
10
3.23928
20
-0.306501
11
3.23928
21
-0.31025
0
LINE
8
BLACK
6
CONTINUOUS
10
3.23928
20
-0.31025
11
3.2391
21
-0.31126
0
LINE
8
BLACK
6
CONTINUOUS
10
3.2391
20
-0.31126
11
3.23898
21
-0.311395
0
LINE
8
BLACK
6
CONTINUOUS
10
3.23898
20
-0.311395
11
3.23896
21
-0.311571
0
LINE
8
BLACK
6
CONTINUOUS
10
3.23896
20
-0.311571
11
3.23709
21
-0.31532
0
LINE
8
BLACK
6
CONTINUOUS
10
3.23709
20
-0.31532
11
3.23656
21
-0.316029
0
LINE
8
BLACK
6
CONTINUOUS
10
3.23656
20
-0.316029
11
3.23654
21
-0.316088
0
LINE
8
BLACK
6
CONTINUOUS
10
3.23654
20
-0.316088
11
3.23466
21
-0.317963
0
LINE
8
BLACK
6
CONTINUOUS
10
3.23466
20
-0.317963
11
3.23394
21
-0.318469
0
LINE
8
BLACK
6
CONTINUOUS
10
3.23394
20
-0.318469
11
3.23389
21
-0.318516
0
LINE
8
BLACK
6
CONTINUOUS
10
3.23389
20
-0.318516
11
3.23014
21
-0.32039
0
LINE
8
BLACK
6
CONTINUOUS
10
3.23014
20
-0.32039
11
3.22966
21
-0.320536
0
LINE
8
BLACK
6
CONTINUOUS
10
3.22966
20
-0.320536
11
3.22954
21
-0.320614
0
LINE
8
BLACK
6
CONTINUOUS
10
3.22954
20
-0.320614
11
3.22204
21
-0.322489
0
LINE
8
BLACK
6
CONTINUOUS
10
3.22204
20
-0.322489
11
3.22145
21
-0.32253
0
LINE
8
BLACK
6
CONTINUOUS
10
3.22145
20
-0.32253
11
3.22133
21
-0.322577
0
LINE
8
BLACK
6
CONTINUOUS
10
3.22133
20
-0.322577
11
3.21195
21
-0.322577
0
LINE
8
BLACK
6
CONTINUOUS
10
3.21195
20
-0.322577
11
3.21137
21
-0.322475
0
LINE
8
BLACK
6
CONTINUOUS
10
3.21137
20
-0.322475
11
3.21124
21
-0.322489
0
LINE
8
BLACK
6
CONTINUOUS
10
3.21124
20
-0.322489
11
3.20374
21
-0.320614
0
LINE
8
BLACK
6
CONTINUOUS
10
3.20374
20
-0.320614
11
3.20327
21
-0.320406
0
LINE
8
BLACK
6
CONTINUOUS
10
3.20327
20
-0.320406
11
3.20313
21
-0.32039
0
LINE
8
BLACK
6
CONTINUOUS
10
3.20313
20
-0.32039
11
3.19938
21
-0.318516
0
LINE
8
BLACK
6
CONTINUOUS
10
3.19938
20
-0.318516
11
3.19867
21
-0.31799
0
LINE
8
BLACK
6
CONTINUOUS
10
3.19867
20
-0.31799
11
3.19862
21
-0.317962
0
LINE
8
BLACK
6
CONTINUOUS
10
3.19862
20
-0.317962
11
3.19674
21
-0.316088
0
LINE
8
BLACK
6
CONTINUOUS
10
3.19674
20
-0.316088
11
3.19623
21
-0.315365
0
LINE
8
BLACK
6
CONTINUOUS
10
3.19623
20
-0.315365
11
3.19619
21
-0.31532
0
LINE
8
BLACK
6
CONTINUOUS
10
3.19619
20
-0.31532
11
3.19431
21
-0.311571
0
LINE
8
BLACK
6
CONTINUOUS
10
3.19431
20
-0.311571
11
3.19402
21
-0.310588
0
LINE
8
BLACK
6
CONTINUOUS
10
3.19402
20
-0.310588
11
3.19406
21
-0.310416
0
LINE
8
BLACK
6
CONTINUOUS
10
3.19406
20
-0.310416
11
3.194
21
-0.31025
0
LINE
8
BLACK
6
CONTINUOUS
10
3.194
20
-0.31025
11
3.194
21
-0.306501
0
LINE
8
BLACK
6
CONTINUOUS
10
3.194
20
-0.306501
11
3.19418
21
-0.305491
0
LINE
8
BLACK
6
CONTINUOUS
10
3.19418
20
-0.305491
11
3.19429
21
-0.305356
0
LINE
8
BLACK
6
CONTINUOUS
10
3.19429
20
-0.305356
11
3.19431
21
-0.30518
0
LINE
8
BLACK
6
CONTINUOUS
10
3.19431
20
-0.30518
11
3.19619
21
-0.301431
0
LINE
8
BLACK
6
CONTINUOUS
10
3.19619
20
-0.301431
11
3.19671
21
-0.300722
0
LINE
8
BLACK
6
CONTINUOUS
10
3.19671
20
-0.300722
11
3.19674
21
-0.300663
0
LINE
8
BLACK
6
CONTINUOUS
10
3.19674
20
-0.300663
11
3.19862
21
-0.298789
0
LINE
8
BLACK
6
CONTINUOUS
10
3.19862
20
-0.298789
11
3.19934
21
-0.298282
0
LINE
8
BLACK
6
CONTINUOUS
10
3.19934
20
-0.298282
11
3.19938
21
-0.298235
0
LINE
8
BLACK
6
CONTINUOUS
10
3.19938
20
-0.298235
11
3.20313
21
-0.296361
0
LINE
8
BLACK
6
CONTINUOUS
10
3.20313
20
-0.296361
11
3.20362
21
-0.296215
0
LINE
8
BLACK
6
CONTINUOUS
10
3.20362
20
-0.296215
11
3.20374
21
-0.296137
0
LINE
8
BLACK
6
CONTINUOUS
10
3.20374
20
-0.296137
11
3.21124
21
-0.294262
0
LINE
8
BLACK
6
CONTINUOUS
10
3.21124
20
-0.294262
11
3.21182
21
-0.294221
0
LINE
8
BLACK
6
CONTINUOUS
10
3.21182
20
-0.294221
11
3.21195
21
-0.294174
0
LINE
8
BLACK
6
CONTINUOUS
10
3.21195
20
-0.294174
11
3.22133
21
-0.294174
0
LINE
8
BLACK
6
CONTINUOUS
10
3.22133
20
-0.294174
11
3.22191
21
-0.294276
0
LINE
8
BLACK
6
CONTINUOUS
10
3.21232
20
-0.30008
11
3.20548
21
-0.301788
0
LINE
8
BLACK
6
CONTINUOUS
10
3.20548
20
-0.301788
11
3.20245
21
-0.303303
0
LINE
8
BLACK
6
CONTINUOUS
10
3.20245
20
-0.303303
11
3.20125
21
-0.3045
0
LINE
8
BLACK
6
CONTINUOUS
10
3.20125
20
-0.3045
11
3.19991
21
-0.307198
0
LINE
8
BLACK
6
CONTINUOUS
10
3.19991
20
-0.307198
11
3.19991
21
-0.309553
0
LINE
8
BLACK
6
CONTINUOUS
10
3.19991
20
-0.309553
11
3.20125
21
-0.312251
0
LINE
8
BLACK
6
CONTINUOUS
10
3.20125
20
-0.312251
11
3.20245
21
-0.313448
0
LINE
8
BLACK
6
CONTINUOUS
10
3.20245
20
-0.313448
11
3.20548
21
-0.314963
0
LINE
8
BLACK
6
CONTINUOUS
10
3.20548
20
-0.314963
11
3.21232
21
-0.316671
0
LINE
8
BLACK
6
CONTINUOUS
10
3.21232
20
-0.316671
11
3.22096
21
-0.316671
0
LINE
8
BLACK
6
CONTINUOUS
10
3.22096
20
-0.316671
11
3.22779
21
-0.314963
0
LINE
8
BLACK
6
CONTINUOUS
10
3.22779
20
-0.314963
11
3.23082
21
-0.313448
0
LINE
8
BLACK
6
CONTINUOUS
10
3.23082
20
-0.313448
11
3.23202
21
-0.312251
0
LINE
8
BLACK
6
CONTINUOUS
10
3.23202
20
-0.312251
11
3.23337
21
-0.309553
0
LINE
8
BLACK
6
CONTINUOUS
10
3.23337
20
-0.309553
11
3.23337
21
-0.307198
0
LINE
8
BLACK
6
CONTINUOUS
10
3.23337
20
-0.307198
11
3.23202
21
-0.3045
0
LINE
8
BLACK
6
CONTINUOUS
10
3.23202
20
-0.3045
11
3.23082
21
-0.303303
0
LINE
8
BLACK
6
CONTINUOUS
10
3.23082
20
-0.303303
11
3.22779
21
-0.301788
0
LINE
8
BLACK
6
CONTINUOUS
10
3.22779
20
-0.301788
11
3.22096
21
-0.30008
0
LINE
8
BLACK
6
CONTINUOUS
10
3.22096
20
-0.30008
11
3.21232
21
-0.30008
0
LINE
8
BLACK
6
CONTINUOUS
10
3.21859
20
-0.232485
11
3.21872
21
-0.232598
0
LINE
8
BLACK
6
CONTINUOUS
10
3.21872
20
-0.232598
11
3.2189
21
-0.232619
0
LINE
8
BLACK
6
CONTINUOUS
10
3.2189
20
-0.232619
11
3.22265
21
-0.234493
0
LINE
8
BLACK
6
CONTINUOUS
10
3.22265
20
-0.234493
11
3.22347
21
-0.235104
0
LINE
8
BLACK
6
CONTINUOUS
10
3.22347
20
-0.235104
11
3.22365
21
-0.23551
0
LINE
8
BLACK
6
CONTINUOUS
10
3.22365
20
-0.23551
11
3.22397
21
-0.235814
0
LINE
8
BLACK
6
CONTINUOUS
10
3.22397
20
-0.235814
11
3.22584
21
-0.239563
0
LINE
8
BLACK
6
CONTINUOUS
10
3.22584
20
-0.239563
11
3.22613
21
-0.240546
0
LINE
8
BLACK
6
CONTINUOUS
10
3.22613
20
-0.240546
11
3.22609
21
-0.240718
0
LINE
8
BLACK
6
CONTINUOUS
10
3.22609
20
-0.240718
11
3.22615
21
-0.240884
0
LINE
8
BLACK
6
CONTINUOUS
10
3.22615
20
-0.240884
11
3.22615
21
-0.246508
0
LINE
8
BLACK
6
CONTINUOUS
10
3.22615
20
-0.246508
11
3.22597
21
-0.247518
0
LINE
8
BLACK
6
CONTINUOUS
10
3.22597
20
-0.247518
11
3.22586
21
-0.247653
0
LINE
8
BLACK
6
CONTINUOUS
10
3.22586
20
-0.247653
11
3.22584
21
-0.247829
0
LINE
8
BLACK
6
CONTINUOUS
10
3.22584
20
-0.247829
11
3.22397
21
-0.251578
0
LINE
8
BLACK
6
CONTINUOUS
10
3.22397
20
-0.251578
11
3.22336
21
-0.252402
0
LINE
8
BLACK
6
CONTINUOUS
10
3.22336
20
-0.252402
11
3.2215
21
-0.253205
0
LINE
8
BLACK
6
CONTINUOUS
10
3.2215
20
-0.253205
11
3.21957
21
-0.252629
0
LINE
8
BLACK
6
CONTINUOUS
10
3.21957
20
-0.252629
11
3.21845
21
-0.250944
0
LINE
8
BLACK
6
CONTINUOUS
10
3.21845
20
-0.250944
11
3.21868
21
-0.248937
0
LINE
8
BLACK
6
CONTINUOUS
10
3.21868
20
-0.248937
11
3.22025
21
-0.245811
0
LINE
8
BLACK
6
CONTINUOUS
10
3.22025
20
-0.245811
11
3.22025
21
-0.241581
0
LINE
8
BLACK
6
CONTINUOUS
10
3.22025
20
-0.241581
11
3.21912
21
-0.239335
0
LINE
8
BLACK
6
CONTINUOUS
10
3.21912
20
-0.239335
11
3.21688
21
-0.238212
0
LINE
8
BLACK
6
CONTINUOUS
10
3.21688
20
-0.238212
11
3.2164
21
-0.238212
0
LINE
8
BLACK
6
CONTINUOUS
10
3.2164
20
-0.238212
11
3.21415
21
-0.239335
0
LINE
8
BLACK
6
CONTINUOUS
10
3.21415
20
-0.239335
11
3.21303
21
-0.241581
0
LINE
8
BLACK
6
CONTINUOUS
10
3.21303
20
-0.241581
11
3.21303
21
-0.246508
0
LINE
8
BLACK
6
CONTINUOUS
10
3.21303
20
-0.246508
11
3.21285
21
-0.247518
0
LINE
8
BLACK
6
CONTINUOUS
10
3.21285
20
-0.247518
11
3.21274
21
-0.247653
0
LINE
8
BLACK
6
CONTINUOUS
10
3.21274
20
-0.247653
11
3.21272
21
-0.247829
0
LINE
8
BLACK
6
CONTINUOUS
10
3.21272
20
-0.247829
11
3.21084
21
-0.251578
0
LINE
8
BLACK
6
CONTINUOUS
10
3.21084
20
-0.251578
11
3.21023
21
-0.252402
0
LINE
8
BLACK
6
CONTINUOUS
10
3.21023
20
-0.252402
11
3.20983
21
-0.252578
0
LINE
8
BLACK
6
CONTINUOUS
10
3.20983
20
-0.252578
11
3.20952
21
-0.252899
0
LINE
8
BLACK
6
CONTINUOUS
10
3.20952
20
-0.252899
11
3.20577
21
-0.254774
0
LINE
8
BLACK
6
CONTINUOUS
10
3.20577
20
-0.254774
11
3.20479
21
-0.255066
0
LINE
8
BLACK
6
CONTINUOUS
10
3.20479
20
-0.255066
11
3.20462
21
-0.255025
0
LINE
8
BLACK
6
CONTINUOUS
10
3.20462
20
-0.255025
11
3.20445
21
-0.255085
0
LINE
8
BLACK
6
CONTINUOUS
10
3.20445
20
-0.255085
11
3.20258
21
-0.255085
0
LINE
8
BLACK
6
CONTINUOUS
10
3.20258
20
-0.255085
11
3.20157
21
-0.254907
0
LINE
8
BLACK
6
CONTINUOUS
10
3.20157
20
-0.254907
11
3.20143
21
-0.254794
0
LINE
8
BLACK
6
CONTINUOUS
10
3.20143
20
-0.254794
11
3.20126
21
-0.254774
0
LINE
8
BLACK
6
CONTINUOUS
10
3.20126
20
-0.254774
11
3.19751
21
-0.252899
0
LINE
8
BLACK
6
CONTINUOUS
10
3.19751
20
-0.252899
11
3.19668
21
-0.252288
0
LINE
8
BLACK
6
CONTINUOUS
10
3.19668
20
-0.252288
11
3.19651
21
-0.251882
0
LINE
8
BLACK
6
CONTINUOUS
10
3.19651
20
-0.251882
11
3.19619
21
-0.251578
0
LINE
8
BLACK
6
CONTINUOUS
10
3.19619
20
-0.251578
11
3.19431
21
-0.247829
0
LINE
8
BLACK
6
CONTINUOUS
10
3.19431
20
-0.247829
11
3.19402
21
-0.246846
0
LINE
8
BLACK
6
CONTINUOUS
10
3.19402
20
-0.246846
11
3.19406
21
-0.246674
0
LINE
8
BLACK
6
CONTINUOUS
10
3.19406
20
-0.246674
11
3.194
21
-0.246508
0
LINE
8
BLACK
6
CONTINUOUS
10
3.194
20
-0.246508
11
3.194
21
-0.239009
0
LINE
8
BLACK
6
CONTINUOUS
10
3.194
20
-0.239009
11
3.19418
21
-0.237999
0
LINE
8
BLACK
6
CONTINUOUS
10
3.19418
20
-0.237999
11
3.19429
21
-0.237864
0
LINE
8
BLACK
6
CONTINUOUS
10
3.19429
20
-0.237864
11
3.19431
21
-0.237689
0
LINE
8
BLACK
6
CONTINUOUS
10
3.19431
20
-0.237689
11
3.19619
21
-0.233939
0
LINE
8
BLACK
6
CONTINUOUS
10
3.19619
20
-0.233939
11
3.1968
21
-0.233115
0
LINE
8
BLACK
6
CONTINUOUS
10
3.1968
20
-0.233115
11
3.19865
21
-0.232312
0
LINE
8
BLACK
6
CONTINUOUS
10
3.19865
20
-0.232312
11
3.20059
21
-0.232888
0
LINE
8
BLACK
6
CONTINUOUS
10
3.20059
20
-0.232888
11
3.2017
21
-0.234574
0
LINE
8
BLACK
6
CONTINUOUS
10
3.2017
20
-0.234574
11
3.20147
21
-0.23658
0
LINE
8
BLACK
6
CONTINUOUS
10
3.20147
20
-0.23658
11
3.19991
21
-0.239706
0
LINE
8
BLACK
6
CONTINUOUS
10
3.19991
20
-0.239706
11
3.19991
21
-0.245811
0
LINE
8
BLACK
6
CONTINUOUS
10
3.19991
20
-0.245811
11
3.20103
21
-0.248057
0
LINE
8
BLACK
6
CONTINUOUS
10
3.20103
20
-0.248057
11
3.20327
21
-0.24918
0
LINE
8
BLACK
6
CONTINUOUS
10
3.20327
20
-0.24918
11
3.20376
21
-0.24918
0
LINE
8
BLACK
6
CONTINUOUS
10
3.20376
20
-0.24918
11
3.206
21
-0.248057
0
LINE
8
BLACK
6
CONTINUOUS
10
3.206
20
-0.248057
11
3.20712
21
-0.245811
0
LINE
8
BLACK
6
CONTINUOUS
10
3.20712
20
-0.245811
11
3.20712
21
-0.240884
0
LINE
8
BLACK
6
CONTINUOUS
10
3.20712
20
-0.240884
11
3.2073
21
-0.239874
0
LINE
8
BLACK
6
CONTINUOUS
10
3.2073
20
-0.239874
11
3.20742
21
-0.239739
0
LINE
8
BLACK
6
CONTINUOUS
10
3.20742
20
-0.239739
11
3.20744
21
-0.239563
0
LINE
8
BLACK
6
CONTINUOUS
10
3.20744
20
-0.239563
11
3.20931
21
-0.235814
0
LINE
8
BLACK
6
CONTINUOUS
10
3.20931
20
-0.235814
11
3.20992
21
-0.23499
0
LINE
8
BLACK
6
CONTINUOUS
10
3.20992
20
-0.23499
11
3.21033
21
-0.234814
0
LINE
8
BLACK
6
CONTINUOUS
10
3.21033
20
-0.234814
11
3.21063
21
-0.234493
0
LINE
8
BLACK
6
CONTINUOUS
10
3.21063
20
-0.234493
11
3.21438
21
-0.232619
0
LINE
8
BLACK
6
CONTINUOUS
10
3.21438
20
-0.232619
11
3.21536
21
-0.232326
0
LINE
8
BLACK
6
CONTINUOUS
10
3.21536
20
-0.232326
11
3.21554
21
-0.232367
0
LINE
8
BLACK
6
CONTINUOUS
10
3.21554
20
-0.232367
11
3.2157
21
-0.232307
0
LINE
8
BLACK
6
CONTINUOUS
10
3.2157
20
-0.232307
11
3.21758
21
-0.232307
0
LINE
8
BLACK
6
CONTINUOUS
10
3.21758
20
-0.232307
11
3.21859
21
-0.232485
0
LINE
8
BLACK
6
CONTINUOUS
10
3.23495
20
-0.213683
11
3.23521
21
-0.21366
0
LINE
8
BLACK
6
CONTINUOUS
10
3.23521
20
-0.21366
11
3.23584
21
-0.2141
0
LINE
8
BLACK
6
CONTINUOUS
10
3.23584
20
-0.2141
11
3.23654
21
-0.214424
0
LINE
8
BLACK
6
CONTINUOUS
10
3.23654
20
-0.214424
11
3.23841
21
-0.216299
0
LINE
8
BLACK
6
CONTINUOUS
10
3.23841
20
-0.216299
11
3.23863
21
-0.216618
0
LINE
8
BLACK
6
CONTINUOUS
10
3.23863
20
-0.216618
11
3.23874
21
-0.216693
0
LINE
8
BLACK
6
CONTINUOUS
10
3.23874
20
-0.216693
11
3.23878
21
-0.21682
0
LINE
8
BLACK
6
CONTINUOUS
10
3.23878
20
-0.21682
11
3.23878
21
-0.216827
0
LINE
8
BLACK
6
CONTINUOUS
10
3.23878
20
-0.216827
11
3.23888
21
-0.21691
0
LINE
8
BLACK
6
CONTINUOUS
10
3.23888
20
-0.21691
11
3.23889
21
-0.216989
0
LINE
8
BLACK
6
CONTINUOUS
10
3.23889
20
-0.216989
11
3.239
21
-0.217139
0
LINE
8
BLACK
6
CONTINUOUS
10
3.239
20
-0.217139
11
3.23907
21
-0.217903
0
LINE
8
BLACK
6
CONTINUOUS
10
3.23907
20
-0.217903
11
3.23927
21
-0.218644
0
LINE
8
BLACK
6
CONTINUOUS
10
3.23927
20
-0.218644
11
3.23921
21
-0.218766
0
LINE
8
BLACK
6
CONTINUOUS
10
3.23921
20
-0.218766
11
3.23923
21
-0.218899
0
LINE
8
BLACK
6
CONTINUOUS
10
3.23923
20
-0.218899
11
3.23916
21
-0.219016
0
LINE
8
BLACK
6
CONTINUOUS
10
3.23916
20
-0.219016
11
3.23918
21
-0.219151
0
LINE
8
BLACK
6
CONTINUOUS
10
3.23918
20
-0.219151
11
3.23874
21
-0.219779
0
LINE
8
BLACK
6
CONTINUOUS
10
3.23874
20
-0.219779
11
3.23841
21
-0.220475
0
LINE
8
BLACK
6
CONTINUOUS
10
3.23841
20
-0.220475
11
3.23654
21
-0.222349
0
LINE
8
BLACK
6
CONTINUOUS
10
3.23654
20
-0.222349
11
3.23622
21
-0.222573
0
LINE
8
BLACK
6
CONTINUOUS
10
3.23622
20
-0.222573
11
3.23614
21
-0.22268
0
LINE
8
BLACK
6
CONTINUOUS
10
3.23614
20
-0.22268
11
3.23602
21
-0.222714
0
LINE
8
BLACK
6
CONTINUOUS
10
3.23602
20
-0.222714
11
3.2357
21
-0.222938
0
LINE
8
BLACK
6
CONTINUOUS
10
3.2357
20
-0.222938
11
3.23493
21
-0.223004
0
LINE
8
BLACK
6
CONTINUOUS
10
3.23493
20
-0.223004
11
3.23419
21
-0.223203
0
LINE
8
BLACK
6
CONTINUOUS
10
3.23419
20
-0.223203
11
3.23395
21
-0.22309
0
LINE
8
BLACK
6
CONTINUOUS
10
3.23395
20
-0.22309
11
3.23368
21
-0.223114
0
LINE
8
BLACK
6
CONTINUOUS
10
3.23368
20
-0.223114
11
3.23306
21
-0.222674
0
LINE
8
BLACK
6
CONTINUOUS
10
3.23306
20
-0.222674
11
3.23236
21
-0.222349
0
LINE
8
BLACK
6
CONTINUOUS
10
3.23236
20
-0.222349
11
3.23049
21
-0.220475
0
LINE
8
BLACK
6
CONTINUOUS
10
3.23049
20
-0.220475
11
3.23026
21
-0.220156
0
LINE
8
BLACK
6
CONTINUOUS
10
3.23026
20
-0.220156
11
3.23016
21
-0.22008
0
LINE
8
BLACK
6
CONTINUOUS
10
3.23016
20
-0.22008
11
3.23012
21
-0.219954
0
LINE
8
BLACK
6
CONTINUOUS
10
3.23012
20
-0.219954
11
3.23012
21
-0.219947
0
LINE
8
BLACK
6
CONTINUOUS
10
3.23012
20
-0.219947
11
3.23002
21
-0.219863
0
LINE
8
BLACK
6
CONTINUOUS
10
3.23002
20
-0.219863
11
3.23
21
-0.219785
0
LINE
8
BLACK
6
CONTINUOUS
10
3.23
20
-0.219785
11
3.2299
21
-0.219635
0
LINE
8
BLACK
6
CONTINUOUS
10
3.2299
20
-0.219635
11
3.22983
21
-0.21887
0
LINE
8
BLACK
6
CONTINUOUS
10
3.22983
20
-0.21887
11
3.22963
21
-0.218129
0
LINE
8
BLACK
6
CONTINUOUS
10
3.22963
20
-0.218129
11
3.22969
21
-0.218007
0
LINE
8
BLACK
6
CONTINUOUS
10
3.22969
20
-0.218007
11
3.22967
21
-0.217874
0
LINE
8
BLACK
6
CONTINUOUS
10
3.22967
20
-0.217874
11
3.22973
21
-0.217757
0
LINE
8
BLACK
6
CONTINUOUS
10
3.22973
20
-0.217757
11
3.22972
21
-0.217623
0
LINE
8
BLACK
6
CONTINUOUS
10
3.22972
20
-0.217623
11
3.23016
21
-0.216994
0
LINE
8
BLACK
6
CONTINUOUS
10
3.23016
20
-0.216994
11
3.23049
21
-0.216299
0
LINE
8
BLACK
6
CONTINUOUS
10
3.23049
20
-0.216299
11
3.23236
21
-0.214424
0
LINE
8
BLACK
6
CONTINUOUS
10
3.23236
20
-0.214424
11
3.23268
21
-0.214201
0
LINE
8
BLACK
6
CONTINUOUS
10
3.23268
20
-0.214201
11
3.23276
21
-0.214093
0
LINE
8
BLACK
6
CONTINUOUS
10
3.23276
20
-0.214093
11
3.23288
21
-0.214059
0
LINE
8
BLACK
6
CONTINUOUS
10
3.23288
20
-0.214059
11
3.2332
21
-0.213836
0
LINE
8
BLACK
6
CONTINUOUS
10
3.2332
20
-0.213836
11
3.23397
21
-0.213769
0
LINE
8
BLACK
6
CONTINUOUS
10
3.23397
20
-0.213769
11
3.23471
21
-0.21357
0
LINE
8
BLACK
6
CONTINUOUS
10
3.23471
20
-0.21357
11
3.23495
21
-0.213683
0
LINE
8
BLACK
6
CONTINUOUS
10
3.22421
20
-0.215612
11
3.22576
21
-0.21691
0
LINE
8
BLACK
6
CONTINUOUS
10
3.22576
20
-0.21691
11
3.22611
21
-0.218899
0
LINE
8
BLACK
6
CONTINUOUS
10
3.22611
20
-0.218899
11
3.2251
21
-0.220649
0
LINE
8
BLACK
6
CONTINUOUS
10
3.2251
20
-0.220649
11
3.2232
21
-0.221339
0
LINE
8
BLACK
6
CONTINUOUS
10
3.2232
20
-0.221339
11
3.19695
21
-0.221339
0
LINE
8
BLACK
6
CONTINUOUS
10
3.19695
20
-0.221339
11
3.19594
21
-0.221161
0
LINE
8
BLACK
6
CONTINUOUS
10
3.19594
20
-0.221161
11
3.1944
21
-0.219863
0
LINE
8
BLACK
6
CONTINUOUS
10
3.1944
20
-0.219863
11
3.19405
21
-0.217874
0
LINE
8
BLACK
6
CONTINUOUS
10
3.19405
20
-0.217874
11
3.19506
21
-0.216125
0
LINE
8
BLACK
6
CONTINUOUS
10
3.19506
20
-0.216125
11
3.19695
21
-0.215434
0
LINE
8
BLACK
6
CONTINUOUS
10
3.19695
20
-0.215434
11
3.2232
21
-0.215434
0
LINE
8
BLACK
6
CONTINUOUS
10
3.2232
20
-0.215434
11
3.22421
21
-0.215612
0
LINE
8
BLACK
6
CONTINUOUS
10
3.21859
20
-0.15187
11
3.21872
21
-0.151984
0
LINE
8
BLACK
6
CONTINUOUS
10
3.21872
20
-0.151984
11
3.2189
21
-0.152004
0
LINE
8
BLACK
6
CONTINUOUS
10
3.2189
20
-0.152004
11
3.22265
21
-0.153878
0
LINE
8
BLACK
6
CONTINUOUS
10
3.22265
20
-0.153878
11
3.22347
21
-0.154489
0
LINE
8
BLACK
6
CONTINUOUS
10
3.22347
20
-0.154489
11
3.22365
21
-0.154895
0
LINE
8
BLACK
6
CONTINUOUS
10
3.22365
20
-0.154895
11
3.22397
21
-0.155199
0
LINE
8
BLACK
6
CONTINUOUS
10
3.22397
20
-0.155199
11
3.22584
21
-0.158949
0
LINE
8
BLACK
6
CONTINUOUS
10
3.22584
20
-0.158949
11
3.22613
21
-0.159931
0
LINE
8
BLACK
6
CONTINUOUS
10
3.22613
20
-0.159931
11
3.22609
21
-0.160103
0
LINE
8
BLACK
6
CONTINUOUS
10
3.22609
20
-0.160103
11
3.22615
21
-0.160269
0
LINE
8
BLACK
6
CONTINUOUS
10
3.22615
20
-0.160269
11
3.22615
21
-0.165893
0
LINE
8
BLACK
6
CONTINUOUS
10
3.22615
20
-0.165893
11
3.22597
21
-0.166903
0
LINE
8
BLACK
6
CONTINUOUS
10
3.22597
20
-0.166903
11
3.22586
21
-0.167038
0
LINE
8
BLACK
6
CONTINUOUS
10
3.22586
20
-0.167038
11
3.22584
21
-0.167214
0
LINE
8
BLACK
6
CONTINUOUS
10
3.22584
20
-0.167214
11
3.22397
21
-0.170963
0
LINE
8
BLACK
6
CONTINUOUS
10
3.22397
20
-0.170963
11
3.22336
21
-0.171787
0
LINE
8
BLACK
6
CONTINUOUS
10
3.22336
20
-0.171787
11
3.2215
21
-0.17259
0
LINE
8
BLACK
6
CONTINUOUS
10
3.2215
20
-0.17259
11
3.21957
21
-0.172014
0
LINE
8
BLACK
6
CONTINUOUS
10
3.21957
20
-0.172014
11
3.21845
21
-0.170329
0
LINE
8
BLACK
6
CONTINUOUS
10
3.21845
20
-0.170329
11
3.21868
21
-0.168322
0
LINE
8
BLACK
6
CONTINUOUS
10
3.21868
20
-0.168322
11
3.22025
21
-0.165196
0
LINE
8
BLACK
6
CONTINUOUS
10
3.22025
20
-0.165196
11
3.22025
21
-0.160966
0
LINE
8
BLACK
6
CONTINUOUS
10
3.22025
20
-0.160966
11
3.21912
21
-0.15872
0
LINE
8
BLACK
6
CONTINUOUS
10
3.21912
20
-0.15872
11
3.21688
21
-0.157597
0
LINE
8
BLACK
6
CONTINUOUS
10
3.21688
20
-0.157597
11
3.2164
21
-0.157597
0
LINE
8
BLACK
6
CONTINUOUS
10
3.2164
20
-0.157597
11
3.21415
21
-0.15872
0
LINE
8
BLACK
6
CONTINUOUS
10
3.21415
20
-0.15872
11
3.21303
21
-0.160966
0
LINE
8
BLACK
6
CONTINUOUS
10
3.21303
20
-0.160966
11
3.21303
21
-0.165893
0
LINE
8
BLACK
6
CONTINUOUS
10
3.21303
20
-0.165893
11
3.21285
21
-0.166903
0
LINE
8
BLACK
6
CONTINUOUS
10
3.21285
20
-0.166903
11
3.21274
21
-0.167038
0
LINE
8
BLACK
6
CONTINUOUS
10
3.21274
20
-0.167038
11
3.21272
21
-0.167214
0
LINE
8
BLACK
6
CONTINUOUS
10
3.21272
20
-0.167214
11
3.21084
21
-0.170963
0
LINE
8
BLACK
6
CONTINUOUS
10
3.21084
20
-0.170963
11
3.21023
21
-0.171787
0
LINE
8
BLACK
6
CONTINUOUS
10
3.21023
20
-0.171787
11
3.20983
21
-0.171963
0
LINE
8
BLACK
6
CONTINUOUS
10
3.20983
20
-0.171963
11
3.20952
21
-0.172284
0
LINE
8
BLACK
6
CONTINUOUS
10
3.20952
20
-0.172284
11
3.20577
21
-0.174159
0
LINE
8
BLACK
6
CONTINUOUS
10
3.20577
20
-0.174159
11
3.20479
21
-0.174451
0
LINE
8
BLACK
6
CONTINUOUS
10
3.20479
20
-0.174451
11
3.20462
21
-0.17441
0
LINE
8
BLACK
6
CONTINUOUS
10
3.20462
20
-0.17441
11
3.20445
21
-0.17447
0
LINE
8
BLACK
6
CONTINUOUS
10
3.20445
20
-0.17447
11
3.20258
21
-0.17447
0
LINE
8
BLACK
6
CONTINUOUS
10
3.20258
20
-0.17447
11
3.20157
21
-0.174292
0
LINE
8
BLACK
6
CONTINUOUS
10
3.20157
20
-0.174292
11
3.20143
21
-0.174179
0
LINE
8
BLACK
6
CONTINUOUS
10
3.20143
20
-0.174179
11
3.20126
21
-0.174159
0
LINE
8
BLACK
6
CONTINUOUS
10
3.20126
20
-0.174159
11
3.19751
21
-0.172284
0
LINE
8
BLACK
6
CONTINUOUS
10
3.19751
20
-0.172284
11
3.19668
21
-0.171673
0
LINE
8
BLACK
6
CONTINUOUS
10
3.19668
20
-0.171673
11
3.19651
21
-0.171267
0
LINE
8
BLACK
6
CONTINUOUS
10
3.19651
20
-0.171267
11
3.19619
21
-0.170963
0
LINE
8
BLACK
6
CONTINUOUS
10
3.19619
20
-0.170963
11
3.19431
21
-0.167214
0
LINE
8
BLACK
6
CONTINUOUS
10
3.19431
20
-0.167214
11
3.19402
21
-0.166231
0
LINE
8
BLACK
6
CONTINUOUS
10
3.19402
20
-0.166231
11
3.19406
21
-0.166059
0
LINE
8
BLACK
6
CONTINUOUS
10
3.19406
20
-0.166059
11
3.194
21
-0.165893
0
LINE
8
BLACK
6
CONTINUOUS
10
3.194
20
-0.165893
11
3.194
21
-0.158394
0
LINE
8
BLACK
6
CONTINUOUS
10
3.194
20
-0.158394
11
3.19418
21
-0.157384
0
LINE
8
BLACK
6
CONTINUOUS
10
3.19418
20
-0.157384
11
3.19429
21
-0.157249
0
LINE
8
BLACK
6
CONTINUOUS
10
3.19429
20
-0.157249
11
3.19431
21
-0.157074
0
LINE
8
BLACK
6
CONTINUOUS
10
3.19431
20
-0.157074
11
3.19619
21
-0.153324
0
LINE
8
BLACK
6
CONTINUOUS
10
3.19619
20
-0.153324
11
3.1968
21
-0.152501
0
LINE
8
BLACK
6
CONTINUOUS
10
3.1968
20
-0.152501
11
3.19865
21
-0.151697
0
LINE
8
BLACK
6
CONTINUOUS
10
3.19865
20
-0.151697
11
3.20059
21
-0.152273
0
LINE
8
BLACK
6
CONTINUOUS
10
3.20059
20
-0.152273
11
3.2017
21
-0.153959
0
LINE
8
BLACK
6
CONTINUOUS
10
3.2017
20
-0.153959
11
3.20147
21
-0.155965
0
LINE
8
BLACK
6
CONTINUOUS
10
3.20147
20
-0.155965
11
3.19991
21
-0.159091
0
LINE
8
BLACK
6
CONTINUOUS
10
3.19991
20
-0.159091
11
3.19991
21
-0.165196
0
LINE
8
BLACK
6
CONTINUOUS
10
3.19991
20
-0.165196
11
3.20103
21
-0.167442
0
LINE
8
BLACK
6
CONTINUOUS
10
3.20103
20
-0.167442
11
3.20327
21
-0.168565
0
LINE
8
BLACK
6
CONTINUOUS
10
3.20327
20
-0.168565
11
3.20376
21
-0.168565
0
LINE
8
BLACK
6
CONTINUOUS
10
3.20376
20
-0.168565
11
3.206
21
-0.167442
0
LINE
8
BLACK
6
CONTINUOUS
10
3.206
20
-0.167442
11
3.20712
21
-0.165196
0
LINE
8
BLACK
6
CONTINUOUS
10
3.20712
20
-0.165196
11
3.20712
21
-0.160269
0
LINE
8
BLACK
6
CONTINUOUS
10
3.20712
20
-0.160269
11
3.2073
21
-0.159259
0
LINE
8
BLACK
6
CONTINUOUS
10
3.2073
20
-0.159259
11
3.20742
21
-0.159124
0
LINE
8
BLACK
6
CONTINUOUS
10
3.20742
20
-0.159124
11
3.20744
21
-0.158949
0
LINE
8
BLACK
6
CONTINUOUS
10
3.20744
20
-0.158949
11
3.20931
21
-0.155199
0
LINE
8
BLACK
6
CONTINUOUS
10
3.20931
20
-0.155199
11
3.20992
21
-0.154375
0
LINE
8
BLACK
6
CONTINUOUS
10
3.20992
20
-0.154375
11
3.21033
21
-0.154199
0
LINE
8
BLACK
6
CONTINUOUS
10
3.21033
20
-0.154199
11
3.21063
21
-0.153878
0
LINE
8
BLACK
6
CONTINUOUS
10
3.21063
20
-0.153878
11
3.21438
21
-0.152004
0
LINE
8
BLACK
6
CONTINUOUS
10
3.21438
20
-0.152004
11
3.21536
21
-0.151711
0
LINE
8
BLACK
6
CONTINUOUS
10
3.21536
20
-0.151711
11
3.21554
21
-0.151752
0
LINE
8
BLACK
6
CONTINUOUS
10
3.21554
20
-0.151752
11
3.2157
21
-0.151692
0
LINE
8
BLACK
6
CONTINUOUS
10
3.2157
20
-0.151692
11
3.21758
21
-0.151692
0
LINE
8
BLACK
6
CONTINUOUS
10
3.21758
20
-0.151692
11
3.21859
21
-0.15187
0
LINE
8
BLACK
6
CONTINUOUS
10
3.21859
20
-0.119999
11
3.21872
21
-0.120112
0
LINE
8
BLACK
6
CONTINUOUS
10
3.21872
20
-0.120112
11
3.2189
21
-0.120133
0
LINE
8
BLACK
6
CONTINUOUS
10
3.2189
20
-0.120133
11
3.22265
21
-0.122007
0
LINE
8
BLACK
6
CONTINUOUS
10
3.22265
20
-0.122007
11
3.22347
21
-0.122618
0
LINE
8
BLACK
6
CONTINUOUS
10
3.22347
20
-0.122618
11
3.22365
21
-0.123024
0
LINE
8
BLACK
6
CONTINUOUS
10
3.22365
20
-0.123024
11
3.22397
21
-0.123328
0
LINE
8
BLACK
6
CONTINUOUS
10
3.22397
20
-0.123328
11
3.22584
21
-0.127077
0
LINE
8
BLACK
6
CONTINUOUS
10
3.22584
20
-0.127077
11
3.22613
21
-0.12806
0
LINE
8
BLACK
6
CONTINUOUS
10
3.22613
20
-0.12806
11
3.22609
21
-0.128232
0
LINE
8
BLACK
6
CONTINUOUS
10
3.22609
20
-0.128232
11
3.22615
21
-0.128398
0
LINE
8
BLACK
6
CONTINUOUS
10
3.22615
20
-0.128398
11
3.22615
21
-0.134022
0
LINE
8
BLACK
6
CONTINUOUS
10
3.22615
20
-0.134022
11
3.22597
21
-0.135032
0
LINE
8
BLACK
6
CONTINUOUS
10
3.22597
20
-0.135032
11
3.22586
21
-0.135167
0
LINE
8
BLACK
6
CONTINUOUS
10
3.22586
20
-0.135167
11
3.22584
21
-0.135343
0
LINE
8
BLACK
6
CONTINUOUS
10
3.22584
20
-0.135343
11
3.22397
21
-0.139092
0
LINE
8
BLACK
6
CONTINUOUS
10
3.22397
20
-0.139092
11
3.22336
21
-0.139916
0
LINE
8
BLACK
6
CONTINUOUS
10
3.22336
20
-0.139916
11
3.2215
21
-0.140719
0
LINE
8
BLACK
6
CONTINUOUS
10
3.2215
20
-0.140719
11
3.21957
21
-0.140143
0
LINE
8
BLACK
6
CONTINUOUS
10
3.21957
20
-0.140143
11
3.21845
21
-0.138458
0
LINE
8
BLACK
6
CONTINUOUS
10
3.21845
20
-0.138458
11
3.21868
21
-0.136451
0
LINE
8
BLACK
6
CONTINUOUS
10
3.21868
20
-0.136451
11
3.22025
21
-0.133325
0
LINE
8
BLACK
6
CONTINUOUS
10
3.22025
20
-0.133325
11
3.22025
21
-0.129095
0
LINE
8
BLACK
6
CONTINUOUS
10
3.22025
20
-0.129095
11
3.21912
21
-0.126849
0
LINE
8
BLACK
6
CONTINUOUS
10
3.21912
20
-0.126849
11
3.21688
21
-0.125726
0
LINE
8
BLACK
6
CONTINUOUS
10
3.21688
20
-0.125726
11
3.2164
21
-0.125726
0
LINE
8
BLACK
6
CONTINUOUS
10
3.2164
20
-0.125726
11
3.21415
21
-0.126849
0
LINE
8
BLACK
6
CONTINUOUS
10
3.21415
20
-0.126849
11
3.21303
21
-0.129095
0
LINE
8
BLACK
6
CONTINUOUS
10
3.21303
20
-0.129095
11
3.21303
21
-0.134022
0
LINE
8
BLACK
6
CONTINUOUS
10
3.21303
20
-0.134022
11
3.21285
21
-0.135032
0
LINE
8
BLACK
6
CONTINUOUS
10
3.21285
20
-0.135032
11
3.21274
21
-0.135167
0
LINE
8
BLACK
6
CONTINUOUS
10
3.21274
20
-0.135167
11
3.21272
21
-0.135343
0
LINE
8
BLACK
6
CONTINUOUS
10
3.21272
20
-0.135343
11
3.21084
21
-0.139092
0
LINE
8
BLACK
6
CONTINUOUS
10
3.21084
20
-0.139092
11
3.21023
21
-0.139916
0
LINE
8
BLACK
6
CONTINUOUS
10
3.21023
20
-0.139916
11
3.20983
21
-0.140092
0
LINE
8
BLACK
6
CONTINUOUS
10
3.20983
20
-0.140092
11
3.20952
21
-0.140413
0
LINE
8
BLACK
6
CONTINUOUS
10
3.20952
20
-0.140413
11
3.20577
21
-0.142288
0
LINE
8
BLACK
6
CONTINUOUS
10
3.20577
20
-0.142288
11
3.20479
21
-0.14258
0
LINE
8
BLACK
6
CONTINUOUS
10
3.20479
20
-0.14258
11
3.20462
21
-0.142539
0
LINE
8
BLACK
6
CONTINUOUS
10
3.20462
20
-0.142539
11
3.20445
21
-0.142599
0
LINE
8
BLACK
6
CONTINUOUS
10
3.20445
20
-0.142599
11
3.20258
21
-0.142599
0
LINE
8
BLACK
6
CONTINUOUS
10
3.20258
20
-0.142599
11
3.20157
21
-0.142421
0
LINE
8
BLACK
6
CONTINUOUS
10
3.20157
20
-0.142421
11
3.20143
21
-0.142308
0
LINE
8
BLACK
6
CONTINUOUS
10
3.20143
20
-0.142308
11
3.20126
21
-0.142288
0
LINE
8
BLACK
6
CONTINUOUS
10
3.20126
20
-0.142288
11
3.19751
21
-0.140413
0
LINE
8
BLACK
6
CONTINUOUS
10
3.19751
20
-0.140413
11
3.19668
21
-0.139802
0
LINE
8
BLACK
6
CONTINUOUS
10
3.19668
20
-0.139802
11
3.19651
21
-0.139396
0
LINE
8
BLACK
6
CONTINUOUS
10
3.19651
20
-0.139396
11
3.19619
21
-0.139092
0
LINE
8
BLACK
6
CONTINUOUS
10
3.19619
20
-0.139092
11
3.19431
21
-0.135343
0
LINE
8
BLACK
6
CONTINUOUS
10
3.19431
20
-0.135343
11
3.19402
21
-0.13436
0
LINE
8
BLACK
6
CONTINUOUS
10
3.19402
20
-0.13436
11
3.19406
21
-0.134188
0
LINE
8
BLACK
6
CONTINUOUS
10
3.19406
20
-0.134188
11
3.194
21
-0.134022
0
LINE
8
BLACK
6
CONTINUOUS
10
3.194
20
-0.134022
11
3.194
21
-0.126523
0
LINE
8
BLACK
6
CONTINUOUS
10
3.194
20
-0.126523
11
3.19418
21
-0.125513
0
LINE
8
BLACK
6
CONTINUOUS
10
3.19418
20
-0.125513
11
3.19429
21
-0.125378
0
LINE
8
BLACK
6
CONTINUOUS
10
3.19429
20
-0.125378
11
3.19431
21
-0.125203
0
LINE
8
BLACK
6
CONTINUOUS
10
3.19431
20
-0.125203
11
3.19619
21
-0.121453
0
LINE
8
BLACK
6
CONTINUOUS
10
3.19619
20
-0.121453
11
3.1968
21
-0.12063
0
LINE
8
BLACK
6
CONTINUOUS
10
3.1968
20
-0.12063
11
3.19865
21
-0.119826
0
LINE
8
BLACK
6
CONTINUOUS
10
3.19865
20
-0.119826
11
3.20059
21
-0.120402
0
LINE
8
BLACK
6
CONTINUOUS
10
3.20059
20
-0.120402
11
3.2017
21
-0.122088
0
LINE
8
BLACK
6
CONTINUOUS
10
3.2017
20
-0.122088
11
3.20147
21
-0.124094
0
LINE
8
BLACK
6
CONTINUOUS
10
3.20147
20
-0.124094
11
3.19991
21
-0.12722
0
LINE
8
BLACK
6
CONTINUOUS
10
3.19991
20
-0.12722
11
3.19991
21
-0.133325
0
LINE
8
BLACK
6
CONTINUOUS
10
3.19991
20
-0.133325
11
3.20103
21
-0.135571
0
LINE
8
BLACK
6
CONTINUOUS
10
3.20103
20
-0.135571
11
3.20327
21
-0.136694
0
LINE
8
BLACK
6
CONTINUOUS
10
3.20327
20
-0.136694
11
3.20376
21
-0.136694
0
LINE
8
BLACK
6
CONTINUOUS
10
3.20376
20
-0.136694
11
3.206
21
-0.135571
0
LINE
8
BLACK
6
CONTINUOUS
10
3.206
20
-0.135571
11
3.20712
21
-0.133325
0
LINE
8
BLACK
6
CONTINUOUS
10
3.20712
20
-0.133325
11
3.20712
21
-0.128398
0
LINE
8
BLACK
6
CONTINUOUS
10
3.20712
20
-0.128398
11
3.2073
21
-0.127388
0
LINE
8
BLACK
6
CONTINUOUS
10
3.2073
20
-0.127388
11
3.20742
21
-0.127253
0
LINE
8
BLACK
6
CONTINUOUS
10
3.20742
20
-0.127253
11
3.20744
21
-0.127077
0
LINE
8
BLACK
6
CONTINUOUS
10
3.20744
20
-0.127077
11
3.20931
21
-0.123328
0
LINE
8
BLACK
6
CONTINUOUS
10
3.20931
20
-0.123328
11
3.20992
21
-0.122504
0
LINE
8
BLACK
6
CONTINUOUS
10
3.20992
20
-0.122504
11
3.21033
21
-0.122328
0
LINE
8
BLACK
6
CONTINUOUS
10
3.21033
20
-0.122328
11
3.21063
21
-0.122007
0
LINE
8
BLACK
6
CONTINUOUS
10
3.21063
20
-0.122007
11
3.21438
21
-0.120133
0
LINE
8
BLACK
6
CONTINUOUS
10
3.21438
20
-0.120133
11
3.21536
21
-0.11984
0
LINE
8
BLACK
6
CONTINUOUS
10
3.21536
20
-0.11984
11
3.21554
21
-0.119881
0
LINE
8
BLACK
6
CONTINUOUS
10
3.21554
20
-0.119881
11
3.2157
21
-0.119821
0
LINE
8
BLACK
6
CONTINUOUS
10
3.2157
20
-0.119821
11
3.21758
21
-0.119821
0
LINE
8
BLACK
6
CONTINUOUS
10
3.21758
20
-0.119821
11
3.21859
21
-0.119999
0
LINE
8
BLACK
6
CONTINUOUS
10
3.21859
20
-0.0862532
11
3.21872
21
-0.0863667
0
LINE
8
BLACK
6
CONTINUOUS
10
3.21872
20
-0.0863667
11
3.2189
21
-0.0863869
0
LINE
8
BLACK
6
CONTINUOUS
10
3.2189
20
-0.0863869
11
3.22265
21
-0.0882617
0
LINE
8
BLACK
6
CONTINUOUS
10
3.22265
20
-0.0882617
11
3.22347
21
-0.0888726
0
LINE
8
BLACK
6
CONTINUOUS
10
3.22347
20
-0.0888726
11
3.22365
21
-0.0892782
0
LINE
8
BLACK
6
CONTINUOUS
10
3.22365
20
-0.0892782
11
3.22397
21
-0.0895822
0
LINE
8
BLACK
6
CONTINUOUS
10
3.22397
20
-0.0895822
11
3.22584
21
-0.0933317
0
LINE
8
BLACK
6
CONTINUOUS
10
3.22584
20
-0.0933317
11
3.22613
21
-0.0943146
0
LINE
8
BLACK
6
CONTINUOUS
10
3.22613
20
-0.0943146
11
3.22609
21
-0.0944863
0
LINE
8
BLACK
6
CONTINUOUS
10
3.22609
20
-0.0944863
11
3.22615
21
-0.0946522
0
LINE
8
BLACK
6
CONTINUOUS
10
3.22615
20
-0.0946522
11
3.22615
21
-0.102151
0
LINE
8
BLACK
6
CONTINUOUS
10
3.22615
20
-0.102151
11
3.22597
21
-0.103161
0
LINE
8
BLACK
6
CONTINUOUS
10
3.22597
20
-0.103161
11
3.22586
21
-0.103296
0
LINE
8
BLACK
6
CONTINUOUS
10
3.22586
20
-0.103296
11
3.22584
21
-0.103472
0
LINE
8
BLACK
6
CONTINUOUS
10
3.22584
20
-0.103472
11
3.22397
21
-0.107221
0
LINE
8
BLACK
6
CONTINUOUS
10
3.22397
20
-0.107221
11
3.22336
21
-0.108045
0
LINE
8
BLACK
6
CONTINUOUS
10
3.22336
20
-0.108045
11
3.22295
21
-0.108221
0
LINE
8
BLACK
6
CONTINUOUS
10
3.22295
20
-0.108221
11
3.22265
21
-0.108542
0
LINE
8
BLACK
6
CONTINUOUS
10
3.22265
20
-0.108542
11
3.2189
21
-0.110417
0
LINE
8
BLACK
6
CONTINUOUS
10
3.2189
20
-0.110417
11
3.21791
21
-0.110709
0
LINE
8
BLACK
6
CONTINUOUS
10
3.21791
20
-0.110709
11
3.21774
21
-0.110668
0
LINE
8
BLACK
6
CONTINUOUS
10
3.21774
20
-0.110668
11
3.21758
21
-0.110728
0
LINE
8
BLACK
6
CONTINUOUS
10
3.21758
20
-0.110728
11
3.21383
21
-0.110728
0
LINE
8
BLACK
6
CONTINUOUS
10
3.21383
20
-0.110728
11
3.21282
21
-0.11055
0
LINE
8
BLACK
6
CONTINUOUS
10
3.21282
20
-0.11055
11
3.21244
21
-0.110237
0
LINE
8
BLACK
6
CONTINUOUS
10
3.21244
20
-0.110237
11
3.21198
21
-0.11008
0
LINE
8
BLACK
6
CONTINUOUS
10
3.21198
20
-0.11008
11
3.21169
21
-0.109608
0
LINE
8
BLACK
6
CONTINUOUS
10
3.21169
20
-0.109608
11
3.21127
21
-0.109252
0
LINE
8
BLACK
6
CONTINUOUS
10
3.21127
20
-0.109252
11
3.21118
21
-0.108771
0
LINE
8
BLACK
6
CONTINUOUS
10
3.21118
20
-0.108771
11
3.21093
21
-0.108355
0
LINE
8
BLACK
6
CONTINUOUS
10
3.21093
20
-0.108355
11
3.20766
21
-0.0919807
0
LINE
8
BLACK
6
CONTINUOUS
10
3.20766
20
-0.0919807
11
3.20327
21
-0.0919807
0
LINE
8
BLACK
6
CONTINUOUS
10
3.20327
20
-0.0919807
11
3.20103
21
-0.0931035
0
LINE
8
BLACK
6
CONTINUOUS
10
3.20103
20
-0.0931035
11
3.19991
21
-0.0953493
0
LINE
8
BLACK
6
CONTINUOUS
10
3.19991
20
-0.0953493
11
3.19991
21
-0.101454
0
LINE
8
BLACK
6
CONTINUOUS
10
3.19991
20
-0.101454
11
3.20147
21
-0.10458
0
LINE
8
BLACK
6
CONTINUOUS
10
3.20147
20
-0.10458
11
3.20176
21
-0.105563
0
LINE
8
BLACK
6
CONTINUOUS
10
3.20176
20
-0.105563
11
3.20129
21
-0.107528
0
LINE
8
BLACK
6
CONTINUOUS
10
3.20129
20
-0.107528
11
3.19967
21
-0.108731
0
LINE
8
BLACK
6
CONTINUOUS
10
3.19967
20
-0.108731
11
3.19765
21
-0.10861
0
LINE
8
BLACK
6
CONTINUOUS
10
3.19765
20
-0.10861
11
3.19619
21
-0.107221
0
LINE
8
BLACK
6
CONTINUOUS
10
3.19619
20
-0.107221
11
3.19431
21
-0.103472
0
LINE
8
BLACK
6
CONTINUOUS
10
3.19431
20
-0.103472
11
3.19402
21
-0.102489
0
LINE
8
BLACK
6
CONTINUOUS
10
3.19402
20
-0.102489
11
3.19406
21
-0.102317
0
LINE
8
BLACK
6
CONTINUOUS
10
3.19406
20
-0.102317
11
3.194
21
-0.102151
0
LINE
8
BLACK
6
CONTINUOUS
10
3.194
20
-0.102151
11
3.194
21
-0.0946522
0
LINE
8
BLACK
6
CONTINUOUS
10
3.194
20
-0.0946522
11
3.19418
21
-0.0936423
0
LINE
8
BLACK
6
CONTINUOUS
10
3.19418
20
-0.0936423
11
3.19429
21
-0.093507
0
LINE
8
BLACK
6
CONTINUOUS
10
3.19429
20
-0.093507
11
3.19431
21
-0.0933317
0
LINE
8
BLACK
6
CONTINUOUS
10
3.19431
20
-0.0933317
11
3.19619
21
-0.0895822
0
LINE
8
BLACK
6
CONTINUOUS
10
3.19619
20
-0.0895822
11
3.1968
21
-0.0887585
0
LINE
8
BLACK
6
CONTINUOUS
10
3.1968
20
-0.0887585
11
3.1972
21
-0.0885827
0
LINE
8
BLACK
6
CONTINUOUS
10
3.1972
20
-0.0885827
11
3.19751
21
-0.0882617
0
LINE
8
BLACK
6
CONTINUOUS
10
3.19751
20
-0.0882617
11
3.20126
21
-0.0863869
0
LINE
8
BLACK
6
CONTINUOUS
10
3.20126
20
-0.0863869
11
3.20224
21
-0.0860945
0
LINE
8
BLACK
6
CONTINUOUS
10
3.20224
20
-0.0860945
11
3.20241
21
-0.0861356
0
LINE
8
BLACK
6
CONTINUOUS
10
3.20241
20
-0.0861356
11
3.20258
21
-0.0860752
0
LINE
8
BLACK
6
CONTINUOUS
10
3.20258
20
-0.0860752
11
3.21758
21
-0.0860752
0
LINE
8
BLACK
6
CONTINUOUS
10
3.21758
20
-0.0860752
11
3.21859
21
-0.0862532
0
LINE
8
BLACK
6
CONTINUOUS
10
3.21368
20
-0.0919807
11
3.21625
21
-0.104823
0
LINE
8
BLACK
6
CONTINUOUS
10
3.21625
20
-0.104823
11
3.21688
21
-0.104823
0
LINE
8
BLACK
6
CONTINUOUS
10
3.21688
20
-0.104823
11
3.21912
21
-0.1037
0
LINE
8
BLACK
6
CONTINUOUS
10
3.21912
20
-0.1037
11
3.22025
21
-0.101454
0
LINE
8
BLACK
6
CONTINUOUS
10
3.22025
20
-0.101454
11
3.22025
21
-0.0953493
0
LINE
8
BLACK
6
CONTINUOUS
10
3.22025
20
-0.0953493
11
3.21912
21
-0.0931035
0
LINE
8
BLACK
6
CONTINUOUS
10
3.21912
20
-0.0931035
11
3.21688
21
-0.0919807
0
LINE
8
BLACK
6
CONTINUOUS
10
3.21688
20
-0.0919807
11
3.21368
21
-0.0919807
0
LINE
8
BLACK
6
CONTINUOUS
10
3.22421
20
-0.0525074
11
3.22576
21
-0.0538057
0
LINE
8
BLACK
6
CONTINUOUS
10
3.22576
20
-0.0538057
11
3.22611
21
-0.0557949
0
LINE
8
BLACK
6
CONTINUOUS
10
3.22611
20
-0.0557949
11
3.2251
21
-0.0575441
0
LINE
8
BLACK
6
CONTINUOUS
10
3.2251
20
-0.0575441
11
3.22486
21
-0.0576296
0
LINE
8
BLACK
6
CONTINUOUS
10
3.22486
20
-0.0576296
11
3.22584
21
-0.0595859
0
LINE
8
BLACK
6
CONTINUOUS
10
3.22584
20
-0.0595859
11
3.22613
21
-0.0605688
0
LINE
8
BLACK
6
CONTINUOUS
10
3.22613
20
-0.0605688
11
3.22609
21
-0.0607405
0
LINE
8
BLACK
6
CONTINUOUS
10
3.22609
20
-0.0607405
11
3.22615
21
-0.0609064
0
LINE
8
BLACK
6
CONTINUOUS
10
3.22615
20
-0.0609064
11
3.22615
21
-0.0665307
0
LINE
8
BLACK
6
CONTINUOUS
10
3.22615
20
-0.0665307
11
3.22597
21
-0.0675406
0
LINE
8
BLACK
6
CONTINUOUS
10
3.22597
20
-0.0675406
11
3.22586
21
-0.0676759
0
LINE
8
BLACK
6
CONTINUOUS
10
3.22586
20
-0.0676759
11
3.22584
21
-0.0678512
0
LINE
8
BLACK
6
CONTINUOUS
10
3.22584
20
-0.0678512
11
3.22397
21
-0.0716008
0
LINE
8
BLACK
6
CONTINUOUS
10
3.22397
20
-0.0716008
11
3.22336
21
-0.0724244
0
LINE
8
BLACK
6
CONTINUOUS
10
3.22336
20
-0.0724244
11
3.22295
21
-0.0726003
0
LINE
8
BLACK
6
CONTINUOUS
10
3.22295
20
-0.0726003
11
3.22265
21
-0.0729213
0
LINE
8
BLACK
6
CONTINUOUS
10
3.22265
20
-0.0729213
11
3.2189
21
-0.0747961
0
LINE
8
BLACK
6
CONTINUOUS
10
3.2189
20
-0.0747961
11
3.21791
21
-0.0750884
0
LINE
8
BLACK
6
CONTINUOUS
10
3.21791
20
-0.0750884
11
3.21774
21
-0.0750474
0
LINE
8
BLACK
6
CONTINUOUS
10
3.21774
20
-0.0750474
11
3.21758
21
-0.0751078
0
LINE
8
BLACK
6
CONTINUOUS
10
3.21758
20
-0.0751078
11
3.19695
21
-0.0751078
0
LINE
8
BLACK
6
CONTINUOUS
10
3.19695
20
-0.0751078
11
3.19594
21
-0.0749297
0
LINE
8
BLACK
6
CONTINUOUS
10
3.19594
20
-0.0749297
11
3.1944
21
-0.0736314
0
LINE
8
BLACK
6
CONTINUOUS
10
3.1944
20
-0.0736314
11
3.19405
21
-0.0716423
0
LINE
8
BLACK
6
CONTINUOUS
10
3.19405
20
-0.0716423
11
3.19506
21
-0.0698931
0
LINE
8
BLACK
6
CONTINUOUS
10
3.19506
20
-0.0698931
11
3.19695
21
-0.0692023
0
LINE
8
BLACK
6
CONTINUOUS
10
3.19695
20
-0.0692023
11
3.21688
21
-0.0692023
0
LINE
8
BLACK
6
CONTINUOUS
10
3.21688
20
-0.0692023
11
3.21912
21
-0.0680794
0
LINE
8
BLACK
6
CONTINUOUS
10
3.21912
20
-0.0680794
11
3.22025
21
-0.0658337
0
LINE
8
BLACK
6
CONTINUOUS
10
3.22025
20
-0.0658337
11
3.22025
21
-0.0616035
0
LINE
8
BLACK
6
CONTINUOUS
10
3.22025
20
-0.0616035
11
3.2189
21
-0.058906
0
LINE
8
BLACK
6
CONTINUOUS
10
3.2189
20
-0.058906
11
3.21823
21
-0.0582349
0
LINE
8
BLACK
6
CONTINUOUS
10
3.21823
20
-0.0582349
11
3.19695
21
-0.0582349
0
LINE
8
BLACK
6
CONTINUOUS
10
3.19695
20
-0.0582349
11
3.19594
21
-0.0580568
0
LINE
8
BLACK
6
CONTINUOUS
10
3.19594
20
-0.0580568
11
3.1944
21
-0.0567585
0
LINE
8
BLACK
6
CONTINUOUS
10
3.1944
20
-0.0567585
11
3.19405
21
-0.0547694
0
LINE
8
BLACK
6
CONTINUOUS
10
3.19405
20
-0.0547694
11
3.19506
21
-0.0530202
0
LINE
8
BLACK
6
CONTINUOUS
10
3.19506
20
-0.0530202
11
3.19695
21
-0.0523294
0
LINE
8
BLACK
6
CONTINUOUS
10
3.19695
20
-0.0523294
11
3.2232
21
-0.0523294
0
LINE
8
BLACK
6
CONTINUOUS
10
3.2232
20
-0.0523294
11
3.22421
21
-0.0525074
0
LINE
8
BLACK
6
CONTINUOUS
10
3.23733
20
-0.0206364
11
3.23888
21
-0.0219347
0
LINE
8
BLACK
6
CONTINUOUS
10
3.23888
20
-0.0219347
11
3.23923
21
-0.0239239
0
LINE
8
BLACK
6
CONTINUOUS
10
3.23923
20
-0.0239239
11
3.23822
21
-0.025673
0
LINE
8
BLACK
6
CONTINUOUS
10
3.23822
20
-0.025673
11
3.23632
21
-0.0263639
0
LINE
8
BLACK
6
CONTINUOUS
10
3.23632
20
-0.0263639
11
3.21533
21
-0.0263639
0
LINE
8
BLACK
6
CONTINUOUS
10
3.21533
20
-0.0263639
11
3.22529
21
-0.0363213
0
LINE
8
BLACK
6
CONTINUOUS
10
3.22529
20
-0.0363213
11
3.22588
21
-0.0371614
0
LINE
8
BLACK
6
CONTINUOUS
10
3.22588
20
-0.0371614
11
3.22605
21
-0.0391735
0
LINE
8
BLACK
6
CONTINUOUS
10
3.22605
20
-0.0391735
11
3.22489
21
-0.040828
0
LINE
8
BLACK
6
CONTINUOUS
10
3.22489
20
-0.040828
11
3.22294
21
-0.0413507
0
LINE
8
BLACK
6
CONTINUOUS
10
3.22294
20
-0.0413507
11
3.22111
21
-0.0404972
0
LINE
8
BLACK
6
CONTINUOUS
10
3.22111
20
-0.0404972
11
3.21167
21
-0.0310594
0
LINE
8
BLACK
6
CONTINUOUS
10
3.21167
20
-0.0310594
11
3.19873
21
-0.0407715
0
LINE
8
BLACK
6
CONTINUOUS
10
3.19873
20
-0.0407715
11
3.19781
21
-0.041235
0
LINE
8
BLACK
6
CONTINUOUS
10
3.19781
20
-0.041235
11
3.19579
21
-0.0411246
0
LINE
8
BLACK
6
CONTINUOUS
10
3.19579
20
-0.0411246
11
3.19432
21
-0.0397438
0
LINE
8
BLACK
6
CONTINUOUS
10
3.19432
20
-0.0397438
11
3.19408
21
-0.0377385
0
LINE
8
BLACK
6
CONTINUOUS
10
3.19408
20
-0.0377385
11
3.19518
21
-0.036047
0
LINE
8
BLACK
6
CONTINUOUS
10
3.19518
20
-0.036047
11
3.20746
21
-0.0268412
0
LINE
8
BLACK
6
CONTINUOUS
10
3.20746
20
-0.0268412
11
3.20698
21
-0.0263639
0
LINE
8
BLACK
6
CONTINUOUS
10
3.20698
20
-0.0263639
11
3.19695
21
-0.0263639
0
LINE
8
BLACK
6
CONTINUOUS
10
3.19695
20
-0.0263639
11
3.19594
21
-0.0261858
0
LINE
8
BLACK
6
CONTINUOUS
10
3.19594
20
-0.0261858
11
3.1944
21
-0.0248875
0
LINE
8
BLACK
6
CONTINUOUS
10
3.1944
20
-0.0248875
11
3.19405
21
-0.0228983
0
LINE
8
BLACK
6
CONTINUOUS
10
3.19405
20
-0.0228983
11
3.19506
21
-0.0211492
0
LINE
8
BLACK
6
CONTINUOUS
10
3.19506
20
-0.0211492
11
3.19695
21
-0.0204583
0
LINE
8
BLACK
6
CONTINUOUS
10
3.19695
20
-0.0204583
11
3.23632
21
-0.0204583
0
LINE
8
BLACK
6
CONTINUOUS
10
3.23632
20
-0.0204583
11
3.23733
21
-0.0206364
0
LINE
8
BLACK
6
CONTINUOUS
10
3.21671
20
0.0149841
11
3.21685
21
0.0148706
0
LINE
8
BLACK
6
CONTINUOUS
10
3.21685
20
0.0148706
11
3.21702
21
0.0148504
0
LINE
8
BLACK
6
CONTINUOUS
10
3.21702
20
0.0148504
11
3.22077
21
0.0129757
0
LINE
8
BLACK
6
CONTINUOUS
10
3.22077
20
0.0129757
11
3.22148
21
0.0124497
0
LINE
8
BLACK
6
CONTINUOUS
10
3.22148
20
0.0124497
11
3.22154
21
0.0124225
0
LINE
8
BLACK
6
CONTINUOUS
10
3.22154
20
0.0124225
11
3.22341
21
0.0105478
0
LINE
8
BLACK
6
CONTINUOUS
10
3.22341
20
0.0105478
11
3.22392
21
0.00982465
0
LINE
8
BLACK
6
CONTINUOUS
10
3.22392
20
0.00982465
11
3.22397
21
0.00978035
0
LINE
8
BLACK
6
CONTINUOUS
10
3.22397
20
0.00978035
11
3.22584
21
0.00603083
0
LINE
8
BLACK
6
CONTINUOUS
10
3.22584
20
0.00603083
11
3.22613
21
0.00504791
0
LINE
8
BLACK
6
CONTINUOUS
10
3.22613
20
0.00504791
11
3.22609
21
0.00487622
0
LINE
8
BLACK
6
CONTINUOUS
10
3.22609
20
0.00487622
11
3.22615
21
0.00471031
0
LINE
8
BLACK
6
CONTINUOUS
10
3.22615
20
0.00471031
11
3.22615
21
-0.0027887
0
LINE
8
BLACK
6
CONTINUOUS
10
3.22615
20
-0.0027887
11
3.22597
21
-0.00379862
0
LINE
8
BLACK
6
CONTINUOUS
10
3.22597
20
-0.00379862
11
3.22586
21
-0.00393386
0
LINE
8
BLACK
6
CONTINUOUS
10
3.22586
20
-0.00393386
11
3.22584
21
-0.00410921
0
LINE
8
BLACK
6
CONTINUOUS
10
3.22584
20
-0.00410921
11
3.22397
21
-0.00785874
0
LINE
8
BLACK
6
CONTINUOUS
10
3.22397
20
-0.00785874
11
3.22336
21
-0.0086824
0
LINE
8
BLACK
6
CONTINUOUS
10
3.22336
20
-0.0086824
11
3.2215
21
-0.00948567
0
LINE
8
BLACK
6
CONTINUOUS
10
3.2215
20
-0.00948567
11
3.21957
21
-0.00890984
0
LINE
8
BLACK
6
CONTINUOUS
10
3.21957
20
-0.00890984
11
3.21845
21
-0.00722429
0
LINE
8
BLACK
6
CONTINUOUS
10
3.21845
20
-0.00722429
11
3.21868
21
-0.00521772
0
LINE
8
BLACK
6
CONTINUOUS
10
3.21868
20
-0.00521772
11
3.22025
21
-0.00209165
0
LINE
8
BLACK
6
CONTINUOUS
10
3.22025
20
-0.00209165
11
3.22025
21
0.00401327
0
LINE
8
BLACK
6
CONTINUOUS
10
3.22025
20
0.00401327
11
3.2189
21
0.00671075
0
LINE
8
BLACK
6
CONTINUOUS
10
3.2189
20
0.00671075
11
3.2177
21
0.00790791
0
LINE
8
BLACK
6
CONTINUOUS
10
3.2177
20
0.00790791
11
3.215
21
0.00925665
0
LINE
8
BLACK
6
CONTINUOUS
10
3.215
20
0.00925665
11
3.20515
21
0.00925665
0
LINE
8
BLACK
6
CONTINUOUS
10
3.20515
20
0.00925665
11
3.20245
21
0.00790791
0
LINE
8
BLACK
6
CONTINUOUS
10
3.20245
20
0.00790791
11
3.20125
21
0.00671075
0
LINE
8
BLACK
6
CONTINUOUS
10
3.20125
20
0.00671075
11
3.19991
21
0.00401327
0
LINE
8
BLACK
6
CONTINUOUS
10
3.19991
20
0.00401327
11
3.19991
21
-0.00209165
0
LINE
8
BLACK
6
CONTINUOUS
10
3.19991
20
-0.00209165
11
3.20147
21
-0.00521772
0
LINE
8
BLACK
6
CONTINUOUS
10
3.20147
20
-0.00521772
11
3.20176
21
-0.00620063
0
LINE
8
BLACK
6
CONTINUOUS
10
3.20176
20
-0.00620063
11
3.20129
21
-0.00816516
0
LINE
8
BLACK
6
CONTINUOUS
10
3.20129
20
-0.00816516
11
3.19967
21
-0.00936846
0
LINE
8
BLACK
6
CONTINUOUS
10
3.19967
20
-0.00936846
11
3.19765
21
-0.0092474
0
LINE
8
BLACK
6
CONTINUOUS
10
3.19765
20
-0.0092474
11
3.19619
21
-0.00785874
0
LINE
8
BLACK
6
CONTINUOUS
10
3.19619
20
-0.00785874
11
3.19431
21
-0.00410921
0
LINE
8
BLACK
6
CONTINUOUS
10
3.19431
20
-0.00410921
11
3.19402
21
-0.00312626
0
LINE
8
BLACK
6
CONTINUOUS
10
3.19402
20
-0.00312626
11
3.19406
21
-0.00295461
0
LINE
8
BLACK
6
CONTINUOUS
10
3.19406
20
-0.00295461
11
3.194
21
-0.0027887
0
LINE
8
BLACK
6
CONTINUOUS
10
3.194
20
-0.0027887
11
3.194
21
0.00471031
0
LINE
8
BLACK
6
CONTINUOUS
10
3.194
20
0.00471031
11
3.19418
21
0.00572024
0
LINE
8
BLACK
6
CONTINUOUS
10
3.19418
20
0.00572024
11
3.19429
21
0.00585547
0
LINE
8
BLACK
6
CONTINUOUS
10
3.19429
20
0.00585547
11
3.19431
21
0.00603083
0
LINE
8
BLACK
6
CONTINUOUS
10
3.19431
20
0.00603083
11
3.19619
21
0.00978035
0
LINE
8
BLACK
6
CONTINUOUS
10
3.19619
20
0.00978035
11
3.19671
21
0.0104893
0
LINE
8
BLACK
6
CONTINUOUS
10
3.19671
20
0.0104893
11
3.19674
21
0.0105477
0
LINE
8
BLACK
6
CONTINUOUS
10
3.19674
20
0.0105477
11
3.19862
21
0.0124225
0
LINE
8
BLACK
6
CONTINUOUS
10
3.19862
20
0.0124225
11
3.19934
21
0.0129289
0
LINE
8
BLACK
6
CONTINUOUS
10
3.19934
20
0.0129289
11
3.19938
21
0.0129757
0
LINE
8
BLACK
6
CONTINUOUS
10
3.19938
20
0.0129757
11
3.20313
21
0.0148504
0
LINE
8
BLACK
6
CONTINUOUS
10
3.20313
20
0.0148504
11
3.20411
21
0.0151428
0
LINE
8
BLACK
6
CONTINUOUS
10
3.20411
20
0.0151428
11
3.20429
21
0.0151018
0
LINE
8
BLACK
6
CONTINUOUS
10
3.20429
20
0.0151018
11
3.20445
21
0.0151622
0
LINE
8
BLACK
6
CONTINUOUS
10
3.20445
20
0.0151622
11
3.2157
21
0.0151622
0
LINE
8
BLACK
6
CONTINUOUS
10
3.2157
20
0.0151622
11
3.21671
21
0.0149841
0
LINE
8
BLACK
6
CONTINUOUS
10
3.23495
20
0.0337859
11
3.23521
21
0.0338092
0
LINE
8
BLACK
6
CONTINUOUS
10
3.23521
20
0.0338092
11
3.23584
21
0.0333691
0
LINE
8
BLACK
6
CONTINUOUS
10
3.23584
20
0.0333691
11
3.23654
21
0.033045
0
LINE
8
BLACK
6
CONTINUOUS
10
3.23654
20
0.033045
11
3.23841
21
0.0311702
0
LINE
8
BLACK
6
CONTINUOUS
10
3.23841
20
0.0311702
11
3.23863
21
0.0308512
0
LINE
8
BLACK
6
CONTINUOUS
10
3.23863
20
0.0308512
11
3.23874
21
0.0307759
0
LINE
8
BLACK
6
CONTINUOUS
10
3.23874
20
0.0307759
11
3.23878
21
0.0306492
0
LINE
8
BLACK
6
CONTINUOUS
10
3.23878
20
0.0306492
11
3.23878
21
0.0306422
0
LINE
8
BLACK
6
CONTINUOUS
10
3.23878
20
0.0306422
11
3.23888
21
0.0305587
0
LINE
8
BLACK
6
CONTINUOUS
10
3.23888
20
0.0305587
11
3.23889
21
0.0304803
0
LINE
8
BLACK
6
CONTINUOUS
10
3.23889
20
0.0304803
11
3.239
21
0.0303302
0
LINE
8
BLACK
6
CONTINUOUS
10
3.239
20
0.0303302
11
3.23907
21
0.0295659
0
LINE
8
BLACK
6
CONTINUOUS
10
3.23907
20
0.0295659
11
3.23927
21
0.0288249
0
LINE
8
BLACK
6
CONTINUOUS
10
3.23927
20
0.0288249
11
3.23921
21
0.0287026
0
LINE
8
BLACK
6
CONTINUOUS
10
3.23921
20
0.0287026
11
3.23923
21
0.0285695
0
LINE
8
BLACK
6
CONTINUOUS
10
3.23923
20
0.0285695
11
3.23916
21
0.0284525
0
LINE
8
BLACK
6
CONTINUOUS
10
3.23916
20
0.0284525
11
3.23918
21
0.0283181
0
LINE
8
BLACK
6
CONTINUOUS
10
3.23918
20
0.0283181
11
3.23874
21
0.0276897
0
LINE
8
BLACK
6
CONTINUOUS
10
3.23874
20
0.0276897
11
3.23841
21
0.0269944
0
LINE
8
BLACK
6
CONTINUOUS
10
3.23841
20
0.0269944
11
3.23654
21
0.0251196
0
LINE
8
BLACK
6
CONTINUOUS
10
3.23654
20
0.0251196
11
3.23622
21
0.0248962
0
LINE
8
BLACK
6
CONTINUOUS
10
3.23622
20
0.0248962
11
3.23614
21
0.0247888
0
LINE
8
BLACK
6
CONTINUOUS
10
3.23614
20
0.0247888
11
3.23602
21
0.0247548
0
LINE
8
BLACK
6
CONTINUOUS
10
3.23602
20
0.0247548
11
3.2357
21
0.0245314
0
LINE
8
BLACK
6
CONTINUOUS
10
3.2357
20
0.0245314
11
3.23493
21
0.0244645
0
LINE
8
BLACK
6
CONTINUOUS
10
3.23493
20
0.0244645
11
3.23419
21
0.024266
0
LINE
8
BLACK
6
CONTINUOUS
10
3.23419
20
0.024266
11
3.23395
21
0.0243786
0
LINE
8
BLACK
6
CONTINUOUS
10
3.23395
20
0.0243786
11
3.23368
21
0.0243554
0
LINE
8
BLACK
6
CONTINUOUS
10
3.23368
20
0.0243554
11
3.23306
21
0.0247955
0
LINE
8
BLACK
6
CONTINUOUS
10
3.23306
20
0.0247955
11
3.23236
21
0.0251196
0
LINE
8
BLACK
6
CONTINUOUS
10
3.23236
20
0.0251196
11
3.23049
21
0.0269943
0
LINE
8
BLACK
6
CONTINUOUS
10
3.23049
20
0.0269943
11
3.23026
21
0.0273134
0
LINE
8
BLACK
6
CONTINUOUS
10
3.23026
20
0.0273134
11
3.23016
21
0.0273887
0
LINE
8
BLACK
6
CONTINUOUS
10
3.23016
20
0.0273887
11
3.23012
21
0.0275154
0
LINE
8
BLACK
6
CONTINUOUS
10
3.23012
20
0.0275154
11
3.23012
21
0.0275224
0
LINE
8
BLACK
6
CONTINUOUS
10
3.23012
20
0.0275224
11
3.23002
21
0.0276059
0
LINE
8
BLACK
6
CONTINUOUS
10
3.23002
20
0.0276059
11
3.23
21
0.0276843
0
LINE
8
BLACK
6
CONTINUOUS
10
3.23
20
0.0276843
11
3.2299
21
0.0278344
0
LINE
8
BLACK
6
CONTINUOUS
10
3.2299
20
0.0278344
11
3.22983
21
0.0285987
0
LINE
8
BLACK
6
CONTINUOUS
10
3.22983
20
0.0285987
11
3.22963
21
0.0293396
0
LINE
8
BLACK
6
CONTINUOUS
10
3.22963
20
0.0293396
11
3.22969
21
0.029462
0
LINE
8
BLACK
6
CONTINUOUS
10
3.22969
20
0.029462
11
3.22967
21
0.029595
0
LINE
8
BLACK
6
CONTINUOUS
10
3.22967
20
0.029595
11
3.22973
21
0.029712
0
LINE
8
BLACK
6
CONTINUOUS
10
3.22973
20
0.029712
11
3.22972
21
0.0298465
0
LINE
8
BLACK
6
CONTINUOUS
10
3.22972
20
0.0298465
11
3.23016
21
0.0304751
0
LINE
8
BLACK
6
CONTINUOUS
10
3.23016
20
0.0304751
11
3.23049
21
0.0311702
0
LINE
8
BLACK
6
CONTINUOUS
10
3.23049
20
0.0311702
11
3.23236
21
0.033045
0
LINE
8
BLACK
6
CONTINUOUS
10
3.23236
20
0.033045
11
3.23268
21
0.0332683
0
LINE
8
BLACK
6
CONTINUOUS
10
3.23268
20
0.0332683
11
3.23276
21
0.0333758
0
LINE
8
BLACK
6
CONTINUOUS
10
3.23276
20
0.0333758
11
3.23288
21
0.0334098
0
LINE
8
BLACK
6
CONTINUOUS
10
3.23288
20
0.0334098
11
3.2332
21
0.0336332
0
LINE
8
BLACK
6
CONTINUOUS
10
3.2332
20
0.0336332
11
3.23397
21
0.0337
0
LINE
8
BLACK
6
CONTINUOUS
10
3.23397
20
0.0337
11
3.23471
21
0.0338985
0
LINE
8
BLACK
6
CONTINUOUS
10
3.23471
20
0.0338985
11
3.23495
21
0.0337859
0
LINE
8
BLACK
6
CONTINUOUS
10
3.22421
20
0.031857
11
3.22576
21
0.0305587
0
LINE
8
BLACK
6
CONTINUOUS
10
3.22576
20
0.0305587
11
3.22611
21
0.0285695
0
LINE
8
BLACK
6
CONTINUOUS
10
3.22611
20
0.0285695
11
3.2251
21
0.0268204
0
LINE
8
BLACK
6
CONTINUOUS
10
3.2251
20
0.0268204
11
3.2232
21
0.0261295
0
LINE
8
BLACK
6
CONTINUOUS
10
3.2232
20
0.0261295
11
3.19695
21
0.0261295
0
LINE
8
BLACK
6
CONTINUOUS
10
3.19695
20
0.0261295
11
3.19594
21
0.0263076
0
LINE
8
BLACK
6
CONTINUOUS
10
3.19594
20
0.0263076
11
3.1944
21
0.0276059
0
LINE
8
BLACK
6
CONTINUOUS
10
3.1944
20
0.0276059
11
3.19405
21
0.029595
0
LINE
8
BLACK
6
CONTINUOUS
10
3.19405
20
0.029595
11
3.19506
21
0.0313442
0
LINE
8
BLACK
6
CONTINUOUS
10
3.19506
20
0.0313442
11
3.19695
21
0.032035
0
LINE
8
BLACK
6
CONTINUOUS
10
3.19695
20
0.032035
11
3.2232
21
0.032035
0
LINE
8
BLACK
6
CONTINUOUS
10
3.2232
20
0.032035
11
3.22421
21
0.031857
0
LINE
8
BLACK
6
CONTINUOUS
10
3.23733
20
0.0674775
11
3.23888
21
0.0661792
0
LINE
8
BLACK
6
CONTINUOUS
10
3.23888
20
0.0661792
11
3.23923
21
0.0641901
0
LINE
8
BLACK
6
CONTINUOUS
10
3.23923
20
0.0641901
11
3.23822
21
0.0624409
0
LINE
8
BLACK
6
CONTINUOUS
10
3.23822
20
0.0624409
11
3.23632
21
0.0617501
0
LINE
8
BLACK
6
CONTINUOUS
10
3.23632
20
0.0617501
11
3.22517
21
0.0617501
0
LINE
8
BLACK
6
CONTINUOUS
10
3.22517
20
0.0617501
11
3.22584
21
0.0603991
0
LINE
8
BLACK
6
CONTINUOUS
10
3.22584
20
0.0603991
11
3.22613
21
0.0594161
0
LINE
8
BLACK
6
CONTINUOUS
10
3.22613
20
0.0594161
11
3.22609
21
0.0592444
0
LINE
8
BLACK
6
CONTINUOUS
10
3.22609
20
0.0592444
11
3.22615
21
0.0590785
0
LINE
8
BLACK
6
CONTINUOUS
10
3.22615
20
0.0590785
11
3.22615
21
0.0534543
0
LINE
8
BLACK
6
CONTINUOUS
10
3.22615
20
0.0534543
11
3.22597
21
0.0524443
0
LINE
8
BLACK
6
CONTINUOUS
10
3.22597
20
0.0524443
11
3.22586
21
0.0523091
0
LINE
8
BLACK
6
CONTINUOUS
10
3.22586
20
0.0523091
11
3.22584
21
0.0521337
0
LINE
8
BLACK
6
CONTINUOUS
10
3.22584
20
0.0521337
11
3.22397
21
0.0483842
0
LINE
8
BLACK
6
CONTINUOUS
10
3.22397
20
0.0483842
11
3.22336
21
0.0475606
0
LINE
8
BLACK
6
CONTINUOUS
10
3.22336
20
0.0475606
11
3.22295
21
0.0473847
0
LINE
8
BLACK
6
CONTINUOUS
10
3.22295
20
0.0473847
11
3.22265
21
0.0470637
0
LINE
8
BLACK
6
CONTINUOUS
10
3.22265
20
0.0470637
11
3.2189
21
0.0451889
0
LINE
8
BLACK
6
CONTINUOUS
10
3.2189
20
0.0451889
11
3.21791
21
0.0448965
0
LINE
8
BLACK
6
CONTINUOUS
10
3.21791
20
0.0448965
11
3.21774
21
0.0449376
0
LINE
8
BLACK
6
CONTINUOUS
10
3.21774
20
0.0449376
11
3.21758
21
0.0448772
0
LINE
8
BLACK
6
CONTINUOUS
10
3.21758
20
0.0448772
11
3.19695
21
0.0448772
0
LINE
8
BLACK
6
CONTINUOUS
10
3.19695
20
0.0448772
11
3.19594
21
0.0450552
0
LINE
8
BLACK
6
CONTINUOUS
10
3.19594
20
0.0450552
11
3.1944
21
0.0463535
0
LINE
8
BLACK
6
CONTINUOUS
10
3.1944
20
0.0463535
11
3.19405
21
0.0483427
0
LINE
8
BLACK
6
CONTINUOUS
10
3.19405
20
0.0483427
11
3.19506
21
0.0500919
0
LINE
8
BLACK
6
CONTINUOUS
10
3.19506
20
0.0500919
11
3.19695
21
0.0507827
0
LINE
8
BLACK
6
CONTINUOUS
10
3.19695
20
0.0507827
11
3.21688
21
0.0507827
0
LINE
8
BLACK
6
CONTINUOUS
10
3.21688
20
0.0507827
11
3.21912
21
0.0519056
0
LINE
8
BLACK
6
CONTINUOUS
10
3.21912
20
0.0519056
11
3.22025
21
0.0541513
0
LINE
8
BLACK
6
CONTINUOUS
10
3.22025
20
0.0541513
11
3.22025
21
0.0583815
0
LINE
8
BLACK
6
CONTINUOUS
10
3.22025
20
0.0583815
11
3.2189
21
0.061079
0
LINE
8
BLACK
6
CONTINUOUS
10
3.2189
20
0.061079
11
3.21823
21
0.0617501
0
LINE
8
BLACK
6
CONTINUOUS
10
3.21823
20
0.0617501
11
3.19695
21
0.0617501
0
LINE
8
BLACK
6
CONTINUOUS
10
3.19695
20
0.0617501
11
3.19594
21
0.0619281
0
LINE
8
BLACK
6
CONTINUOUS
10
3.19594
20
0.0619281
11
3.1944
21
0.0632265
0
LINE
8
BLACK
6
CONTINUOUS
10
3.1944
20
0.0632265
11
3.19405
21
0.0652156
0
LINE
8
BLACK
6
CONTINUOUS
10
3.19405
20
0.0652156
11
3.19506
21
0.0669648
0
LINE
8
BLACK
6
CONTINUOUS
10
3.19506
20
0.0669648
11
3.19695
21
0.0676556
0
LINE
8
BLACK
6
CONTINUOUS
10
3.19695
20
0.0676556
11
3.23632
21
0.0676556
0
LINE
8
BLACK
6
CONTINUOUS
10
3.23632
20
0.0676556
11
3.23733
21
0.0674775
0
LINE
8
BLACK
6
CONTINUOUS
10
3.22546
20
0.0947223
11
3.22615
21
0.0928243
0
LINE
8
BLACK
6
CONTINUOUS
10
3.22615
20
0.0928243
11
3.22615
21
0.0901528
0
LINE
8
BLACK
6
CONTINUOUS
10
3.22615
20
0.0901528
11
3.23632
21
0.0901528
0
LINE
8
BLACK
6
CONTINUOUS
10
3.23632
20
0.0901528
11
3.23733
21
0.0899747
0
LINE
8
BLACK
6
CONTINUOUS
10
3.23733
20
0.0899747
11
3.23888
21
0.0886764
0
LINE
8
BLACK
6
CONTINUOUS
10
3.23888
20
0.0886764
11
3.23923
21
0.0866872
0
LINE
8
BLACK
6
CONTINUOUS
10
3.23923
20
0.0866872
11
3.23822
21
0.0849381
0
LINE
8
BLACK
6
CONTINUOUS
10
3.23822
20
0.0849381
11
3.23632
21
0.0842472
0
LINE
8
BLACK
6
CONTINUOUS
10
3.23632
20
0.0842472
11
3.22615
21
0.0842472
0
LINE
8
BLACK
6
CONTINUOUS
10
3.22615
20
0.0842472
11
3.22615
21
0.0778262
0
LINE
8
BLACK
6
CONTINUOUS
10
3.22615
20
0.0778262
11
3.22597
21
0.0768163
0
LINE
8
BLACK
6
CONTINUOUS
10
3.22597
20
0.0768163
11
3.22468
21
0.075269
0
LINE
8
BLACK
6
CONTINUOUS
10
3.22468
20
0.075269
11
3.22269
21
0.0749183
0
LINE
8
BLACK
6
CONTINUOUS
10
3.22269
20
0.0749183
11
3.22094
21
0.0759282
0
LINE
8
BLACK
6
CONTINUOUS
10
3.22094
20
0.0759282
11
3.22025
21
0.0778262
0
LINE
8
BLACK
6
CONTINUOUS
10
3.22025
20
0.0778262
11
3.22025
21
0.0842472
0
LINE
8
BLACK
6
CONTINUOUS
10
3.22025
20
0.0842472
11
3.20327
21
0.0842472
0
LINE
8
BLACK
6
CONTINUOUS
10
3.20327
20
0.0842472
11
3.20103
21
0.0831244
0
LINE
8
BLACK
6
CONTINUOUS
10
3.20103
20
0.0831244
11
3.19991
21
0.0808787
0
LINE
8
BLACK
6
CONTINUOUS
10
3.19991
20
0.0808787
11
3.19991
21
0.0778262
0
LINE
8
BLACK
6
CONTINUOUS
10
3.19991
20
0.0778262
11
3.19973
21
0.0768163
0
LINE
8
BLACK
6
CONTINUOUS
10
3.19973
20
0.0768163
11
3.19843
21
0.075269
0
LINE
8
BLACK
6
CONTINUOUS
10
3.19843
20
0.075269
11
3.19644
21
0.0749183
0
LINE
8
BLACK
6
CONTINUOUS
10
3.19644
20
0.0749183
11
3.19469
21
0.0759282
0
LINE
8
BLACK
6
CONTINUOUS
10
3.19469
20
0.0759282
11
3.194
21
0.0778262
0
LINE
8
BLACK
6
CONTINUOUS
10
3.194
20
0.0778262
11
3.194
21
0.0815757
0
LINE
8
BLACK
6
CONTINUOUS
10
3.194
20
0.0815757
11
3.19418
21
0.0825856
0
LINE
8
BLACK
6
CONTINUOUS
10
3.19418
20
0.0825856
11
3.19429
21
0.0827209
0
LINE
8
BLACK
6
CONTINUOUS
10
3.19429
20
0.0827209
11
3.19431
21
0.0828962
0
LINE
8
BLACK
6
CONTINUOUS
10
3.19431
20
0.0828962
11
3.19619
21
0.0866457
0
LINE
8
BLACK
6
CONTINUOUS
10
3.19619
20
0.0866457
11
3.1968
21
0.0874694
0
LINE
8
BLACK
6
CONTINUOUS
10
3.1968
20
0.0874694
11
3.1972
21
0.0876452
0
LINE
8
BLACK
6
CONTINUOUS
10
3.1972
20
0.0876452
11
3.19751
21
0.0879663
0
LINE
8
BLACK
6
CONTINUOUS
10
3.19751
20
0.0879663
11
3.20126
21
0.089841
0
LINE
8
BLACK
6
CONTINUOUS
10
3.20126
20
0.089841
11
3.20224
21
0.0901334
0
LINE
8
BLACK
6
CONTINUOUS
10
3.20224
20
0.0901334
11
3.20241
21
0.0900924
0
LINE
8
BLACK
6
CONTINUOUS
10
3.20241
20
0.0900924
11
3.20258
21
0.0901528
0
LINE
8
BLACK
6
CONTINUOUS
10
3.20258
20
0.0901528
11
3.22025
21
0.0901528
0
LINE
8
BLACK
6
CONTINUOUS
10
3.22025
20
0.0901528
11
3.22025
21
0.0928243
0
LINE
8
BLACK
6
CONTINUOUS
10
3.22025
20
0.0928243
11
3.22043
21
0.0938343
0
LINE
8
BLACK
6
CONTINUOUS
10
3.22043
20
0.0938343
11
3.22172
21
0.0953815
0
LINE
8
BLACK
6
CONTINUOUS
10
3.22172
20
0.0953815
11
3.22371
21
0.0957322
0
LINE
8
BLACK
6
CONTINUOUS
10
3.22371
20
0.0957322
11
3.22546
21
0.0947223
0
LINE
8
BLACK
6
CONTINUOUS
10
3.21859
20
0.155591
11
3.21872
21
0.155478
0
LINE
8
BLACK
6
CONTINUOUS
10
3.21872
20
0.155478
11
3.2189
21
0.155458
0
LINE
8
BLACK
6
CONTINUOUS
10
3.2189
20
0.155458
11
3.22265
21
0.153583
0
LINE
8
BLACK
6
CONTINUOUS
10
3.22265
20
0.153583
11
3.22347
21
0.152972
0
LINE
8
BLACK
6
CONTINUOUS
10
3.22347
20
0.152972
11
3.22365
21
0.152566
0
LINE
8
BLACK
6
CONTINUOUS
10
3.22365
20
0.152566
11
3.22397
21
0.152263
0
LINE
8
BLACK
6
CONTINUOUS
10
3.22397
20
0.152263
11
3.22584
21
0.148513
0
LINE
8
BLACK
6
CONTINUOUS
10
3.22584
20
0.148513
11
3.22613
21
0.14753
0
LINE
8
BLACK
6
CONTINUOUS
10
3.22613
20
0.14753
11
3.22609
21
0.147358
0
LINE
8
BLACK
6
CONTINUOUS
10
3.22609
20
0.147358
11
3.22615
21
0.147193
0
LINE
8
BLACK
6
CONTINUOUS
10
3.22615
20
0.147193
11
3.22615
21
0.139693
0
LINE
8
BLACK
6
CONTINUOUS
10
3.22615
20
0.139693
11
3.22597
21
0.138684
0
LINE
8
BLACK
6
CONTINUOUS
10
3.22597
20
0.138684
11
3.22586
21
0.138548
0
LINE
8
BLACK
6
CONTINUOUS
10
3.22586
20
0.138548
11
3.22584
21
0.138373
0
LINE
8
BLACK
6
CONTINUOUS
10
3.22584
20
0.138373
11
3.22397
21
0.134623
0
LINE
8
BLACK
6
CONTINUOUS
10
3.22397
20
0.134623
11
3.22336
21
0.1338
0
LINE
8
BLACK
6
CONTINUOUS
10
3.22336
20
0.1338
11
3.22295
21
0.133624
0
LINE
8
BLACK
6
CONTINUOUS
10
3.22295
20
0.133624
11
3.22265
21
0.133303
0
LINE
8
BLACK
6
CONTINUOUS
10
3.22265
20
0.133303
11
3.2189
21
0.131428
0
LINE
8
BLACK
6
CONTINUOUS
10
3.2189
20
0.131428
11
3.21791
21
0.131136
0
LINE
8
BLACK
6
CONTINUOUS
10
3.21791
20
0.131136
11
3.21774
21
0.131177
0
LINE
8
BLACK
6
CONTINUOUS
10
3.21774
20
0.131177
11
3.21758
21
0.131116
0
LINE
8
BLACK
6
CONTINUOUS
10
3.21758
20
0.131116
11
3.21383
21
0.131116
0
LINE
8
BLACK
6
CONTINUOUS
10
3.21383
20
0.131116
11
3.21282
21
0.131294
0
LINE
8
BLACK
6
CONTINUOUS
10
3.21282
20
0.131294
11
3.21244
21
0.131608
0
LINE
8
BLACK
6
CONTINUOUS
10
3.21244
20
0.131608
11
3.21198
21
0.131764
0
LINE
8
BLACK
6
CONTINUOUS
10
3.21198
20
0.131764
11
3.21169
21
0.132237
0
LINE
8
BLACK
6
CONTINUOUS
10
3.21169
20
0.132237
11
3.21127
21
0.132593
0
LINE
8
BLACK
6
CONTINUOUS
10
3.21127
20
0.132593
11
3.21118
21
0.133073
0
LINE
8
BLACK
6
CONTINUOUS
10
3.21118
20
0.133073
11
3.21093
21
0.13349
0
LINE
8
BLACK
6
CONTINUOUS
10
3.21093
20
0.13349
11
3.20766
21
0.149864
0
LINE
8
BLACK
6
CONTINUOUS
10
3.20766
20
0.149864
11
3.20327
21
0.149864
0
LINE
8
BLACK
6
CONTINUOUS
10
3.20327
20
0.149864
11
3.20103
21
0.148741
0
LINE
8
BLACK
6
CONTINUOUS
10
3.20103
20
0.148741
11
3.19991
21
0.146495
0
LINE
8
BLACK
6
CONTINUOUS
10
3.19991
20
0.146495
11
3.19991
21
0.140391
0
LINE
8
BLACK
6
CONTINUOUS
10
3.19991
20
0.140391
11
3.20147
21
0.137264
0
LINE
8
BLACK
6
CONTINUOUS
10
3.20147
20
0.137264
11
3.20176
21
0.136282
0
LINE
8
BLACK
6
CONTINUOUS
10
3.20176
20
0.136282
11
3.20129
21
0.134317
0
LINE
8
BLACK
6
CONTINUOUS
10
3.20129
20
0.134317
11
3.19967
21
0.133114
0
LINE
8
BLACK
6
CONTINUOUS
10
3.19967
20
0.133114
11
3.19765
21
0.133235
0
LINE
8
BLACK
6
CONTINUOUS
10
3.19765
20
0.133235
11
3.19619
21
0.134623
0
LINE
8
BLACK
6
CONTINUOUS
10
3.19619
20
0.134623
11
3.19431
21
0.138373
0
LINE
8
BLACK
6
CONTINUOUS
10
3.19431
20
0.138373
11
3.19402
21
0.139356
0
LINE
8
BLACK
6
CONTINUOUS
10
3.19402
20
0.139356
11
3.19406
21
0.139528
0
LINE
8
BLACK
6
CONTINUOUS
10
3.19406
20
0.139528
11
3.194
21
0.139693
0
LINE
8
BLACK
6
CONTINUOUS
10
3.194
20
0.139693
11
3.194
21
0.147193
0
LINE
8
BLACK
6
CONTINUOUS
10
3.194
20
0.147193
11
3.19418
21
0.148202
0
LINE
8
BLACK
6
CONTINUOUS
10
3.19418
20
0.148202
11
3.19429
21
0.148338
0
LINE
8
BLACK
6
CONTINUOUS
10
3.19429
20
0.148338
11
3.19431
21
0.148513
0
LINE
8
BLACK
6
CONTINUOUS
10
3.19431
20
0.148513
11
3.19619
21
0.152263
0
LINE
8
BLACK
6
CONTINUOUS
10
3.19619
20
0.152263
11
3.1968
21
0.153086
0
LINE
8
BLACK
6
CONTINUOUS
10
3.1968
20
0.153086
11
3.1972
21
0.153262
0
LINE
8
BLACK
6
CONTINUOUS
10
3.1972
20
0.153262
11
3.19751
21
0.153583
0
LINE
8
BLACK
6
CONTINUOUS
10
3.19751
20
0.153583
11
3.20126
21
0.155458
0
LINE
8
BLACK
6
CONTINUOUS
10
3.20126
20
0.155458
11
3.20224
21
0.15575
0
LINE
8
BLACK
6
CONTINUOUS
10
3.20224
20
0.15575
11
3.20241
21
0.155709
0
LINE
8
BLACK
6
CONTINUOUS
10
3.20241
20
0.155709
11
3.20258
21
0.15577
0
LINE
8
BLACK
6
CONTINUOUS
10
3.20258
20
0.15577
11
3.21758
21
0.15577
0
LINE
8
BLACK
6
CONTINUOUS
10
3.21758
20
0.15577
11
3.21859
21
0.155591
0
LINE
8
BLACK
6
CONTINUOUS
10
3.21368
20
0.149864
11
3.21625
21
0.137022
0
LINE
8
BLACK
6
CONTINUOUS
10
3.21625
20
0.137022
11
3.21688
21
0.137022
0
LINE
8
BLACK
6
CONTINUOUS
10
3.21688
20
0.137022
11
3.21912
21
0.138145
0
LINE
8
BLACK
6
CONTINUOUS
10
3.21912
20
0.138145
11
3.22025
21
0.140391
0
LINE
8
BLACK
6
CONTINUOUS
10
3.22025
20
0.140391
11
3.22025
21
0.146495
0
LINE
8
BLACK
6
CONTINUOUS
10
3.22025
20
0.146495
11
3.21912
21
0.148741
0
LINE
8
BLACK
6
CONTINUOUS
10
3.21912
20
0.148741
11
3.21688
21
0.149864
0
LINE
8
BLACK
6
CONTINUOUS
10
3.21688
20
0.149864
11
3.21368
21
0.149864
0
LINE
8
BLACK
6
CONTINUOUS
10
3.21671
20
0.191212
11
3.21685
21
0.191099
0
LINE
8
BLACK
6
CONTINUOUS
10
3.21685
20
0.191099
11
3.21702
21
0.191078
0
LINE
8
BLACK
6
CONTINUOUS
10
3.21702
20
0.191078
11
3.22077
21
0.189204
0
LINE
8
BLACK
6
CONTINUOUS
10
3.22077
20
0.189204
11
3.22148
21
0.188678
0
LINE
8
BLACK
6
CONTINUOUS
10
3.22148
20
0.188678
11
3.22154
21
0.188651
0
LINE
8
BLACK
6
CONTINUOUS
10
3.22154
20
0.188651
11
3.22341
21
0.186776
0
LINE
8
BLACK
6
CONTINUOUS
10
3.22341
20
0.186776
11
3.22392
21
0.186053
0
LINE
8
BLACK
6
CONTINUOUS
10
3.22392
20
0.186053
11
3.22397
21
0.186008
0
LINE
8
BLACK
6
CONTINUOUS
10
3.22397
20
0.186008
11
3.22584
21
0.182259
0
LINE
8
BLACK
6
CONTINUOUS
10
3.22584
20
0.182259
11
3.22613
21
0.181276
0
LINE
8
BLACK
6
CONTINUOUS
10
3.22613
20
0.181276
11
3.22609
21
0.181104
0
LINE
8
BLACK
6
CONTINUOUS
10
3.22609
20
0.181104
11
3.22615
21
0.180938
0
LINE
8
BLACK
6
CONTINUOUS
10
3.22615
20
0.180938
11
3.22615
21
0.173439
0
LINE
8
BLACK
6
CONTINUOUS
10
3.22615
20
0.173439
11
3.22597
21
0.172429
0
LINE
8
BLACK
6
CONTINUOUS
10
3.22597
20
0.172429
11
3.22586
21
0.172294
0
LINE
8
BLACK
6
CONTINUOUS
10
3.22586
20
0.172294
11
3.22584
21
0.172119
0
LINE
8
BLACK
6
CONTINUOUS
10
3.22584
20
0.172119
11
3.22548
21
0.171398
0
LINE
8
BLACK
6
CONTINUOUS
10
3.22548
20
0.171398
11
3.22576
21
0.171166
0
LINE
8
BLACK
6
CONTINUOUS
10
3.22576
20
0.171166
11
3.22611
21
0.169177
0
LINE
8
BLACK
6
CONTINUOUS
10
3.22611
20
0.169177
11
3.2251
21
0.167428
0
LINE
8
BLACK
6
CONTINUOUS
10
3.2251
20
0.167428
11
3.2232
21
0.166737
0
LINE
8
BLACK
6
CONTINUOUS
10
3.2232
20
0.166737
11
3.19133
21
0.166737
0
LINE
8
BLACK
6
CONTINUOUS
10
3.19133
20
0.166737
11
3.19032
21
0.166915
0
LINE
8
BLACK
6
CONTINUOUS
10
3.19032
20
0.166915
11
3.19018
21
0.167029
0
LINE
8
BLACK
6
CONTINUOUS
10
3.19018
20
0.167029
11
3.19001
21
0.167049
0
LINE
8
BLACK
6
CONTINUOUS
10
3.19001
20
0.167049
11
3.18626
21
0.168923
0
LINE
8
BLACK
6
CONTINUOUS
10
3.18626
20
0.168923
11
3.18555
21
0.169449
0
LINE
8
BLACK
6
CONTINUOUS
10
3.18555
20
0.169449
11
3.18549
21
0.169477
0
LINE
8
BLACK
6
CONTINUOUS
10
3.18549
20
0.169477
11
3.18362
21
0.171351
0
LINE
8
BLACK
6
CONTINUOUS
10
3.18362
20
0.171351
11
3.18311
21
0.172074
0
LINE
8
BLACK
6
CONTINUOUS
10
3.18311
20
0.172074
11
3.18306
21
0.172119
0
LINE
8
BLACK
6
CONTINUOUS
10
3.18306
20
0.172119
11
3.18119
21
0.175868
0
LINE
8
BLACK
6
CONTINUOUS
10
3.18119
20
0.175868
11
3.1809
21
0.176851
0
LINE
8
BLACK
6
CONTINUOUS
10
3.1809
20
0.176851
11
3.18094
21
0.177023
0
LINE
8
BLACK
6
CONTINUOUS
10
3.18094
20
0.177023
11
3.18088
21
0.177189
0
LINE
8
BLACK
6
CONTINUOUS
10
3.18088
20
0.177189
11
3.18088
21
0.182813
0
LINE
8
BLACK
6
CONTINUOUS
10
3.18088
20
0.182813
11
3.18106
21
0.183823
0
LINE
8
BLACK
6
CONTINUOUS
10
3.18106
20
0.183823
11
3.18117
21
0.183958
0
LINE
8
BLACK
6
CONTINUOUS
10
3.18117
20
0.183958
11
3.18119
21
0.184134
0
LINE
8
BLACK
6
CONTINUOUS
10
3.18119
20
0.184134
11
3.18306
21
0.187883
0
LINE
8
BLACK
6
CONTINUOUS
10
3.18306
20
0.187883
11
3.18367
21
0.188707
0
LINE
8
BLACK
6
CONTINUOUS
10
3.18367
20
0.188707
11
3.18553
21
0.18951
0
LINE
8
BLACK
6
CONTINUOUS
10
3.18553
20
0.18951
11
3.18746
21
0.188934
0
LINE
8
BLACK
6
CONTINUOUS
10
3.18746
20
0.188934
11
3.18858
21
0.187249
0
LINE
8
BLACK
6
CONTINUOUS
10
3.18858
20
0.187249
11
3.18835
21
0.185242
0
LINE
8
BLACK
6
CONTINUOUS
10
3.18835
20
0.185242
11
3.18678
21
0.182116
0
LINE
8
BLACK
6
CONTINUOUS
10
3.18678
20
0.182116
11
3.18678
21
0.177886
0
LINE
8
BLACK
6
CONTINUOUS
10
3.18678
20
0.177886
11
3.18813
21
0.175188
0
LINE
8
BLACK
6
CONTINUOUS
10
3.18813
20
0.175188
11
3.18933
21
0.173991
0
LINE
8
BLACK
6
CONTINUOUS
10
3.18933
20
0.173991
11
3.19203
21
0.172642
0
LINE
8
BLACK
6
CONTINUOUS
10
3.19203
20
0.172642
11
3.19416
21
0.172642
0
LINE
8
BLACK
6
CONTINUOUS
10
3.19416
20
0.172642
11
3.19402
21
0.173102
0
LINE
8
BLACK
6
CONTINUOUS
10
3.19402
20
0.173102
11
3.19406
21
0.173273
0
LINE
8
BLACK
6
CONTINUOUS
10
3.19406
20
0.173273
11
3.194
21
0.173439
0
LINE
8
BLACK
6
CONTINUOUS
10
3.194
20
0.173439
11
3.194
21
0.180938
0
LINE
8
BLACK
6
CONTINUOUS
10
3.194
20
0.180938
11
3.19418
21
0.181948
0
LINE
8
BLACK
6
CONTINUOUS
10
3.19418
20
0.181948
11
3.19429
21
0.182083
0
LINE
8
BLACK
6
CONTINUOUS
10
3.19429
20
0.182083
11
3.19431
21
0.182259
0
LINE
8
BLACK
6
CONTINUOUS
10
3.19431
20
0.182259
11
3.19619
21
0.186008
0
LINE
8
BLACK
6
CONTINUOUS
10
3.19619
20
0.186008
11
3.19671
21
0.186717
0
LINE
8
BLACK
6
CONTINUOUS
10
3.19671
20
0.186717
11
3.19674
21
0.186776
0
LINE
8
BLACK
6
CONTINUOUS
10
3.19674
20
0.186776
11
3.19862
21
0.188651
0
LINE
8
BLACK
6
CONTINUOUS
10
3.19862
20
0.188651
11
3.19934
21
0.189157
0
LINE
8
BLACK
6
CONTINUOUS
10
3.19934
20
0.189157
11
3.19938
21
0.189204
0
LINE
8
BLACK
6
CONTINUOUS
10
3.19938
20
0.189204
11
3.20313
21
0.191078
0
LINE
8
BLACK
6
CONTINUOUS
10
3.20313
20
0.191078
11
3.20411
21
0.191371
0
LINE
8
BLACK
6
CONTINUOUS
10
3.20411
20
0.191371
11
3.20429
21
0.19133
0
LINE
8
BLACK
6
CONTINUOUS
10
3.20429
20
0.19133
11
3.20445
21
0.19139
0
LINE
8
BLACK
6
CONTINUOUS
10
3.20445
20
0.19139
11
3.2157
21
0.19139
0
LINE
8
BLACK
6
CONTINUOUS
10
3.2157
20
0.19139
11
3.21671
21
0.191212
0
LINE
8
BLACK
6
CONTINUOUS
10
3.20515
20
0.185485
11
3.20245
21
0.184136
0
LINE
8
BLACK
6
CONTINUOUS
10
3.20245
20
0.184136
11
3.20125
21
0.182939
0
LINE
8
BLACK
6
CONTINUOUS
10
3.20125
20
0.182939
11
3.19991
21
0.180241
0
LINE
8
BLACK
6
CONTINUOUS
10
3.19991
20
0.180241
11
3.19991
21
0.174136
0
LINE
8
BLACK
6
CONTINUOUS
10
3.19991
20
0.174136
11
3.20065
21
0.172642
0
LINE
8
BLACK
6
CONTINUOUS
10
3.20065
20
0.172642
11
3.2195
21
0.172642
0
LINE
8
BLACK
6
CONTINUOUS
10
3.2195
20
0.172642
11
3.22025
21
0.174136
0
LINE
8
BLACK
6
CONTINUOUS
10
3.22025
20
0.174136
11
3.22025
21
0.180241
0
LINE
8
BLACK
6
CONTINUOUS
10
3.22025
20
0.180241
11
3.2189
21
0.182939
0
LINE
8
BLACK
6
CONTINUOUS
10
3.2189
20
0.182939
11
3.2177
21
0.184136
0
LINE
8
BLACK
6
CONTINUOUS
10
3.2177
20
0.184136
11
3.215
21
0.185485
0
LINE
8
BLACK
6
CONTINUOUS
10
3.215
20
0.185485
11
3.20515
21
0.185485
0
LINE
8
BLACK
6
CONTINUOUS
10
3.22421
20
0.224958
11
3.22576
21
0.22366
0
LINE
8
BLACK
6
CONTINUOUS
10
3.22576
20
0.22366
11
3.22611
21
0.22167
0
LINE
8
BLACK
6
CONTINUOUS
10
3.22611
20
0.22167
11
3.2251
21
0.219921
0
LINE
8
BLACK
6
CONTINUOUS
10
3.2251
20
0.219921
11
3.22486
21
0.219836
0
LINE
8
BLACK
6
CONTINUOUS
10
3.22486
20
0.219836
11
3.22584
21
0.217879
0
LINE
8
BLACK
6
CONTINUOUS
10
3.22584
20
0.217879
11
3.22613
21
0.216896
0
LINE
8
BLACK
6
CONTINUOUS
10
3.22613
20
0.216896
11
3.22609
21
0.216725
0
LINE
8
BLACK
6
CONTINUOUS
10
3.22609
20
0.216725
11
3.22615
21
0.216559
0
LINE
8
BLACK
6
CONTINUOUS
10
3.22615
20
0.216559
11
3.22615
21
0.210935
0
LINE
8
BLACK
6
CONTINUOUS
10
3.22615
20
0.210935
11
3.22597
21
0.209925
0
LINE
8
BLACK
6
CONTINUOUS
10
3.22597
20
0.209925
11
3.22586
21
0.209789
0
LINE
8
BLACK
6
CONTINUOUS
10
3.22586
20
0.209789
11
3.22584
21
0.209614
0
LINE
8
BLACK
6
CONTINUOUS
10
3.22584
20
0.209614
11
3.22397
21
0.205865
0
LINE
8
BLACK
6
CONTINUOUS
10
3.22397
20
0.205865
11
3.22336
21
0.205041
0
LINE
8
BLACK
6
CONTINUOUS
10
3.22336
20
0.205041
11
3.22295
21
0.204865
0
LINE
8
BLACK
6
CONTINUOUS
10
3.22295
20
0.204865
11
3.22265
21
0.204544
0
LINE
8
BLACK
6
CONTINUOUS
10
3.22265
20
0.204544
11
3.2189
21
0.202669
0
LINE
8
BLACK
6
CONTINUOUS
10
3.2189
20
0.202669
11
3.21791
21
0.202377
0
LINE
8
BLACK
6
CONTINUOUS
10
3.21791
20
0.202377
11
3.21774
21
0.202418
0
LINE
8
BLACK
6
CONTINUOUS
10
3.21774
20
0.202418
11
3.21758
21
0.202357
0
LINE
8
BLACK
6
CONTINUOUS
10
3.21758
20
0.202357
11
3.19695
21
0.202357
0
LINE
8
BLACK
6
CONTINUOUS
10
3.19695
20
0.202357
11
3.19594
21
0.202536
0
LINE
8
BLACK
6
CONTINUOUS
10
3.19594
20
0.202536
11
3.1944
21
0.203834
0
LINE
8
BLACK
6
CONTINUOUS
10
3.1944
20
0.203834
11
3.19405
21
0.205823
0
LINE
8
BLACK
6
CONTINUOUS
10
3.19405
20
0.205823
11
3.19506
21
0.207572
0
LINE
8
BLACK
6
CONTINUOUS
10
3.19506
20
0.207572
11
3.19695
21
0.208263
0
LINE
8
BLACK
6
CONTINUOUS
10
3.19695
20
0.208263
11
3.21688
21
0.208263
0
LINE
8
BLACK
6
CONTINUOUS
10
3.21688
20
0.208263
11
3.21912
21
0.209386
0
LINE
8
BLACK
6
CONTINUOUS
10
3.21912
20
0.209386
11
3.22025
21
0.211632
0
LINE
8
BLACK
6
CONTINUOUS
10
3.22025
20
0.211632
11
3.22025
21
0.215862
0
LINE
8
BLACK
6
CONTINUOUS
10
3.22025
20
0.215862
11
3.2189
21
0.218559
0
LINE
8
BLACK
6
CONTINUOUS
10
3.2189
20
0.218559
11
3.21823
21
0.21923
0
LINE
8
BLACK
6
CONTINUOUS
10
3.21823
20
0.21923
11
3.19695
21
0.21923
0
LINE
8
BLACK
6
CONTINUOUS
10
3.19695
20
0.21923
11
3.19594
21
0.219408
0
LINE
8
BLACK
6
CONTINUOUS
10
3.19594
20
0.219408
11
3.1944
21
0.220707
0
LINE
8
BLACK
6
CONTINUOUS
10
3.1944
20
0.220707
11
3.19405
21
0.222696
0
LINE
8
BLACK
6
CONTINUOUS
10
3.19405
20
0.222696
11
3.19506
21
0.224445
0
LINE
8
BLACK
6
CONTINUOUS
10
3.19506
20
0.224445
11
3.19695
21
0.225136
0
LINE
8
BLACK
6
CONTINUOUS
10
3.19695
20
0.225136
11
3.2232
21
0.225136
0
LINE
8
BLACK
6
CONTINUOUS
10
3.2232
20
0.225136
11
3.22421
21
0.224958
0
LINE
8
BLACK
6
CONTINUOUS
10
3.20734
20
0.262453
11
3.20747
21
0.26234
0
LINE
8
BLACK
6
CONTINUOUS
10
3.20747
20
0.26234
11
3.20765
21
0.262319
0
LINE
8
BLACK
6
CONTINUOUS
10
3.20765
20
0.262319
11
3.2114
21
0.260445
0
LINE
8
BLACK
6
CONTINUOUS
10
3.2114
20
0.260445
11
3.21222
21
0.259834
0
LINE
8
BLACK
6
CONTINUOUS
10
3.21222
20
0.259834
11
3.2124
21
0.259428
0
LINE
8
BLACK
6
CONTINUOUS
10
3.2124
20
0.259428
11
3.21272
21
0.259124
0
LINE
8
BLACK
6
CONTINUOUS
10
3.21272
20
0.259124
11
3.21459
21
0.255375
0
LINE
8
BLACK
6
CONTINUOUS
10
3.21459
20
0.255375
11
3.21488
21
0.254392
0
LINE
8
BLACK
6
CONTINUOUS
10
3.21488
20
0.254392
11
3.21484
21
0.25422
0
LINE
8
BLACK
6
CONTINUOUS
10
3.21484
20
0.25422
11
3.2149
21
0.254054
0
LINE
8
BLACK
6
CONTINUOUS
10
3.2149
20
0.254054
11
3.2149
21
0.245377
0
LINE
8
BLACK
6
CONTINUOUS
10
3.2149
20
0.245377
11
3.21565
21
0.243884
0
LINE
8
BLACK
6
CONTINUOUS
10
3.21565
20
0.243884
11
3.21688
21
0.243884
0
LINE
8
BLACK
6
CONTINUOUS
10
3.21688
20
0.243884
11
3.21912
21
0.245006
0
LINE
8
BLACK
6
CONTINUOUS
10
3.21912
20
0.245006
11
3.22025
21
0.247252
0
LINE
8
BLACK
6
CONTINUOUS
10
3.22025
20
0.247252
11
3.22025
21
0.253357
0
LINE
8
BLACK
6
CONTINUOUS
10
3.22025
20
0.253357
11
3.21868
21
0.256483
0
LINE
8
BLACK
6
CONTINUOUS
10
3.21868
20
0.256483
11
3.21839
21
0.257466
0
LINE
8
BLACK
6
CONTINUOUS
10
3.21839
20
0.257466
11
3.21886
21
0.259431
0
LINE
8
BLACK
6
CONTINUOUS
10
3.21886
20
0.259431
11
3.22048
21
0.260634
0
LINE
8
BLACK
6
CONTINUOUS
10
3.22048
20
0.260634
11
3.2225
21
0.260513
0
LINE
8
BLACK
6
CONTINUOUS
10
3.2225
20
0.260513
11
3.22397
21
0.259124
0
LINE
8
BLACK
6
CONTINUOUS
10
3.22397
20
0.259124
11
3.22584
21
0.255375
0
LINE
8
BLACK
6
CONTINUOUS
10
3.22584
20
0.255375
11
3.22613
21
0.254392
0
LINE
8
BLACK
6
CONTINUOUS
10
3.22613
20
0.254392
11
3.22609
21
0.25422
0
LINE
8
BLACK
6
CONTINUOUS
10
3.22609
20
0.25422
11
3.22615
21
0.254054
0
LINE
8
BLACK
6
CONTINUOUS
10
3.22615
20
0.254054
11
3.22615
21
0.246555
0
LINE
8
BLACK
6
CONTINUOUS
10
3.22615
20
0.246555
11
3.22597
21
0.245545
0
LINE
8
BLACK
6
CONTINUOUS
10
3.22597
20
0.245545
11
3.22586
21
0.24541
0
LINE
8
BLACK
6
CONTINUOUS
10
3.22586
20
0.24541
11
3.22584
21
0.245235
0
LINE
8
BLACK
6
CONTINUOUS
10
3.22584
20
0.245235
11
3.22397
21
0.241485
0
LINE
8
BLACK
6
CONTINUOUS
10
3.22397
20
0.241485
11
3.22336
21
0.240661
0
LINE
8
BLACK
6
CONTINUOUS
10
3.22336
20
0.240661
11
3.22295
21
0.240486
0
LINE
8
BLACK
6
CONTINUOUS
10
3.22295
20
0.240486
11
3.22265
21
0.240165
0
LINE
8
BLACK
6
CONTINUOUS
10
3.22265
20
0.240165
11
3.2189
21
0.23829
0
LINE
8
BLACK
6
CONTINUOUS
10
3.2189
20
0.23829
11
3.21791
21
0.237997
0
LINE
8
BLACK
6
CONTINUOUS
10
3.21791
20
0.237997
11
3.21774
21
0.238038
0
LINE
8
BLACK
6
CONTINUOUS
10
3.21774
20
0.238038
11
3.21758
21
0.237978
0
LINE
8
BLACK
6
CONTINUOUS
10
3.21758
20
0.237978
11
3.19695
21
0.237978
0
LINE
8
BLACK
6
CONTINUOUS
10
3.19695
20
0.237978
11
3.19594
21
0.238156
0
LINE
8
BLACK
6
CONTINUOUS
10
3.19594
20
0.238156
11
3.1944
21
0.239454
0
LINE
8
BLACK
6
CONTINUOUS
10
3.1944
20
0.239454
11
3.19405
21
0.241444
0
LINE
8
BLACK
6
CONTINUOUS
10
3.19405
20
0.241444
11
3.1947
21
0.242581
0
LINE
8
BLACK
6
CONTINUOUS
10
3.1947
20
0.242581
11
3.19431
21
0.24336
0
LINE
8
BLACK
6
CONTINUOUS
10
3.19431
20
0.24336
11
3.19402
21
0.244343
0
LINE
8
BLACK
6
CONTINUOUS
10
3.19402
20
0.244343
11
3.19406
21
0.244514
0
LINE
8
BLACK
6
CONTINUOUS
10
3.19406
20
0.244514
11
3.194
21
0.24468
0
LINE
8
BLACK
6
CONTINUOUS
10
3.194
20
0.24468
11
3.194
21
0.254054
0
LINE
8
BLACK
6
CONTINUOUS
10
3.194
20
0.254054
11
3.19418
21
0.255064
0
LINE
8
BLACK
6
CONTINUOUS
10
3.19418
20
0.255064
11
3.19429
21
0.255199
0
LINE
8
BLACK
6
CONTINUOUS
10
3.19429
20
0.255199
11
3.19431
21
0.255375
0
LINE
8
BLACK
6
CONTINUOUS
10
3.19431
20
0.255375
11
3.19619
21
0.259124
0
LINE
8
BLACK
6
CONTINUOUS
10
3.19619
20
0.259124
11
3.1968
21
0.259948
0
LINE
8
BLACK
6
CONTINUOUS
10
3.1968
20
0.259948
11
3.1972
21
0.260124
0
LINE
8
BLACK
6
CONTINUOUS
10
3.1972
20
0.260124
11
3.19751
21
0.260445
0
LINE
8
BLACK
6
CONTINUOUS
10
3.19751
20
0.260445
11
3.20126
21
0.262319
0
LINE
8
BLACK
6
CONTINUOUS
10
3.20126
20
0.262319
11
3.20224
21
0.262612
0
LINE
8
BLACK
6
CONTINUOUS
10
3.20224
20
0.262612
11
3.20241
21
0.262571
0
LINE
8
BLACK
6
CONTINUOUS
10
3.20241
20
0.262571
11
3.20258
21
0.262631
0
LINE
8
BLACK
6
CONTINUOUS
10
3.20258
20
0.262631
11
3.20633
21
0.262631
0
LINE
8
BLACK
6
CONTINUOUS
10
3.20633
20
0.262631
11
3.20734
21
0.262453
0
LINE
8
BLACK
6
CONTINUOUS
10
3.20327
20
0.256726
11
3.20103
21
0.255603
0
LINE
8
BLACK
6
CONTINUOUS
10
3.20103
20
0.255603
11
3.19991
21
0.253357
0
LINE
8
BLACK
6
CONTINUOUS
10
3.19991
20
0.253357
11
3.19991
21
0.245377
0
LINE
8
BLACK
6
CONTINUOUS
10
3.19991
20
0.245377
11
3.20065
21
0.243884
0
LINE
8
BLACK
6
CONTINUOUS
10
3.20065
20
0.243884
11
3.20915
21
0.243884
0
LINE
8
BLACK
6
CONTINUOUS
10
3.20915
20
0.243884
11
3.20902
21
0.244343
0
LINE
8
BLACK
6
CONTINUOUS
10
3.20902
20
0.244343
11
3.20906
21
0.244514
0
LINE
8
BLACK
6
CONTINUOUS
10
3.20906
20
0.244514
11
3.209
21
0.24468
0
LINE
8
BLACK
6
CONTINUOUS
10
3.209
20
0.24468
11
3.209
21
0.253357
0
LINE
8
BLACK
6
CONTINUOUS
10
3.209
20
0.253357
11
3.20788
21
0.255603
0
LINE
8
BLACK
6
CONTINUOUS
10
3.20788
20
0.255603
11
3.20563
21
0.256726
0
LINE
8
BLACK
6
CONTINUOUS
10
3.20563
20
0.256726
11
3.20327
21
0.256726
0
LINE
8
BLACK
6
CONTINUOUS
10
3.23733
20
0.281201
11
3.23888
21
0.279902
0
LINE
8
BLACK
6
CONTINUOUS
10
3.23888
20
0.279902
11
3.23923
21
0.277913
0
LINE
8
BLACK
6
CONTINUOUS
10
3.23923
20
0.277913
11
3.23822
21
0.276164
0
LINE
8
BLACK
6
CONTINUOUS
10
3.23822
20
0.276164
11
3.23632
21
0.275473
0
LINE
8
BLACK
6
CONTINUOUS
10
3.23632
20
0.275473
11
3.20327
21
0.275473
0
LINE
8
BLACK
6
CONTINUOUS
10
3.20327
20
0.275473
11
3.20103
21
0.27435
0
LINE
8
BLACK
6
CONTINUOUS
10
3.20103
20
0.27435
11
3.19959
21
0.271481
0
LINE
8
BLACK
6
CONTINUOUS
10
3.19959
20
0.271481
11
3.19898
21
0.270658
0
LINE
8
BLACK
6
CONTINUOUS
10
3.19898
20
0.270658
11
3.19713
21
0.269854
0
LINE
8
BLACK
6
CONTINUOUS
10
3.19713
20
0.269854
11
3.19519
21
0.27043
0
LINE
8
BLACK
6
CONTINUOUS
10
3.19519
20
0.27043
11
3.19408
21
0.272116
0
LINE
8
BLACK
6
CONTINUOUS
10
3.19408
20
0.272116
11
3.19431
21
0.274122
0
LINE
8
BLACK
6
CONTINUOUS
10
3.19431
20
0.274122
11
3.19619
21
0.277872
0
LINE
8
BLACK
6
CONTINUOUS
10
3.19619
20
0.277872
11
3.1968
21
0.278696
0
LINE
8
BLACK
6
CONTINUOUS
10
3.1968
20
0.278696
11
3.1972
21
0.278871
0
LINE
8
BLACK
6
CONTINUOUS
10
3.1972
20
0.278871
11
3.19751
21
0.279192
0
LINE
8
BLACK
6
CONTINUOUS
10
3.19751
20
0.279192
11
3.20126
21
0.281067
0
LINE
8
BLACK
6
CONTINUOUS
10
3.20126
20
0.281067
11
3.20224
21
0.281359
0
LINE
8
BLACK
6
CONTINUOUS
10
3.20224
20
0.281359
11
3.20241
21
0.281318
0
LINE
8
BLACK
6
CONTINUOUS
10
3.20241
20
0.281318
11
3.20258
21
0.281379
0
LINE
8
BLACK
6
CONTINUOUS
10
3.20258
20
0.281379
11
3.23632
21
0.281379
0
LINE
8
BLACK
6
CONTINUOUS
10
3.23632
20
0.281379
11
3.23733
21
0.281201
0
LINE
8
BLACK
6
CONTINUOUS
10
3.22546
20
0.308446
11
3.22615
21
0.306548
0
LINE
8
BLACK
6
CONTINUOUS
10
3.22615
20
0.306548
11
3.22615
21
0.303876
0
LINE
8
BLACK
6
CONTINUOUS
10
3.22615
20
0.303876
11
3.2307
21
0.303876
0
LINE
8
BLACK
6
CONTINUOUS
10
3.2307
20
0.303876
11
3.23171
21
0.303698
0
LINE
8
BLACK
6
CONTINUOUS
10
3.23171
20
0.303698
11
3.23184
21
0.303585
0
LINE
8
BLACK
6
CONTINUOUS
10
3.23184
20
0.303585
11
3.23202
21
0.303564
0
LINE
8
BLACK
6
CONTINUOUS
10
3.23202
20
0.303564
11
3.23577
21
0.30169
0
LINE
8
BLACK
6
CONTINUOUS
10
3.23577
20
0.30169
11
3.23659
21
0.301079
0
LINE
8
BLACK
6
CONTINUOUS
10
3.23659
20
0.301079
11
3.23677
21
0.300673
0
LINE
8
BLACK
6
CONTINUOUS
10
3.23677
20
0.300673
11
3.23709
21
0.300369
0
LINE
8
BLACK
6
CONTINUOUS
10
3.23709
20
0.300369
11
3.23896
21
0.29662
0
LINE
8
BLACK
6
CONTINUOUS
10
3.23896
20
0.29662
11
3.23926
21
0.295637
0
LINE
8
BLACK
6
CONTINUOUS
10
3.23926
20
0.295637
11
3.23922
21
0.295465
0
LINE
8
BLACK
6
CONTINUOUS
10
3.23922
20
0.295465
11
3.23928
21
0.295299
0
LINE
8
BLACK
6
CONTINUOUS
10
3.23928
20
0.295299
11
3.23928
21
0.291549
0
LINE
8
BLACK
6
CONTINUOUS
10
3.23928
20
0.291549
11
3.2391
21
0.29054
0
LINE
8
BLACK
6
CONTINUOUS
10
3.2391
20
0.29054
11
3.2378
21
0.288992
0
LINE
8
BLACK
6
CONTINUOUS
10
3.2378
20
0.288992
11
3.23581
21
0.288642
0
LINE
8
BLACK
6
CONTINUOUS
10
3.23581
20
0.288642
11
3.23406
21
0.289651
0
LINE
8
BLACK
6
CONTINUOUS
10
3.23406
20
0.289651
11
3.23337
21
0.291549
0
LINE
8
BLACK
6
CONTINUOUS
10
3.23337
20
0.291549
11
3.23337
21
0.294602
0
LINE
8
BLACK
6
CONTINUOUS
10
3.23337
20
0.294602
11
3.23225
21
0.296848
0
LINE
8
BLACK
6
CONTINUOUS
10
3.23225
20
0.296848
11
3.23
21
0.297971
0
LINE
8
BLACK
6
CONTINUOUS
10
3.23
20
0.297971
11
3.22615
21
0.297971
0
LINE
8
BLACK
6
CONTINUOUS
10
3.22615
20
0.297971
11
3.22615
21
0.291549
0
LINE
8
BLACK
6
CONTINUOUS
10
3.22615
20
0.291549
11
3.22597
21
0.29054
0
LINE
8
BLACK
6
CONTINUOUS
10
3.22597
20
0.29054
11
3.22468
21
0.288992
0
LINE
8
BLACK
6
CONTINUOUS
10
3.22468
20
0.288992
11
3.22269
21
0.288642
0
LINE
8
BLACK
6
CONTINUOUS
10
3.22269
20
0.288642
11
3.22094
21
0.289651
0
LINE
8
BLACK
6
CONTINUOUS
10
3.22094
20
0.289651
11
3.22025
21
0.291549
0
LINE
8
BLACK
6
CONTINUOUS
10
3.22025
20
0.291549
11
3.22025
21
0.297971
0
LINE
8
BLACK
6
CONTINUOUS
10
3.22025
20
0.297971
11
3.19695
21
0.297971
0
LINE
8
BLACK
6
CONTINUOUS
10
3.19695
20
0.297971
11
3.19594
21
0.298149
0
LINE
8
BLACK
6
CONTINUOUS
10
3.19594
20
0.298149
11
3.1944
21
0.299447
0
LINE
8
BLACK
6
CONTINUOUS
10
3.1944
20
0.299447
11
3.19405
21
0.301436
0
LINE
8
BLACK
6
CONTINUOUS
10
3.19405
20
0.301436
11
3.19506
21
0.303185
0
LINE
8
BLACK
6
CONTINUOUS
10
3.19506
20
0.303185
11
3.19695
21
0.303876
0
LINE
8
BLACK
6
CONTINUOUS
10
3.19695
20
0.303876
11
3.22025
21
0.303876
0
LINE
8
BLACK
6
CONTINUOUS
10
3.22025
20
0.303876
11
3.22025
21
0.306548
0
LINE
8
BLACK
6
CONTINUOUS
10
3.22025
20
0.306548
11
3.22043
21
0.307558
0
LINE
8
BLACK
6
CONTINUOUS
10
3.22043
20
0.307558
11
3.22172
21
0.309105
0
LINE
8
BLACK
6
CONTINUOUS
10
3.22172
20
0.309105
11
3.22371
21
0.309456
0
LINE
8
BLACK
6
CONTINUOUS
10
3.22371
20
0.309456
11
3.22546
21
0.308446
0
LINE
8
BLACK
6
CONTINUOUS
10
1.89714
20
0.693304
11
1.89783
21
0.691634
0
LINE
8
BLACK
6
CONTINUOUS
10
1.89783
20
0.691634
11
1.89783
21
0.674311
0
LINE
8
BLACK
6
CONTINUOUS
10
1.89783
20
0.674311
11
1.91516
21
0.674311
0
LINE
8
BLACK
6
CONTINUOUS
10
1.91516
20
0.674311
11
1.91683
21
0.673619
0
LINE
8
BLACK
6
CONTINUOUS
10
1.91683
20
0.673619
11
1.91752
21
0.671949
0
LINE
8
BLACK
6
CONTINUOUS
10
1.91752
20
0.671949
11
1.91683
21
0.670279
0
LINE
8
BLACK
6
CONTINUOUS
10
1.91683
20
0.670279
11
1.91516
21
0.669587
0
LINE
8
BLACK
6
CONTINUOUS
10
1.91516
20
0.669587
11
1.89783
21
0.669587
0
LINE
8
BLACK
6
CONTINUOUS
10
1.89783
20
0.669587
11
1.89783
21
0.652264
0
LINE
8
BLACK
6
CONTINUOUS
10
1.89783
20
0.652264
11
1.89714
21
0.650593
0
LINE
8
BLACK
6
CONTINUOUS
10
1.89714
20
0.650593
11
1.89547
21
0.649902
0
LINE
8
BLACK
6
CONTINUOUS
10
1.89547
20
0.649902
11
1.8938
21
0.650593
0
LINE
8
BLACK
6
CONTINUOUS
10
1.8938
20
0.650593
11
1.89311
21
0.652264
0
LINE
8
BLACK
6
CONTINUOUS
10
1.89311
20
0.652264
11
1.89311
21
0.669587
0
LINE
8
BLACK
6
CONTINUOUS
10
1.89311
20
0.669587
11
1.87579
21
0.669587
0
LINE
8
BLACK
6
CONTINUOUS
10
1.87579
20
0.669587
11
1.87412
21
0.670279
0
LINE
8
BLACK
6
CONTINUOUS
10
1.87412
20
0.670279
11
1.87343
21
0.671949
0
LINE
8
BLACK
6
CONTINUOUS
10
1.87343
20
0.671949
11
1.87412
21
0.673619
0
LINE
8
BLACK
6
CONTINUOUS
10
1.87412
20
0.673619
11
1.87579
21
0.674311
0
LINE
8
BLACK
6
CONTINUOUS
10
1.87579
20
0.674311
11
1.89311
21
0.674311
0
LINE
8
BLACK
6
CONTINUOUS
10
1.89311
20
0.674311
11
1.89311
21
0.691634
0
LINE
8
BLACK
6
CONTINUOUS
10
1.89311
20
0.691634
11
1.8938
21
0.693304
0
LINE
8
BLACK
6
CONTINUOUS
10
1.8938
20
0.693304
11
1.89547
21
0.693996
0
LINE
8
BLACK
6
CONTINUOUS
10
1.89547
20
0.693996
11
1.89714
21
0.693304
0
LINE
8
BLACK
6
CONTINUOUS
10
3.0069
20
6.53614
11
3.00748
21
6.53474
0
LINE
8
BLACK
6
CONTINUOUS
10
3.00748
20
6.53474
11
3.0069
21
6.53335
0
LINE
8
BLACK
6
CONTINUOUS
10
3.0069
20
6.53335
11
3.00551
21
6.53278
0
LINE
8
BLACK
6
CONTINUOUS
10
3.00551
20
6.53278
11
-6.26949
21
6.53278
0
LINE
8
BLACK
6
CONTINUOUS
10
-6.26949
20
6.53278
11
-6.27088
21
6.53335
0
LINE
8
BLACK
6
CONTINUOUS
10
-6.27088
20
6.53335
11
-6.27146
21
6.53474
0
LINE
8
BLACK
6
CONTINUOUS
10
-6.27146
20
6.53474
11
-6.27088
21
6.53614
0
LINE
8
BLACK
6
CONTINUOUS
10
-6.27088
20
6.53614
11
-6.26949
21
6.53671
0
LINE
8
BLACK
6
CONTINUOUS
10
-6.26949
20
6.53671
11
3.00551
21
6.53671
0
LINE
8
BLACK
6
CONTINUOUS
10
3.00551
20
6.53671
11
3.0069
21
6.53614
  0
ENDSEC
  0
EOF
