  0
SECTION
  2
HEADER
  9
$ANGBASE
  50
0.0
  9
$ANGDIR
  70
1
  9
$MEASUREMENT
  70
0
  0
ENDSEC
  0
SECTION
  2
TABLES
  0
TABLE
  2
LTYPE
  70
4
  0
LTYPE
  5
40F
  2
CONTINUOUS
  70
0
  3
Solid line
  72
65
  73
0
  40
0.0
  0
LTYPE
  5
410
  2
DASHDOT
 70
0
  3
Dash Dot ____ _ ____ _
 72
65
 73
4
 40
2.0
 49
1.25
 49
-0.25
 49
0.25
 49
-0.25
  0
LTYPE
  5
411
  2
DASHED
 70
0
  3
Dashed __ __ __ __ __
 72
65
 73
2
 40
0.75
 49
0.5
 49
-0.25
  0
LTYPE
  5
43B
  2
DOTTED
 70
0
  3
Dotted .  .  .  .
 72
65
 73
2
 40
0.2
 49
0.0
 49
-0.2
  0
ENDTAB
  0
TABLE
  2
STYLE
  70
4
  0
STYLE
  2
KICAD
  70
0
  40
0
  41
1
  42
1
  50
0
  71
0
  3
isocp.shx
  0
STYLE
  2
KICADB
  70
0
  40
0
  41
1
  42
1
  50
0
  71
0
  3
isocp.shx
  0
STYLE
  2
KICADI
  70
0
  40
0
  41
1
  42
1
  50
15
  71
0
  3
isocp.shx
  0
STYLE
  2
KICADBI
  70
0
  40
0
  41
1
  42
1
  50
15
  71
0
  3
isocp.shx
  0
ENDTAB
  0
TABLE
  2
LAYER
  70
1
  0
LAYER
  2
BLACK
  70
0
  62
7
  6
CONTINUOUS
  0
ENDTAB
  0
ENDSEC
  0
SECTION
  2
ENTITIES
0
LINE
8
BLACK
6
CONTINUOUS
10
-6.49588
20
-1.26665
11
-6.49646
21
-1.26526
0
LINE
8
BLACK
6
CONTINUOUS
10
-6.49646
20
-1.26526
11
-6.49588
21
-1.26386
0
LINE
8
BLACK
6
CONTINUOUS
10
-6.49588
20
-1.26386
11
-6.49449
21
-1.26329
0
LINE
8
BLACK
6
CONTINUOUS
10
-6.49449
20
-1.26329
11
3.22854
21
-1.26329
0
LINE
8
BLACK
6
CONTINUOUS
10
3.22854
20
-1.26329
11
3.22854
21
6.60974
0
LINE
8
BLACK
6
CONTINUOUS
10
3.22854
20
6.60974
11
3.22912
21
6.61114
0
LINE
8
BLACK
6
CONTINUOUS
10
3.22912
20
6.61114
11
3.23051
21
6.61171
0
LINE
8
BLACK
6
CONTINUOUS
10
3.23051
20
6.61171
11
3.2319
21
6.61114
0
LINE
8
BLACK
6
CONTINUOUS
10
3.2319
20
6.61114
11
3.23248
21
6.60974
0
LINE
8
BLACK
6
CONTINUOUS
10
3.23248
20
6.60974
11
3.23248
21
-1.26526
0
LINE
8
BLACK
6
CONTINUOUS
10
3.23248
20
-1.26526
11
3.2319
21
-1.26665
0
LINE
8
BLACK
6
CONTINUOUS
10
3.2319
20
-1.26665
11
3.23051
21
-1.26722
0
LINE
8
BLACK
6
CONTINUOUS
10
3.23051
20
-1.26722
11
-6.49449
21
-1.26722
0
LINE
8
BLACK
6
CONTINUOUS
10
-6.49449
20
-1.26722
11
-6.49588
21
-1.26665
0
LINE
8
BLACK
6
CONTINUOUS
10
2.23051
20
-1.21722
11
2.22451
21
-1.21655
0
LINE
8
BLACK
6
CONTINUOUS
10
2.22451
20
-1.21655
11
2.21881
21
-1.21455
0
LINE
8
BLACK
6
CONTINUOUS
10
2.21881
20
-1.21455
11
2.2137
21
-1.21134
0
LINE
8
BLACK
6
CONTINUOUS
10
2.2137
20
-1.21134
11
2.20943
21
-1.20707
0
LINE
8
BLACK
6
CONTINUOUS
10
2.20943
20
-1.20707
11
2.20621
21
-1.20196
0
LINE
8
BLACK
6
CONTINUOUS
10
2.20621
20
-1.20196
11
2.20422
21
-1.19626
0
LINE
8
BLACK
6
CONTINUOUS
10
2.20422
20
-1.19626
11
2.20354
21
-1.19026
0
LINE
8
BLACK
6
CONTINUOUS
10
2.20354
20
-1.19026
11
2.20354
21
-1.19026
0
LINE
8
BLACK
6
CONTINUOUS
10
2.20354
20
-1.19026
11
2.20354
21
-1.19026
0
LINE
8
BLACK
6
CONTINUOUS
10
2.20354
20
-1.19026
11
2.20354
21
-1.19026
0
LINE
8
BLACK
6
CONTINUOUS
10
2.20354
20
-1.19026
11
2.20422
21
-1.18425
0
LINE
8
BLACK
6
CONTINUOUS
10
2.20422
20
-1.18425
11
2.20621
21
-1.17855
0
LINE
8
BLACK
6
CONTINUOUS
10
2.20621
20
-1.17855
11
2.20943
21
-1.17344
0
LINE
8
BLACK
6
CONTINUOUS
10
2.20943
20
-1.17344
11
2.2137
21
-1.16917
0
LINE
8
BLACK
6
CONTINUOUS
10
2.2137
20
-1.16917
11
2.21881
21
-1.16596
0
LINE
8
BLACK
6
CONTINUOUS
10
2.21881
20
-1.16596
11
2.22451
21
-1.16396
0
LINE
8
BLACK
6
CONTINUOUS
10
2.22451
20
-1.16396
11
2.23051
21
-1.16329
0
LINE
8
BLACK
6
CONTINUOUS
10
2.23051
20
-1.16329
11
2.38051
21
-1.16329
0
LINE
8
BLACK
6
CONTINUOUS
10
2.38051
20
-1.16329
11
2.38651
21
-1.16396
0
LINE
8
BLACK
6
CONTINUOUS
10
2.38651
20
-1.16396
11
2.39221
21
-1.16596
0
LINE
8
BLACK
6
CONTINUOUS
10
2.39221
20
-1.16596
11
2.39733
21
-1.16917
0
LINE
8
BLACK
6
CONTINUOUS
10
2.39733
20
-1.16917
11
2.4016
21
-1.17344
0
LINE
8
BLACK
6
CONTINUOUS
10
2.4016
20
-1.17344
11
2.40481
21
-1.17855
0
LINE
8
BLACK
6
CONTINUOUS
10
2.40481
20
-1.17855
11
2.4068
21
-1.18425
0
LINE
8
BLACK
6
CONTINUOUS
10
2.4068
20
-1.18425
11
2.40748
21
-1.19026
0
LINE
8
BLACK
6
CONTINUOUS
10
2.40748
20
-1.19026
11
2.40748
21
-1.19026
0
LINE
8
BLACK
6
CONTINUOUS
10
2.40748
20
-1.19026
11
2.4068
21
-1.19626
0
LINE
8
BLACK
6
CONTINUOUS
10
2.4068
20
-1.19626
11
2.40481
21
-1.20196
0
LINE
8
BLACK
6
CONTINUOUS
10
2.40481
20
-1.20196
11
2.4016
21
-1.20707
0
LINE
8
BLACK
6
CONTINUOUS
10
2.4016
20
-1.20707
11
2.39733
21
-1.21134
0
LINE
8
BLACK
6
CONTINUOUS
10
2.39733
20
-1.21134
11
2.39221
21
-1.21455
0
LINE
8
BLACK
6
CONTINUOUS
10
2.39221
20
-1.21455
11
2.38651
21
-1.21655
0
LINE
8
BLACK
6
CONTINUOUS
10
2.38651
20
-1.21655
11
2.38051
21
-1.21722
0
LINE
8
BLACK
6
CONTINUOUS
10
2.38051
20
-1.21722
11
2.38051
21
-1.21722
0
LINE
8
BLACK
6
CONTINUOUS
10
2.38051
20
-1.21722
11
2.38051
21
-1.21722
0
LINE
8
BLACK
6
CONTINUOUS
10
2.38051
20
-1.21722
11
2.38051
21
-1.21722
0
LINE
8
BLACK
6
CONTINUOUS
10
2.38051
20
-1.21722
11
2.23051
21
-1.21722
0
LINE
8
BLACK
6
CONTINUOUS
10
2.23051
20
-1.21722
11
2.23051
21
-1.21722
0
LINE
8
BLACK
6
CONTINUOUS
10
2.23051
20
-1.21722
11
2.23051
21
-1.21722
0
LINE
8
BLACK
6
CONTINUOUS
10
2.23024
20
-1.16711
11
2.22535
21
-1.16766
0
LINE
8
BLACK
6
CONTINUOUS
10
2.22535
20
-1.16766
11
2.22046
21
-1.16937
0
LINE
8
BLACK
6
CONTINUOUS
10
2.22046
20
-1.16937
11
2.21606
21
-1.17214
0
LINE
8
BLACK
6
CONTINUOUS
10
2.21606
20
-1.17214
11
2.21239
21
-1.17581
0
LINE
8
BLACK
6
CONTINUOUS
10
2.21239
20
-1.17581
11
2.20963
21
-1.1802
0
LINE
8
BLACK
6
CONTINUOUS
10
2.20963
20
-1.1802
11
2.20792
21
-1.1851
0
LINE
8
BLACK
6
CONTINUOUS
10
2.20792
20
-1.1851
11
2.20737
21
-1.18998
0
LINE
8
BLACK
6
CONTINUOUS
10
2.20737
20
-1.18998
11
2.20748
21
-1.19026
0
LINE
8
BLACK
6
CONTINUOUS
10
2.20748
20
-1.19026
11
2.20748
21
-1.19026
0
LINE
8
BLACK
6
CONTINUOUS
10
2.20748
20
-1.19026
11
2.20748
21
-1.19026
0
LINE
8
BLACK
6
CONTINUOUS
10
2.20748
20
-1.19026
11
2.20737
21
-1.19053
0
LINE
8
BLACK
6
CONTINUOUS
10
2.20737
20
-1.19053
11
2.20792
21
-1.19541
0
LINE
8
BLACK
6
CONTINUOUS
10
2.20792
20
-1.19541
11
2.20963
21
-1.20031
0
LINE
8
BLACK
6
CONTINUOUS
10
2.20963
20
-1.20031
11
2.21239
21
-1.20471
0
LINE
8
BLACK
6
CONTINUOUS
10
2.21239
20
-1.20471
11
2.21606
21
-1.20838
0
LINE
8
BLACK
6
CONTINUOUS
10
2.21606
20
-1.20838
11
2.22045
21
-1.21114
0
LINE
8
BLACK
6
CONTINUOUS
10
2.22045
20
-1.21114
11
2.22535
21
-1.21285
0
LINE
8
BLACK
6
CONTINUOUS
10
2.22535
20
-1.21285
11
2.23023
21
-1.2134
0
LINE
8
BLACK
6
CONTINUOUS
10
2.23023
20
-1.2134
11
2.23051
21
-1.21329
0
LINE
8
BLACK
6
CONTINUOUS
10
2.23051
20
-1.21329
11
2.23051
21
-1.21329
0
LINE
8
BLACK
6
CONTINUOUS
10
2.23051
20
-1.21329
11
2.23051
21
-1.21329
0
LINE
8
BLACK
6
CONTINUOUS
10
2.23051
20
-1.21329
11
2.38051
21
-1.21329
0
LINE
8
BLACK
6
CONTINUOUS
10
2.38051
20
-1.21329
11
2.38051
21
-1.21329
0
LINE
8
BLACK
6
CONTINUOUS
10
2.38051
20
-1.21329
11
2.38051
21
-1.21329
0
LINE
8
BLACK
6
CONTINUOUS
10
2.38051
20
-1.21329
11
2.38079
21
-1.2134
0
LINE
8
BLACK
6
CONTINUOUS
10
2.38079
20
-1.2134
11
2.38567
21
-1.21285
0
LINE
8
BLACK
6
CONTINUOUS
10
2.38567
20
-1.21285
11
2.39057
21
-1.21114
0
LINE
8
BLACK
6
CONTINUOUS
10
2.39057
20
-1.21114
11
2.39496
21
-1.20838
0
LINE
8
BLACK
6
CONTINUOUS
10
2.39496
20
-1.20838
11
2.39863
21
-1.20471
0
LINE
8
BLACK
6
CONTINUOUS
10
2.39863
20
-1.20471
11
2.40139
21
-1.20031
0
LINE
8
BLACK
6
CONTINUOUS
10
2.40139
20
-1.20031
11
2.40311
21
-1.19541
0
LINE
8
BLACK
6
CONTINUOUS
10
2.40311
20
-1.19541
11
2.40366
21
-1.19053
0
LINE
8
BLACK
6
CONTINUOUS
10
2.40366
20
-1.19053
11
2.40354
21
-1.19026
0
LINE
8
BLACK
6
CONTINUOUS
10
2.40354
20
-1.19026
11
2.40366
21
-1.18998
0
LINE
8
BLACK
6
CONTINUOUS
10
2.40366
20
-1.18998
11
2.40311
21
-1.1851
0
LINE
8
BLACK
6
CONTINUOUS
10
2.40311
20
-1.1851
11
2.40139
21
-1.1802
0
LINE
8
BLACK
6
CONTINUOUS
10
2.40139
20
-1.1802
11
2.39863
21
-1.17581
0
LINE
8
BLACK
6
CONTINUOUS
10
2.39863
20
-1.17581
11
2.39496
21
-1.17214
0
LINE
8
BLACK
6
CONTINUOUS
10
2.39496
20
-1.17214
11
2.39057
21
-1.16937
0
LINE
8
BLACK
6
CONTINUOUS
10
2.39057
20
-1.16937
11
2.38567
21
-1.16766
0
LINE
8
BLACK
6
CONTINUOUS
10
2.38567
20
-1.16766
11
2.38079
21
-1.16711
0
LINE
8
BLACK
6
CONTINUOUS
10
2.38079
20
-1.16711
11
2.38051
21
-1.16722
0
LINE
8
BLACK
6
CONTINUOUS
10
2.38051
20
-1.16722
11
2.23051
21
-1.16722
0
LINE
8
BLACK
6
CONTINUOUS
10
2.23051
20
-1.16722
11
2.23024
21
-1.16711
0
LINE
8
BLACK
6
CONTINUOUS
10
2.58051
20
-1.21722
11
2.57451
21
-1.21655
0
LINE
8
BLACK
6
CONTINUOUS
10
2.57451
20
-1.21655
11
2.56881
21
-1.21455
0
LINE
8
BLACK
6
CONTINUOUS
10
2.56881
20
-1.21455
11
2.5637
21
-1.21134
0
LINE
8
BLACK
6
CONTINUOUS
10
2.5637
20
-1.21134
11
2.55943
21
-1.20707
0
LINE
8
BLACK
6
CONTINUOUS
10
2.55943
20
-1.20707
11
2.55621
21
-1.20196
0
LINE
8
BLACK
6
CONTINUOUS
10
2.55621
20
-1.20196
11
2.55422
21
-1.19626
0
LINE
8
BLACK
6
CONTINUOUS
10
2.55422
20
-1.19626
11
2.55354
21
-1.19026
0
LINE
8
BLACK
6
CONTINUOUS
10
2.55354
20
-1.19026
11
2.55354
21
-1.19026
0
LINE
8
BLACK
6
CONTINUOUS
10
2.55354
20
-1.19026
11
2.55354
21
-1.19026
0
LINE
8
BLACK
6
CONTINUOUS
10
2.55354
20
-1.19026
11
2.55354
21
-1.19026
0
LINE
8
BLACK
6
CONTINUOUS
10
2.55354
20
-1.19026
11
2.55422
21
-1.18425
0
LINE
8
BLACK
6
CONTINUOUS
10
2.55422
20
-1.18425
11
2.55621
21
-1.17855
0
LINE
8
BLACK
6
CONTINUOUS
10
2.55621
20
-1.17855
11
2.55943
21
-1.17344
0
LINE
8
BLACK
6
CONTINUOUS
10
2.55943
20
-1.17344
11
2.5637
21
-1.16917
0
LINE
8
BLACK
6
CONTINUOUS
10
2.5637
20
-1.16917
11
2.56881
21
-1.16596
0
LINE
8
BLACK
6
CONTINUOUS
10
2.56881
20
-1.16596
11
2.57451
21
-1.16396
0
LINE
8
BLACK
6
CONTINUOUS
10
2.57451
20
-1.16396
11
2.58051
21
-1.16329
0
LINE
8
BLACK
6
CONTINUOUS
10
2.58051
20
-1.16329
11
2.73051
21
-1.16329
0
LINE
8
BLACK
6
CONTINUOUS
10
2.73051
20
-1.16329
11
2.73651
21
-1.16396
0
LINE
8
BLACK
6
CONTINUOUS
10
2.73651
20
-1.16396
11
2.74221
21
-1.16596
0
LINE
8
BLACK
6
CONTINUOUS
10
2.74221
20
-1.16596
11
2.74733
21
-1.16917
0
LINE
8
BLACK
6
CONTINUOUS
10
2.74733
20
-1.16917
11
2.7516
21
-1.17344
0
LINE
8
BLACK
6
CONTINUOUS
10
2.7516
20
-1.17344
11
2.75481
21
-1.17855
0
LINE
8
BLACK
6
CONTINUOUS
10
2.75481
20
-1.17855
11
2.7568
21
-1.18425
0
LINE
8
BLACK
6
CONTINUOUS
10
2.7568
20
-1.18425
11
2.75748
21
-1.19026
0
LINE
8
BLACK
6
CONTINUOUS
10
2.75748
20
-1.19026
11
2.75748
21
-1.19026
0
LINE
8
BLACK
6
CONTINUOUS
10
2.75748
20
-1.19026
11
2.7568
21
-1.19626
0
LINE
8
BLACK
6
CONTINUOUS
10
2.7568
20
-1.19626
11
2.75481
21
-1.20196
0
LINE
8
BLACK
6
CONTINUOUS
10
2.75481
20
-1.20196
11
2.7516
21
-1.20707
0
LINE
8
BLACK
6
CONTINUOUS
10
2.7516
20
-1.20707
11
2.74733
21
-1.21134
0
LINE
8
BLACK
6
CONTINUOUS
10
2.74733
20
-1.21134
11
2.74221
21
-1.21455
0
LINE
8
BLACK
6
CONTINUOUS
10
2.74221
20
-1.21455
11
2.73651
21
-1.21655
0
LINE
8
BLACK
6
CONTINUOUS
10
2.73651
20
-1.21655
11
2.73051
21
-1.21722
0
LINE
8
BLACK
6
CONTINUOUS
10
2.73051
20
-1.21722
11
2.73051
21
-1.21722
0
LINE
8
BLACK
6
CONTINUOUS
10
2.73051
20
-1.21722
11
2.73051
21
-1.21722
0
LINE
8
BLACK
6
CONTINUOUS
10
2.73051
20
-1.21722
11
2.73051
21
-1.21722
0
LINE
8
BLACK
6
CONTINUOUS
10
2.73051
20
-1.21722
11
2.58051
21
-1.21722
0
LINE
8
BLACK
6
CONTINUOUS
10
2.58051
20
-1.21722
11
2.58051
21
-1.21722
0
LINE
8
BLACK
6
CONTINUOUS
10
2.58051
20
-1.21722
11
2.58051
21
-1.21722
0
LINE
8
BLACK
6
CONTINUOUS
10
2.58024
20
-1.16711
11
2.57535
21
-1.16766
0
LINE
8
BLACK
6
CONTINUOUS
10
2.57535
20
-1.16766
11
2.57046
21
-1.16937
0
LINE
8
BLACK
6
CONTINUOUS
10
2.57046
20
-1.16937
11
2.56606
21
-1.17214
0
LINE
8
BLACK
6
CONTINUOUS
10
2.56606
20
-1.17214
11
2.56239
21
-1.17581
0
LINE
8
BLACK
6
CONTINUOUS
10
2.56239
20
-1.17581
11
2.55963
21
-1.1802
0
LINE
8
BLACK
6
CONTINUOUS
10
2.55963
20
-1.1802
11
2.55792
21
-1.1851
0
LINE
8
BLACK
6
CONTINUOUS
10
2.55792
20
-1.1851
11
2.55737
21
-1.18998
0
LINE
8
BLACK
6
CONTINUOUS
10
2.55737
20
-1.18998
11
2.55748
21
-1.19026
0
LINE
8
BLACK
6
CONTINUOUS
10
2.55748
20
-1.19026
11
2.55748
21
-1.19026
0
LINE
8
BLACK
6
CONTINUOUS
10
2.55748
20
-1.19026
11
2.55748
21
-1.19026
0
LINE
8
BLACK
6
CONTINUOUS
10
2.55748
20
-1.19026
11
2.55737
21
-1.19053
0
LINE
8
BLACK
6
CONTINUOUS
10
2.55737
20
-1.19053
11
2.55792
21
-1.19541
0
LINE
8
BLACK
6
CONTINUOUS
10
2.55792
20
-1.19541
11
2.55963
21
-1.20031
0
LINE
8
BLACK
6
CONTINUOUS
10
2.55963
20
-1.20031
11
2.56239
21
-1.20471
0
LINE
8
BLACK
6
CONTINUOUS
10
2.56239
20
-1.20471
11
2.56606
21
-1.20838
0
LINE
8
BLACK
6
CONTINUOUS
10
2.56606
20
-1.20838
11
2.57045
21
-1.21114
0
LINE
8
BLACK
6
CONTINUOUS
10
2.57045
20
-1.21114
11
2.57535
21
-1.21285
0
LINE
8
BLACK
6
CONTINUOUS
10
2.57535
20
-1.21285
11
2.58024
21
-1.2134
0
LINE
8
BLACK
6
CONTINUOUS
10
2.58024
20
-1.2134
11
2.58051
21
-1.21329
0
LINE
8
BLACK
6
CONTINUOUS
10
2.58051
20
-1.21329
11
2.58051
21
-1.21329
0
LINE
8
BLACK
6
CONTINUOUS
10
2.58051
20
-1.21329
11
2.58051
21
-1.21329
0
LINE
8
BLACK
6
CONTINUOUS
10
2.58051
20
-1.21329
11
2.73051
21
-1.21329
0
LINE
8
BLACK
6
CONTINUOUS
10
2.73051
20
-1.21329
11
2.73051
21
-1.21329
0
LINE
8
BLACK
6
CONTINUOUS
10
2.73051
20
-1.21329
11
2.73051
21
-1.21329
0
LINE
8
BLACK
6
CONTINUOUS
10
2.73051
20
-1.21329
11
2.73079
21
-1.2134
0
LINE
8
BLACK
6
CONTINUOUS
10
2.73079
20
-1.2134
11
2.73567
21
-1.21285
0
LINE
8
BLACK
6
CONTINUOUS
10
2.73567
20
-1.21285
11
2.74057
21
-1.21114
0
LINE
8
BLACK
6
CONTINUOUS
10
2.74057
20
-1.21114
11
2.74496
21
-1.20838
0
LINE
8
BLACK
6
CONTINUOUS
10
2.74496
20
-1.20838
11
2.74863
21
-1.20471
0
LINE
8
BLACK
6
CONTINUOUS
10
2.74863
20
-1.20471
11
2.75139
21
-1.20031
0
LINE
8
BLACK
6
CONTINUOUS
10
2.75139
20
-1.20031
11
2.75311
21
-1.19541
0
LINE
8
BLACK
6
CONTINUOUS
10
2.75311
20
-1.19541
11
2.75366
21
-1.19053
0
LINE
8
BLACK
6
CONTINUOUS
10
2.75366
20
-1.19053
11
2.75354
21
-1.19026
0
LINE
8
BLACK
6
CONTINUOUS
10
2.75354
20
-1.19026
11
2.75366
21
-1.18998
0
LINE
8
BLACK
6
CONTINUOUS
10
2.75366
20
-1.18998
11
2.75311
21
-1.1851
0
LINE
8
BLACK
6
CONTINUOUS
10
2.75311
20
-1.1851
11
2.75139
21
-1.1802
0
LINE
8
BLACK
6
CONTINUOUS
10
2.75139
20
-1.1802
11
2.74863
21
-1.17581
0
LINE
8
BLACK
6
CONTINUOUS
10
2.74863
20
-1.17581
11
2.74496
21
-1.17214
0
LINE
8
BLACK
6
CONTINUOUS
10
2.74496
20
-1.17214
11
2.74057
21
-1.16937
0
LINE
8
BLACK
6
CONTINUOUS
10
2.74057
20
-1.16937
11
2.73567
21
-1.16766
0
LINE
8
BLACK
6
CONTINUOUS
10
2.73567
20
-1.16766
11
2.73079
21
-1.16711
0
LINE
8
BLACK
6
CONTINUOUS
10
2.73079
20
-1.16711
11
2.73051
21
-1.16722
0
LINE
8
BLACK
6
CONTINUOUS
10
2.73051
20
-1.16722
11
2.58051
21
-1.16722
0
LINE
8
BLACK
6
CONTINUOUS
10
2.58051
20
-1.16722
11
2.58024
21
-1.16711
  0
ENDSEC
  0
EOF
