  0
SECTION
  2
HEADER
  9
$ANGBASE
  50
0.0
  9
$ANGDIR
  70
1
  9
$MEASUREMENT
  70
1
  0
ENDSEC
  0
SECTION
  2
TABLES
  0
TABLE
  2
LTYPE
  70
4
  0
LTYPE
  5
40F
  2
CONTINUOUS
  70
0
  3
Solid line
  72
65
  73
0
  40
0.0
  0
LTYPE
  5
410
  2
DASHDOT
 70
0
  3
Dash Dot ____ _ ____ _
 72
65
 73
4
 40
2.0
 49
1.25
 49
-0.25
 49
0.25
 49
-0.25
  0
LTYPE
  5
411
  2
DASHED
 70
0
  3
Dashed __ __ __ __ __
 72
65
 73
2
 40
0.75
 49
0.5
 49
-0.25
  0
LTYPE
  5
43B
  2
DOTTED
 70
0
  3
Dotted .  .  .  .
 72
65
 73
2
 40
0.2
 49
0.0
 49
-0.2
  0
ENDTAB
  0
TABLE
  2
STYLE
  70
4
  0
STYLE
  2
KICAD
  70
0
  40
0
  41
1
  42
1
  50
0
  71
0
  3
isocp.shx
  0
STYLE
  2
KICADB
  70
0
  40
0
  41
1
  42
1
  50
0
  71
0
  3
isocp.shx
  0
STYLE
  2
KICADI
  70
0
  40
0
  41
1
  42
1
  50
15
  71
0
  3
isocp.shx
  0
STYLE
  2
KICADBI
  70
0
  40
0
  41
1
  42
1
  50
15
  71
0
  3
isocp.shx
  0
ENDTAB
  0
TABLE
  2
LAYER
  70
1
  0
LAYER
  2
BLACK
  70
0
  62
7
  6
CONTINUOUS
  0
ENDTAB
  0
ENDSEC
  0
SECTION
  2
ENTITIES
0
ARC
8
BLACK
10
55.88
20
-22.225
40
0.635005
50
-89.9995
51
0.000451144
0
LINE
8
BLACK
6
CONTINUOUS
10
127.635
20
-217.805
11
131.445
21
-217.805
0
ARC
8
BLACK
10
250.19
20
-22.225
40
0.635
50
90
51
180
0
LINE
8
BLACK
6
CONTINUOUS
10
73.66
20
-36.83
11
103.505
21
-36.83
0
LINE
8
BLACK
6
CONTINUOUS
10
241.3
20
-217.805
11
245.11
21
-217.805
0
LINE
8
BLACK
6
CONTINUOUS
10
64.77
20
-22.86
11
60.96
21
-22.86
0
ARC
8
BLACK
10
245.11
20
-218.44
40
0.635
50
-0
51
90
0
LINE
8
BLACK
6
CONTINUOUS
10
73.66
20
-85.09
11
103.505
21
-85.09
0
LINE
8
BLACK
6
CONTINUOUS
10
254
20
-219.075
11
250.19
21
-219.075
0
LINE
8
BLACK
6
CONTINUOUS
10
52.07
20
-217.805
11
55.88
21
-217.805
0
LINE
8
BLACK
6
CONTINUOUS
10
19.685
20
-29.21
11
20.955
21
-29.21
0
LINE
8
BLACK
6
CONTINUOUS
10
250.19
20
-217.805
11
254
21
-217.805
0
ARC
8
BLACK
10
127.635
20
-218.44
40
0.635
50
90
51
180
0
ARC
8
BLACK
10
60.9599
20
-22.2251
40
0.6349
50
-180.009
51
-89.991
0
ARC
8
BLACK
10
118.745
20
-218.44
40
0.6349
50
-180.009
51
-89.991
0
ARC
8
BLACK
10
52.0699
20
-22.2251
40
0.6349
50
-180.009
51
-89.991
0
ARC
8
BLACK
10
64.77
20
-218.44
40
0.635
50
-0
51
90
0
LINE
8
BLACK
6
CONTINUOUS
10
55.88
20
-22.86
11
52.07
21
-22.86
0
LINE
8
BLACK
6
CONTINUOUS
10
245.11
20
-219.075
11
241.3
21
-219.075
0
LINE
8
BLACK
6
CONTINUOUS
10
139.827
20
-32.639
11
111.633
21
-32.639
0
ARC
8
BLACK
10
245.11
20
-22.225
40
0.635
50
-0
51
90
0
LINE
8
BLACK
6
CONTINUOUS
10
250.19
20
-21.59
11
254
21
-21.59
0
LINE
8
BLACK
6
CONTINUOUS
10
19.685
20
-20.32
11
266.7
21
-20.32
0
ARC
8
BLACK
10
250.19
20
-218.44
40
0.6349
50
-180.009
51
-89.991
0
LINE
8
BLACK
6
CONTINUOUS
10
241.3
20
-21.59
11
245.11
21
-21.59
0
LINE
8
BLACK
6
CONTINUOUS
10
19.685
20
-37.465
11
20.955
21
-37.465
0
LINE
8
BLACK
6
CONTINUOUS
10
254
20
-22.86
11
250.19
21
-22.86
0
ARC
8
BLACK
10
131.445
20
-218.44
40
0.635005
50
-89.9995
51
0.000451144
0
LINE
8
BLACK
6
CONTINUOUS
10
60.96
20
-217.805
11
64.77
21
-217.805
0
ARC
8
BLACK
10
131.445
20
-218.44
40
0.635
50
-0
51
90
0
ARC
8
BLACK
10
55.88
20
-218.44
40
0.635
50
-0
51
90
0
ARC
8
BLACK
10
245.11
20
-22.225
40
0.635005
50
-89.9995
51
0.000451144
0
LINE
8
BLACK
6
CONTINUOUS
10
245.11
20
-22.86
11
241.3
21
-22.86
0
ARC
8
BLACK
10
254
20
-22.225
40
0.635005
50
-89.9995
51
0.000451144
0
ARC
8
BLACK
10
241.3
20
-218.44
40
0.635
50
90
51
180
0
ARC
8
BLACK
10
64.77
20
-218.44
40
0.635005
50
-89.9995
51
0.000451144
0
ARC
8
BLACK
10
64.77
20
-22.225
40
0.635005
50
-89.9995
51
0.000451144
0
LINE
8
BLACK
6
CONTINUOUS
10
60.96
20
-21.59
11
64.77
21
-21.59
0
ARC
8
BLACK
10
250.19
20
-218.44
40
0.635
50
90
51
180
0
LINE
8
BLACK
6
CONTINUOUS
10
20.955
20
-29.21
11
20.955
21
-37.465
0
ARC
8
BLACK
10
254
20
-218.44
40
0.635
50
-0
51
90
0
LINE
8
BLACK
6
CONTINUOUS
10
64.77
20
-219.075
11
60.96
21
-219.075
0
ARC
8
BLACK
10
52.07
20
-22.225
40
0.635
50
90
51
180
0
LINE
8
BLACK
6
CONTINUOUS
10
19.685
20
-37.465
11
19.685
21
-220.345
0
ARC
8
BLACK
10
254
20
-22.225
40
0.635
50
-0
51
90
0
ARC
8
BLACK
10
122.555
20
-218.44
40
0.635005
50
-89.9995
51
0.000451144
0
ARC
8
BLACK
10
254
20
-218.44
40
0.635005
50
-89.9995
51
0.000451144
0
ARC
8
BLACK
10
245.11
20
-218.44
40
0.635005
50
-89.9995
51
0.000451144
0
ARC
8
BLACK
10
241.3
20
-22.2251
40
0.6349
50
-180.009
51
-89.991
0
LINE
8
BLACK
6
CONTINUOUS
10
266.7
20
-20.32
11
266.7
21
-220.345
0
LINE
8
BLACK
6
CONTINUOUS
10
55.88
20
-219.075
11
52.07
21
-219.075
0
ARC
8
BLACK
10
250.19
20
-22.2251
40
0.6349
50
-180.009
51
-89.991
0
ARC
8
BLACK
10
60.96
20
-218.44
40
0.635
50
90
51
180
0
LINE
8
BLACK
6
CONTINUOUS
10
103.505
20
-85.09
11
103.505
21
-36.83
0
LINE
8
BLACK
6
CONTINUOUS
10
52.07
20
-21.59
11
55.88
21
-21.59
0
ARC
8
BLACK
10
127.635
20
-218.44
40
0.6349
50
-180.009
51
-89.991
0
ARC
8
BLACK
10
122.555
20
-218.44
40
0.635
50
-0
51
90
0
LINE
8
BLACK
6
CONTINUOUS
10
139.827
20
-89.281
11
139.827
21
-32.639
0
ARC
8
BLACK
10
241.3
20
-22.225
40
0.635
50
90
51
180
0
LINE
8
BLACK
6
CONTINUOUS
10
122.555
20
-219.075
11
118.745
21
-219.075
0
ARC
8
BLACK
10
55.88
20
-22.225
40
0.635
50
-0
51
90
0
ARC
8
BLACK
10
52.07
20
-218.44
40
0.635
50
90
51
180
0
ARC
8
BLACK
10
60.9599
20
-218.44
40
0.6349
50
-180.009
51
-89.991
0
LINE
8
BLACK
6
CONTINUOUS
10
118.745
20
-217.805
11
122.555
21
-217.805
0
LINE
8
BLACK
6
CONTINUOUS
10
266.7
20
-220.345
11
19.685
21
-220.345
0
ARC
8
BLACK
10
52.0699
20
-218.44
40
0.6349
50
-180.009
51
-89.991
0
LINE
8
BLACK
6
CONTINUOUS
10
19.685
20
-20.32
11
19.685
21
-29.21
0
LINE
8
BLACK
6
CONTINUOUS
10
73.66
20
-85.09
11
73.66
21
-36.83
0
ARC
8
BLACK
10
60.96
20
-22.225
40
0.635
50
90
51
180
0
ARC
8
BLACK
10
55.88
20
-218.44
40
0.635005
50
-89.9995
51
0.000451144
0
LINE
8
BLACK
6
CONTINUOUS
10
111.633
20
-32.639
11
111.633
21
-89.281
0
ARC
8
BLACK
10
118.745
20
-218.44
40
0.635
50
90
51
180
0
LINE
8
BLACK
6
CONTINUOUS
10
131.445
20
-219.075
11
127.635
21
-219.075
0
ARC
8
BLACK
10
64.77
20
-22.225
40
0.635
50
-0
51
90
0
ARC
8
BLACK
10
241.3
20
-218.44
40
0.6349
50
-180.009
51
-89.991
0
LINE
8
BLACK
6
CONTINUOUS
10
139.827
20
-89.281
11
111.633
21
-89.281
  0
ENDSEC
  0
EOF
